<?xml version="1.0" encoding="utf-8"?>
<!-- Generator: Adobe Illustrator 23.1.0, SVG Export Plug-In . SVG Version: 6.00 Build 0)  -->
<svg version="1.1" id="Camada_1" xmlns="http://www.w3.org/2000/svg" xmlns:xlink="http://www.w3.org/1999/xlink" x="0px" y="0px"
	 viewBox="0 0 262.2 218.8" style="enable-background:new 0 0 262.2 218.8;" xml:space="preserve">
<style type="text/css">
	.st0{fill:#FFFFFF;}
</style>
<g>
	<path class="st0" d="M130.7,37c0.2,2,0.7,4.9,1.9,8.2c1.6,4.3,3.4,6.4,5.3,9.7c1.6,2.8,3.4,7.1,4.5,13.1c1.9-1.7,4.1-3.8,6.2-6.4
		c3.4-4.2,5.6-8.2,7-11.5c0.3,0.6,7.2,15-1.6,28.2c-7.8,11.7-21.2,12.3-22.6,12.4c-1.6,0-15.7,0.2-23.6-11.5
		c-5.7-8.5-5.8-19.9-0.3-29.1c0.7,2,1.6,4.2,3,6.6c1.4,2.6,2.8,4.5,4,6.1c1.2,1.7,2.8,3.6,4.7,5.6c-0.1-2.8,0-6.1,0.7-9.6
		C121.8,48.2,127.3,40.8,130.7,37z"/>
	<path class="st0" d="M99.7,41.5C84.9,65.7,83.4,86.1,76.9,85.7c-3.5-0.2-5.6-6.3-6.8-9.5C61,50.8,84,23.7,85.7,21.8
		C98.1,7.6,110.1,5.5,113.4,5.1c3.5-0.5,7.9-1.1,9.4,1.1C126,10.8,112,21.4,99.7,41.5z"/>
	<path class="st0" d="M127.1,103.3c28.4,0.7,46.8-8.3,49.7-2.5c1.5,3.1-2.6,8-4.8,10.7c-17.4,20.6-52.3,14.3-54.8,13.8
		c-18.5-3.6-26.4-12.9-28.4-15.5c-2.2-2.8-4.9-6.3-3.8-8.7C87.4,95.9,103.5,102.7,127.1,103.3z"/>
	<path class="st0" d="M167.1,49.1C153.8,24,136.9,12.3,140.6,7c2-2.9,8.3-1.7,11.7-1c26.5,5,38.1,38.6,38.9,41
		c5.9,17.9,1.6,29.3,0.4,32.3c-1.4,3.3-3.1,7.4-5.8,7.5C180.2,87.3,178.2,69.9,167.1,49.1z"/>
</g>
<g>
	<path class="st0" d="M52,215.9H37.6v-5.1c-3.8,3.8-8.6,5.7-14.5,5.7c-6.6,0-11.6-1.7-14.9-5.1c-3.3-3.4-5-7.8-5-13.4
		c0-5,1.7-9.1,5.1-12.3c3.4-3.2,8.4-4.8,15-4.8h13.9V178c0-6.2-3.6-9.3-10.9-9.3c-4.7,0-8.5,1.6-11.3,4.9l-9.4-9.2
		c2.8-3.1,5.8-5.2,9.2-6.5c3-1.1,7.1-1.7,12.1-1.7c16.8,0,25.1,6.9,25.1,20.8V215.9z M37.1,194.2V191H25.5c-5.5,0-8.2,2.2-8.2,6.7
		c0,4.5,2.8,6.8,8.4,6.8c5,0,8.4-1.2,10-3.7C36.7,199.4,37.1,197.2,37.1,194.2z"/>
	<path class="st0" d="M106.7,215.9H92.3v-5.1c-3.8,3.8-8.6,5.7-14.5,5.7c-6.6,0-11.6-1.7-14.9-5.1c-3.3-3.4-5-7.8-5-13.4
		c0-5,1.7-9.1,5.1-12.3c3.4-3.2,8.4-4.8,15-4.8h13.9V178c0-6.2-3.6-9.3-10.9-9.3c-4.7,0-8.5,1.6-11.3,4.9l-9.4-9.2
		c2.8-3.1,5.8-5.2,9.2-6.5c3-1.1,7.1-1.7,12.1-1.7c16.8,0,25.1,6.9,25.1,20.8V215.9z M91.8,194.2V191H80.2c-5.5,0-8.2,2.2-8.2,6.7
		c0,4.5,2.8,6.8,8.4,6.8c5,0,8.4-1.2,10-3.7C91.4,199.4,91.8,197.2,91.8,194.2z"/>
	<path class="st0" d="M165.1,215.9h-14.4v-5.4c-3.8,4.1-8.8,6.1-14.7,6.1c-5.8,0-10.5-1.7-13.9-5.2c-4-4-6-9.6-6-16.8v-37.7h14.8
		v35.7c0,3.7,1,6.5,3.1,8.4c1.7,1.6,3.9,2.4,6.5,2.4c2.7,0,4.9-0.8,6.6-2.4c2.1-1.9,3.1-4.7,3.1-8.4v-35.7h14.8V215.9z"/>
	<path class="st0" d="M259.1,215.9h-14.8v-35.7c0-3.7-1-6.5-3.1-8.4c-1.7-1.6-3.9-2.4-6.5-2.4c-2.6,0-4.8,0.8-6.5,2.3
		c-2.2,1.9-3.2,4.6-3.2,8.2v36H210v-35.7c0-3.7-1.1-6.5-3.2-8.4c-1.7-1.6-3.9-2.4-6.6-2.4c-2.7,0-4.9,0.8-6.7,2.4
		c-2.1,1.9-3.2,4.7-3.2,8.4v35.7h-14.7v-59h14.4v5.4c3.9-4.1,8.8-6.1,14.7-6.1c6.8,0,12,2.5,15.6,7.5c4.8-5,10.6-7.5,17.7-7.5
		c6.2,0,11,1.7,14.5,5.2c4.3,4.3,6.5,9.9,6.5,16.8V215.9z"/>
</g>
</svg>
