<?xml version="1.0" encoding="utf-8"?>
<!-- Generator: Adobe Illustrator 23.1.0, SVG Export Plug-In . SVG Version: 6.00 Build 0)  -->
<svg version="1.1" id="Camada_1" xmlns="http://www.w3.org/2000/svg" xmlns:xlink="http://www.w3.org/1999/xlink" x="0px" y="0px"
	 viewBox="0 0 299.6 262.6" style="enable-background:new 0 0 299.6 262.6;" xml:space="preserve">
<style type="text/css">
	.st0{fill:#FFFFFF;}
</style>
<g>
	<path class="st0" d="M294.7,235.6c0,7.2,0,14.3,0,21.4c-23.5,0-47,0-70.6,0c0-38.6,0-77.2,0-115.9c23.4,0,46.9,0,70.5,0
		c0,7,0,14.1,0,21.3c-15.7,0-31.3,0-47.1,0c0,0.6-0.1,1.1-0.1,1.5c0,7.4,0,14.9,0,22.3c0,1.3,0.4,1.6,1.6,1.6c13.2,0,26.4,0,39.6,0
		c0.5,0,1.1,0,1.7,0c0,7,0,13.9,0,20.9c-0.6,0-1.1,0.1-1.7,0.1c-13.1,0-26.2,0-39.4,0c-1.8,0-1.8,0-1.8,1.9c0,7.7,0,15.4,0,23.1
		c0,1.9,0,1.9,2,1.9c14.5,0,28.9,0,43.4,0C293.3,235.6,293.9,235.6,294.7,235.6z"/>
	<path class="st0" d="M211.8,155.9c-5.1,5.8-9.9,11.4-14.6,16.8c-3.8-2.3-7.3-4.7-11-6.6c-6.3-3.2-13-4.9-20.1-4.1
		c-13.5,1.4-23.4,8.2-29.3,20.4c-7,14.5-4.3,33.2,8.7,44.9c5.1,4.6,11.3,7.2,18,8.3c11.5,1.8,21.6-1.7,30.9-8.2
		c0.8-0.6,1.6-1.2,2.5-1.8c4.7,5.7,9.3,11.3,14.1,17c-0.4,0.4-0.8,0.7-1.1,1c-9,7.2-19,12.4-30.4,14.5c-26.1,4.9-51.7-7-64.3-30.8
		c-3.6-6.7-5.8-13.8-6.7-21.4c-3.4-30.5,16.2-59.3,46.9-65.8c16.9-3.6,32.5,0,47,9.1C205.6,151.3,208.6,153.6,211.8,155.9z"/>
	<path class="st0" d="M110.4,257c-0.5,0-0.8,0.1-1.1,0.1c-7.5,0-15.1,0-22.6,0c-1,0-1.4-0.4-1.7-1.3c-2.2-5.6-4.4-11.1-6.5-16.7
		c-0.4-1-0.9-1.4-2.1-1.4c-12.6,0-25.2,0-37.9,0c-1.1,0-1.7,0.4-2.1,1.4c-2.2,5.6-4.4,11.2-6.6,16.8c-0.3,0.7-0.5,1.2-1.4,1.2
		c-7.7,0-15.4,0-23.1,0c-0.2,0-0.3,0-0.7-0.1c17.6-39.4,35.2-78.6,52.9-118.2C75.3,178.3,92.8,217.6,110.4,257z M44,220.3
		c9.1,0,18,0,27.1,0c-4.5-11.4-8.9-22.6-13.4-33.8c-0.1,0-0.3,0-0.4,0C52.9,197.8,48.5,209,44,220.3z"/>
	<path class="st0" d="M114.5,97.4c15.1-32,30.2-63.8,45.3-95.9C175,33.6,190,65.4,205.2,97.4c-3.3,0-6.3,0-9.3,0
		c-0.4,0-0.8-0.6-1-1.1c-3.8-7.9-7.6-15.8-11.4-23.7c-7.7-16.1-15.4-32.2-23.1-48.3c-0.2-0.4-0.4-0.7-0.7-1.3
		c-0.3,0.5-0.6,0.9-0.8,1.3c-11.2,23.8-22.4,47.6-33.5,71.4c-0.7,1.4-1.4,1.9-2.9,1.8C119.9,97.3,117.4,97.4,114.5,97.4z"/>
	<path class="st0" d="M105.6,118c0.8-2.1,1.4-4.1,2.1-6.1c1.2-3.3,1.2-3.3,4.7-3.3c5.2,0,10.4,0,15.6,0c1.2,0,1.8-0.4,2.4-1.5
		c9.6-19.9,19.3-39.8,28.9-59.7c0.1-0.3,0.3-0.6,0.5-1.1c0.3,0.6,0.6,1,0.8,1.5c9.3,19.2,18.7,38.5,28,57.7c2,4,0.7,3.2,5.2,3.3
		c4.9,0.1,9.8,0,14.7,0c0.9,0,1.5,0.3,1.9,1.1c1.4,2.6,2.8,5.2,4.3,8c-0.7,0-1.2,0-1.7,0c-9.1,0-18.1,0-27.2,0
		c-1.4,0-2.1-0.4-2.7-1.7c-7.5-15.4-15.1-30.8-22.6-46.2c-0.2-0.4-0.4-0.8-0.8-1.4c-0.3,0.5-0.5,0.7-0.7,1
		c-7.6,15.6-15.2,31.1-22.8,46.7c-0.5,1.1-1.1,1.6-2.4,1.6c-8.9-0.1-17.9,0-26.8,0C106.8,118,106.3,118,105.6,118z"/>
</g>
</svg>
