<?xml version="1.0" encoding="utf-8"?>
<!-- Generator: Adobe Illustrator 23.1.0, SVG Export Plug-In . SVG Version: 6.00 Build 0)  -->
<svg version="1.1" id="Camada_1" xmlns="http://www.w3.org/2000/svg" xmlns:xlink="http://www.w3.org/1999/xlink" x="0px" y="0px"
	 viewBox="0 0 307.5 206.7" style="enable-background:new 0 0 307.5 206.7;" xml:space="preserve">
<style type="text/css">
	.st0{fill:#FFFFFF;}
</style>
<path class="st0" d="M146.2,102.7c-1.9-1.6-3.1-3.3-3.9-4.6c0-12.2,0-24.5-0.1-36.7c0-5.6-2.1-9-5-12c-6.9-7.1-18.8-5.5-23.3-5
	C105.6,45.5,98.8,49,99,50c0.4,1.7,19.3-5.7,27.9,2.7c3,2.9,3.9,6.8,4.2,9.5c0,2.7,0,5.5,0.1,8.2c-4.5,0.5-32.5,3.7-42.1,16.6
	c-1.1,1.5-3.3,4.5-3.3,8.6c0.1,6,4.9,11.2,9.9,13.5c3.1,1.4,5.7,1.3,9.3,1.3c7.6-0.1,13.3-2.7,16.6-4.2c2.5-1.2,6-3,9.7-5.9
	c0,3.2,0.1,6.4,0.1,9.7c6.4,0,12.7,0.1,19.1,0.1c0-1.5,0-3,0-4.4C149.2,105,147.7,104,146.2,102.7z M131,90.1
	c-1.2,2.5-3.8,6.8-8.7,10.1c-2.2,1.5-7.2,4.8-13.5,4c-1.5-0.2-6.2-0.9-8.7-4.7c-1.5-2.3-1.6-4.8-1.7-5.8c0-1-0.1-3.2,1-5.6
	c0,0,1.1-2.2,3.3-4c3.4-2.7,13.8-6,28.2-8.4C131,80.4,131,85.3,131,90.1z"/>
<path class="st0" d="M222.4,76.1c0.1-1.1,0.7-19.4-12.7-28.3c-6.6-4.4-13.9-4.8-16.1-4.8c-2.6,0-8.5,0.2-14.5,3.3
	c-12.5,6.5-17.7,21.3-17.5,32.9c0.1,3.5,0.2,10.3,4.6,17.1c5.8,9,16.1,13.8,25.5,13.8c10.5,0,21.6-6.3,21.2-8.3c0-0.1,0-0.1-0.1-0.2
	c-1.4-2.3-12.1,4.9-21.4,2.9c-8.7-1.9-15.3-11.7-16.8-20.4c-0.6-3.3-0.4-6.1-0.1-8.1C190.6,76.1,206.5,76.1,222.4,76.1z M177.5,59.2
	c0.8-1.5,5.5-10,14.3-10.7c0.9-0.1,4.6-0.3,8.4,1.7c6.5,3.5,10.1,12.1,9.2,21.7c-11.6,0-23.2-0.1-34.8-0.1
	C174.5,69.1,174.7,64.2,177.5,59.2z"/>
<path class="st0" d="M303.5,74.9c-0.2-6.4-0.4-16-7.8-23.7c-0.7-0.7-9.3-9.4-21.5-8.5c-6.6,0.5-11.6,3.6-13.8,4.9
	c-3.5,2.2-5.9,4.7-7.5,6.5V6.7h-11.2v90.7c-0.2,0.8-0.9,3.5-3.5,5.4c-2,1.5-4,1.8-4.9,1.9c0,1.8,0,3.6,0,5.5c2.8,0,5.6,0,8.4,0h11.2
	V97.6c1.3,1.5,3.2,3.6,5.8,5.6c2.9,2.3,8.6,6.7,16,7.3c10.4,0.9,18.1-6.1,19.4-7.3C304,94.2,303.6,80.8,303.5,74.9z M287.4,93.5
	c-1.2,2.1-5.8,10.3-14,10.8c-6.6,0.4-11.6-4.5-13.2-6.1c-3.1-3.1-4.6-6.4-5.4-8.4c0-8.9,0-17.9,0-26.8c0.5-1.9,1.9-5.6,5.4-8.8
	c1.2-1.1,5.9-5.5,12.5-5.1c6.3,0.4,10.3,4.7,11.6,6.1c5.6,6.1,5.8,14,6,21.2C290.5,82.5,290.6,87.8,287.4,93.5z"/>
<g>
	<path class="st0" d="M44.7,125.8l-0.1,3.5c-1.3,0.2-2.3,1.3-2.3,2.7c0,1.5,1.2,2.8,2.8,2.8c1.5,0,2.8-1.2,2.8-2.8
		c0-1.4-1-2.5-2.3-2.7l0.1-2.7l27.5-5.6l0-4.8c1.3-0.2,2.3-1.3,2.3-2.7c0-1.5-1.2-2.8-2.8-2.8s-2.8,1.2-2.8,2.8c0,1.4,1,2.5,2.3,2.7
		l0,4L44.7,125.8z M46.8,132c0,1-0.8,1.8-1.8,1.8c-1,0-1.8-0.8-1.8-1.8c0-1,0.8-1.8,1.8-1.8C46,130.1,46.8,131,46.8,132z
		 M70.8,113.4c0-1,0.8-1.8,1.8-1.8s1.8,0.8,1.8,1.8s-0.8,1.8-1.8,1.8S70.8,114.5,70.8,113.4z"/>
	<path class="st0" d="M73.1,180.1l-0.1-3.5l-3.8-0.8c0.2-0.2,0.4-0.4,0.5-0.6c-0.3,0.2-0.7,0.3-1,0.5L45.5,171l0-4
		c1.3-0.2,2.3-1.3,2.3-2.7c0-1.5-1.2-2.8-2.8-2.8c-1.5,0-2.8,1.2-2.8,2.8c0,1.4,1,2.5,2.3,2.7l0,4.8l22.8,4.7
		c-4.5,2.2-11,4.8-19,6.2c-13.5,2.4-20.4-0.5-29.1,4.1c-4.1,2.1-9.4,6.3-13.8,15.7c9.9-8.4,18.7-11.3,24.9-12.4
		c9.3-1.7,15,0.2,23.9-3.2c6.5-2.6,11.2-6.6,14.3-10l3.6,0.7l0.1,2.7c-1.3,0.2-2.3,1.3-2.3,2.7c0,1.5,1.2,2.8,2.8,2.8
		s2.8-1.2,2.8-2.8C75.4,181.5,74.4,180.3,73.1,180.1z M43.1,164.3c0-1,0.8-1.8,1.8-1.8c1,0,1.8,0.8,1.8,1.8c0,1-0.8,1.8-1.8,1.8
		C43.9,166.1,43.1,165.3,43.1,164.3z M72.6,184.7c-1,0-1.8-0.8-1.8-1.8c0-1,0.8-1.8,1.8-1.8s1.8,0.8,1.8,1.8
		C74.5,183.8,73.6,184.7,72.6,184.7z"/>
	<path class="st0" d="M11.7,153.7c0-1.5-1.2-2.8-2.8-2.8s-2.8,1.2-2.8,2.8c0,1.4,1,2.5,2.3,2.7l0,4.8l27.5,5.6l0.1,2.7
		c-1.3,0.2-2.3,1.3-2.3,2.7c0,1.5,1.2,2.8,2.8,2.8c1.5,0,2.8-1.2,2.8-2.8c0-1.4-1-2.5-2.3-2.7l-0.1-3.5l-27.5-5.6l0-4
		C10.7,156.2,11.7,155.1,11.7,153.7z M38.4,172.3c0,1-0.8,1.8-1.8,1.8c-1,0-1.8-0.8-1.8-1.8c0-1,0.8-1.8,1.8-1.8
		C37.6,170.4,38.4,171.3,38.4,172.3z M8.9,155.6c-1,0-1.8-0.8-1.8-1.8c0-1,0.8-1.8,1.8-1.8s1.8,0.8,1.8,1.8
		C10.8,154.8,10,155.6,8.9,155.6z"/>
	<path class="st0" d="M61,147.3c-9.4-4.6-16.4-1.9-29.1-4.1c-4.7-0.8-10.9-2.4-18.2-6l23-4.7l0.4-0.1l0-4.8c1.3-0.2,2.3-1.3,2.3-2.7
		c0-1.5-1.2-2.8-2.8-2.8c-1.5,0-2.8,1.2-2.8,2.8c0,1.4,1,2.5,2.3,2.7l0,4l-23.7,4.9c-2.1-1.1-4.3-2.3-6.6-3.8c0.9,1.3,2,2.9,3.4,4.4
		l-0.1,0l-0.3,0.1l-0.1,3.5c-1.3,0.2-2.3,1.3-2.3,2.7c0,1.5,1.2,2.8,2.8,2.8s2.8-1.2,2.8-2.8c0-1.4-1-2.5-2.3-2.7l0.1-2.7l0.3-0.1
		c2.4,2.7,5.6,5.4,9.6,7.6c10.4,5.6,18.4,2.8,31.9,5.8c6.2,1.3,14.9,4.2,24.9,10.9C73.5,157.6,68.8,151.1,61,147.3z M34.8,125
		c0-1,0.8-1.8,1.8-1.8c1,0,1.8,0.8,1.8,1.8c0,1-0.8,1.8-1.8,1.8C35.6,126.9,34.8,126,34.8,125z M10.8,143.6c0,1-0.8,1.8-1.8,1.8
		s-1.8-0.8-1.8-1.8c0-1,0.8-1.8,1.8-1.8S10.8,142.5,10.8,143.6z"/>
	<path class="st0" d="M77.4,42.9c-2.5,0-4.5,1.9-4.8,4.3l-6.8,0.7l-0.1,8.9c-3-5.6-6.7-9.7-10-11.4c-4.1-2.1-8.3-2.8-10.7-3.1v-6.5
		h-8.4v6.8c-1.7,0.3-3.6,0.7-5.4,1.3c-0.7,0.2-1.4,0.5-2,0.9l0,0c-1.8-1.5-3.5-3-5.3-4.6c-1.5,1.2-2.9,2.3-4.4,3.5
		c1.3,1.4,2.6,2.8,3.9,4.2c-2.7,2.9-5.4,5.9-8.1,8.8c-1.4-1.1-2.7-2.2-4.1-3.3c-1.2,1.6-2.4,3.2-3.5,4.8c1.5,1.3,3,2.6,4.5,3.9
		c0,2.5,0,5.1,0,7.6c0,0,0,0,0,0c-0.2,1-0.4,1.9-0.5,2.9h-8v8.4h7.9c0.1,1.1,0.3,2.2,0.5,3.2c0,0,0,0,0-0.1c0,2,0,4,0,6
		c-1.7,1.5-3.5,3.1-5.2,4.6c1.4,1.7,2.7,3.4,4.1,5c1.2-1,2.4-1.9,3.6-2.9c0.8,0,1.6,0,2.4-0.1c2.4,4,5,6.9,6.3,8.2
		c3.5-0.1,6.9-0.2,10.4-0.2c-1.6-1.4-3.7-3.6-5.6-6.7c-4.9-7.9-4.7-15.9-4.4-21.8c0.3-7.8,0.7-18.7,8.3-24.4
		c1.1-0.8,4.2-3.1,8.7-3.2c5.4-0.1,9.2,3.2,10.4,4.2c6.6,5.8,6.8,15,7,22.3c0.1,5.9,0.5,21-8.2,26.3c-1.5,0.9-3.1,1.4-6.2,2.3
		c-6.2,1.8-9.2,1.3-14.5,2.1c-6.6,1-12.6,1.9-17.2,6.2c-1.7,1.6-4.9,5.2-6.2,12.2c3.7-3.5,8.6-7.1,14.9-9.5
		c9.8-3.7,14.4-1.3,26.1-5.3c6-2,11.3-3.8,15.9-8.6c8.8-9.1,8.5-21.8,8.3-25.6c-0.2-5.9-1.6-11.3-3.7-16l0.1-10.4l5.5-0.6
		c0.4,2.3,2.4,4.1,4.8,4.1c2.7,0,4.9-2.2,4.9-4.9C82.2,45.1,80.1,42.9,77.4,42.9z M77.4,51.3c-1.9,0-3.5-1.6-3.5-3.5
		c0-1.9,1.6-3.5,3.5-3.5c1.9,0,3.5,1.6,3.5,3.5C80.9,49.7,79.3,51.3,77.4,51.3z"/>
</g>
</svg>
