<?xml version="1.0" encoding="utf-8"?>
<!-- Generator: Adobe Illustrator 23.1.0, SVG Export Plug-In . SVG Version: 6.00 Build 0)  -->
<svg version="1.1" id="Camada_1" xmlns="http://www.w3.org/2000/svg" xmlns:xlink="http://www.w3.org/1999/xlink" x="0px" y="0px"
	 viewBox="0 0 648.2 204.4" style="enable-background:new 0 0 648.2 204.4;" xml:space="preserve">
<style type="text/css">
	.st0{fill:#FFFFFF;}
	.st1{font-family:'AntipastoPro';}
	.st2{font-size:25px;}
</style>
<g>
	<path class="st0" d="M214.9,37.9c0,16.3,0,32.2,0,49.1c12.4-12.5,26-19.3,42.8-17.4c16.3,1.9,28.8,10.5,37.9,24.7
		c7.4-11.8,17.3-19.6,30.2-23.2c30.6-8.6,62.1,13.8,63,45.7c0.8,28.7,0.2,79.3,0.2,81.4c0,0,0,1.1,0,2c0,0,0,0.7,0,0.7
		c-0.1,0-0.3,0-0.4,0c-4,0-8,0-12,0c0-16,0-32.1,0-49.5c-12.4,12.7-26.2,19-42.7,17.3c-16.5-1.7-28.9-10.2-38.1-24.4
		c-1.1,1.4-2,2.5-2.8,3.6c-12.9,18-35.2,25.4-56.3,18.8c-20.5-6.5-34.4-25.6-34.5-47.6c0-7.9,0-15.8,0-23.6c0-6.2,0-31,0-50.8
		c0-2.2,0-4.5,0-6.7c0.8,0,6,0,6.8,0C209.5,37.9,214.3,37.9,214.9,37.9z M339.2,156.2c20.6,0,37.2-16.8,37.1-37.2
		c-0.1-20.5-16.8-36.9-37.5-36.9c-20.5,0.1-36.6,16.6-36.5,37.5C302.3,140.1,318.6,156.3,339.2,156.2z M288.8,119.1
		c-0.2-21.1-16.5-37.2-37.7-37c-19.8,0.2-36.2,17-36.1,37.3c0.1,20.7,16.6,37,37.4,36.9C272.8,156.1,289,139.7,288.8,119.1z"/>
	<path class="st0" d="M492.8,74.1c4.7,0,8.6,0,12.9,0c0.3,1.9,0.5,3.6,0.8,5.8c1.8-1.6,13.7-12.3,31.4-10.5
		c18.1,1.9,27.7,15.4,29,17.3c2.1-2,5-4.7,8.8-7.5c4.9-3.6,9.1-5.8,9.8-6.1c25-11.6,55,5.7,56.8,33.1c1.2,18.1,0.5,36.3,0.6,54.5
		c0,1.2-0.1,2.3-0.3,4.2c-5.5-0.2-8.7-0.2-10.3,0c-0.2,0-0.5,0.1-1-0.1c-0.6-0.2-1.5-1.1-1.6-4.7c-0.1-7.8,0-35.3-0.3-50.5
		C629.1,91.4,612,78.4,595,83c-3.9,1.1-7,2.8-8.8,4.1c-7.6,5.5-11.8,14.6-11.8,22.8c0,1,0.1,1.8,0.1,2.4c0,7.1,0,14.3,0,21.4
		c0,8.4,0,16.8,0,25.2c-0.5,1.1-1.5,2.6-3.2,3.9c-2.7,2-5.6,2-6.9,2c-1.4,0-2.5-0.2-3.3-0.4c0-5.4,0-10.7,0-15.9
		c0-12.2,0.1-24.3,0-36.5c-0.2-14.2-8.3-25.5-20.4-28.9c-16.4-4.6-34.3,8.6-34.5,25.9c-0.2,16.7-0.2,33.3,0,50
		c0.1,4.4-0.9,6.2-5.7,6c-8.8-0.4-7.7,0.7-7.7-7.8c0-25.5,0-51,0-76.5C492.8,78.6,492.8,76.7,492.8,74.1z"/>
	<rect x="629.7" y="150.4" class="st0" width="13.2" height="14.5"/>
	<rect x="492.8" y="74.1" class="st0" width="13.7" height="9.7"/>
	<rect x="492.8" y="156.6" class="st0" width="13.4" height="8.3"/>
	<rect x="561.2" y="95.9" class="st0" width="13.3" height="69.1"/>
	<path class="st0" d="M197.2,115.2c-28.5,0-57.1,0-85.5,0c-3.8,18.5,11.8,38.6,31.4,40.8c9.5,1.1,18.7-2.3,20.5-3.1
		c10.9-4.7,16.6-12.9,18.7-16.2c3.7,0,7.4,0,11.1,0c-1.9,17.8-27.8,34.2-50.5,32.1c-27-2.4-46.9-26.5-44.8-54.1
		c2-26.6,25.9-47.2,53.2-45.3C180.8,71.5,197.6,96.6,197.2,115.2z M180.3,102.4C174.8,89.7,161,81.7,146,82.2
		c-12.9,0.4-26.6,9.5-30.3,20.3C137.1,102.4,158.4,102.4,180.3,102.4z"/>
	<path class="st0" d="M6.2,74.1c4,0,7.8,0,12,0c0.2,2.1,0.4,4.2,0.7,6.7c3-2.2,5.6-4.5,8.5-6.2c23-13.3,53.1,0.5,59.1,27.1
		c0.4,1.6,0.8,3.3,0.8,4.9c0.1,19.1,0,38.3,0,57.9c-4,0-8.1,0-13.1,0c0-7.5,0-15.1,0-22.7c0-10.2,0.1-20.3,0-30.5
		C74,94.5,62,82,46.3,82.2c-15.1,0.1-27.7,13.5-27.7,29.6c0,15.7,0.1,31.3,0.2,47c0,1.8,0,3.6,0,5.8c-4.4,0-8.3,0-12.6,0
		C6.2,134.4,6.2,104.3,6.2,74.1z"/>
	<rect x="9.6" y="74.1" class="st0" width="9.2" height="6.7"/>
	<path class="st0" d="M479,73.8c0,18.7,0.8,36.6-0.2,54.3c-1.2,20.8-19.5,36.6-40.4,36.8c-20.4,0.1-39.1-15.8-40.4-36.2
		c-1.1-17.9-0.2-35.9-0.2-54.4c3.9,0,7.9,0,12.9,0c0,6.5,0,12.9,0,19.4c0,10.3-0.2,20.7,0.1,31c0.4,12.2,6.3,21.1,17.6,25.6
		c11.1,4.4,21.3,2,29.9-6.4c5.5-5.4,8-12.1,8-19.8c0-13.5,0.2-25.4,0-33c-0.1-5.2-0.1-9.4-0.1-12c0.5-1.7,1-3.5,1.5-5.2
		C471.4,73.8,475.2,73.8,479,73.8z"/>
	<rect x="466.1" y="73.8" class="st0" width="12.9" height="5.2"/>
	<path class="st0" d="M413.6,58.5c0,0.2-0.1,1.6-0.1,1.7c-3.8,2-6.7,3.5-9.6,5c-3.7,2-7,1.4-9.8-1.7c-2.4-2.8-2.2-7.3,0.6-9.9
		c3.1-2.9,6.4-3,9.9-0.6C407.1,54.8,409.8,56.2,413.6,58.5z"/>
</g>
<text transform="matrix(1.01 0 0 1 4.5698 192.1079)" class="st0 st1 st2">núcleo de estudantes de bioquímica </text>
<text transform="matrix(1.01 0 0 1 415.5698 192.1079)" class="st0 st1 st2">universidade do minho</text>
<g>
	<g>
		<path class="st0" d="M432.7,113.7h-2V70.8c0-0.6,0-2.5-1.5-4.1c-1.5-1.6-3.3-1.7-3.9-1.7h-16.8c-2.4,3-6.2,4.5-9.9,3.9
			c-4.7-0.8-8.5-4.8-8.7-9.4c-0.1-2.7,0.8-5.3,2.7-7.3c1.9-2.1,4.6-3.3,7.3-3.4c4.7-0.1,7.7,3.4,8.7,4.7l17.2,0.2
			c0.8-0.5,0.9-0.9,1-1c0-0.2-0.4-0.7-1-1.2c-0.3-0.3-0.7-0.7-1.1-1.1c-1.7-1.8-4.1-4.2-3.6-6.7c0-0.2,0.2-0.9,0.7-1.5
			c0.6-0.6,1.8-1.3,4.5-0.9c1.4,0.2,2.3,0.6,3,1c0.7,0.3,1.1,0.5,1.8,0.5c0.7-0.1,1.3-0.3,1.8-0.7c1.1-0.9,1.2-2.4,1.1-2.9V23
			c-1.4-0.9-5.2-3.8-5.3-8.6c0-2.6,1.1-5.3,3-7.2c2-2,4.6-3.2,7.4-3.2c0,0,0,0,0,0c5.6,0,10.3,4.7,10.4,10.3c0,4.5-3.2,7.5-4.5,8.5
			v22.4c0,0.5,0.3,2,1.6,3.2c1,1,2.2,1.2,2.8,1.3l16,0c1-1.4,4.2-5.1,9.2-5.1c0,0,0,0,0.1,0c2.9,0,5.9,1.3,8,3.5
			c1.9,1.9,2.9,4.4,2.9,6.9c-0.1,5.9-5.3,9.8-10.1,10.1c-5.1,0.3-8.5-3.4-9.5-4.7l-19-0.1c-0.6,0-2.7,0.2-4.4,1.9
			c-1.7,1.8-1.7,4-1.7,4.7l0,29l-2,0l0-28.9c0-0.8,0-3.7,2.2-6.1c2.2-2.3,5-2.5,5.8-2.6l20.1,0.1l0.3,0.4c0,0,3.1,4.5,8,4.3
			c3.9-0.2,8.2-3.5,8.3-8.1c0-2.6-1.2-4.4-2.3-5.5c-1.7-1.8-4.2-2.8-6.6-2.9c0,0,0,0-0.1,0c-4.8,0-7.7,4.5-7.8,4.6l-0.3,0.5
			l-17.3-0.1c-0.9-0.1-2.6-0.5-4-1.9c-1.8-1.7-2.1-3.8-2.2-4.6l0-23.5l0.4-0.3c0.4-0.3,4.1-2.9,4.1-7.1c0-4.4-4-8.3-8.4-8.3
			c-2.3,0-4.4,0.9-6,2.6c-1.6,1.6-2.5,3.7-2.4,5.8c0.1,4.6,4.7,7.2,4.7,7.2l0.5,0.3l0,17.2c0,0.6-0.1,2.9-1.9,4.4
			c-0.5,0.5-1.5,1-2.9,1.2c-1.3,0.1-2.1-0.3-2.9-0.7c-0.6-0.3-1.3-0.6-2.4-0.8c-1.7-0.2-2.5,0.1-2.7,0.3c-0.2,0.2-0.2,0.4-0.2,0.6
			c-0.3,1.5,1.7,3.5,3.1,5c0.4,0.4,0.8,0.8,1.1,1c1,0.9,1.8,1.7,1.6,2.8c-0.1,1-0.8,1.9-2.2,2.7l-0.2,0.1l-18.8-0.2l-0.3-0.5
			c-0.1-0.2-2.7-4.2-7.1-4.2c-0.1,0-0.1,0-0.2,0c-2.1,0-4.3,1.1-5.8,2.7c-1.5,1.7-2.3,3.7-2.2,5.9c0.2,3.7,3.2,6.9,7,7.5
			c3.1,0.5,6.3-0.9,8.3-3.5l0.3-0.4h17.8c0.8,0,3.3,0.2,5.3,2.4c2,2.2,2,4.8,2,5.6L432.7,113.7z"/>
	</g>
	<g>
		<g>
			
				<rect x="434.9" y="90.9" transform="matrix(8.522417e-03 -1 1 8.522417e-03 337.0872 530.0953)" class="st0" width="2" height="8.3"/>
		</g>
		<g>
			
				<rect x="434.9" y="86.8" transform="matrix(8.522417e-03 -1 1 8.522417e-03 341.2277 525.99)" class="st0" width="2" height="8.3"/>
		</g>
		<g>
			
				<rect x="434.9" y="82.6" transform="matrix(8.581596e-03 -1 1 8.581596e-03 345.4129 521.8094)" class="st0" width="2" height="8.3"/>
		</g>
		<g>
			
				<rect x="434.9" y="78.4" transform="matrix(8.522417e-03 -1 1 8.522417e-03 349.6497 517.6394)" class="st0" width="2" height="8.3"/>
		</g>
		<g>
			
				<rect x="434.9" y="74.2" transform="matrix(8.522417e-03 -1 1 8.522417e-03 353.8605 513.4644)" class="st0" width="2" height="8.3"/>
		</g>
		<g>
			
				<rect x="435.6" y="69" transform="matrix(8.581596e-03 -1 1 8.581596e-03 359.7028 509.0261)" class="st0" width="2" height="8.3"/>
		</g>
		<g>
			
				<rect x="435.8" y="64.7" transform="matrix(8.523427e-03 -1 1 8.523427e-03 364.2188 505.067)" class="st0" width="2" height="8.2"/>
		</g>
		<g>
			
				<rect x="438.5" y="37.4" transform="matrix(8.581596e-03 -1 1 8.581596e-03 394.2622 480.6198)" class="st0" width="2" height="8.3"/>
		</g>
		<g>
			
				<rect x="438.5" y="33.2" transform="matrix(8.522417e-03 -1 1 8.522417e-03 398.429 476.5168)" class="st0" width="2" height="8.3"/>
		</g>
		<g>
			
				<rect x="438.5" y="29" transform="matrix(8.522417e-03 -1 1 8.522417e-03 402.6397 472.3418)" class="st0" width="2" height="8.3"/>
		</g>
		<g>
			
				<rect x="438.5" y="24.8" transform="matrix(8.581596e-03 -1 1 8.581596e-03 406.8248 468.1646)" class="st0" width="2" height="8.3"/>
		</g>
		<g>
			
				<rect x="438.5" y="20.6" transform="matrix(8.522417e-03 -1 1 8.522417e-03 411.0618 463.9912)" class="st0" width="2" height="8.3"/>
		</g>
		<g>
			
				<rect x="445" y="53.9" transform="matrix(8.300495e-03 -1 1 8.300495e-03 390.4481 503.5102)" class="st0" width="8.3" height="2"/>
		</g>
		<g>
			
				<rect x="449.1" y="53.9" transform="matrix(8.300495e-03 -1 1 8.300495e-03 394.5941 507.6907)" class="st0" width="8.3" height="2"/>
		</g>
		<g>
			
				<rect x="453.6" y="53.9" transform="matrix(8.300495e-03 -1 1 8.300495e-03 399.0732 512.2072)" class="st0" width="8.3" height="2"/>
		</g>
		<g>
			
				<rect x="457.9" y="53.9" transform="matrix(8.300495e-03 -1 1 8.300495e-03 403.284 516.4531)" class="st0" width="8.3" height="2"/>
		</g>
		<g>
			
				<rect x="405.5" y="58.3" transform="matrix(8.300495e-03 -1 1 8.300495e-03 346.8577 468.3894)" class="st0" width="8.3" height="2"/>
		</g>
		<g>
			
				<rect x="409.6" y="58.3" transform="matrix(8.300495e-03 -1 1 8.300495e-03 351.0046 472.571)" class="st0" width="8.3" height="2"/>
		</g>
		<g>
			
				<rect x="414.1" y="58.3" transform="matrix(8.300495e-03 -1 1 8.300495e-03 355.4828 477.0864)" class="st0" width="8.3" height="2"/>
		</g>
		<g>
			
				<rect x="422.7" y="58.3" transform="matrix(8.300495e-03 -1 1 8.300495e-03 363.9529 485.6271)" class="st0" width="8.3" height="2"/>
		</g>
		<g>
			
				<rect x="419.1" y="58.3" transform="matrix(8.300495e-03 -1 1 8.300495e-03 360.3783 482.0228)" class="st0" width="8.3" height="2"/>
		</g>
	</g>
</g>
</svg>
