<?xml version="1.0" encoding="utf-8"?>
<!-- Generator: Adobe Illustrator 23.1.0, SVG Export Plug-In . SVG Version: 6.00 Build 0)  -->
<svg version="1.1" id="Camada_1" xmlns="http://www.w3.org/2000/svg" xmlns:xlink="http://www.w3.org/1999/xlink" x="0px" y="0px"
	 viewBox="0 0 307.5 218.8" style="enable-background:new 0 0 307.5 218.8;" xml:space="preserve">
<style type="text/css">
	.st0{fill:#FFFFFF;}
</style>
<g>
	<path class="st0" d="M161.5,6.7c0,0.5,0.1,1.1,0.1,1.6c0,7.2,0,14.3,0,21.5c0,0.5,0,1.1,0,1.8c-13,0-26,0-39,0c0,6.6,0,13,0,19.6
		c8.9,0,17.7,0,26.5,0c0,8.3,0,16.5,0,24.8c-8.8,0-17.6,0-26.5,0c0,6.5,0,13,0,19.5c21.2,0,42.4,0,63.7,0c0-6.4,0-12.8,0-19.3
		c-4,0-8,0-12.2,0c0-8.3,0-16.6,0-24.9c12.4,0,24.7,0,37.2,0c0,0.6,0,1.1,0,1.6c0,18.2,0,36.4,0,54.6c0,7.6-5.4,13.1-13.1,13.1
		c-29.3,0-58.5,0-87.8,0c-7.4,0-12.9-5.5-12.9-12.9c0-29.3,0-58.5,0-87.8c0-6.6,3.8-11.4,10.3-12.9c0.1,0,0.3-0.1,0.4-0.2
		C126,6.7,143.7,6.7,161.5,6.7z"/>
	<path class="st0" d="M4.6,158.3c10.8,0,21.6,0,32.3,0c3.2,0,5.6,2.3,5.6,5.6c0.1,10.6,0,21.2,0,31.7c0,0.1-0.1,0.2-0.1,0.4
		c-2,0-4,0-6.2,0c0-10.4,0-20.7,0-31.2c-8.5,0-16.7,0-25.2,0c0,10.4,0,20.8,0,31.3c-2.3,0-4.3,0-6.4,0
		C4.6,183.5,4.6,170.9,4.6,158.3z"/>
	<path class="st0" d="M199.8,6.7c1.7,0.3,4.4,0.9,6.9,2.9c0.8,0.6,2.1,1.6,3.1,3.3c0.9,1.6,1.5,3.4,1.5,5.4c0.1,4.1,0,8.3,0,12.4
		c0,0.2-0.1,0.5-0.1,0.8c-8.2,0-16.4,0-24.8,0c0-8.3,0-16.6,0-24.8C190.8,6.7,195.3,6.7,199.8,6.7z"/>
	<path class="st0" d="M165.4,196.2c-5.5,0-10.7,0-15.9,0c-3.5,0-7,0.1-10.5-0.2c-3-0.2-4.8-2.1-5-5.1c-0.2-2.1-0.1-4.2-0.1-6.3
		c0-6.6,0-13.3,0-19.9c0-2.7,0.8-5,3.6-6.1c0.8-0.3,1.7-0.4,2.6-0.4c8.6,0,17.2,0,25.7,0c3.9,0,6.1,2.3,6.1,6.1c0,12.7,0,25.3,0,38
		c0,3.3-1.5,5.2-4.8,6c-8.7,2.2-17.4,4.3-26.1,6.5c-0.2,0-0.4,0.1-0.7,0.1c0-2.1,0-4.2,0-6.4c4.3-1.1,8.6-2.2,12.8-3.2
		c3.6-0.9,7.3-1.8,10.9-2.7c1-0.2,1.5-0.6,1.4-1.7C165.3,199.5,165.4,198,165.4,196.2z M165.3,164.8c-8.4,0-16.7,0-24.9,0
		c0,8.3,0,16.5,0,24.8c8.4,0,16.6,0,24.9,0C165.3,181.3,165.3,173.1,165.3,164.8z"/>
	<path class="st0" d="M235,158.3c0.6,0,1.1,0,1.6,0c20.5,0,41,0,61.4,0c3.2,0,5.3,1.4,6.1,4c0.1,0.4,0.2,0.9,0.2,1.3
		c0,10.6,0,21.2,0,31.7c0,0.2,0,0.4-0.1,0.7c-2,0-4.1,0-6.3,0c0-10.3,0-20.7,0-31.1c-8.5,0-16.8,0-25.2,0c0,10.4,0,20.7,0,31.1
		c-2.1,0-4.1,0-6.2,0c0-10.3,0-20.7,0-31.1c-8.5,0-16.8,0-25.3,0c0,10.3,0,20.7,0,31.1c-2.2,0-4.1,0-6.2,0
		C235,183.5,235,171,235,158.3z"/>
	<path class="st0" d="M97.8,183.6c0,2.1,0,4,0,6.1c9.4,0,18.8,0,28.2,0c0,2.1,0,4.2,0,6.3c-0.4,0-0.9,0.1-1.4,0.1
		c-9.1,0-18.1,0-27.2,0c-3.8,0-6.1-2.3-6.1-6.1c0-8.5,0-17.1,0-25.6c0-3.8,2.3-6.1,6.1-6.1c8.6,0,17.3,0,25.9,0c3.6,0,5.9,2.3,6,5.9
		c0,2.3,0,4.6,0,6.9c-0.1,3-1.7,5-4.5,5.7c-8.5,2.1-17.1,4.3-25.6,6.4C98.7,183.3,98.2,183.5,97.8,183.6z M122.7,170.9
		c0-2.1,0-4.1,0-6.1c-8.4,0-16.6,0-25,0c0,4.1,0,8.2,0,12.4C106.1,175.1,114.4,173,122.7,170.9z"/>
	<path class="st0" d="M83.5,196.1c-0.7,0-1.2,0-1.7,0c-9.1,0-18.1,0-27.2,0c-3.7,0-5.9-2.2-5.9-5.9c0-8.7,0-17.4,0-26
		c0-3.6,2.2-5.9,5.8-5.9c8.5,0,17.1,0,25.6,0c4.2,0,6.3,1.9,6.5,6.1c0.1,2.4,0,4.9-0.2,7.3c-0.2,2.8-1.6,4.3-4.3,5
		c-5,1.3-10.1,2.5-15.1,3.8c-3.6,0.9-7.2,1.8-10.8,2.7c-0.9,0.2-1.3,0.6-1.2,1.6c0.1,1.6,0.2,3.2,0.2,4.8c1.5,0.1,3.1,0.1,4.6,0.2
		c7.2,0,14.4,0,21.6,0c1.9,0,1.9,0,1.9,1.9C83.5,193.1,83.5,194.5,83.5,196.1z M55.1,164.8c0,4.2,0,8.2,0,12.2
		c0.3,0,0.4,0.1,0.5,0.1c7.9-2,15.9-3.9,23.8-5.9c0.3-0.1,0.8-0.4,0.8-0.7c0.1-1.9,0-3.7,0-5.7C71.8,164.8,63.5,164.8,55.1,164.8z"
		/>
	<path class="st0" d="M190.8,158.4c2.1,0,4.1,0,6.3,0c0,10.5,0,20.9,0,31.4c0.6,0,1.1,0.1,1.6,0.1c7.3,0,14.6,0,21.9,0
		c1.3,0,1.6-0.4,1.6-1.6c-0.1-9.3,0-18.6,0-27.9c0-0.6,0-1.2,0-1.9c2.1,0,4.1,0,6.3,0c0,0.6,0,1.1,0,1.6c0,9.9-0.1,19.9,0,29.8
		c0.1,3.8-2.7,6.4-6.3,6.3c-8.6-0.2-17.3-0.1-25.9-0.1c-3.3,0-5.7-2.3-5.7-5.5c0-10.5,0-21,0-31.4
		C190.7,158.9,190.8,158.7,190.8,158.4z"/>
	<path class="st0" d="M178.2,158.4c2.1,0,4.1,0,6.2,0c0,12.6,0,25.1,0,37.7c-2.1,0-4.1,0-6.2,0C178.2,183.5,178.2,171,178.2,158.4z"
		/>
</g>
</svg>
