<?xml version="1.0" encoding="utf-8"?>
<!-- Generator: Adobe Illustrator 23.1.0, SVG Export Plug-In . SVG Version: 6.00 Build 0)  -->
<svg version="1.1" id="Camada_1" xmlns="http://www.w3.org/2000/svg" xmlns:xlink="http://www.w3.org/1999/xlink" x="0px" y="0px"
	 viewBox="0 0 307.5 149.4" style="enable-background:new 0 0 307.5 149.4;" xml:space="preserve">
<style type="text/css">
	.st0{fill:none;stroke:#FFFFFF;stroke-miterlimit:10;}
	.st1{fill:#FFFFFF;}
</style>
<g>
	<path class="st0" d="M68.8,60.3c25.2-14.3,50.4-28.5,75.5-42.8c8.3,25.9,16.6,51.9,25,77.8c-23,13.8-46,27.6-69,41.4
		C89.7,111.2,79.2,85.8,68.8,60.3z"/>
	<path class="st0" d="M72.2,10.1c23.7,2.6,47.5,5.3,71.2,7.9c-24.9,14.1-49.8,28.2-74.7,42.3C49,54.5,29.3,48.7,9.5,42.9
		C30.4,32,51.3,21,72.2,10.1z"/>
	<path class="st0" d="M9.5,42.9c6.8,20.6,13.7,41.3,20.5,61.9c23.4,10.6,46.8,21.3,70.2,31.9c-10.5-25.5-21-50.9-31.5-76.4
		C49,54.5,29.3,48.7,9.5,42.9z"/>
	<circle class="st1" cx="100.2" cy="136.7" r="9.6"/>
	<circle class="st1" cx="68.8" cy="60.3" r="11.5"/>
	<circle class="st1" cx="30" cy="104.8" r="7.7"/>
	<circle class="st1" cx="9.5" cy="42.9" r="7.7"/>
	<circle class="st1" cx="72.2" cy="10.1" r="5.4"/>
	<circle class="st1" cx="144.3" cy="17.5" r="7.1"/>
	<g>
		<path class="st1" d="M141.6,46.5h5.8v55.5h-5.8l-18.5-39.6v39.6h-5.9V46.5h5.9L141.6,86V46.5z"/>
		<path class="st1" d="M176.5,54.1h-17.6v16.3h16.6v6.6h-16.6v17.6h17.6v7.5h-24V46.5h24V54.1z"/>
		<path class="st1" d="M204,54.1h-17.6v16.3H203v6.6h-16.6v17.6H204v7.5h-24V46.5h24V54.1z"/>
		<path class="st1" d="M246.2,102.1h-5.6V63.2l-11.3,38.9h-5.1l-10.9-38.4v38.4h-5.7V46.5h7L227,92.4l12.9-45.9h6.3V102.1z"/>
		<path class="st1" d="M276.9,102.1L274,90.6h-16.6l-2.9,11.5h-6.1l14.3-55.5h6.5l14.3,55.5H276.9z M259.1,83.6h13.1l-6.6-26.2
			L259.1,83.6z"/>
		<path class="st1" d="M306,54.1h-11v48h-6.3v-48h-11v-7.5H306V54.1z"/>
	</g>
</g>
</svg>
