<?xml version="1.0" encoding="utf-8"?>
<!-- Generator: Adobe Illustrator 23.1.0, SVG Export Plug-In . SVG Version: 6.00 Build 0)  -->
<svg version="1.1" id="Camada_1" xmlns="http://www.w3.org/2000/svg" xmlns:xlink="http://www.w3.org/1999/xlink" x="0px" y="0px"
	 viewBox="0 0 593.2 878.4" style="enable-background:new 0 0 593.2 878.4;" xml:space="preserve">
<style type="text/css">
	.st0{fill:#864A20;}
	.st1{fill:#754117;}
	.st2{fill:#DE9A00;}
	.st3{fill:#FFDB6E;}
	.st4{fill:#F2B524;}
	.st5{fill:#F2B725;}
	.st6{fill:#008A64;}
	.st7{fill:#009C87;}
	.st8{fill:#009076;}
	.st9{fill:#007760;}
	.st10{fill:#008D76;}
	.st11{fill:#00614E;}
	.st12{fill:#007762;}
	.st13{fill:#007668;}
	.st14{fill:#006054;}
	.st15{fill:#004A40;}
	.st16{fill:#00624E;}
	.st17{fill:#004A3F;}
	.st18{fill:#003A33;}
	.st19{fill:#003A2B;}
	.st20{fill:#9C191B;}
	.st21{fill:#FFFFFF;}
	.st22{fill:#E5E5E5;}
	.st23{opacity:0.29;fill:#FFFFFF;}
	.st24{fill:#F73C44;}
	.st25{fill:#E9182B;}
	.st26{opacity:7.000000e-02;fill:#FFFFFF;}
	.st27{fill:#E2ECF5;}
	.st28{fill:#D53932;}
	.st29{fill:#FFF6DE;}
</style>
<g>
	<g>
		<path class="st0" d="M272.4,874.2c8.2,2,18.5,3.7,30.4,4.1c14.2,0.5,26.3-1.1,35.7-3c-1-47.2-2-94.4-3-141.5
			c-20.1,10.4-40.2,20.8-60.3,31.2C274.3,801.4,273.3,837.8,272.4,874.2z"/>
		<path class="st1" d="M274.5,793.1c7.5-2.7,15.9-6.3,24.8-11c8.4-4.4,15.6-9,21.8-13.4c1.2,1.6,2.5,3.2,3.9,4.9
			c3.9,4.6,7.8,8.5,11.6,11.8c-0.4-17.2-0.7-34.4-1.1-51.6c-20.1,10.4-40.2,20.8-60.3,31.2C275,774.4,274.7,783.8,274.5,793.1z"/>
		<path class="st2" d="M291.5,98.7c0.5-2.1,0.8-4.5,1-7.3c0.1-2.3,0.1-4.4-0.1-6.2c4-5.5,7.9-10.9,11.9-16.4
			c2.8,2.2,5.5,4.4,8.3,6.5c0.5,2.4,0.9,4.9,1.4,7.3c0.9,4.2,1.8,8.3,2.8,12.3C308.3,96.3,299.9,97.5,291.5,98.7z"/>
		<path class="st3" d="M278.5,75c0.1-1.9,0.1-3.8,0.2-5.7c0-1.3,0-2.5,0-3.7c-3.4-1.7-7.2-3.7-11.1-6.2c-5.4-3.5-9.9-7.1-13.5-10.5
			c3.7-1.9,8.1-3.8,13.1-5.4c6.6-2.1,12.6-3.2,17.5-3.7c0.4-5.2,1-11.1,2.2-17.4c1-5.6,2.3-10.8,3.7-15.3c3,2.9,6.1,6.1,9.3,9.6
			c4.1,4.7,7.7,9.2,10.8,13.5c3.6-1.7,7.8-3.5,12.8-4.9c6.5-1.9,12.3-2.7,17-3c-1.5,3.7-3.4,7.9-5.9,12.3c-3.1,5.4-6.3,9.9-9.3,13.5
			c0.9,2.2,1.8,4.6,2.7,7.1c1,2.9,1.8,5.6,2.5,8.3c0.1,4.8-1.3,6.8-2.5,7.8c-4.8,3.9-12.2-4.3-23.1-1.9c-6.2,1.4-6.9,4.7-14.5,6.1
			C285.5,76.2,281.3,75.6,278.5,75z"/>
		<path class="st4" d="M277.6,96.2c5.2-3.1,11.5-7.5,17.7-13.8c3.4-3.4,6.2-6.8,8.4-9.9c3.9,1.5,8.6,3.1,14,4.2
			c6.2,1.3,11.7,1.9,16.4,2c-0.3-2.4-0.7-5-1.3-7.8c-0.6-2.8-1.4-5.3-2.2-7.5c-0.5,1-1.3,2.3-2.9,3.4c-1,0.7-3.4,2-8.8,1.2
			c-7.9-1.2-14.6-5.8-17.9-8.3c-2,2.4-4.7,5.3-8.4,8.1c-5.3,4-10.5,6.1-14.2,7.2c-0.1,2.2-0.3,6.4-0.3,8.6
			C278,87.6,277.8,92.2,277.6,96.2z"/>
		<path class="st5" d="M287.8,128.7c1-5.2,1.8-10.7,2.5-16.6c0.5-4.6,0.9-9.1,1.2-13.3c1.9-6.2,7.3-10.4,13.3-10.5
			c7.5-0.1,11.7,6.4,12,6.7c0.8,3.6,1.6,7.3,2.4,11.1c1.3,6.8,2.5,13.3,3.4,19.7c-0.2,0.8-2.8,10.4-11.5,13.4
			C302.8,142,292.7,137.9,287.8,128.7z"/>
		<path class="st6" d="M330.6,145.4c-1.3-2.7-2.5-5.5-3.8-8.4c-1.6-3.8-3-7.5-4.3-11.1c-1.4,1.6-6.4,6.9-14.6,8.3
			c-10.9,1.8-18.8-4.4-20.1-5.4c-0.5,2.2-1.5,5.1-3.4,8.2c-2.2,3.7-4.7,6.2-6.6,7.8c1.3,4.1,4.4,11.1,11.2,14.8
			C300.4,165.8,318.3,160.9,330.6,145.4z"/>
		<path class="st7" d="M354,194.7c3.2-0.4,7-1.1,11.2-2.4c6.7-2.1,11.8-5.2,15.4-7.7c-7.2-2.3-18.7-6.8-30.2-16.3
			c-9.9-8.1-16.1-16.8-19.7-22.9c-1.6,1.6-11.3,11.2-26.7,10.9c-15.2-0.3-24.5-9.9-26.1-11.6c-6,7-12.8,14.3-20.3,21.6
			c-12.5,12.2-24.8,22.5-36.2,31c4.1,1.3,9.1,2.6,15,3.4c6.4,0.8,12,0.8,16.5,0.5c33.9,9.2,67.8,18.3,101.7,27.5
			C354.4,217.2,354.2,206,354,194.7z"/>
		<path class="st8" d="M350.5,217.2c-1.5-0.6-3.7-1.5-6.2-2.9c-14.7-8.7-19.4-24.7-20.5-28.4c-1-3.3-2-8.3-2.1-14.5
			c3.8,1.5,8.3,3,13.5,4.1c10.7,2.2,20,1.8,26.6,0.9c2.5,1.5,5.3,3,8.5,4.4c3.7,1.7,7.1,2.9,10.2,3.9c-2.8,2-6.5,4.2-11.1,6.1
			c-6,2.5-11.4,3.5-15.4,4C352.8,202.2,351.6,209.7,350.5,217.2z"/>
		<path class="st8" d="M225.3,194.2c4.6,0,9.8-0.4,15.6-1.8c21-5.3,33.4-20.4,38.1-26.9c1.5,3.3,3.4,7,6.1,10.8
			c7.1,10.2,15.7,16.2,21.6,19.7c-1.4,1.9-9.5,12.5-24.3,14.5c-16.5,2.2-27.9-7.9-29.5-9.4c-4.3,0.3-9.6,0.3-15.6-0.4
			c-6.3-0.7-11.7-2.1-16-3.5C222.7,196.2,224,195.2,225.3,194.2z"/>
		<path class="st9" d="M252.9,201c-1.4,6.1-3.4,13.1-6.6,20.7c-5.1,12-11.3,21.4-16.7,28.2c2.5,2.2,5.1,4.1,7.8,5.7
			c45.8,28.7,115.1-7.8,135.8-19.6c-3.3-5.7-6.6-12-9.8-18.8c-3.7-7.9-6.8-15.5-9.4-22.5c-1.6,0.2-3.6,0.4-5.9,0.1
			c-2.2-0.2-4.1-0.7-5.5-1.1c0.9,4,2.1,8.3,3.7,12.9c1.3,3.9,2.8,7.4,4.2,10.6c-4.3,0.5-11.8,0.9-20.3-2.1
			c-14.1-4.9-21.3-15.6-23.5-19.1c-5.6,2.6-13.9,5.8-24.5,7C269.6,204.5,259.3,202.7,252.9,201z"/>
		<path class="st10" d="M175.2,298.2c6.9-2.9,15.3-7.3,23.8-13.7c15.8-11.8,25.3-25.3,30.6-34.5c3.3,1,6.4,1.7,9.4,2.1
			c30.5,4.1,56-17.5,65.1-26.1c5.2,3.7,12.5,7.9,21.8,10.7c21,6.4,39.2,2,47.3-0.6c5.6,5.5,12.1,11.4,19.7,17.3
			c9.8,7.5,19.2,13.4,27.6,18c-48.4,28.7-96.9,57.4-145.3,86.2c-12.9-18-25.8-35.9-38.7-53.9c-16.9,0.9-33.8,1.9-50.7,2.8
			C182.3,303.7,178.7,300.9,175.2,298.2z"/>
		<path class="st11" d="M219.9,328.4c0.2-1.5,0.4-3,0.5-4.6c0.2-2.9,0.3-5.6,0.2-8.2c4.8-2.4,9.6-4.8,14.5-7.2
			c0.4,0.8,2.8,6.6-0.1,12.4C232.2,326,226.2,329.1,219.9,328.4z"/>
		<path class="st12" d="M280.5,319.3c0.9-3.4,1.6-7.7,1.7-12.7c0.1-7.7-1.4-14-2.8-18.2c-1.8,3.4-5.1,8.2-10.3,12.8
			c-7.7,6.6-15.8,9-20.1,9.9c2.1-2.1,6.3-6.9,8.3-14.3c2.7-10.1-0.6-18.4-1.7-21c-6.1,5.3-15.1,11.8-27.2,16.7
			c-22.7,9.2-43.2,7.3-53.1,5.6c-1.8,0.6-3.5,1.1-5.3,1.7c1.2,1.8,3,4.2,5.6,6.6c9.2,8.4,20.5,9.3,28,9.9c12.6,1.1,23-1.7,29.7-4.1
			c-2.9,4.2-6.4,8.6-10.6,13.2c-6.1,6.7-12.2,12-17.6,16.2c1.6,0.6,3.7,1.3,6.1,1.7c1.8,0.3,3.5,0.4,4.9,0.4
			c5.1,2.1,12.5,4.2,21.4,3.7C263.6,345.8,278.6,322.4,280.5,319.3z"/>
		<path class="st12" d="M382,329.5c5.2-0.6,11.2-1.7,17.6-3.6c8.4-2.4,15.4-5.4,21-8.3c-5.6-3.2-11.5-6.8-17.5-10.7
			c-6-4-11.7-7.9-16.9-11.8c4.8,0.1,12.6-0.3,21.4-3.6c10.8-4.1,17.9-10.5,21.4-14.3c-1-0.6-2-1.2-3-1.9c-2.1-1.4-3.9-2.8-5.6-4.1
			c-4.3,1.6-10.6,3.6-18.4,4.5c-6.7,0.8-22.5,2.4-39.2-6.2c-11.4-5.8-18.5-14-22.5-19.5c-7.3,18.6-17.6,40.4-32.5,63.3
			c-9.2,14.2-18.6,26.4-27.6,36.9c-1.2,2.1-2.4,4.3-3.6,6.4c8.9-3.2,18.2-6.3,27.8-9.2C331.9,339.2,358,333.4,382,329.5z"/>
		<path class="st11" d="M206.7,367.2c1.4-2.6,2.9-5.4,4.2-8.5c2.3-5.4,3.9-10.5,5.1-14.9c5.9,0.7,13.4,1,22-0.6
			c22.4-4.1,36.8-17.8,42.5-23.9c0.3,5.8,0.4,11.9,0.3,18.3c-0.1,5-0.3,9.8-0.6,14.4c6-1.8,13.6-4.9,21.4-10.1
			c16.5-11,24.9-25.4,28.7-33.2c3.5,4.3,12.3,13.8,27,18.6c10.4,3.4,19.4,3,24.7,2.3c0.1,3,0.4,6.9,1.5,11.3c1,4.1,2.4,7.4,3.7,10
			c-45.7,14.8-91.4,29.5-137.2,44.3C235.6,385.8,221.2,376.5,206.7,367.2z"/>
		<path class="st13" d="M452.5,425.7c-10-4.8-27-14.5-42.3-32.9c-13.3-16-19.8-31.9-23-42c-4.4,0.6-9.5,0.8-15.2,0.3
			c-17.4-1.4-30.5-8.7-37.7-13.7c-4,2.2-10,5.5-16.9,10.1c-9.6,6.4-15.1,11.2-20.3,15.2c-7.1,5.5-17.9,12.7-33.2,19.3
			c-0.9-4.9-1.7-10.2-2.3-15.8c-0.6-5.9-1-11.5-1.1-16.7c-6.7,3.5-14.6,7-23.7,10.1c-11.2,3.9-21.5,6.1-30.2,7.5
			c-6.7,11.7-16.2,25.8-29.7,40c-20.9,22-42.7,35.2-58.2,42.9c8.2,4.9,20.6,10.6,36,11.2c17.8,0.7,25.4-6,40.9-5.3
			c18.2,0.9,28.6,11.1,42,19.9c30.3,19.7,73.4,30.5,106.2,23.7c36.2-7.5,60-36.3,72.5-55.6C428.5,437.9,440.5,431.8,452.5,425.7z"/>
		<path class="st14" d="M195.4,460.9c-5.3,3.1-17.4,9-33.4,8.4c-24.1-0.8-39.5-15.6-43.1-19.2c11.6,1.8,38,4.3,67.6-7.9
			c24.5-10,39.9-25.4,47.4-34.1c0.3,7.9,0.2,17.2-0.9,27.4c-1,9-2.6,17-4.3,24c7.1-5.4,16.7-13.9,25.5-26.3
			c9.2-12.9,14.2-25.3,16.9-34c4.3,10.5,9.4,21.6,15.6,33c13.4,24.9,28.1,45.4,41.8,61.6c2.9,1.7,5.7,3.5,8.6,5.2
			c-1.2-11.2-2.4-22.3-3.7-33.5c-2-5.9-3.9-11.8-5.9-17.7c0.2-1.9,0.5-3.9,0.8-5.9c1.7-10.1,4.3-19.1,7.3-27
			c2.7,4.4,6.5,9.7,11.8,14.9c9.2,9.1,18.8,14.1,25.3,16.9c-2-4.4-4.1-9.8-5.6-16c-2.8-11.4-2.9-21.5-2.3-28.7
			c5,5.6,23.5,24.9,53.2,27.9c14.8,1.5,26.9-1.6,34.4-4.2c2.7,1.9,5.5,3.8,8.4,5.6c5.2,3.3,10.3,6.3,15.2,9
			c-5.6,4.9-17.7,14.3-35.8,17.7c-10.9,2.1-20.3,1.4-26.6,0.3c-0.7,9.4-1.4,18.8-2.1,28.1c-24.6,8.6-49.2,17.3-73.8,25.9
			c-50.4-5.1-100.8-10.1-151.2-15.2C189.6,485.1,192.5,473,195.4,460.9z"/>
		<path class="st15" d="M413.8,458.4c0.9,4.3,1.9,8.7,3.1,13.2c3,11.1,6.5,21.2,10.1,30.2c-31.4,15.4-62.8,30.8-94.2,46.2
			c-53.4-10.4-106.9-20.8-160.3-31.2c3.3-7.2,6.5-14.5,9.7-22.1c4.8-11.6,9.2-22.8,13.2-33.8c1.3,2.7,3,7.5,3.1,13.5
			c0.1,9-3.6,15.6-5.3,18.3c9.6-1,22.6-3.5,36.9-9.6c20.5-8.8,34.3-21.1,42.2-29.3c4.8,7,13.6,18,27.9,27.3
			c12.9,8.5,25.2,12.3,33.2,14.1c-2.5-6.5-5.2-15.5-6.2-26.5c-0.7-8-0.4-15.1,0.3-20.8c5.9,6.7,18.8,19.6,39.7,27.3
			c18.5,6.8,34.6,6.5,43.4,5.6c-3.5-3.4-7.5-7.9-11.3-13.5c-4.9-7.3-8-14.3-9.9-19.7c2.8,1.4,5.7,2.8,8.7,4.2
			C403.6,454.4,408.8,456.5,413.8,458.4z"/>
		<path class="st16" d="M67.6,612.1c15.2-7,35.1-18.2,55.4-35.8c24.5-21.2,40.1-43.5,49.5-59.5c10.8-0.2,24.3-1.5,39.4-5.3
			c21.5-5.4,38.1-14,49.6-21c8.3,6.4,19,13.3,32.3,19.1c29.4,12.9,56.4,13.7,72.5,12.8c-1.3-3.6-2.6-7.3-3.8-11.3
			c-2.2-7.4-4-14.4-5.3-21c6.2,3.1,13.7,6.3,22.5,8.6c19.3,5.2,36.1,4.5,47.3,3c3.3,9.4,7.9,19.9,14.3,30.8
			c18,30.8,41.5,50.1,57.8,61c-29.8,10.7-59.6,21.4-89.3,32.1c-20.1,7.8-40.3,15.5-60.4,23.3C255.4,636.7,161.5,624.4,67.6,612.1z"
			/>
		<path class="st17" d="M104.6,690.7c-9.2,11-21.6,23.9-37.9,36.4c-20.3,15.6-39.8,25.5-55,31.8c5.1,2.7,10.3,5.4,15.4,8.2
			c12.2,2.2,26.4,3.8,42.4,3.8c28.8,0,53-5.1,70.8-10.5c-1.6,6.1-3.1,12.3-4.7,18.4c31.7-7.2,63.3-14.3,95-21.5
			c-0.7,3.4-1.7,7.2-3.2,11.2c-2.7,7.3-6.1,13.2-9.2,17.6c2.2,0,4.8-0.2,7.5-0.6c1.9-0.3,3.8-0.6,5.4-1
			c33.6-17.9,67.2-35.7,100.8-53.6c12.6,16.7,25.3,33.4,37.9,50.1c15.4,7.1,30.7,14.1,46.1,21.2c-3.8-3.9-9.2-10.3-13.4-19.5
			c-4.6-10.1-5.7-19.2-5.9-24.8c18.8,7.3,41.5,14.6,67.7,19.9c20.2,4.1,38.9,6.3,55.4,7.3c-5.3-4.3-11.1-9.6-17.1-16.1
			c-6.3-6.9-11.2-13.6-15-19.5c8.9,3.4,22.4,7.4,39.2,7.5c27.2,0.2,47.6-9.9,57.1-15.4c-13.4-4.3-32.7-12.3-52.7-27.2
			c-21.7-16.2-35.5-34.1-43.4-46.2c-37.8-2.8-75.6-5.6-113.4-8.4c-2.1,7.8-4.1,15.6-6.2,23.4c-11.5-0.8-29-3.5-48.1-12.7
			c-12.8-6.1-22.6-13.3-29.6-19.4c-25.8,9.9-51.6,19.9-77.4,29.8c-20.5-1.6-40.9-3.2-61.4-4.8C135.9,680.9,120.2,685.8,104.6,690.7z
			"/>
		<path class="st18" d="M11.6,758.9c4.3,3.9,10.9,9,19.7,13.4c15.7,7.7,29.5,8.5,40.6,9c23.3,1.1,43.6-3.5,59.3-8.9
			c-4.5,5.3-9.1,10.7-13.8,16.1c-4.8,5.5-9.5,10.9-14.2,16.2c16.1,1.1,47.6,0.9,81.8-15.3c20.9-9.9,35.9-22.5,45.5-32.1
			c2.1-6.1,4.2-12.8,6-19.9c3.3-12.8,5.2-24.8,6.3-35.4c-8.4,11-20,24.1-35.7,36.8c-24.5,19.8-48.8,30.4-65.8,36.2
			c2.1-5.1,4.2-10.8,6.1-16.9c2.6-8.4,4.3-16.2,5.6-23.3c-17.8,11.8-56.6,33.5-106.5,30.4C33.4,764.2,21.7,761.8,11.6,758.9z"/>
		<path class="st18" d="M519.6,785.1c-11.6-1.5-25.3-4.5-40-10.3c-40.1-15.9-64.3-43.7-75.8-59.3c0.1,3.9,0.3,7.7,0.4,11.6
			c0.1,4.5,0.3,9,0.4,13.5c-8-0.3-16-0.5-24-0.8c5.4,7.6,11.1,13.7,16.7,18.6C440.7,796.8,502.5,788.1,519.6,785.1z"/>
		<path class="st18" d="M231.1,784.4c4.1-3,10-7.3,17-12.4c37.1-27.1,41.5-31,45.3-34.9c7.7-7.9,17.6-20.3,25.3-39.7
			c1.8,3.5,4,7.3,6.8,11.3c2.5,3.6,5,6.8,7.3,9.6c1.2-1.8,2.4-3.7,3.7-5.6c2.7-4.4,5-8.6,7-12.7c1.9,10.9,5.5,24.2,12.4,38.3
			c17.5,35.9,45.7,55.4,60,63.9c-8.9-0.6-38.6-3.5-62.8-27.3c-13.3-13.1-19.7-27.3-22.8-36c-8.5,8.1-20.2,17.6-35.5,25.9
			C269.7,778.4,246.2,782.8,231.1,784.4z"/>
		<path class="st19" d="M137.7,639.9c-2.7,4.5-5.5,9-8.3,13.6c-8.2,13.1-16.5,25.4-24.8,37.2c11.4,0.9,25.1,1,40.5-0.6
			c13.3-1.4,25.1-3.8,35.1-6.4c12.2,4.6,22.7,5.7,29.4,5.8c23.4,0.6,40.7-8.6,48-12.5c7.7-4.2,13.6-8.7,17.4-11.9
			c0.2,2.1,0.3,5.5-0.9,9.4c-0.9,3.2-2.3,5.6-3.4,7.2c3.1-0.9,7-2.3,11.1-4.7c8.1-4.8,12.8-11,15.3-14.9c3.7,3.9,7.9,7.6,12.8,11.1
			c31.5,22.4,69.4,18,84.6,15.3c-2.1-3-4.3-6.2-6.4-9.8c-2.8-4.8-5.2-9.3-7.2-13.6c8,2.8,17.1,5.4,27.2,7.2
			c32.9,5.9,61.1,0.9,79.5-4.3c-2.7-3.4-5.5-7-8.2-11c-6.2-9.1-10.9-17.9-14.5-25.9c-10.3-10.2-25.1-22-36.6-17.8
			c-7.9,2.9-6.4,10.4-14.5,13.5c-15.2,5.9-30.7-17-54.4-12c-2.5,0.5-4.4,1.2-5.6,1.7c0.1,3.7,0.2,7.5,0.4,11.3
			c0.4,8.2,0.9,16.1,1.5,23.8c-23.7-13.2-47.4-26.4-71.1-39.6c-10.2,8.9-20.4,17.8-30.6,26.7c-8.8-2.7-17.6-5.3-26.5-8
			c-14.3,1.2-28.5,2.4-42.8,3.7c-10.6-3.7-21.2-7.3-31.8-11C147.8,628.9,142.8,634.4,137.7,639.9z"/>
		<path class="st15" d="M54.9,618.6c3.6,2.9,7.6,5.7,11.8,8.2c37.5,22,80.5,13,100.2,7.3c-1.6,3.2-3.3,6.3-5.1,9.6
			c-5.5,9.9-11.2,18.9-16.9,27c14,0.2,38.8-1.4,64.7-15.1c10.8-5.7,19.4-12.2,26-18.2c-2.4,6-4.9,12.1-7.6,18.3
			c-2.1,5-4.3,9.9-6.5,14.6c8.2-1.5,26.1-5.8,42.8-20.6c13-11.5,19.7-24.2,22.8-31.5c3.5,8.3,10.3,21.1,22.8,32.9
			c21.2,20,45.6,24.6,55.2,25.9c-2.6-7.1-5.1-15.4-7-24.8c-2.7-13.2-3.4-25-3.4-34.6c6.3,7.6,16.2,17.5,30.7,25.6
			c29.6,16.5,58.8,14.2,70.1,12.7c-3.4-5.1-7-10.4-11-15.8c-4.9-6.7-9.8-12.9-14.6-18.6c13.1,5.5,49.8,18.6,86.8,3.1
			c7-2.9,13.1-6.5,18.4-10.3c-3.2-1.5-6.5-3.1-9.8-4.9c-9.7-5.1-18.5-10.5-26.3-16c-7.8,2.4-17.6,4.5-28.9,4.7
			c-32.5,0.7-56.7-14.1-67-21.4c-0.5,5.7-0.6,13,0.6,21.4c1,7.2,2.8,13.4,4.5,18.3c-8.2-2.8-19.3-7.4-31-15.5
			c-11.2-7.7-19.3-16-24.8-22.5c-0.2,7-0.3,14.2-0.3,21.7c0.1,14.2,0.8,27.7,2,40.3c-5.7-4.9-12.2-11.1-18.6-18.9
			c-6-7.2-10.7-14.1-14.4-20.3c-0.8,2-1.5,4.5-2,7.3c-0.3,1.8-0.5,3.5-0.6,5.1c-4.8-3.1-9.9-6.9-15.2-11.5
			c-9.4-8.3-16.4-16.7-21.4-23.9c-3.4,7.9-6.9,16-10.7,24.2c-3.3,7.1-6.6,14.1-9.9,20.8c-0.3-5.7-0.5-11.8-0.6-18
			c0-8.9,0.3-17.4,0.8-25.3c-4.6,7.3-11.2,16.3-20.6,25.3c-11.8,11.3-23.6,18.4-32.4,22.8c0.1-3.3,0.5-7,1.1-11
			c0.8-4.9,1.9-9.2,3.1-13c-4.2,3.7-9.5,7.9-16,11.8c-6.8,4.1-13.2,7-18.6,9c3.2-3.4,6.7-7.9,9.9-13.5c6.7-11.8,8.7-23,9.3-30.1
			c-22.1,11-52.3,22.6-89.5,27.9c-14.6,2.1-28.2,2.8-40.5,2.8C63.4,614.3,59.2,616.4,54.9,618.6z"/>
	</g>
	<path class="st20" d="M158.5,538.1c-1.2-0.3-3-0.6-5-0.5c-5.2,0.2-12,2.7-15.2,8.3c-3.1,5.4-1.7,11.3-1.2,13.2
		c2.5,10.5,12.8,19.4,31.3,27.1c12.7,5.3,32.7,11.5,73,11.8c21.5,0.1,51,0.1,88.6-9.9c29.5-7.8,49.4-18,56-21.5
		c28-14.8,63.2-40.4,58.9-55c-0.7-2.3-3.5-7.6-9.1-11.1c-4-2.5-8-3-10.3-3.2c0.9,2.4,1.8,4.7,2.8,7.1l0,0c0,0,0,0,0,0
		s0.9,3.6-2.5,8.3c-27.7,38-100.6,55.8-100.6,55.8c-3.6,0.9-90.8,21.6-144.8,1.9c-22.6-8.2-29.5-16.9-28.6-20.7
		c0.3-1.4,2.7-5.9,5.5-9.8C157.6,539.2,158.1,538.6,158.5,538.1z"/>
	<path class="st20" d="M247.5,218.6c-1,2.6-2.5,6.2-4.6,10.4c-3.9,7.9-5.3,8.6-5,10c1.2,6.9,34.7,10.4,70.4,3.7
		c35.1-6.5,56.3-19.8,55.3-24.9c-0.1-0.5-0.4-0.9-2.4-5.2c-1.3-2.9-2.4-5.4-3-6.9c1,0,2.4,0.1,4,0.4c1.6,0.3,7,1.6,10.9,6.5
		c0.8,1.1,3.9,5.1,3.7,10.3c-0.2,4.1-2.4,7.7-6.3,11.4c-17.3,16.8-40.5,22.6-40.5,22.6c-20.6,6.7-38.3,8.7-50.5,9.3
		c-35.9,1.8-48.2-7.8-51.7-10.8c-6.4-5.5-7.1-9.7-7.2-11C219.9,235.3,230.4,225,247.5,218.6z"/>
	<path class="st21" d="M214.3,349.7c-0.7,1.9-1.8,5-3.2,8.7c-1.6,4.4-1.8,4.7-1.9,5.2c-0.6,3.5,2.7,9.6,17.2,17
		c39.7,20.2,77.6,22.5,77.6,22.5c57.5,3.5,103.1-8.2,102.9-13.9c0-0.6-0.5-0.7-3.8-5.7c-2-3-3.5-5.5-4.5-7.1c2.5,0.3,6.5,1,10.8,3.3
		c3.2,1.7,7.6,3.9,9.2,8.2c0,0,1.9,5-1.8,12.1c-6.4,12.2-56.9,32.3-130.8,20.8c-60.2-9.4-89.9-32.6-93.3-45.2
		c-1.4-5.1-0.1-9.3-0.1-9.3c1.9-6.7,8.2-10.5,11.3-12.4C206.1,352.4,209.6,350.6,214.3,349.7z"/>
	<path class="st21" d="M487.3,667.7c1.2,0,2.9,0,5,0.5c6,1.3,12.7,5.5,15.2,11.9c1.3,3.3,1.6,7.4,0.7,10
		c-8.6,26.4-140.6,33.9-140.6,33.9s-220.9,11-262.5-42.2c-3-3.8-2.9-7.6-2.9-7.6c0.2-10.7,19-18.3,27.4-21.3
		c-1.1,1.6-2.7,4.1-4.6,7.3c-2.4,4-3.6,6-3.7,6.7c-1.6,9.7,46.1,22.2,46.1,22.2s59.8,15.7,127.5,15.3c0,0,0,0,0,0c0,0,0,0,0,0
		c0.2,0,102.3,2.4,172.7-15.1c0,0,26.7-6.6,25.5-12.9c-0.1-0.4-1.1-1.8-3.1-4.8C489,670.1,488.1,668.7,487.3,667.7z"/>
	<g>
		<path class="st21" d="M326.9,378.6c-45,0-83.3-14.8-83.8-15c-6.4-2.5-43.8-17.3-41.9-27.5c0.9-4.8,10.4-7.2,18.9-8.4
			c0,0.3-0.1,0.5-0.1,0.8c-0.3,0.3-0.6,0.6-0.9,0.9c-7.2,1-15.6,2.9-16.4,7.1c-1.8,9.2,34.7,23.4,41,25.8
			c0.7,0.3,67.4,26.1,127.8,9.3c5.5-1.5,23.5-6.4,23.1-10.7c-0.1-1.6-2.7-2.6-4.9-3.3c-0.2-0.6-0.5-1.2-0.7-1.8c3.1,1,6.9,2.6,7.1,5
			c0.4,5.4-19,10.8-24.2,12.2C356.8,377,341.5,378.6,326.9,378.6z"/>
	</g>
	<g>
		<path class="st21" d="M306.9,160.6c-1.6,0-3.2-0.1-4.9-0.2c-12.6-1.2-25.4-7.7-29-12.7c-0.6-0.8-1.2-2-1-3.2c0.8-3.4,8.8-4,9.9-4
			c-0.5,0.6-1,1.1-1.4,1.7c-1.3,0.1-6.5,0.6-7,2.7c-0.2,0.8,0.5,1.6,0.7,2c3,4.2,15.2,10.8,28,12.1c16.1,1.6,31.6-5.3,35.4-9.5
			c0.2-0.2,0.9-0.8,0.8-1.4c-0.2-1.3-3.7-1.8-7.3-2c-0.1-0.2-0.3-0.5-0.4-0.7c-0.1-0.2-0.2-0.5-0.3-0.7c1.8,0.1,9,0.5,9.6,3.1
			c0.2,1-0.5,1.9-1.1,2.7C335.1,154.3,321.6,160.6,306.9,160.6z"/>
	</g>
	<g>
		<path class="st21" d="M247,547.7c-25.6,0-49.1-2.9-68.2-8.7c-6.2-1.9-23.8-7.5-23.4-12.8c0.3-3.5,8.6-5.7,15.7-7
			c-0.3,0.5-0.6,1.1-1,1.6c-5.9,1-13,2.7-13.3,5.6c-0.4,4.5,16.5,9.5,22.3,11.2c45,13.7,114.7,10.9,177.5-7.1
			c0.2-0.1,23.9-6.9,54-23.9c8.6-4.9,25-14,23.6-17.9c-0.8-2.2-7-2.1-12.7-1.6c-0.2-0.5-0.3-1-0.5-1.5c6.3-0.4,13.7-0.3,14.6,2.6
			c1.6,4.8-15.6,14.8-24.3,19.7c-29.1,16.4-52,23.3-54.3,24l0,0C320.7,542.3,281.9,547.7,247,547.7z"/>
	</g>
	<g>
		<path class="st21" d="M305.5,680.3c-17.5,0-35.7-0.8-54.6-2.5c-54.1-4.7-127.4-17.5-127-28.7c0.1-1.9,2.3-4.6,12.8-7.6
			c-0.4,0.6-0.8,1.3-1.1,1.9c-4.6,1.2-10,3.1-10.1,5.7c-0.1,1.5,1.2,7,41.8,15.3c24.1,4.9,55.4,9.4,83.8,11.8
			c67.9,5.9,127.6,1.1,172.8-13.9c17.2-5.7,53.7-18.9,52.4-24.4c-0.4-1.8-5.1-2.3-9.1-2.5c-0.2-0.5-0.5-1-0.7-1.6
			c8.9,0.7,11,2.3,11.3,3.7c0.9,4.3-14.8,11.6-24.9,15.7c-13.1,5.3-27,9.9-28.5,10.5C391.5,674.8,351.1,680.3,305.5,680.3z"/>
	</g>
	<g>
		<circle class="st21" cx="284.6" cy="210.2" r="15"/>
		<path class="st22" d="M289.1,195.9C289.1,195.9,289.1,195.9,289.1,195.9c-7.4-0.1-13.9,5.2-15.1,12.6c-1.2,7.3,3.2,14.5,10.3,16.8
			c0,0,0,0,0,0c7.3,0.2,13.9-5.1,15.1-12.6C300.6,205.2,296.1,198.1,289.1,195.9z"/>
		<path class="st23" d="M295.7,212.1c-1.6,7.3-7.6,10.6-8.5,11.1c5.2-1.2,9.2-5.1,10.4-10.1c1.5-6.7-3-11.7-3.4-12.1
			C294.8,202.2,296.9,206.6,295.7,212.1z"/>
		<path class="st21" d="M293,195.1c0.2-1.1-0.6-2.2-1.7-2.4l-2.5-0.4l0.6-3.5c0.1-0.3-0.2-0.6-0.5-0.7l-0.2,0
			c-0.3-0.1-0.6,0.2-0.7,0.5l-0.6,3.5l-2.5-0.4c-1.1-0.2-2.2,0.6-2.4,1.7c0,0.1,0,0.1,0,0.2c0,0,0,0.1,0,0.2l-0.5,2.9
			c-0.1,0.4,0.2,0.9,0.7,0.9c0.4,0.1,0.9-0.2,0.9-0.7l0.2-1.2c0.1,0.1,0.3,0.1,0.4,0.1l0.2,0l-0.2,1.1c-0.1,0.4,0.2,0.9,0.7,0.9
			c0.4,0.1,0.9-0.2,0.9-0.7l0.2-1.1l0.6,0.1l-0.2,1.1c-0.1,0.4,0.2,0.9,0.7,0.9s0.9-0.2,0.9-0.7l0.2-1.1l0.6,0.1l-0.2,1.1
			c-0.1,0.4,0.2,0.9,0.7,0.9s0.9-0.2,0.9-0.7l0.2-1.1l0.2,0c0.1,0,0.3,0,0.4,0l-0.2,1.2c-0.1,0.4,0.2,0.9,0.7,0.9
			c0.4,0.1,0.9-0.2,0.9-0.7l0.5-2.9c0-0.1,0-0.1,0-0.2C292.9,195.2,293,195.2,293,195.1z"/>
	</g>
	<g>
		<circle class="st21" cx="118.2" cy="724.2" r="15"/>
		<path class="st22" d="M120.2,709.3C120.2,709.3,120.2,709.3,120.2,709.3c-7.3,1.2-12.8,7.6-12.7,15c0.1,7.4,5.7,13.7,13,14.7
			c0,0,0,0,0,0c7.3-1.1,12.8-7.4,12.7-15C133.2,716.4,127.5,710.2,120.2,709.3z"/>
		<path class="st23" d="M129.5,724.1c-0.3,7.4-5.7,11.8-6.5,12.4c4.9-2,8.2-6.6,8.4-11.8c0.3-6.9-5-11-5.5-11.4
			C126.9,714.5,129.8,718.5,129.5,724.1z"/>
		<path class="st21" d="M123.9,707.8c0-1.1-1-2.1-2.1-2.1l-2.5,0l0-3.5c0-0.3-0.3-0.6-0.6-0.6l-0.2,0c-0.3,0-0.6,0.3-0.6,0.6l0,3.5
			l-2.5,0c-1.1,0-2.1,1-2.1,2.1c0,0.1,0,0.1,0,0.2c0,0.1,0,0.1,0,0.2l0,2.9c0,0.1,0.1,0.3,0.2,0.5c0.2,0.3,0.5,0.3,0.6,0.3
			c0.7,0,1.5,0,2.2,0c0.3-0.3,0.5-0.6,0.8-0.8l0-1.2l0.6,0l0,1.2c0,0.5,0.4,0.8,0.8,0.8c0.5,0,0.8-0.4,0.8-0.8l0-1.2l0.6,0l0,1.2
			c0,0.5,0.4,0.8,0.8,0.8c0.5,0,0.8-0.4,0.8-0.8l0-1.2l0.2,0c0.1,0,0.3,0,0.4-0.1l0,1.2c0,0.5,0.4,0.8,0.8,0.8
			c0.5,0,0.8-0.4,0.8-0.8l0-2.9c0-0.1,0-0.1,0-0.2C123.9,707.9,123.9,707.9,123.9,707.8z"/>
	</g>
	<g>
		<circle class="st21" cx="297.8" cy="554.9" r="15"/>
		<path class="st22" d="M299.8,540C299.8,540,299.8,540,299.8,540c-7.3,1.2-12.8,7.6-12.7,15c0.1,7.4,5.7,13.7,13,14.7c0,0,0,0,0,0
			c7.3-1.1,12.8-7.4,12.7-15C312.8,547.2,307.1,541,299.8,540z"/>
		<path class="st23" d="M309.1,554.9c-0.3,7.4-5.7,11.8-6.5,12.4c4.9-2,8.2-6.6,8.4-11.8c0.3-6.9-5-11-5.5-11.4
			C306.5,545.3,309.3,549.2,309.1,554.9z"/>
		<path class="st21" d="M303.5,538.6c0-1.1-1-2.1-2.1-2.1l-2.5,0l0-3.5c0-0.3-0.3-0.6-0.6-0.6l-0.2,0c-0.3,0-0.6,0.3-0.6,0.6l0,3.5
			l-2.5,0c-1.1,0-2.1,1-2.1,2.1c0,0.1,0,0.1,0,0.2c0,0.1,0,0.1,0,0.2l0,2.9c0,0.5,0.4,0.8,0.8,0.8c0.5,0,0.8-0.4,0.8-0.8l0-1.2
			c0.1,0,0.3,0,0.4,0l0.2,0l0,1.2c0,0.5,0.4,0.8,0.8,0.8c0.5,0,0.8-0.4,0.8-0.8l0-1.2l0.6,0l0,1.2c0,0.5,0.4,0.8,0.8,0.8
			c0.5,0,0.8-0.4,0.8-0.8l0-1.2l0.6,0l0,1.2c0,0.5,0.4,0.8,0.8,0.8c0.5,0,0.8-0.4,0.8-0.8l0-1.2l0.2,0c0.1,0,0.3,0,0.4-0.1l0,1.2
			c0,0.5,0.4,0.8,0.8,0.8c0.5,0,0.8-0.4,0.8-0.8l0-2.9c0-0.1,0-0.1,0-0.2C303.5,538.7,303.5,538.7,303.5,538.6z"/>
	</g>
	<g>
		<circle class="st24" cx="311.1" cy="398.7" r="15"/>
		<path class="st25" d="M313.6,383.9C313.6,383.9,313.6,383.9,313.6,383.9c-7.4,0.9-13,7.2-13.2,14.6c-0.2,7.4,5.2,13.9,12.5,15.1
			c0,0,0,0,0,0c7.3-0.9,13-7,13.2-14.6S320.8,385.1,313.6,383.9z"/>
		<path class="st23" d="M322.4,399.1c-0.5,7.4-6.1,11.6-6.9,12.2c5-1.9,8.4-6.4,8.8-11.5c0.6-6.9-4.7-11.2-5.1-11.5
			C320.1,389.4,322.8,393.4,322.4,399.1z"/>
		<path class="st21" d="M317.3,382.6c0-1.1-0.9-2.1-2-2.1l-2.5-0.1l0.1-3.5c0-0.3-0.3-0.6-0.6-0.6l-0.2,0c-0.3,0-0.6,0.3-0.6,0.6
			l-0.1,3.5l-2.5-0.1c-1.1,0-2.1,0.9-2.1,2c0,0.1,0,0.1,0,0.2c0,0.1,0,0.1,0,0.2l-0.1,2.9c0,0.5,0.4,0.8,0.8,0.8
			c0.5,0,0.8-0.4,0.8-0.8l0-1.2c0.1,0,0.3,0.1,0.4,0.1l0.2,0l0,1.2c0,0.5,0.4,0.8,0.8,0.8c0.5,0,0.8-0.4,0.8-0.8l0-1.2l0.6,0l0,1.2
			c0,0.5,0.4,0.8,0.8,0.8c0.5,0,0.8-0.4,0.8-0.8l0-1.2l0.6,0l0,1.2c0,0.5,0.4,0.8,0.8,0.8c0.5,0,0.8-0.4,0.8-0.8l0-1.2l0.2,0
			c0.1,0,0.3,0,0.4,0l0,1.2c0,0.5,0.4,0.8,0.8,0.8c0.5,0,0.8-0.4,0.8-0.8l0.1-2.9c0-0.1,0-0.1,0-0.2
			C317.3,382.7,317.3,382.7,317.3,382.6z"/>
	</g>
	<g>
		<circle class="st24" cx="346" cy="270.1" r="15"/>
		<path class="st25" d="M346,255.1C346,255.1,346,255.1,346,255.1c-7.1,2.1-11.7,9.2-10.6,16.6c1.1,7.3,7.4,12.9,14.9,12.9
			c0,0,0,0,0,0c7-2.1,11.7-9.1,10.6-16.6C359.8,260.4,353.4,255,346,255.1z"/>
		<path class="st23" d="M357.2,268.5c0.7,7.4-4.1,12.5-4.8,13.2c4.6-2.7,7.2-7.7,6.8-12.8c-0.6-6.9-6.4-10.3-6.9-10.5
			C353.3,259.4,356.7,262.9,357.2,268.5z"/>
		<path class="st21" d="M349.4,253.1c-0.2-1.1-1.2-1.9-2.4-1.8l-2.5,0.4l-0.5-3.5c0-0.3-0.4-0.6-0.7-0.5l-0.2,0
			c-0.3,0-0.6,0.4-0.5,0.7l0.5,3.5l-2.5,0.4c-1.1,0.2-1.9,1.2-1.8,2.4c0,0.1,0,0.1,0,0.2c0,0.1,0,0.1,0,0.2l0.4,2.9
			c0.1,0.4,0.5,0.8,0.9,0.7c0.4-0.1,0.8-0.5,0.7-0.9l-0.2-1.2c0.1,0,0.3,0,0.4,0l0.2,0l0.2,1.2c0.1,0.4,0.5,0.8,0.9,0.7
			c0.4-0.1,0.8-0.5,0.7-0.9l-0.2-1.2l0.6-0.1l0.2,1.2c0.1,0.4,0.5,0.8,0.9,0.7c0.4-0.1,0.8-0.5,0.7-0.9l-0.2-1.2l0.6-0.1l0.2,1.2
			c0.1,0.4,0.5,0.8,0.9,0.7c0.4-0.1,0.8-0.5,0.7-0.9l-0.2-1.2l0.2,0c0.1,0,0.3-0.1,0.4-0.1l0.2,1.2c0.1,0.4,0.5,0.8,0.9,0.7
			c0.4-0.1,0.8-0.5,0.7-0.9l-0.4-2.9c0-0.1,0-0.1,0-0.2C349.4,253.3,349.4,253.2,349.4,253.1z"/>
	</g>
	<g>
		<circle class="st24" cx="367.4" cy="695" r="15"/>
		<path class="st25" d="M367.6,680C367.6,680,367.6,680,367.6,680c-7.1,2-11.7,9.1-10.7,16.5c1,7.4,7.3,12.9,14.7,13c0,0,0,0,0,0
			c7.1-2,11.8-9,10.7-16.5C381.3,685.5,374.9,680,367.6,680z"/>
		<path class="st23" d="M378.6,693.5c0.6,7.4-4.2,12.4-4.9,13.1c4.6-2.6,7.3-7.6,6.9-12.7c-0.5-6.9-6.3-10.3-6.8-10.6
			C374.8,684.3,378.2,687.9,378.6,693.5z"/>
		<path class="st21" d="M371,678.1c-0.2-1.1-1.2-1.9-2.3-1.8l-2.5,0.3l-0.5-3.5c0-0.3-0.4-0.6-0.7-0.5l-0.2,0
			c-0.3,0-0.6,0.4-0.5,0.7l0.5,3.5l-2.5,0.3c-1.1,0.2-1.9,1.2-1.8,2.3c0,0.1,0,0.1,0,0.2c0,0.1,0,0.1,0,0.2l0.4,2.9
			c0.1,0.5,0.5,0.8,0.9,0.7c0.5-0.1,0.8-0.5,0.7-0.9l-0.2-1.2c0.1,0,0.3,0,0.4,0l0.2,0l0.2,1.2c0.1,0.5,0.5,0.8,0.9,0.7
			s0.8-0.5,0.7-0.9l-0.2-1.2l0.6-0.1l0.2,1.2c0.1,0.5,0.5,0.8,0.9,0.7c0.5-0.1,0.8-0.5,0.7-0.9l-0.2-1.2l0.6-0.1l0.2,1.2
			c0.1,0.5,0.5,0.8,0.9,0.7c0.5-0.1,0.8-0.5,0.7-0.9l-0.2-1.2l0.2,0c0.1,0,0.3-0.1,0.4-0.1l0.2,1.2c0.1,0.5,0.5,0.8,0.9,0.7
			c0.5-0.1,0.8-0.5,0.7-0.9l-0.4-2.9c0-0.1,0-0.1,0-0.2C371,678.2,371,678.1,371,678.1z"/>
	</g>
	<g>
		<circle class="st24" cx="427.1" cy="557.4" r="15"/>
		<path class="st25" d="M429.1,542.5C429.1,542.5,429.1,542.5,429.1,542.5c-7.3,1.2-12.8,7.6-12.7,15c0.1,7.4,5.7,13.7,13,14.7
			c0,0,0,0,0,0c7.3-1.1,12.8-7.4,12.7-15C442,549.7,436.4,543.5,429.1,542.5z"/>
		<path class="st23" d="M438.4,557.3c-0.3,7.4-5.7,11.8-6.5,12.4c4.9-2,8.2-6.6,8.4-11.8c0.3-6.9-5-11-5.5-11.4
			C435.7,547.8,438.6,551.7,438.4,557.3z"/>
		<path class="st21" d="M432.7,541.1c0-1.1-1-2.1-2.1-2.1l-2.5,0l0-3.5c0-0.3-0.3-0.6-0.6-0.6l-0.2,0c-0.3,0-0.6,0.3-0.6,0.6l0,3.5
			l-2.5,0c-1.1,0-2.1,1-2.1,2.1c0,0.1,0,0.1,0,0.2c0,0.1,0,0.1,0,0.2l0,2.9c0,0.5,0.4,0.8,0.8,0.8c0.5,0,0.8-0.4,0.8-0.8l0-1.2
			c0.1,0,0.3,0,0.4,0l0.2,0l0,1.2c0,0.5,0.4,0.8,0.8,0.8c0.5,0,0.8-0.4,0.8-0.8l0-1.2l0.6,0l0,1.2c0,0.5,0.4,0.8,0.8,0.8
			c0.5,0,0.8-0.4,0.8-0.8l0-1.2l0.6,0l0,1.2c0,0.5,0.4,0.8,0.8,0.8c0.5,0,0.8-0.4,0.8-0.8l0-1.2l0.2,0c0.1,0,0.3,0,0.4-0.1l0,1.2
			c0,0.5,0.4,0.8,0.8,0.8c0.5,0,0.8-0.4,0.8-0.8l0-2.9c0-0.1,0-0.1,0-0.2C432.7,541.2,432.7,541.1,432.7,541.1z"/>
	</g>
	<g>
		<circle class="st24" cx="150.9" cy="594.6" r="15"/>
		<path class="st25" d="M154.3,580C154.3,580,154.3,580,154.3,580c-7.4,0.5-13.4,6.4-14,13.8c-0.6,7.4,4.4,14.2,11.6,15.9
			c0,0,0,0,0,0c7.3-0.5,13.4-6.2,14-13.8C166.5,588.3,161.4,581.6,154.3,580z"/>
		<path class="st23" d="M162.2,595.6c-1,7.4-6.7,11.2-7.6,11.8c5.1-1.6,8.8-5.8,9.5-10.9c1-6.8-4-11.4-4.4-11.8
			C160.4,585.8,162.9,590,162.2,595.6z"/>
		<path class="st21" d="M158,578.9c0.1-1.1-0.8-2.1-1.9-2.2l-2.5-0.2l0.3-3.5c0-0.3-0.2-0.6-0.6-0.7l-0.2,0c-0.3,0-0.6,0.2-0.7,0.6
			l-0.3,3.5l-2.5-0.2c-1.1-0.1-2.1,0.8-2.2,1.9c0,0.1,0,0.1,0,0.2c0,0,0,0.1,0,0.2l-0.2,2.9c0,0.5,0.3,0.8,0.8,0.9
			c0.5,0,0.8-0.3,0.9-0.8l0.1-1.2c0.1,0,0.3,0.1,0.4,0.1l0.2,0l-0.1,1.2c0,0.5,0.3,0.8,0.8,0.9c0.5,0,0.8-0.3,0.9-0.8l0.1-1.2l0.6,0
			l-0.1,1.2c0,0.5,0.3,0.8,0.8,0.9c0.5,0,0.8-0.3,0.9-0.8l0.1-1.2l0.6,0l-0.1,1.2c0,0.5,0.3,0.8,0.8,0.9c0.5,0,0.8-0.3,0.9-0.8
			l0.1-1.2l0.2,0c0.1,0,0.3,0,0.4,0l-0.1,1.2c0,0.5,0.3,0.8,0.8,0.9c0.5,0,0.8-0.3,0.9-0.8l0.2-2.9c0-0.1,0-0.1,0-0.2
			C158,579,158,578.9,158,578.9z"/>
	</g>
	<g>
		<g>
			<path class="st26" d="M523.7,652.3c4.3-0.1,8.2-2.2,10.8-5.3c-7,0.5-13.9,1.1-20.9,1.6C516.2,651.1,519.8,652.5,523.7,652.3z"/>
			<path class="st21" d="M527.8,638.7c-1.4,0.3-3.6,0.9-6.8,1.1c-1.4,0.1-2.9,0.2-4.3,0.2c-2.4,0.1-2.9,0-5.6,0.1c0,0-0.5,0-2.3,0.2
				c0.6,3.3,2.3,6.3,4.7,8.4c7-0.5,13.9-1.1,20.9-1.6c2.1-2.6,3.4-5.9,3.4-9.5C534.6,637.7,531.1,638,527.8,638.7z"/>
		</g>
		<path class="st25" d="M520.7,637.9l-2.4-1.3l-0.1-2.7l5.2,2.8l0.1,2.7L520.7,637.9z M521,628.7l2.3-1.4l8,4.3l-7.7,4.8l-5.2-2.8
			l2.3-1.4l2.8,1.5l3.1-1.9L521,628.7z M520.6,628.9l5.2,2.8l-2.3,1.4l-2.8-1.5l-2.7,1.7l-2.4-1.3L520.6,628.9z M515.4,632.4
			l2.4,1.3l0.1,3.2l2.8,1.5l0.1,2.7l-5.2-2.8L515.4,632.4z M515.6,638.8l5.6,3l-0.1-3.2l2.4,1.3l0.2,5.9l-8-4.3L515.6,638.8z
			 M524.1,645.7l-0.2-5.9l5-3.1l0.1,2.7l-2.7,1.7l0.1,3.2L524.1,645.7z M531.8,641l-5,3.1l-0.1-2.7l5-3.1L531.8,641z M529.4,639.2
			l-0.1-2.4l2.2,1.2L529.4,639.2z M531.6,634.6l-7.7,4.8l-0.1-2.7l7.7-4.8L531.6,634.6z"/>
		<path class="st21" d="M529.4,630.3c0.7,0.4,1.3,0.7,2,1.1c0,0.2,0,0.3,0,0.4c0,0.1,0,0.1,0,0.2c0,0.1,0,0.2,0,0.3
			c0,0,0,0.1-0.1,0.1c0,0-0.1-0.1-0.1-0.2c0-0.1,0-0.1,0-0.2c0-0.1-0.1-0.1-0.2-0.1c0,0,0,0.1-0.1,0.2c0,0.1,0,0.2-0.1,0.2
			c-0.1,0-0.2-0.1-0.2-0.1c0,0,0,0-0.1,0.3c0,0.2,0,0.3,0,0.4c0,0-0.1,0.2-0.1,0.2c-0.1,0-0.1-0.1-0.2-0.2c-0.1-0.2-0.1-0.3-0.2-0.3
			c-0.1-0.1-0.2-0.1-0.2-0.1c-0.1,0-0.1,0-0.2,0c-0.1-0.1-0.2-0.1-0.4-0.1c-0.3,0-0.4,0.1-0.6,0c-0.2,0-0.3-0.1-0.4-0.1
			c-0.2-0.1-0.2-0.2-0.4-0.3c-0.2-0.1-0.2,0-0.3-0.1c-0.1-0.1-0.2-0.2-0.2-0.3c0-0.3,0.2-0.4,0.2-0.7c0-0.1,0-0.1,0-0.2
			c0-0.1,0.1-0.1,0.3-0.2c0.3-0.1,0.4-0.2,0.5-0.2c0.2,0,0.3,0,0.5-0.1c0.1,0,0.2-0.1,0.3-0.2C529.1,630.1,529.2,630.2,529.4,630.3"
			/>
		<path class="st21" d="M525.5,635.6c0-0.1,0-0.2,0-0.4c0,0,0,0,0,0s0,0,0,0c0,0,0,0,0,0l0,0c-0.2-0.1-0.3-0.1-0.3-0.2
			c-0.1-0.1-0.2-0.2-0.3-0.3c-0.1,0-0.2,0-0.2,0c-0.1,0-0.1,0-0.2,0c-0.2,0-0.2,0-0.3,0.1c-0.2,0-0.2,0.1-0.4,0.2
			c-0.1,0-0.1,0-0.3,0.1c-0.2,0-0.4,0-0.4-0.1c-0.2-0.1-0.2-0.1-0.4-0.1c-0.1,0-0.1,0-0.3,0c-0.1,0-0.1,0-0.2,0c0,0-0.1,0-0.2,0
			c-0.1,0.1-0.2,0.2-0.3,0.3c-0.1,0.1-0.2,0.1-0.3,0.2l0.4,0.2c0,0,0,0.1,0.1,0.2c0,0,0,0.1,0,0.1c0,0.1,0,0.1,0,0.2
			c0,0.1,0,0.1,0,0.2c0,0.1,0,0.1,0,0.1c0,0,0.1,0.1,0.1,0.1c0,0,0,0,0.1,0c0,0,0,0,0.1,0.1c0,0,0.1,0.1,0.1,0c0,0,0.1-0.1,0.1-0.1
			c0-0.1,0-0.1,0-0.2c0-0.1,0-0.1,0-0.2c0,0,0,0.1,0,0.1c0,0,0,0,0,0.1c0,0.1,0,0.1,0,0.1c0,0,0,0,0,0c0,0,0,0,0,0.1c0,0,0,0,0,0.1
			c0,0,0,0,0,0.1c0,0,0,0,0,0.1c0,0,0,0.1,0,0.1c0,0,0,0,0.1,0c0,0,0,0,0.1,0c0,0,0.1,0,0.1,0c0,0,0,0,0,0.1c0,0.1,0,0.1,0,0.2
			c0,0,0,0.1,0.1,0.1c0,0,0.1,0.1,0.1,0c0,0,0,0,0,0c0,0,0,0,0.1,0c0,0,0.1,0,0.1,0c0,0,0.1-0.1,0.1-0.1c0,0,0,0,0-0.1
			c0,0,0.1-0.1,0.1-0.1c0.1-0.1,0.1-0.1,0.1-0.2c0,0,0-0.1,0-0.1c0,0,0-0.1,0-0.1l0.1,0.1c0,0,0,0,0,0c0,0,0,0,0,0c0,0,0,0,0,0
			c0,0,0,0,0,0c0,0.4,0,0.7,0.1,1.1c0,0.2,0.1,0.3,0.1,0.3c0.1,0,0.2-0.1,0.5-0.2c0.1,0,0.2,0,0.2-0.1c0.1-0.1,0.1-0.1,0.3-0.3
			c0.2-0.3,0.3-0.4,0.3-0.5c0.1-0.1,0.2-0.1,0.3-0.3c0.1-0.1,0.1-0.1,0.2-0.3c0-0.1,0.1-0.1,0.1-0.1c0,0,0.1-0.1,0.1-0.2
			C525.7,635.8,525.6,635.8,525.5,635.6z"/>
		<path class="st21" d="M519.2,629.5c0,0-0.1,0.1-0.2,0.2c-0.3,0.2-0.4,0.2-0.4,0.3c-0.1,0.2,0.1,0.4,0.1,0.9c0,0.2-0.1,0.3,0,0.5
			c0,0,0.1,0.2,0.2,0.3c0.3,0.2,0.6,0.3,0.8,0.3c0.4,0.1,0.7,0,1-0.1c0.3-0.1,0.3-0.1,0.8-0.3c0.4-0.1,0.6-0.2,0.9-0.2
			c0.5,0,0.5,0.3,1,0.3c0.1,0,0.4-0.1,0.6-0.3c0.1-0.2,0.2-0.4,0.2-0.8c0-0.4,0-0.7,0-1c-0.1-0.2-0.1-0.4-0.3-0.5
			c-0.2-0.2-0.4-0.1-0.6-0.4c-0.2-0.2-0.2-0.3-0.3-0.3c-0.2-0.1-0.3,0-0.4,0c-0.1,0-0.4,0-0.6-0.2
			C519.9,629,519.3,629.4,519.2,629.5"/>
		<path class="st21" d="M515.4,632c0.4-0.2,0.8-0.5,1.2-0.7c0.3,0,0.5,0.1,0.6,0.1c0.1,0,0.2,0.1,0.4,0.3c0.1,0.1,0.2,0.1,0.2,0.2
			c0.1,0.1,0,0.2,0.1,0.3c0,0.1,0.1,0.1,0.2,0.4c0,0.1,0.1,0.2,0.1,0.3c0,0,0,0.3-0.1,0.4c-0.1,0-0.1,0-0.3,0c-0.1,0-0.2,0-0.2,0
			c-0.1,0.2-0.1,0.3-0.1,0.4c0,0.2-0.1,0.3-0.1,0.4c0,0.1,0,0.2,0,0.2c0,0.1-0.1,0.1-0.1,0.1c-0.2,0.1-0.2,0.1-0.3,0.2
			c0,0.1,0,0.1-0.1,0.2c-0.1,0.1-0.1,0.2-0.2,0.2c-0.1,0.1-0.1,0.1-0.2,0.1c-0.1,0-0.2-0.2-0.2-0.2c-0.1-0.1-0.1-0.2,0-0.3
			c0-0.2,0-0.2,0-0.4c0-0.1,0-0.3-0.1-0.3c0,0-0.1,0.1-0.1,0.2c0,0.2,0,0.2-0.1,0.3c-0.1,0.1-0.2,0.1-0.2,0.1
			c-0.1,0-0.2-0.2-0.2-0.3c0,0,0-0.1,0-0.1C515.5,633.3,515.4,632.7,515.4,632"/>
		<path class="st21" d="M519.2,646.2c0.7-0.6,1.9-1.4,3.4-1.8c3.5-0.9,6.4,0.8,7.1,1.3c0.9-1,1.7-1.3,2.3-1.4c1-0.2,1.4,0.3,2.4,0.4
			c0.7,0.1,1-0.1,1,0c0.1,0.2-1.3,1.4-7.8,5.5"/>
		<path class="st21" d="M510.2,640.8c1-1.4,1.9-1.6,2.2-1.6c0.2,0,0.7,0.1,1.7,0.2c0.9,0.1,1.4,0.2,1.6,0.3c0.5,0.3,0.7,0.7,1.4,1.8
			c0.3,0.5,0.7,1.1,1.3,1.9"/>
		<path class="st21" d="M533.5,642.1c0-0.1,0.1-0.3,0.2-0.5c0.1-0.2,0.3-0.6,0.7-0.8c0.4-0.2,0.6,0,0.9-0.3c0.3-0.2,0.3-0.4,0.5-0.7
			c0.2-0.2,0.6-0.4,1.3-0.3"/>
		<g>
			<circle class="st26" cx="523.2" cy="637.7" r="14.6"/>
			<path class="st26" d="M524.8,623.2C524.8,623.2,524.8,623.2,524.8,623.2c-7.1,1.3-12.3,7.6-12,14.9c0.2,7.2,5.8,13.2,13,14
				c0,0,0,0,0,0c7-1.3,12.3-7.5,12-14.9C537.6,629.9,531.9,624,524.8,623.2z"/>
			<path class="st23" d="M534.2,637.4c-0.1,7.2-5.3,11.6-6,12.2c4.7-2.1,7.8-6.6,7.9-11.6c0.2-6.7-5.1-10.6-5.6-10.9
				C531.4,628.2,534.3,632,534.2,637.4z"/>
			<path class="st21" d="M528.3,621.7c0-1.1-1-2-2.1-2l-2.4,0.1l-0.1-3.4c0-0.3-0.3-0.6-0.6-0.6l-0.2,0c-0.3,0-0.6,0.3-0.6,0.6
				l0.1,3.4L520,620c-1.1,0-2,1-2,2.1c0,0.1,0,0.1,0,0.2c0,0,0,0.1,0,0.2l0.1,2.8c0,0.4,0.4,0.8,0.8,0.8c0.4,0,0.8-0.4,0.8-0.8
				l0-1.2c0.1,0,0.3,0,0.4,0l0.1,0l0,1.1c0,0.4,0.4,0.8,0.8,0.8c0.4,0,0.8-0.4,0.8-0.8l0-1.1l0.6,0l0,1.1c0,0.4,0.4,0.8,0.8,0.8
				c0.4,0,0.8-0.4,0.8-0.8l0-1.1l0.6,0l0,1.1c0,0.4,0.4,0.8,0.8,0.8s0.8-0.4,0.8-0.8l0-1.1l0.1,0c0.1,0,0.3,0,0.4-0.1l0,1.2
				c0,0.4,0.4,0.8,0.8,0.8c0.4,0,0.8-0.4,0.8-0.8l-0.1-2.8c0-0.1,0-0.1,0-0.2C528.3,621.9,528.3,621.8,528.3,621.7z"/>
		</g>
		<g>
			<path class="st27" d="M523.7,652.3c5.1-0.2,9.6-3,12-7.1c-3.6,0.1-4.4,0.2-5,0.2c-1.1,0.1-2.7,0.4-5.8,0.9
				c-3.7,0.6-3.4,0.6-4.2,0.7c-2,0.2-4.6,0.5-8,0c-0.2,0-0.5-0.1-0.9-0.2C514.6,650.3,518.9,652.5,523.7,652.3z"/>
			<path class="st26" d="M523.7,652.3c5.1-0.2,9.6-3,12-7.1c-3.6,0.1-4.4,0.2-5,0.2c-1.1,0.1-2.7,0.4-5.8,0.9
				c-3.7,0.6-3.4,0.6-4.2,0.7c-2,0.2-4.6,0.5-8,0c-0.2,0-0.5-0.1-0.9-0.2C514.6,650.3,518.9,652.5,523.7,652.3z"/>
		</g>
	</g>
	<g>
		<g>
			<path class="st26" d="M206.2,466.1c4.5-0.2,8.4-2.4,11-5.6c-7.2,0.7-14.3,1.3-21.5,2C198.5,465,202.3,466.3,206.2,466.1z"/>
			<path class="st21" d="M210.2,452c-1.4,0.3-3.7,0.9-6.9,1.3c-1.5,0.1-2.9,0.2-4.4,0.3c-2.4,0.1-2.9,0.1-5.8,0.2c0,0-0.5,0-2.3,0.2
				c0.7,3.4,2.5,6.4,5,8.6c7.2-0.7,14.3-1.3,21.5-2c2.2-2.7,3.4-6.1,3.3-9.8C217.2,450.8,213.6,451.2,210.2,452z"/>
		</g>
		<path class="st28" d="M202.9,451.3l-2.5-1.3l-0.1-2.8l5.4,2.8l0.1,2.8L202.9,451.3z M203.1,441.8l2.3-1.5l8.3,4.3l-7.8,5.1
			l-5.4-2.8l2.3-1.5l2.9,1.5l3.2-2.1L203.1,441.8z M202.7,442.1l5.4,2.8l-2.3,1.5l-2.9-1.5l-2.8,1.8l-2.5-1.3L202.7,442.1z
			 M197.4,445.8l2.5,1.3l0.2,3.3l2.9,1.5l0.1,2.8l-5.4-2.8L197.4,445.8z M197.7,452.3l5.8,3l-0.2-3.3l2.5,1.3l0.3,6l-8.3-4.3
			L197.7,452.3z M206.6,459.3l-0.3-6l5.1-3.3l0.1,2.8l-2.8,1.8l0.2,3.3L206.6,459.3z M214.4,454.3l-5.1,3.3l-0.1-2.8l5.1-3.3
			L214.4,454.3z M211.9,452.5l-0.1-2.5l2.2,1.2L211.9,452.5z M214.1,447.7l-7.8,5.1l-0.1-2.8l7.8-5.1L214.1,447.7z"/>
		<path class="st21" d="M211.8,443.4c0.7,0.4,1.4,0.7,2,1.1c0,0.2,0,0.3,0,0.4c0,0.1,0,0.1,0,0.2c0,0.1,0,0.2,0,0.3
			c0,0,0,0.1-0.1,0.2c0,0-0.1-0.1-0.1-0.2c0-0.1,0-0.2,0-0.2c0-0.1-0.1-0.1-0.2-0.1c0,0,0,0.1-0.1,0.2c0,0.1,0,0.2-0.1,0.2
			c-0.1,0-0.2-0.1-0.2-0.1c0,0,0,0-0.1,0.3c0,0.2,0,0.3,0,0.4c0,0-0.1,0.2-0.1,0.2c-0.1,0-0.1-0.1-0.2-0.2c-0.1-0.2-0.1-0.3-0.2-0.3
			c-0.1-0.1-0.2-0.1-0.2-0.1c-0.1,0-0.1,0-0.2,0c-0.1-0.1-0.2-0.1-0.4-0.1c-0.3,0-0.4,0.1-0.6,0.1c-0.2,0-0.4-0.1-0.4-0.1
			c-0.2-0.1-0.2-0.2-0.4-0.3c-0.2-0.1-0.2,0-0.4-0.1c-0.1-0.1-0.2-0.2-0.2-0.3c0-0.3,0.2-0.4,0.2-0.7c0-0.1,0-0.2,0-0.2
			c0-0.1,0.1-0.1,0.3-0.2c0.3-0.1,0.5-0.2,0.5-0.2c0.2-0.1,0.3,0,0.5-0.1c0.1,0,0.2-0.1,0.3-0.2
			C211.4,443.2,211.6,443.3,211.8,443.4"/>
		<path class="st21" d="M207.9,448.9c0-0.1,0-0.2,0-0.4c0,0,0,0,0,0c0,0,0,0,0,0c0,0,0,0,0,0l0,0c-0.2-0.1-0.3-0.1-0.3-0.2
			c-0.1-0.1-0.2-0.2-0.3-0.3c-0.1,0-0.2,0-0.2,0c-0.1,0-0.1,0-0.2,0c-0.2,0-0.2,0-0.3,0.1c-0.2,0-0.2,0.1-0.4,0.2
			c-0.1,0-0.1,0-0.3,0.1c-0.2,0-0.4,0-0.5-0.1c-0.2-0.1-0.2-0.1-0.4-0.1c-0.1,0-0.2,0-0.3,0c-0.1,0-0.1,0-0.2,0c0,0-0.1,0-0.2,0.1
			c-0.1,0.1-0.2,0.2-0.3,0.3c-0.1,0.1-0.2,0.2-0.3,0.2l0.4,0.2c0,0,0.1,0.1,0.1,0.2c0,0,0,0.1,0,0.1c0,0.1,0,0.1,0,0.2
			c0,0.1,0,0.1,0,0.2c0,0.1,0,0.1,0.1,0.1c0,0,0.1,0.1,0.1,0.1c0,0,0,0,0.1,0c0,0,0,0,0.1,0.1c0,0,0.1,0.1,0.1,0
			c0,0,0.1-0.1,0.1-0.1c0-0.1,0-0.1,0-0.2c0-0.1,0-0.1,0-0.3c0,0,0,0.1,0,0.1c0,0,0,0,0,0.1c0,0.1,0,0.1,0,0.1c0,0,0,0,0,0
			c0,0,0,0,0,0.1c0,0,0,0,0.1,0.1c0,0,0,0,0,0.1c0,0,0,0,0,0.1c0,0,0,0.1,0,0.1c0,0,0,0,0.1,0c0,0,0,0,0.1,0c0,0,0.1,0,0.1,0
			c0,0,0,0,0,0.1c0,0.1,0,0.1,0,0.2c0,0,0,0.1,0.1,0.1c0,0,0.1,0.1,0.1,0c0,0,0,0,0.1,0c0,0,0,0,0.1,0c0,0,0.1,0,0.1,0
			c0,0,0.1-0.1,0.1-0.1c0,0,0,0,0-0.1c0-0.1,0.1-0.1,0.1-0.1c0.1-0.1,0.1-0.1,0.1-0.2c0,0,0-0.1,0-0.1c0,0,0-0.1,0-0.1l0.1,0.1
			c0,0,0,0,0,0c0,0,0,0,0,0c0,0,0,0,0,0c0,0,0,0,0,0c0,0.4,0,0.7,0.1,1.1c0,0.2,0.1,0.3,0.1,0.3c0.1,0,0.2-0.1,0.5-0.2
			c0.1,0,0.2,0,0.2-0.1c0.1-0.1,0.2-0.1,0.3-0.3c0.2-0.3,0.3-0.4,0.3-0.5c0.1-0.1,0.2-0.1,0.3-0.3c0.1-0.1,0.1-0.1,0.2-0.3
			c0-0.1,0.1-0.1,0.1-0.2c0,0,0.1-0.1,0.1-0.2C208,449.1,207.9,449.1,207.9,448.9z"/>
		<path class="st21" d="M201.2,442.7c0,0-0.1,0.1-0.2,0.2c-0.3,0.2-0.4,0.2-0.4,0.3c-0.1,0.2,0.1,0.4,0.1,0.9c0,0.2-0.1,0.3,0,0.5
			c0,0,0.1,0.2,0.2,0.3c0.3,0.3,0.6,0.3,0.8,0.3c0.4,0,0.8-0.1,1-0.1c0.4-0.1,0.3-0.2,0.8-0.3c0.4-0.1,0.7-0.2,0.9-0.2
			c0.5,0,0.6,0.3,1,0.2c0.1,0,0.4-0.1,0.6-0.3c0.1-0.2,0.2-0.4,0.2-0.9c0-0.4,0-0.7-0.1-1c-0.1-0.2-0.2-0.4-0.3-0.6
			c-0.2-0.2-0.4-0.1-0.7-0.4c-0.2-0.2-0.2-0.3-0.4-0.3c-0.2-0.1-0.3,0-0.5,0c-0.2,0-0.4,0-0.7-0.2
			C202,442.2,201.4,442.6,201.2,442.7"/>
		<path class="st21" d="M197.4,445.3c0.4-0.3,0.8-0.5,1.2-0.8c0.3,0,0.5,0.1,0.6,0.1c0.1,0,0.2,0.1,0.4,0.3c0.1,0.1,0.2,0.1,0.2,0.2
			c0.1,0.1,0,0.2,0.1,0.3c0,0.1,0.1,0.1,0.2,0.4c0,0.1,0.1,0.2,0.1,0.3c0,0,0,0.3-0.1,0.4c-0.1,0-0.1,0-0.3,0c-0.1,0-0.2,0-0.2,0
			c-0.1,0.2-0.1,0.3-0.1,0.4c0,0.2-0.1,0.3,0,0.4c0,0.1,0,0.2,0,0.2c0,0.1-0.1,0.1-0.1,0.1c-0.2,0.1-0.2,0.1-0.3,0.2
			c0,0.1,0,0.1-0.1,0.2c0,0.1-0.1,0.2-0.2,0.2c-0.1,0.1-0.1,0.1-0.2,0.1c-0.1,0-0.2-0.2-0.2-0.2c-0.1-0.1-0.1-0.2-0.1-0.3
			c0-0.2,0-0.2,0-0.4c0-0.1-0.1-0.3-0.1-0.3c0,0-0.1,0.1-0.1,0.2c0,0.2,0,0.2-0.1,0.3c-0.1,0.1-0.2,0.1-0.2,0.1
			c-0.1,0-0.2-0.2-0.2-0.3c0,0,0-0.1,0-0.1C197.5,446.7,197.4,446,197.4,445.3"/>
		<path class="st21" d="M201.5,459.9c0.7-0.6,1.9-1.4,3.5-1.9c3.6-1,6.6,0.8,7.3,1.2c0.9-1,1.8-1.3,2.3-1.5c1-0.2,1.5,0.3,2.4,0.4
			c0.7,0.1,1-0.1,1,0c0.1,0.2-1.3,1.5-8,5.8"/>
		<path class="st21" d="M192.2,454.5c1-1.5,1.9-1.7,2.3-1.7c0.2,0,0.7,0,1.7,0.2c0.9,0.1,1.4,0.2,1.6,0.3c0.6,0.3,0.7,0.7,1.5,1.8
			c0.3,0.5,0.8,1.1,1.4,1.9"/>
		<path class="st21" d="M216.2,455.5c0-0.1,0.1-0.3,0.2-0.5c0.1-0.2,0.3-0.6,0.7-0.8c0.4-0.2,0.6,0,0.9-0.3c0.3-0.2,0.3-0.5,0.5-0.7
			c0.2-0.2,0.6-0.4,1.4-0.3"/>
		<g>
			<circle class="st26" cx="205.5" cy="451.1" r="15"/>
			<path class="st26" d="M206.9,436.2C206.9,436.2,206.9,436.2,206.9,436.2c-7.3,1.4-12.5,8.1-12.1,15.5c0.4,7.4,6.2,13.5,13.6,14.2
				c0,0,0,0,0,0c7.2-1.4,12.5-7.9,12.1-15.5C220.2,442.8,214.3,436.8,206.9,436.2z"/>
			<path class="st23" d="M216.8,450.6c0,7.5-5.2,12-6,12.7c4.8-2.2,7.9-6.9,8-12.1c0.1-6.9-5.4-10.8-5.9-11.2
				C213.8,441.2,216.8,445,216.8,450.6z"/>
			<path class="st21" d="M210.5,434.6c-0.1-1.1-1-2-2.2-2l-2.5,0.1l-0.2-3.5c0-0.3-0.3-0.6-0.6-0.6l-0.2,0c-0.3,0-0.6,0.3-0.6,0.6
				l0.2,3.5l-2.5,0.1c-1.1,0.1-2,1-2,2.2c0,0.1,0,0.1,0,0.2c0,0.1,0,0.1,0,0.2l0.1,2.9c0,0.5,0.4,0.8,0.9,0.8c0.5,0,0.8-0.4,0.8-0.9
				l-0.1-1.2c0.1,0,0.3,0,0.4,0l0.2,0l0.1,1.2c0,0.5,0.4,0.8,0.9,0.8c0.5,0,0.8-0.4,0.8-0.9l-0.1-1.2l0.6,0l0.1,1.2
				c0,0.5,0.4,0.8,0.9,0.8c0.5,0,0.8-0.4,0.8-0.9l-0.1-1.2l0.6,0l0.1,1.2c0,0.5,0.4,0.8,0.9,0.8c0.5,0,0.8-0.4,0.8-0.9l-0.1-1.2
				l0.2,0c0.1,0,0.3,0,0.4-0.1l0.1,1.2c0,0.5,0.4,0.8,0.9,0.8c0.5,0,0.8-0.4,0.8-0.9l-0.1-2.9c0-0.1,0-0.1,0-0.2
				C210.5,434.7,210.5,434.6,210.5,434.6z"/>
		</g>
		<g>
			<path class="st27" d="M206.2,466.1c5.3-0.3,9.8-3.2,12.3-7.5c-3.7,0.2-4.5,0.2-5.1,0.3c-1.2,0.2-2.8,0.4-6,1
				c-3.8,0.7-3.5,0.6-4.3,0.8c-2,0.3-4.8,0.6-8.2,0.1c-0.2,0-0.5-0.1-0.9-0.1C196.8,464.2,201.3,466.4,206.2,466.1z"/>
			<path class="st26" d="M206.2,466.1c5.3-0.3,9.8-3.2,12.3-7.5c-3.7,0.2-4.5,0.2-5.1,0.3c-1.2,0.2-2.8,0.4-6,1
				c-3.8,0.7-3.5,0.6-4.3,0.8c-2,0.3-4.8,0.6-8.2,0.1c-0.2,0-0.5-0.1-0.9-0.1C196.8,464.2,201.3,466.4,206.2,466.1z"/>
		</g>
	</g>
	<g>
		<path class="st29" d="M382.9,456.7c-1-1-2.5-3.1-3.1-5.8c-0.2-0.9-0.3-1.7-0.3-2.3c0,0.6-0.1,1.4-0.3,2.3
			c-0.7,2.7-2.2,4.8-3.2,5.8c-3.8,3.9-8.6,3.8-9.4,3.8c-0.9,0,6,0.4,9.6,3.9c2.6,2.5,3.1,6.1,3.2,8.6c0.1-2.5,0.6-6.1,3.2-8.6
			c3.7-3.5,10.5-4,9.6-3.9C391.5,460.5,386.6,460.6,382.9,456.7z"/>
		<path class="st29" d="M269.1,744.1c-0.6-0.6-1.4-1.8-1.7-3.3c-0.1-0.5-0.2-1-0.2-1.3c0,0.3-0.1,0.8-0.2,1.3
			c-0.4,1.6-1.2,2.7-1.8,3.3c-2.1,2.2-4.9,2.2-5.3,2.2c-0.5,0,3.4,0.2,5.5,2.2c1.5,1.4,1.8,3.5,1.8,4.9c0-1.4,0.3-3.5,1.8-4.9
			c2.1-2,6-2.2,5.5-2.2C274,746.3,271.2,746.4,269.1,744.1z"/>
		<path class="st29" d="M227.4,558c-0.4-0.4-0.9-1.2-1.2-2.2c-0.1-0.3-0.1-0.7-0.1-0.9c0,0.2,0,0.5-0.1,0.9c-0.3,1-0.8,1.8-1.2,2.2
			c-1.4,1.5-3.3,1.5-3.6,1.5c-0.4,0,2.3,0.2,3.7,1.5c1,1,1.2,2.3,1.2,3.3c0-0.9,0.2-2.3,1.2-3.3c1.4-1.3,4-1.5,3.7-1.5
			C230.7,559.5,228.8,559.5,227.4,558z"/>
		<path class="st29" d="M182.2,639c-1-1-2.5-3.1-3.1-5.8c-0.2-0.9-0.3-1.7-0.3-2.3c0,0.6-0.1,1.4-0.3,2.3c-0.7,2.7-2.2,4.8-3.2,5.8
			c-3.8,3.9-8.6,3.8-9.4,3.8c-0.9,0,6,0.4,9.6,3.9c2.6,2.5,3.1,6.1,3.2,8.6c0.1-2.5,0.6-6.1,3.2-8.6c3.7-3.5,10.5-4,9.6-3.9
			C190.9,642.9,186,643,182.2,639z"/>
		<path class="st29" d="M239.3,370.1c-0.4-0.4-0.9-1.2-1.2-2.2c-0.1-0.3-0.1-0.7-0.1-0.9c0,0.2,0,0.5-0.1,0.9
			c-0.3,1-0.8,1.8-1.2,2.2c-1.4,1.5-3.3,1.5-3.6,1.5c-0.4,0,2.3,0.2,3.7,1.5c1,1,1.2,2.3,1.2,3.3c0-0.9,0.2-2.3,1.2-3.3
			c1.4-1.3,4-1.5,3.7-1.5C242.6,371.6,240.7,371.6,239.3,370.1z"/>
		<path class="st29" d="M394.3,623.2c-0.6-0.6-1.4-1.8-1.7-3.3c-0.1-0.5-0.2-1-0.2-1.3c0,0.3-0.1,0.8-0.2,1.3
			c-0.4,1.6-1.2,2.7-1.8,3.3c-2.1,2.2-4.9,2.2-5.3,2.2c-0.5,0,3.4,0.2,5.5,2.2c1.5,1.4,1.8,3.5,1.8,4.9c0-1.4,0.3-3.5,1.8-4.9
			c2.1-2,6-2.2,5.5-2.2C399.2,625.3,396.4,625.4,394.3,623.2z"/>
		<path class="st29" d="M203.4,508.9c-0.9-0.9-2.1-2.7-2.6-5c-0.2-0.8-0.2-1.5-0.2-1.9c0,0.5-0.1,1.2-0.3,2c-0.6,2.4-1.8,4.1-2.7,5
			c-3.2,3.3-7.4,3.3-8,3.3c-0.8,0,5.1,0.4,8.2,3.4c2.2,2.1,2.7,5.3,2.7,7.4c0.1-2.1,0.5-5.2,2.7-7.4c3.1-3,9-3.4,8.2-3.4
			C210.8,512.2,206.7,512.3,203.4,508.9z"/>
		<path class="st29" d="M499.1,717.9c-0.4-0.4-0.9-1.2-1.2-2.2c-0.1-0.3-0.1-0.7-0.1-0.9c0,0.2,0,0.5-0.1,0.9
			c-0.3,1-0.8,1.8-1.2,2.2c-1.4,1.5-3.3,1.5-3.6,1.5c-0.4,0,2.3,0.2,3.7,1.5c1,1,1.2,2.3,1.2,3.3c0-0.9,0.2-2.3,1.2-3.3
			c1.4-1.3,4-1.5,3.7-1.5C502.4,719.4,500.5,719.4,499.1,717.9z"/>
		<path class="st29" d="M378.5,307c-0.4-0.4-0.9-1.2-1.2-2.2c-0.1-0.3-0.1-0.7-0.1-0.9c0,0.2,0,0.5-0.1,0.9c-0.3,1-0.8,1.8-1.2,2.2
			c-1.4,1.5-3.3,1.5-3.6,1.5c-0.4,0,2.3,0.2,3.7,1.5c1,1,1.2,2.3,1.2,3.3c0-0.9,0.2-2.3,1.2-3.3c1.4-1.3,4-1.5,3.7-1.5
			C381.8,308.5,380,308.5,378.5,307z"/>
		<path class="st29" d="M354.4,384.3c-0.6-0.6-1.4-1.8-1.7-3.3c-0.1-0.5-0.2-1-0.2-1.3c0,0.3-0.1,0.8-0.2,1.3
			c-0.4,1.6-1.2,2.7-1.8,3.3c-2.1,2.2-4.9,2.2-5.3,2.2c-0.5,0,3.4,0.2,5.5,2.2c1.5,1.4,1.8,3.5,1.8,4.9c0-1.4,0.3-3.5,1.8-4.9
			c2.1-2,6-2.2,5.5-2.2C359.3,386.5,356.5,386.6,354.4,384.3z"/>
		<path class="st29" d="M269.1,433.8c-0.6-0.6-1.4-1.8-1.7-3.3c-0.1-0.5-0.2-1-0.2-1.3c0,0.3-0.1,0.8-0.2,1.3
			c-0.4,1.6-1.2,2.7-1.8,3.3c-2.1,2.2-4.9,2.2-5.3,2.2c-0.5,0,3.4,0.2,5.5,2.2c1.5,1.4,1.8,3.5,1.8,4.9c0-1.4,0.3-3.5,1.8-4.9
			c2.1-2,6-2.2,5.5-2.2C274,436,271.2,436.1,269.1,433.8z"/>
		<path class="st29" d="M173.7,433.5c-0.5-0.6-1.3-1.7-1.6-3.1c-0.1-0.5-0.1-0.9-0.2-1.2c0,0.3-0.1,0.7-0.2,1.2
			c-0.4,1.5-1.2,2.6-1.7,3.1c-2,2.1-4.6,2.1-5,2c-0.5,0,3.2,0.2,5.2,2.1c1.4,1.3,1.7,3.3,1.7,4.6c0-1.3,0.3-3.3,1.7-4.6
			c2-1.9,5.7-2.1,5.2-2.1C178.4,435.6,175.7,435.7,173.7,433.5z"/>
		<path class="st29" d="M291.5,515.5c-0.2-0.3-0.6-0.8-0.8-1.5c-0.1-0.2-0.1-0.4-0.1-0.6c0,0.1,0,0.3-0.1,0.6
			c-0.2,0.7-0.5,1.2-0.8,1.4c-0.9,1-2.1,1-2.3,0.9c-0.2,0,1.5,0.1,2.4,1c0.6,0.6,0.8,1.5,0.8,2.1c0-0.6,0.1-1.5,0.8-2.1
			c0.9-0.9,2.6-1,2.4-1C293.6,516.4,292.4,516.5,291.5,515.5z"/>
		<path class="st29" d="M159.2,755.9c-0.3-0.3-0.8-1-1-1.9c-0.1-0.3-0.1-0.6-0.1-0.7c0,0.2,0,0.4-0.1,0.7c-0.2,0.9-0.7,1.6-1,1.9
			c-1.2,1.3-2.8,1.2-3,1.2c-0.3,0,1.9,0.1,3.1,1.3c0.8,0.8,1,2,1,2.8c0-0.8,0.2-2,1-2.8c1.2-1.1,3.4-1.3,3.1-1.3
			C162,757.2,160.4,757.2,159.2,755.9z"/>
		<path class="st29" d="M109.1,699.8c-0.4-0.5-1.1-1.4-1.4-2.6c-0.1-0.4-0.1-0.8-0.1-1c0,0.3-0.1,0.6-0.2,1c-0.3,1.2-1,2.1-1.4,2.6
			c-1.7,1.7-3.9,1.7-4.2,1.7c-0.4,0,2.7,0.2,4.3,1.8c1.2,1.1,1.4,2.8,1.4,3.9c0-1.1,0.3-2.7,1.4-3.9c1.6-1.6,4.7-1.8,4.3-1.8
			C113,701.6,110.8,701.6,109.1,699.8z"/>
		<path class="st29" d="M261.3,277.6c-0.6-0.6-1.4-1.8-1.7-3.3c-0.1-0.5-0.2-1-0.2-1.3c0,0.3-0.1,0.8-0.2,1.3
			c-0.4,1.6-1.2,2.7-1.8,3.3c-2.1,2.2-4.9,2.2-5.3,2.2c-0.5,0,3.4,0.2,5.5,2.2c1.5,1.4,1.8,3.5,1.8,4.9c0-1.4,0.3-3.5,1.8-4.9
			c2.1-2,6-2.2,5.5-2.2C266.2,279.7,263.4,279.8,261.3,277.6z"/>
		<path class="st29" d="M395.1,260c-0.4-0.4-0.9-1.2-1.1-2.2c-0.1-0.3-0.1-0.6-0.1-0.8c0,0.2,0,0.5-0.1,0.9c-0.3,1-0.8,1.8-1.2,2.2
			c-1.4,1.5-3.2,1.4-3.5,1.4c-0.3,0,2.2,0.2,3.6,1.5c1,0.9,1.2,2.3,1.2,3.2c0-0.9,0.2-2.3,1.2-3.2c1.4-1.3,3.9-1.5,3.6-1.5
			C398.3,261.4,396.5,261.4,395.1,260z"/>
		<path class="st29" d="M274,172.4c-0.4-0.4-0.9-1.2-1.2-2.2c-0.1-0.3-0.1-0.7-0.1-0.9c0,0.2,0,0.5-0.1,0.9c-0.3,1-0.8,1.8-1.2,2.2
			c-1.4,1.5-3.3,1.5-3.6,1.5c-0.4,0,2.3,0.2,3.7,1.5c1,1,1.2,2.3,1.2,3.3c0-0.9,0.2-2.3,1.2-3.3c1.4-1.3,4-1.5,3.7-1.5
			C277.3,173.9,275.5,173.9,274,172.4z"/>
		<path class="st29" d="M348.6,189c-0.5-0.5-1.1-1.4-1.4-2.7c-0.1-0.4-0.1-0.8-0.1-1c0,0.3-0.1,0.6-0.2,1.1c-0.3,1.3-1,2.2-1.5,2.7
			c-1.7,1.8-4,1.8-4.3,1.7c-0.4,0,2.7,0.2,4.4,1.8c1.2,1.1,1.4,2.8,1.5,3.9c0-1.1,0.3-2.8,1.5-3.9c1.7-1.6,4.8-1.8,4.4-1.8
			C352.5,190.8,350.3,190.8,348.6,189z"/>
	</g>
</g>
</svg>
