<?xml version="1.0" encoding="utf-8"?>
<!-- Generator: Adobe Illustrator 23.1.0, SVG Export Plug-In . SVG Version: 6.00 Build 0)  -->
<svg version="1.1" id="Camada_1" xmlns="http://www.w3.org/2000/svg" xmlns:xlink="http://www.w3.org/1999/xlink" x="0px" y="0px"
	 viewBox="0 0 593.2 522.2" style="enable-background:new 0 0 593.2 522.2;" xml:space="preserve">
<style type="text/css">
	.st0{fill:#9C191B;}
	.st1{fill:#FFFFFF;}
	.st2{fill:none;}
	.st3{fill:#FFDB6E;}
	.st4{fill:#F2B524;}
	.st5{fill:#1C6131;}
	.st6{fill:#009C87;}
</style>
<path class="st0" d="M146.6,274.5l-27.2-7.7l-7.1-27l58.8,16.5l7.1,27L146.6,274.5z M128.9,181l20-19.3l90.4,25.3l-66.9,65.8
	l-58.8-16.5l20-19.3l31.6,8.8l27-26.2L128.9,181z M125.3,183.9l58.8,16.5L164,219.7l-31.6-8.8L109,234.2l-27.2-7.7L125.3,183.9z
	 M80.7,231l27.2,7.7l8.2,32.1l31.6,8.8l7.1,27L96,290.1L80.7,231z M97.2,295.1l63.3,17.6l-8.2-32.1l27.2,7.7l15.3,59.1l-90.4-25.3
	L97.2,295.1z M198.6,345.5l-15.3-59.1l43.4-42.6l7.1,27l-23.4,23.3l8.2,32.1L198.6,345.5z M265.6,280.7l-43.4,42.6l-7.1-27
	l43.4-42.6L265.6,280.7z M237.4,268l-6.4-24l24.9,7.1L237.4,268z M249.2,216.6l-66.9,65.8l-7.1-27l66.9-65.8L249.2,216.6z"/>
<path class="st1" d="M397.1,305.1H281c-18,0-32.6-14.6-32.6-32.6V89.6c0-18,14.6-32.6,32.6-32.6h116.2c18,0,32.6,14.6,32.6,32.6
	v182.8C429.8,290.5,415.2,305.1,397.1,305.1z"/>
<g>
	<path class="st2" d="M299.6,39.4C169.8,39.4,64,141.8,58.4,270.2h482.4C535.2,141.8,429.3,39.4,299.6,39.4z"/>
	<path class="st0" d="M299.6,39.4c129.8,0,235.6,102.4,241.2,230.8h25.7c-5.7-142.6-123-256.5-266.9-256.5S38.3,127.6,32.7,270.2
		h25.7C64,141.8,169.8,39.4,299.6,39.4z"/>
</g>
<g>
	<path class="st3" d="M492.9,279.5c-17.3-3.2-18.9-10.7-33-13.9c-24.8-5.5-41.6,13.2-52.5,4.3c-2.7-2.3-5.9-6.8-5.7-17.7
		c1.6-6.1,3.4-12.3,5.7-18.9c2-5.7,4.1-11.1,6.1-16.1c-6.8-8.2-14.1-18.4-21.1-30.7c-5.7-10-10-19.6-13.4-28
		c10.7,0.7,23.9,2.5,38.6,6.8c11.4,3.2,20.9,7.3,29.1,11.1c7-9.8,15.2-20,24.6-30.7c7.3-8,14.3-15.2,21.1-21.8
		c3.2,10.2,6.1,22.1,8.4,34.8c2.7,14.3,4.1,27.7,5,39.6c11.1,1.1,24.8,3.6,39.8,8.4c11.4,3.6,21.4,8,29.8,12.3
		c-8.2,7.7-18.4,15.9-30.7,23.9c-8.9,5.7-17.5,10.2-25.2,14.1c0,2.7,0,5.5,0,8.4c0.2,4.3,0.2,8.6,0.5,13
		C513.6,279.7,504,281.1,492.9,279.5z"/>
	<path class="st4" d="M520.8,297.9c0-5-0.5-14.6-0.7-19.6c-8.4-2.5-20.2-7.3-32.3-16.4c-8.4-6.4-14.6-13-19.1-18.4
		c-7.5,5.7-22.7,16.1-40.7,18.9c-12.3,1.8-17.7-1.1-20-2.7c-3.6-2.5-5.5-5.5-6.6-7.7c-1.8,5-3.6,10.7-5,17.1s-2.3,12.3-3,17.7
		c10.7-0.2,23.2-1.6,37.3-4.5c12.3-2.5,23-6.1,31.8-9.5c5,7,11.4,14.8,19.1,22.5c14.1,14.3,28.4,24.3,40.2,31.4
		C521.5,317.5,521.1,307,520.8,297.9z"/>
</g>
<rect x="299.6" y="57" class="st0" width="19.8" height="221.5"/>
<rect x="248.3" y="114.8" class="st0" width="181.4" height="18.4"/>
<path class="st5" d="M26,313.8h543.3c12.1,0,21.8-9.8,21.8-21.8l0,0c0-12.1-9.8-21.8-21.8-21.8H26c-12.1,0-21.8,9.8-21.8,21.8l0,0
	C4.1,304,13.9,313.8,26,313.8z"/>
<path class="st1" d="M157.4,313.8c-10.5,15.2-20.9,30.3-31.4,45.5c-2.4,39.8-4.8,79.7-7.3,119.5c1.2,3.3,3.4,7.7,7.2,12.2
	c6.6,7.8,14.5,11.2,18.5,12.6c40.4,0.7,80.8,1.4,121.2,2.1c16.9,0,33.7,0,50.6,0c10.7,0,21.5,0,32.2,0c17.2,0,34.4,0,51.6,0
	c29.5-15.1,58.9-30.3,88.4-45.4c5.8-10.8,11.7-21.5,17.5-32.3c0.5-38.1,1.1-76.1,1.6-114.2C390.9,313.8,274.2,313.8,157.4,313.8z"/>
<g>
	<path class="st0" d="M505.8,427.8c20.3-38,40.6-76,60.8-114c-19.7,0-39.4,0-59.1,0c-18.8,19.5-37.6,39-56.4,58.6
		C469.4,390.8,487.6,409.3,505.8,427.8z"/>
	<path class="st0" d="M332.6,438.6c22.2-22.5,44.4-45,66.6-67.5c-18.8-19.1-37.6-38.2-56.4-57.3c-3,0-6,0-9,0
		c-21.1,21.2-42.2,42.3-63.4,63.5C291.2,397.7,311.9,418.1,332.6,438.6z"/>
	<path class="st0" d="M220.6,377.3c-21.1-21.2-42.1-42.3-63.2-63.5c-42.3,0-84.6,0-126.9,0c29.4,55,58.9,110,88.3,165
		C152.7,444.9,186.7,411.1,220.6,377.3z"/>
	<path class="st0" d="M284.4,313.8c-25.9,0-51.8,0-77.7,0c12.9,12.4,25.9,24.9,38.8,37.3C258.5,338.7,271.4,326.2,284.4,313.8z"/>
	<path class="st0" d="M316.3,505.6h32.2c-5.4-4.9-10.8-9.7-16.3-14.6C326.9,495.9,321.6,500.8,316.3,505.6z"/>
	<path class="st0" d="M245.4,403.9c-33.7,33.2-67.3,66.4-101,99.6c0.3,0.1,0.6,0.2,1,0.3c4.1,1.3,8.2,1.8,11.9,1.8h0.6h107.7
		c14-13.7,28-27.3,42-41C286.9,444.4,266.2,424.2,245.4,403.9z"/>
	<path class="st0" d="M124.5,489.1c-0.1-0.1-0.2-0.2-0.2-0.3C124.3,488.9,124.4,489,124.5,489.1z"/>
	<path class="st0" d="M459.4,313.8c-23,0-46.1,0-69.1,0c11.7,10.5,23.4,21.1,35.2,31.6C436.7,334.9,448,324.3,459.4,313.8z"/>
	<path class="st0" d="M425,397.3c-22.8,22.5-45.5,45-68.3,67.5c14.4,13.6,28.9,27.3,43.3,40.9h39.1h0.6c16.6,0,30.9-9.9,37.3-24.1
		l0,0c3.8-7.1,7.5-14.2,11.3-21.3C467.3,439.3,446.2,418.3,425,397.3z"/>
	<path class="st1" d="M124.8,489.5c-0.1-0.1-0.2-0.3-0.3-0.4C124.6,489.2,124.7,489.4,124.8,489.5z"/>
	<path class="st1" d="M120,481.5c-0.1-0.1-0.1-0.2-0.2-0.3c1,2.3,2.5,4.9,4.4,7.5C122.6,486.5,121.2,484.1,120,481.5L120,481.5z"/>
	<path class="st1" d="M505.8,427.8c-4.9,9.1-9.7,18.2-14.6,27.3c4.9-9.1,9.8-18.1,14.7-27.2C505.9,427.9,505.9,427.9,505.8,427.8z"
		/>
</g>
<path class="st6" d="M306.3,123.1c-1.2-5.4-5.5-22-21.1-35.1c-18.1-15.2-38.5-14.9-43.4-14.7c1.2,5.7,5.1,21,18.9,33.6
	C279.3,123.9,301.8,123.3,306.3,123.1z"/>
<path class="st6" d="M306.3,123.1c4.6,3,19.5,11.7,39.8,9.9c23.5-2.1,37.8-16.7,41.1-20.3c-4.8-3.2-18.4-11.2-37.1-10.4
	C324.9,103.4,309.4,119.7,306.3,123.1z"/>
<path class="st6" d="M306.3,123.1c-4.5,3.2-18,13.8-23.8,33.4c-6.7,22.6,1.6,41.3,3.8,45.7c4.7-3.3,17.2-13,23.3-30.7
	C317.9,147.7,308.4,127.2,306.3,123.1z"/>
</svg>
