<?xml version="1.0" encoding="utf-8"?>
<!-- Generator: Adobe Illustrator 23.1.0, SVG Export Plug-In . SVG Version: 6.00 Build 0)  -->
<svg version="1.1" id="Camada_1" xmlns="http://www.w3.org/2000/svg" xmlns:xlink="http://www.w3.org/1999/xlink" x="0px" y="0px"
	 viewBox="0 0 290.9 285.5" style="enable-background:new 0 0 290.9 285.5;" xml:space="preserve">
<style type="text/css">
	.st0{display:none;fill:#FFFFFF;}
	.st1{display:none;}
	.st2{display:inline;fill:#1C6131;}
	.st3{display:inline;fill:#193C22;}
	.st4{display:none;fill:#1C6131;}
	.st5{display:none;fill:#193C22;}
	.st6{display:none;fill:#9C191B;}
	.st7{display:none;fill:#791615;}
	.st8{display:none;fill:#F19125;}
	.st9{display:none;fill:#FDFBFB;}
	.st10{display:inline;fill:#FDFBFB;}
	.st11{display:inline;fill:#F5F2F2;}
	.st12{display:inline;}
	.st13{fill:#FDFBFB;}
	.st14{fill:#F5F2F2;}
	.st15{fill:#E8D2BA;}
	.st16{fill:#D53932;}
</style>
<path class="st0" d="M287,87.9c-5-17-16.9-27.1-33.7-31.6c2-18.2-3.5-33.3-18.5-44.1c-15-10.7-31.2-11.1-47.7-3.4
	c-8.3-16.3-21.3-25.4-39.7-26.6c-18.5-0.2-32.2,8-41.7,23.6C89.6-1,74-0.2,59.6,10.1C45.3,20.5,39.6,35,41,52.4
	c-17.1,4-29.3,13.7-34.8,30.4c-5.6,16.8-1.6,31.9,9.7,45.2C4.3,141.1,0.1,156.2,5.4,173c5.3,16.9,17.4,26.8,34.4,31
	c0,0.1,0,0.2,0,0.4c-0.6,4.5-0.6,9.1,0.2,13.6c2.1,11.9,8,21.6,17.7,28.8c7.4,5.5,15.7,8.4,24.8,8.8c1.8,0.1,3.6,0.1,5.4-0.1l0,0
	c-0.3,0.7-0.9,1.6-1.8,2.5c-1.8,1.6-3,1.2-4.6,2.4c-1.6,1.3-2.7,3.6-2.4,6c0.4,2.7,2.3,4.2,2.8,4.6c14.5,4,28.9,8,43.4,12.1
	c-0.8,0.3-2.8,1.2-3.9,3.4c-0.7,1.3-0.8,2.6-0.9,3.6c-0.1,0.9-0.1,2.4,0.6,4.2c0.4,0.9,0.8,2,2,2.7c1.1,0.7,2.2,0.7,2.8,0.7
	c0.7-0.1,1.6-0.3,2.8-0.6c4.1-1.3,6.7-3.7,8.4-5.3c5.6-5.3,8.8-12.7,9.8-14.9c0.3,1.3,0.8,2.8,1.4,4.4c0.6,1.5,1.3,2.8,1.9,3.9
	c-0.1,0.7-0.3,2,0.2,3.5c0.9,2.7,3.2,3.9,3.7,4.2c0.6,0.9,1.4,2.1,2.6,3.5c1.3,1.4,2.1,2.4,3.5,3.2c1.2,0.7,2.8,1.6,4.9,1.3
	c2.4-0.4,3.7-2.2,3.8-2.4c1.1-1.5,1-3.1,1-4.1c0-1.6-0.5-2.9-0.8-3.6c-0.1,0-0.1-0.1-0.2-0.1c12.7-3.4,25.5-6.8,38.2-10.2l0,0
	c0.3-0.2,4.5-3,4.2-7.2c-0.1-1.9-1.2-3.4-1.6-3.9c-1.5-2.1-3.5-2.9-4.8-3.4c-1.2-0.5-2.3-0.7-3.1-0.9c-0.2-0.3-0.5-0.6-0.7-0.9
	l-0.1-0.1c-0.3-0.5-0.6-1.1-0.9-1.7c-0.6-1.3-1.8-4.1-1.9-4.6c6.5,0.8,12.8,0.3,19.1-1.7c19.7-6.1,32.8-25,31.7-45.6
	c0-0.8-0.1-1.6-0.2-2.4c17.2-3.6,29.7-13,35.6-29.7s2.3-31.9-8.8-45.3C287.6,119.7,292,104.8,287,87.9"/>
<g class="st1">
	<path class="st2" d="M142.1,269.1c-0.4,0-1,0-1.7-0.1c-0.5,0-0.8-0.1-1.1-0.1l0,0c-1.2-0.2-2.4-0.4-3.8-0.6
		c-0.4,1.6-0.9,3.1-1.3,4.6c-0.9,2.3-1.9,4.7-2.8,7c-2.1,3.2-3.7,5.9-5.1,8c0,0-1.3,2.1-1.1,4.1c0,0.2,0.1,0.7,0.5,1
		c0,0,0.1,0.1,0.2,0.1c1,0.4,3.2-1,3.2-1c0.9-0.6,2.1-1.3,3.9-2.4c0,0,1.9-1.4,3.5-3.5c4-5.1,7.2-10.7,8.8-17.1
		C144.2,269.1,143.2,269.1,142.1,269.1z"/>
	<path class="st3" d="M139.3,268.9c0.4,0.1,0.9,0.1,1.3,0.1c0.5,0,0.9,0.1,1.4,0.1c-0.2,0.8-0.3,1.5-0.5,2.3
		c-0.7,2.9-1.6,5.7-3.1,8.3c-1.7,2.9-3.1,4.9-4.4,6.6c-0.4,0.5-0.9,1.1-1.7,1.9c-1.8,2-0.6,0.6-2.7,3c-0.2,0.2-0.7,0.8-1.4,1.3
		c-0.1,0-0.1,0.1-0.2,0.1c-0.7,0.4-1.7,0.7-1.9,0.5c-0.1-0.2,0.1-0.5,0.4-1c1-1.4,1.9-2.2,2.5-2.7c0.8-0.7,1.3-1.5,2.5-3
		c0.4-0.6,1.1-1.6,2.1-3.2c1.2-2,3.4-5.7,4.9-10.9C138.9,270.9,139.1,269.7,139.3,268.9z"/>
</g>
<path class="st4" d="M165.5,292.9L165.5,292.9c-0.4-1.4-4.3-13.1-6.3-20.7c-0.3-1-0.7-2.8-1.2-5c-2.3,0.6-4.6,1-7.1,1.4
	c-0.6,0.1-1.1,0.2-1.6,0.2c0.2,0.9,0.4,1.9,0.6,2.9c1.2,5.1,3.2,9.5,5.2,13c0.8,1.4,1.6,2.9,2.4,4.3c1,2.1,2.4,4.1,4.1,5.5
	c0.8,0.7,1.7,1.3,2.7,1.5c1.1,0.3,1.7-0.2,1.7-1.3C165.8,294.2,165.7,293.5,165.5,292.9z"/>
<path class="st5" d="M162.7,293.2c-0.8-1.6-1.6-3.1-2.4-4.6c-1.6-3.3-2.5-6.1-3.2-8.2c-0.8-2.8-1.4-5.6-2.1-8.8
	c-0.3-1.5-0.5-2.7-0.7-3.6c-0.7,0.1-1.3,0.3-2,0.4c0.2,2.1,0.6,4.6,1.3,7.4c0.3,1.2,0.7,2.8,1.4,4.9c0.1,0.3,0.4,1.2,0.8,2.3
	c0.2,0.6,1.1,2.7,3.1,6.7c1.4,2.6,2.2,3.9,3.8,4.7c0.2,0.1,0.4,0.2,0.5,0.2C163.1,294.1,162.9,293.6,162.7,293.2z"/>
<path class="st6" d="M279.9,89.7c-4.7-16.2-16-25.9-32.1-30.1c1.9-17.3-3.4-31.8-17.7-42C215.7,7.4,200.3,7,184.6,14.4
	C176.7-1.1,164.2-9.8,146.7-11c-17.6-0.2-30.7,7.6-39.8,22.5c-15.4-6.5-30.3-5.8-44,4.1S43.8,39.4,45.2,56C28.9,59.8,17.3,69,12,85
	s-1.5,30.4,9.3,43.1c-11.1,12.5-15.1,26.8-10,42.9c5,16.1,16.5,25.5,32.8,29.5c0,0.1,0,0.2,0,0.3c-0.6,4.4-0.6,8.7,0.2,13
	c2,11.4,7.6,20.6,16.9,27.5c7,5.2,14.9,8,23.7,8.4c3.7,0.2,7.3-0.1,10.9-0.8c4.3,0.1,8.5,0.2,12.8,0.4c9.7,13.7,22.8,20.9,39.6,19.6
	c16.9-1.2,28.7-10.2,36.2-25c2.5,2.4,5.1,4.8,7.6,7.2c0.2,0,0.3,0,0.5,0c7.1,1.3,14.1,0.9,21-1.2c18.8-5.8,31.3-23.8,30.3-43.5
	c0-0.8-0.1-1.5-0.2-2.3c16.4-3.4,28.3-12.5,33.9-28.4c5.7-15.9,2.2-30.4-8.4-43.2C280.4,120.1,284.6,105.9,279.9,89.7z"/>
<path class="st6" d="M157.8,239.7c-0.8,1.1-1.6,2.2-2.4,3.3c-1.8,2.7-2.5,5.7-1.6,8.9c1.3,4.4,2.4,8.9,3.6,13.3
	c0.2,0.6,0.3,1.3,0.4,1.9c-1.1,0.3-2.3,0.5-3.4,0.8c-0.7,0.2-1.3,0.3-2,0.5c-1.1,0.2-2.2,0.3-3.2,0.5c-1.3,0.1-2.7,0.2-4,0.3
	c-1.1,0-2.1,0-3.2,0c-0.9-0.1-1.8-0.2-2.7-0.2c-1.2-0.2-2.5-0.4-3.7-0.6c-1.3-0.4-2.7-0.7-4-1.1c-0.1-2.7,0.5-5.2,1.1-7.8
	c1.3-4.9,2.6-9.8,3.9-14.7c0.3-1.2,0.6-2.5,0.8-3.7c0.3-1.8-0.2-3.4-0.9-5c-0.2-0.4-0.3-0.8-0.5-1.1c4.6,0.1,9.2,0.2,13.7,0.2
	c0,2,0,4.1,0,6.3c0.8-0.2,1.6-0.3,2.3-0.4C154,240.6,155.9,240.1,157.8,239.7"/>
<circle class="st7" cx="145.4" cy="129.1" r="106.1"/>
<circle class="st6" cx="145.4" cy="128.6" r="102.5"/>
<circle class="st7" cx="145.4" cy="128.6" r="95.1"/>
<path class="st8" d="M96.4,248.9c0.7-2,1.1-3.6,1.4-4.7c0.5-1.8,2-7.6,3.1-11.6c0.6-2.2,1.9-3.8,3.7-5.1c0.2-0.1,0.3-0.3,0.5-0.4
	c2-1.1,4.1-2.1,6.3-2.6l5.2-0.1c0.4,0.7,0.6,1.5,1.1,2c2.7,2.7,6.5,3,9.5,0.8c0.3-0.2,0.5-0.4,0.8-0.5c1.1,0.7,2.4,1.6,3.7,2.8
	c2.1,1.9,3.5,3.9,4.4,5.5c0.2,0.4,0.3,0.8,0.5,1.1c0.7,1.6,1.2,3.3,0.9,5c-0.2,1.3-0.5,2.5-0.8,3.7c-1.3,4.9-2.7,9.8-3.9,14.7
	c-0.7,2.5-1.2,5.1-1.1,7.8c-0.2,1.7,0.2,2.7,0.6,3.4c0.6,1.2,1.3,1.2,2.7,3.2c0.4,0.6,0.8,1.2,1.1,2.1s0.7,2.2,0.2,3.1
	c-0.9,1.4-3.9,0.9-4.7,0.8c-0.9-0.1-1.6-0.4-2.1-0.6c-23.8-6.5-40.5-11-42.2-11.3c-0.1,0-1-0.2-2-0.8c-1.5-0.9-1.8-2.3-0.8-3.7
	c0.5-0.7,1.2-1.4,2-1.8c1-0.5,2-1,3.1-1.2c0.8-0.2,1.4-0.5,2-0.9s0.9-0.9,1.2-1.4c1.3-2,1.9-3.6,1.9-3.6
	C95.2,253.2,95.9,251.3,96.4,248.9z"/>
<path class="st8" d="M188.6,238.5c0.6,0.8,1,1.6,1,1.6c0.2,0.5,0.5,1,0.6,1.8c0.8,3.1,1.7,6.1,2.5,9.2c1.1,3.7,2.1,7.5,3.3,11.2
	c0.5,1.6,1.3,3,2.2,4.4c0.8,1.4,2,2.2,3.6,2.6c1.2,0.3,2.3,0.9,3.4,1.5c0.7,0.4,1.2,1,1.7,1.6c0.9,1.3,0.6,2.6-0.8,3.5
	c-0.9,0.6-1.8,0.8-1.9,0.8c-1.7,0.3-19.7,5.3-45.1,12.4c-0.2,0-0.5,0.1-0.9,0.1c-2.1,0-2.9-1-2.9-1c-0.7-0.9-0.4-2.2-0.2-2.9
	c0.4-1.6,1.5-2.6,1.9-3c0.7-0.7,1.1-0.8,1.6-1.5c0.2-0.3,0.6-0.9,0.8-1.9c0.5-1.8,0.3-3.4,0.1-4.8c-0.2-1.3-0.4-2.4-0.9-4.2
	c-0.2-0.7-0.3-1.3-0.5-2l-0.1-0.4c-0.1-0.6-0.2-1.3-0.4-1.9c-1.2-4.4-2.4-8.9-3.6-13.3c-0.4-1.4-0.5-2.8-0.3-4.1
	c0.3-2.2,1.3-3.8,1.9-4.8c1.3-2.1,2.9-3.3,3.6-3.8c6.4-4.8,16.2-4.8,17.1-4.8C184.7,234.8,188,237.8,188.6,238.5z"/>
<g class="st1">
	<path class="st2" d="M128.1,226.8c0.1-0.3,0.2-0.6,0.3-0.9c0.1-0.3,0.2-0.6,0.2-0.9c0-0.9-0.1-1.8-0.2-2.7c2.1-0.6,4.6-1.1,7.5-1.4
		c3.6-0.3,6.7-0.1,9.2,0.2c-0.4,1.1-0.7,2.2-1,3.5c-0.7,3-0.8,5.6-0.8,7.8c-0.3,0-0.4,0-0.5,0c-3.4-0.4-7.6-1.5-12-3.9
		C129.8,228,128.9,227.4,128.1,226.8z"/>
	<path class="st2" d="M118.2,219.9c-0.3,0.4-0.9,1.1-1.2,2.2c-0.3,1-0.3,1.9-0.3,2.4c-1.1,0-2,0-2.6,0c-2.9,0-6.9-0.1-11.5-1.5
		c-0.8-0.2-1.5-0.5-1.8-0.6c0.9-1.4,1.4-2.7,1.8-3.6c0.9-2.2,1.3-4.2,1.8-6.1c0.1-0.5,0.2-0.9,0.2-1.2c0.2,0.1,0.5,0.2,0.9,0.3
		c4.2,1.5,7.1,3.6,9.3,5.3C115.7,217.8,116.9,218.7,118.2,219.9z"/>
	<path class="st2" d="M170.6,225l-1.9-4.7c-0.8-1.5-1.6-3-2.4-4.5c-1.5-2.7-3.7-4.9-6-6.9c-1.6-1.4-3.2-2.7-4.9-4
		c-3.3-2.5-4.9-2.8-5.5-3c-1.7-0.4-3.3-0.3-4.3-0.2c-0.4-0.1-0.8-0.1-1.2-0.2c-1-0.1-1.9-0.1-2.7,0c-0.9,0-2.1,0.2-3.5,0.4
		c-3.1,0.5-6,1.6-8.7,3.1c-2.3,1.2-4.5,2.7-6.2,4.8c-2.1,2.7-3.6,5.7-4.3,9.1c1.3-0.6,2.5-1.3,4-0.8c1.6,1,3.2,1.9,4.8,2.9
		c1.1-2.7,2.5-5.3,4.2-7.8c2.4-3.5,5.4-5.2,7.3-6.4c1.1-0.7,2.7-1.5,4.6-2.4c0.2-0.1,0.8-0.3,1.5-0.2c0.5,0.1,0.9,0.3,1.1,0.4
		c2.5,2.3,4.4,4.4,5.8,6.1c2.3,2.8,6.4,8.3,9.5,16.2c0.4,0.9,0.9,2.4,1.5,4.2c-5-1.2-9.9-1.6-14.8-1.3c0.2,0.9,0.5,1.8,0.7,2.7
		s0.4,1.8,0.6,2.7c-0.1,2.1-0.1,4.1-0.2,6.2c1-0.2,1.7-0.3,2.3-0.4c3.6-0.7,4.9-1.2,5.6-1.4c0.6-0.2,1-0.4,1.2-0.5
		c1-0.4,3.3-1.5,6.6-3c-0.1-0.1-1.9-2.8-0.7-5.5c1-2.3,3.9-3.7,6.7-3.1C171.1,226.6,170.8,225.8,170.6,225z"/>
	<path class="st2" d="M174.7,229.2c1.5-1.6,3.4-2.9,5.3-4c2.6-1.7,5.4-3.1,8.4-4.2c0.2-0.1,0.4-0.1,0.6-0.2c0.3,1.7,0.7,3.3,1,5
		c0.5,1.4,1.1,2.8,1.6,4.1c0.3,0.6,0.6,1.2,1,2c-3.7,1.1-7.4,1.5-11.2,1.9c-1.7-0.1-3.4-0.2-5.1-0.3c0.1-1-0.1-2-0.6-2.9
		C175.3,230.1,175,229.6,174.7,229.2"/>
	<path class="st3" d="M175.8,230.5c-0.1-0.2-0.4-0.8-1.1-1.4c-1.8-1.8-4.3-1.8-4.7-1.8c-0.5,0-1.2,0-2,0.3c-0.3-0.9-0.7-2.4-1.4-4.2
		c-2-5-5.5-14.1-14-18.9c-1.4-0.8-3.6-1.9-6.8-2.6c-2-0.1-7.2-0.2-12.7,3.1c-1.4,0.8-6,3.8-8.7,9.6c-0.5,1-0.8,2.1-1.2,3.3
		c-3.2-0.3-6.1,1.6-6.6,4.5c-0.6,3.1,1.8,6.1,5.2,6.7s6.7-1.3,7.3-4.4c0.5-2.7-1.3-5.4-4.2-6.4c0-0.1,0-0.2,0.1-0.3
		c0.3-0.7,0.7-1.4,1.1-2.1c1.4-2.3,2.8-4.5,4.7-6.5c2.8-2.9,5.8-4.2,7.6-5c2.9-1.3,5.4-1.9,7.3-2.2c3.3,1.1,5.5,2.6,6.8,3.7
		c1,0.8,1.7,1.6,2.3,2.2c1.8,1.9,3.1,3.8,4.1,5.3c1.1,1.7,2.2,3.4,3.1,5.2c1.6,3.2,3.2,6.3,4.8,9.5v0.1c-1.9,1-3.1,2.8-3.1,4.8
		c0,3.1,3.2,5.7,6.4,5.7c3.9,0,6.4-3.9,6.4-5.8C176.4,231.6,175.8,230.5,175.8,230.5z"/>
</g>
<circle class="st9" cx="146" cy="199" r="5"/>
<g class="st1">
	<path class="st10" d="M143,92.4c0-2.9,0-5.8,0-8.7c0-0.4,0-0.9,0.1-1.3c0.3-1.1,1.3-1.9,2.5-1.8c1.1,0,2.1,0.7,2.4,1.8
		c0.1,0.4,0.1,0.7,0.1,1.1c0,5.9,0,11.8,0,17.7c0,1.2-0.3,2.2-1.5,2.8c-1.4,0.7-3.1-0.1-3.5-1.7c-0.1-0.4-0.1-0.9-0.1-1.4
		C143.1,98.1,143.1,95.2,143,92.4"/>
	<path class="st10" d="M125.1,63.2c0.2,0.1,0.7,0.2,1.2,0.5c5.3,3,10.6,6,15.9,8.9c1.7,0.9,1.7,2.6,1,3.7s-1.9,1.5-3.1,1
		c-0.5-0.2-1-0.5-1.5-0.8c-4.8-2.7-9.5-5.3-14.2-8c-0.4-0.2-0.9-0.5-1.2-0.8c-0.8-0.7-1-1.7-0.6-2.7
		C122.9,63.9,123.8,63.2,125.1,63.2"/>
	<path class="st10" d="M168.8,65.7c0,1.2-0.6,1.8-1.5,2.3c-2.8,1.6-5.6,3.3-8.5,4.9c-2.3,1.3-4.6,2.7-6.8,4c-0.3,0.2-0.6,0.4-1,0.5
		c-1.1,0.4-2.2,0-2.9-1.1s-0.6-2.3,0.3-3.1c0.3-0.2,0.6-0.4,0.9-0.6c5-2.9,10.1-5.9,15.1-8.8c0.2-0.1,0.4-0.3,0.7-0.4
		C167,62.6,168.9,63.8,168.8,65.7"/>
	<path class="st10" d="M148.1,58.1c0,1.4,0,2.8,0,4.2c0,0.9-0.2,1.6-0.9,2.2c-1.4,1.2-3.5,0.6-4-1.1c-0.1-0.3-0.2-0.6-0.2-1
		c0-2.8,0-5.7,0-8.5c0-1.2,0.5-2.1,1.6-2.6c1.7-0.7,3.4,0.5,3.5,2.5C148.2,55.3,148.1,56.7,148.1,58.1"/>
	<path class="st10" d="M136.1,85.2c0,0.9-0.4,1.6-1.2,2c-2.6,1.5-5.3,3-8,4.5c-1.3,0.7-2.7,0.2-3.4-1c-0.7-1.2-0.4-2.6,0.9-3.3
		c2.6-1.5,5.3-3.1,8-4.5C134.1,81.9,136.1,83.2,136.1,85.2"/>
	<path class="st10" d="M159.7,82.5c0.2,0.1,0.6,0.1,1,0.3c2.6,1.5,5.3,3.1,7.9,4.7c0.8,0.5,1.2,1.3,1.1,2.2c-0.1,1-0.6,1.8-1.5,2.2
		c-0.8,0.4-1.5,0.3-2.3-0.2c-2.6-1.5-5.2-3.1-7.8-4.7c-1-0.6-1.3-1.7-1-2.8C157.5,83.2,158.4,82.5,159.7,82.5"/>
</g>
<g class="st1">
	<path class="st11" d="M205.7,177c1.1,0.4,1.9,0.7,2.7,0.9c0.5,0.2,1,0.2,1.6,0.3c0.1,0,0.2,0,0.4,0.1c0.5,0.1,0.9,0.6,0.7,1
		s-0.7,0.5-1.2,0.3c-0.7-0.3-1.3-0.7-2-1c-0.2-0.1-0.5-0.1-0.8-0.1c-0.1,2.1,0.4,4,0.7,6c0.4,0.2,0.7,0.2,1,0.4
		c0.4,0.3,0.3,0.8-0.1,1c-0.6,0.4-1.4,0.1-1.6-0.6c-0.1-0.4-0.1-0.7-0.2-1.1c-0.1-0.4-0.2-0.7-0.3-1.1c-0.4-0.2-0.7-0.3-1.1-0.5
		c-1,0.4-1,1.4-1.2,2.4c-0.1,0.8-0.4,1.2-1.1,1c-0.3-0.1-0.6-0.3-0.7-0.6c-0.1-0.1,0.2-0.5,0.4-0.7s0.6-0.4,0.7-0.6
		c0.1-0.4,0.1-0.9,0.1-1.3c0-0.4-0.1-0.8-0.1-1.2c0.1-1,0.2-2,0.3-3.1c-0.9,0-1.7,0.2-2.3,0.5c-1.1,0.6-2.1,0.6-3.2-0.1
		c-0.4-0.3-0.9-0.4-1.4-0.6c-0.1,0.1-0.1,0.1-0.2,0.2c0.6,1,1.2,2,1.8,3.2c-0.7,0.3-1.4,0.5-2.1,0.7c0.1,0.5,0.1,0.9,0.2,1.3
		c0.1,0.2,0.3,0.5,0.5,0.5c0.4,0.2,0.9,0.3,0.7,0.8c-0.1,0.3-0.5,0.6-0.8,0.6s-0.8-0.3-1-0.6s-0.2-0.7-0.3-1.1
		c-0.1-0.5-0.2-1-0.3-1.5c-0.6,0-1.2,0-1.9,0c-0.1,0.7-0.2,1.5-0.3,2.2c-0.1,0.8-0.8,1.2-1.5,0.8c-0.5-0.3-0.6-0.9-0.1-1.1
		c1.1-0.4,0.8-1.3,1.1-2c-0.8-0.3-1.5-0.5-2.3-0.8c0.6-1.2,1.2-2.2,2-3.5c-0.6,0.1-1.1,0.1-1.4,0.3c-0.7,0.6-1.7,0.6-2.5,0.9
		c-0.3,0.1-0.8,0-1.1-0.2c-0.7-0.6-1.6-0.6-2.5-1c-0.1,2.2,0.5,4.2,0.7,6.1c0.4,0.2,0.7,0.2,1,0.4c0.4,0.3,0.4,0.8-0.1,1
		c-0.6,0.4-1.5,0.1-1.6-0.7c-0.2-0.7-0.3-1.4-0.4-1.9c-0.5-0.3-0.9-0.6-1.3-0.9c-0.3,0.6-1,1.1-1,2c0,0.3,0,0.6-0.1,0.8
		c-0.1,0.3-0.3,0.7-0.6,0.7c-0.4,0.1-0.8,0-1.1-0.2s-0.2-0.6,0.1-0.8c0.2-0.2,0.5-0.3,0.8-0.4c0.1-0.7,0.5-1.3,0-2
		c-0.2-0.2,0.1-0.8,0.2-1.2c0.1-0.9,0.2-1.8,0.3-2.8c-1,0-1.7,0.2-2.4,0.6c-0.9,0.6-2.2,0.5-3.1-0.1c-0.5-0.3-1-0.4-1.5-0.6
		c-0.1,0.1-0.1,0.2-0.2,0.2c0.6,1,1.2,2,1.8,3.2c-0.7,0.3-1.4,0.5-2.1,0.8c0.1,0.6,0.2,1.1,0.3,1.7c0.2,0.1,0.4,0.1,0.6,0.2
		c0.4,0.1,0.7,0.3,0.6,0.8c-0.1,0.4-0.7,0.7-1.1,0.6c-0.5-0.1-0.8-0.4-0.9-0.9c-0.1-0.7-0.3-1.4-0.5-2.2c-0.6,0-1.2,0-1.9,0
		c-0.1,0.8-0.3,1.5-0.3,2.3c0,0.5-0.3,0.8-0.6,0.8c-0.4,0-0.8-0.1-1.1-0.3c-0.1-0.1-0.1-0.6,0.1-0.7c0.2-0.2,0.5-0.3,0.8-0.5
		c0.1-0.5,0.2-1.1,0.3-1.6c-0.8-0.3-1.5-0.5-2.3-0.8c0.7-1.2,1.2-2.2,1.9-3.3c-0.6-0.2-1-0.1-1.4,0.1c-0.6,0.3-1.3,0.5-1.9,0.7
		c-0.8,0.3-1.2,0.1-1.8-0.3c-0.6-0.4-1.4-0.5-2.2-0.8c0,0.8-0.1,1.4,0,2c0.1,1.1,0.3,2.1,0.5,3.2c0.1,0.6,0.2,1.2,1,1.3
		c0.2,0,0.3,0.3,0.5,0.5c-0.2,0.7-0.7,0.8-1.3,0.7s-0.7-0.5-0.8-1c-0.1-0.6-0.3-1.3-0.4-1.8c-0.5-0.3-0.8-0.5-1.2-0.7
		c-0.1,0.5-1,0.7-1,1.5c0,0.4-0.1,0.7-0.1,1.1c-0.1,0.8-0.6,1.2-1.3,0.9c-0.2-0.1-0.5-0.4-0.5-0.6c0-0.1,0.2-0.5,0.4-0.6
		c0.5-0.2,0.8-0.4,0.8-1c0-0.4,0.3-0.8-0.1-1.2c-0.1-0.2,0-0.5,0-0.8c0.1-1.1,0.2-2.2,0.4-3.5c-0.9,0.2-1.6,0.3-2.2,0.6
		c-1.2,0.7-2.3,0.7-3.4-0.1c-0.2-0.1-0.4-0.2-0.7-0.3c-0.2-0.1-0.5-0.1-1-0.2c0.7,1.2,1.3,2.2,1.9,3.4c-0.7,0.3-1.3,0.5-2.1,0.8
		c0.1,0.6,0.2,1.2,0.3,1.7c0.2,0.1,0.3,0.1,0.4,0.1c0.4,0.1,0.9,0.3,0.8,0.8c-0.1,0.3-0.5,0.6-0.8,0.6s-0.8-0.2-1-0.5
		c-0.3-0.5-0.3-1.2-0.4-1.8c-0.1-0.2-0.1-0.5-0.2-0.8c-0.6,0-1.1,0-1.8,0c-0.1,0.7-0.3,1.5-0.4,2.3c-0.1,0.8-0.9,1.1-1.6,0.7
		c-0.4-0.3-0.5-0.9,0-1c1.1-0.4,0.8-1.3,1.1-2.1c-0.7-0.2-1.4-0.5-2.3-0.8c0.6-1.1,1.2-2.2,1.9-3.4c-0.5,0.1-0.9,0-1.1,0.1
		c-0.8,0.4-1.6,0.7-2.5,0.9c-0.5,0.2-0.9,0.1-1.4-0.1c-0.7-0.4-1.5-0.7-2.4-1.1c0,0.7-0.1,1.2,0,1.7c0.2,1.3,0.4,2.7,0.6,4
		c0.1,0.4,0.2,0.7,0.7,0.8c0.4,0.1,0.8,0.3,0.6,0.7c-0.1,0.2-0.4,0.5-0.7,0.6c-0.5,0.1-0.9,0-1.1-0.5c-0.1-0.3-0.2-0.7-0.2-1.1
		c-0.1-0.4-0.2-0.9-0.3-1.2c-0.4-0.3-0.8-0.5-1.2-0.7c-0.7,0.6-1.1,1.6-1.1,2.8c0,0.5-0.2,0.8-0.6,0.8c-0.4,0-0.8-0.1-1.1-0.3
		c-0.4-0.3-0.1-0.7,0.2-0.9c0.8-0.6,1-1.1,0.8-2c-0.1-0.3-0.1-0.7,0-1.1c0.1-1,0.5-2.1,0.2-3.3c-0.7,0.2-1.5,0.2-1.9,0.6
		c-0.8,0.7-1.6,0.4-2.4,0.5c-0.3,0-0.6-0.2-0.9-0.4c-0.5-0.4-1.1-0.5-1.9-0.7c0.7,1.2,1.3,2.2,1.9,3.4c-0.7,0.3-1.4,0.5-2.1,0.8
		c0.1,0.5,0.2,1.1,0.3,1.7c0.2,0.1,0.4,0.1,0.6,0.2c0.4,0.1,0.8,0.4,0.6,0.9c-0.2,0.3-0.7,0.5-1,0.5c-0.5,0-0.8-0.4-0.9-0.9
		c-0.1-0.7-0.3-1.4-0.5-2.2c-0.6,0-1.2,0-1.9,0c-0.1,0.8-0.3,1.5-0.3,2.3c0,0.5-0.3,0.8-0.6,0.8c-0.4,0-0.8-0.1-1.1-0.3
		c-0.3-0.2-0.2-0.7,0.2-0.8c1-0.4,0.9-1.2,1-2.1c-0.7-0.2-1.4-0.5-2.2-0.8c0.6-1.2,1.2-2.2,1.8-3.3c-0.1-0.1-0.1-0.2-0.2-0.2
		c-0.5,0.2-1.1,0.3-1.6,0.5c-0.3,0.1-0.6,0.3-0.9,0.4c-0.8,0.4-1.5,0.4-2.2-0.2c-0.5-0.4-1.3-0.5-2.1-0.7c-0.1,2.2,0.5,4.1,0.6,6.1
		c0.4,0.1,0.7,0.2,0.9,0.3c0.2,0.1,0.3,0.4,0.3,0.6c0,0.2-0.2,0.4-0.4,0.5c-0.7,0.3-1.3,0-1.5-0.8c-0.2-0.7-0.3-1.4-0.4-2
		c-0.4-0.3-0.8-0.5-1.2-0.8c-0.7,0.7-1.2,1.7-1.1,2.9c0,0.2-0.5,0.6-0.7,0.7c-0.3,0-0.8-0.1-1.1-0.4c-0.3-0.3,0-0.7,0.3-0.8
		c0.9-0.3,1-1.1,0.9-1.7c-0.3-0.9,0-1.6,0.1-2.4c0-0.7,0.1-1.4,0.1-2.3c-0.9,0.1-1.7,0.2-2.4,0.7c-0.8,0.5-2.1,0.4-2.9-0.1
		c-0.5-0.3-1-0.5-1.8-0.8c0.4,1.5,1.4,2.4,1.8,3.6c-0.7,0.3-1.4,0.5-2.1,0.8c0.1,0.6,0.2,1.2,0.4,1.8c0.2,0,0.3,0.1,0.5,0.1
		c0.4,0.1,0.8,0.3,0.7,0.8c-0.1,0.4-0.8,0.7-1.2,0.5c-0.3-0.2-0.5-0.5-0.6-0.8c-0.2-0.7-0.3-1.4-0.5-2.2c-0.3,0-0.6-0.1-0.8-0.1
		c-0.3,0-0.6,0-1,0c-0.1,0.8-0.3,1.5-0.3,2.3c0,0.5-0.3,0.7-0.6,0.8c-0.3,0.1-0.7,0-1-0.2c-0.4-0.2-0.4-0.8,0-0.9
		c1-0.4,0.9-1.2,1.1-2.1c-0.7-0.2-1.4-0.5-2.2-0.8c0.6-1.1,1.2-2.2,1.9-3.4c-0.5,0.1-0.9,0.1-1.2,0.2c-0.8,0.4-1.6,0.6-2.4,0.9
		c-0.6,0.2-1,0.2-1.5-0.2c-0.7-0.6-1.5-0.6-2.4-0.9c-0.2,2.2,0.5,4.1,0.6,6.1c0.3,0.1,0.6,0.1,0.8,0.3c0.2,0.2,0.4,0.5,0.4,0.7
		s-0.3,0.5-0.6,0.5c-0.7,0.2-1.2-0.1-1.3-0.9c-0.1-0.3-0.1-0.6-0.2-1c-0.1-0.3-0.1-0.6-0.2-1c-0.3-0.4-1.3,0.1-1.3-0.9
		c0,0.1,0,0.3-0.1,0.4c-0.8,0.6-0.8,1.5-0.9,2.4c-0.1,0.8-0.5,1.1-1.2,0.9c-0.2-0.1-0.5-0.3-0.6-0.5c0-0.2,0.2-0.5,0.4-0.7
		c0.8-0.6,0.9-1.1,0.7-2c-0.1-0.5-0.1-1,0-1.4c0.3-1.4,0.3-1.7,0.1-2.9c-0.6,0.2-1.3,0.2-1.8,0.5c-0.7,0.5-1.4,0.6-2.2,0.5
		c-0.4-0.1-0.8-0.2-1.2-0.4c-0.5-0.2-1-0.4-1.5-0.7c-0.1,0.1-0.1,0.2-0.2,0.2c0.6,1,1.2,2.1,1.8,3.2c-0.7,0.3-1.3,0.5-2.1,0.7
		c0.1,0.6,0.2,1.2,0.3,1.8c0.2,0.1,0.5,0.1,0.6,0.2c0.2,0.2,0.6,0.6,0.5,0.7c-0.2,0.3-0.5,0.6-0.8,0.7c-0.5,0.2-1-0.2-1.1-0.9
		c-0.2-0.8-0.3-1.5-0.5-2.3c-0.6,0-1.2,0-1.9,0c-0.1,0.8-0.3,1.5-0.4,2.3c-0.1,0.6-0.4,1-0.9,0.9c-0.3-0.1-0.6-0.4-1-0.6
		c0.2-0.2,0.4-0.5,0.6-0.7c0.1-0.1,0.3-0.1,0.5-0.2c0.1-0.6,0.2-1.1,0.4-1.7c-0.8-0.3-1.5-0.5-2.3-0.8c0.6-1.1,1.2-2.2,1.8-3.3
		c-0.1-0.1-0.1-0.2-0.2-0.2c-0.6,0.2-1.1,0.4-1.7,0.6c-0.2,0.1-0.4,0.3-0.7,0.3c-0.4,0.1-0.9,0-1-0.5s0.3-0.8,0.7-0.8
		c1.3-0.1,2.4-0.4,3.5-0.9c0.2-0.1,0.6-0.1,0.8-0.1c-0.1-0.8-0.9-1.3-1.6-1.1c-0.5,0.1-0.9,0.2-1.5,0.3c0.3-0.9,0.5-1.7,0.8-2.5
		c0.6-1.4,1.1-1.7,2.7-1.7c0.7,0,1.4-0.2,2,0.3c0.7,0.6,1,1.4,1.2,2.2c0.1,0.5,0.3,1,0.4,1.6c-0.7-0.1-1.3-0.2-2-0.2
		c-0.8,0.4-0.8,0.4-0.9,1c0.6,0.2,1.2,0.4,1.8,0.7c2.3,0.9,4.6,0.9,6.9-0.1c0.4-0.2,0.8-0.2,1.1-0.3c0.2-0.6-0.3-0.6-0.6-0.8
		c-0.8-0.5-1.2-1.2-1.1-2.2c0.1-0.9,0.6-1.4,1.4-1.8c1-0.4,2.1,0,2.7,0.9s0.4,2.1-0.5,2.8c-0.3,0.2-0.6,0.4-0.8,0.7c0,0,0,0.2,0,0.4
		c1.5,0.4,2.9,0.7,4.4,1.1c0.2,0,0.3,0.1,0.5,0.1c1.4-0.4,2.7-0.8,4.1-1.2c0.3-0.1,0.7-0.1,1.1-0.1c-0.2-0.8-1-1.2-1.7-1.1
		c-0.5,0.1-0.9,0.2-1.5,0.2c0.3-0.9,0.5-1.6,0.7-2.4c0.6-1.5,1.1-1.9,2.8-1.8c0.1,0,0.2,0,0.2,0c1.5-0.1,2,0.2,2.6,1.5
		c0.2,0.4,0.3,0.9,0.5,1.3c0.1,0.4,0.2,0.8,0.4,1.4c-0.6-0.1-1.3-0.2-2-0.2c-0.2,0.3-1,0.2-1,0.9c0.9,0.3,1.8,0.7,2.8,0.9
		c1.9,0.6,3.8,0.5,5.6-0.2c0.5-0.2,1-0.4,1.5-0.6c0.2-0.6-0.4-0.6-0.7-0.8c-1.3-0.9-1.4-2.7-0.1-3.6c1-0.7,2.4-0.5,3.1,0.4
		c0.7,1,0.6,2.2-0.3,3c-0.3,0.3-0.6,0.5-1.1,0.9c1.1,0.4,2,0.7,2.8,1c0.9,0.3,1.7,0.3,2.6,0.1c1.2-0.3,2.4-0.4,3.5-1
		c0.2-0.1,0.6,0,0.8-0.1c0-0.6,0-0.6-1.1-1.2c-0.6,0.1-1.3,0.2-2.1,0.4c0.3-1,0.5-1.9,0.9-2.7c0.6-1.3,1.1-1.6,2.6-1.5
		c0.1,0,0.2,0,0.4,0c1.3-0.1,2,0.3,2.6,1.6c0.2,0.4,0.3,0.9,0.4,1.3c0.1,0.4,0.2,0.8,0.3,1.3c-0.5-0.1-1-0.1-1.5-0.2
		c-0.7-0.2-1.4,0.3-1.5,0.9c0.7,0.2,1.3,0.5,1.9,0.7c2.3,0.9,4.6,0.9,6.9-0.2c0.3-0.1,0.7-0.2,1-0.3c0.2-0.6-0.3-0.6-0.6-0.8
		c-0.8-0.5-1.2-1.2-1.1-2.1c0.1-0.9,0.6-1.5,1.4-1.9c1-0.4,2.1,0,2.7,0.9c0.6,1,0.3,2-0.5,2.8c-0.3,0.3-1,0.2-0.8,1.1
		c1.4,0.4,2.9,0.7,4.4,1.1c0.2,0,0.3,0.1,0.5,0.1c1.4-0.4,2.7-0.8,4.1-1.2c0.3-0.1,0.7-0.1,1.1-0.1c-0.2-0.8-1-1.2-1.7-1.1
		c-0.5,0.1-0.9,0.2-1.5,0.2c0.3-0.9,0.4-1.7,0.7-2.4c0.6-1.5,1.1-1.8,2.8-1.8c0.9,0,1.7-0.1,2.2,0.6c0.4,0.6,0.7,1.2,0.9,1.9
		c0.2,0.5,0.3,1,0.5,1.7c-0.7-0.1-1.3-0.2-2-0.3c-0.8,0.5-0.8,0.5-0.9,1c0.6,0.2,1.3,0.4,1.9,0.7c2.3,0.8,4.5,0.9,6.8-0.2
		c0.3-0.2,0.7-0.2,1.1-0.3c0-0.6-0.6-0.6-0.9-0.8c-0.9-0.6-1.2-1.8-0.7-2.8c0.5-0.9,1.5-1.4,2.5-1.1c1.2,0.3,1.8,1.3,1.7,2.4
		c-0.1,0.7-0.5,1.1-1,1.5c-0.2,0.2-0.5,0.4-0.9,0.7c1.8,0.6,3.3,1.5,5,1.4c1.3-0.1,2.5-0.6,3.8-0.9c0.5-0.1,1-0.3,1.5-0.5
		c-0.1-0.7-0.9-1.2-1.6-1c-0.3,0.1-0.6,0.2-0.8,0.2s-0.4,0-0.7-0.1c0.2-0.8,0.4-1.6,0.7-2.4c0.6-1.4,1.1-1.7,2.7-1.7
		c0.7,0,1.4-0.2,2,0.3c0.7,0.6,1,1.4,1.3,2.2c0.1,0.5,0.3,1,0.4,1.6c-0.7-0.1-1.3-0.2-2-0.2c-0.8,0.4-0.8,0.4-0.9,1
		c0.6,0.2,1.2,0.4,1.8,0.7c2.3,0.9,4.6,0.9,6.9-0.1c0.4-0.2,0.8-0.2,1.1-0.3c0.2-0.6-0.3-0.6-0.6-0.8c-0.8-0.5-1.2-1.2-1.1-2.2
		c0.1-0.9,0.6-1.4,1.4-1.8c1-0.4,2.1,0,2.7,0.9c0.6,0.9,0.4,2-0.4,2.8c-0.3,0.3-1,0.3-0.9,1c1,0.3,2,0.7,3.1,1
		c0.8,0.2,1.6,0.4,2.5,0c0.8-0.4,1.8-0.3,2.6-0.5c0.6-0.2,1.2-0.4,1.8-0.6c-0.2-0.7-0.9-1.1-1.7-1c-0.5,0.1-0.9,0.2-1.5,0.2
		c0.3-0.9,0.5-1.7,0.8-2.5c0.6-1.4,1.1-1.8,2.7-1.7c0.1,0,0.2,0,0.2,0c1.5-0.1,2,0.2,2.6,1.5c0.3,0.8,0.5,1.6,0.9,2.6
		c-0.7-0.1-1.3-0.2-2.1-0.2c-0.8,0.4-0.8,0.4-1,0.9c0.9,0.3,1.8,0.6,2.7,0.9c2,0.6,4,0.5,6-0.3c0.4-0.2,0.8-0.2,1.1-0.4
		c0.2-0.6-0.4-0.6-0.7-0.8c-1.3-0.9-1.4-2.7-0.2-3.6c1-0.7,2.4-0.5,3.1,0.4c0.7,1,0.6,2.2-0.3,3C206.5,176.3,206.2,176.6,205.7,177"
		/>
	<g class="st12">
		<path class="st13" d="M156.7,124c-0.7,1.3-1.4,2.7-2.1,4c-0.8,1.4-1.5,2.9-2.3,4.3c-0.8,1.5-2.9,1.5-3.7,0
			c-1.2-2.3-2.4-4.6-3.6-6.9c-0.2-0.4-0.5-0.9-0.8-1.5c-0.3,1.1-0.1,2-0.1,2.9s0,1.8,0,2.7c0,1,0,1.9,0,2.9c0,0.9,0,1.8,0,2.8
			c-1.3,0-2.4,0-3.6,0c0-5.9,0-11.8,0-17.9c1.2,0,2.4,0,3.7,0c0.6,0,0.8,0.5,1,0.9c1.7,3.4,3.4,6.8,5.1,10.2
			c0.1,0.1,0.1,0.2,0.2,0.5c0.2-0.3,0.3-0.6,0.5-0.9c1.7-3.3,3.3-6.6,5-9.9c0.3-0.6,0.7-0.9,1.5-0.9c1.1,0,2.1,0,3.3,0
			c0,6,0,11.9,0,17.9c-1.2,0-2.3,0-3.6,0c0-3.7,0-7.4,0-11.1C156.9,124,156.8,124,156.7,124"/>
		<path class="st13" d="M164.2,117.3c0.2,0,0.5-0.1,0.7-0.1c2.1,0,4.2,0,6.3,0c1.2,0,2.5,0.1,3.6,0.6c2.1,0.9,3.1,2.7,2.7,5
			c-0.2,1-0.7,1.7-1.5,2.3c-0.4,0.3-0.8,0.5-1.2,0.7c0.2,0.1,0.3,0.1,0.4,0.2c3,1.3,3.8,4.6,1.5,7.1c-1.2,1.3-2.7,1.9-4.4,2
			c-2.7,0.1-5.4,0-8.2,0C164.2,129.2,164.2,123.2,164.2,117.3 M168.4,132.1c1,0,1.9,0,2.8,0c0.3,0,0.7-0.1,1-0.1
			c1.2-0.2,1.8-1,1.7-2.3c0-1.2-0.6-1.8-1.8-1.9c-1.2-0.1-2.4,0-3.7,0C168.4,129.2,168.4,130.5,168.4,132.1 M168.4,120.3
			c0,1.5,0,2.9,0,4.4c0.9,0,1.7,0,2.5,0c0.2,0,0.5,0,0.7-0.1c1.3-0.3,1.8-0.9,1.8-2.2s-0.6-1.9-1.9-2
			C170.6,120.2,169.5,120.3,168.4,120.3"/>
		<path class="st13" d="M77.9,135.3c0-6,0-11.9,0-17.8c0.2,0,0.4-0.1,0.6-0.1c2.3,0,4.6-0.1,6.9,0c4.1,0.1,7.2,2.3,8.4,5.8
			c1.9,5.9-1.5,11.9-8.4,12.1c-2.2,0.1-4.5,0-6.7,0C78.4,135.3,78.2,135.3,77.9,135.3 M82.1,132c1.3,0,2.5,0.1,3.7,0
			c1.8-0.2,3-1.3,3.6-3c0.7-1.9,0.7-3.7-0.1-5.6c-0.5-1.2-1.4-2.1-2.7-2.6c-1.5-0.5-3.1-0.3-4.6-0.3C82.1,124.5,82.1,128.2,82.1,132
			"/>
		<path class="st13" d="M134.8,143c3.2,0.1,6.4-0.4,9.5,0.3c4.8,1,7.3,4.9,6.8,10c-0.4,4.3-4.1,7.6-8.6,7.7c-2.5,0.1-5,0-7.6,0
			C134.8,155,134.8,149.1,134.8,143 M139,157.7c1.3,0,2.6,0.1,3.8,0c1.9-0.3,3.1-1.5,3.6-3.3c0.5-1.6,0.5-3.2,0-4.8
			c-0.5-1.5-1.5-2.7-3.1-3.1c-1.4-0.4-2.9-0.2-4.4-0.2C139,150.2,139,153.9,139,157.7"/>
		<path class="st13" d="M102.4,161.2c-4.7,0-8.3-2.5-9.3-6.5c-1.6-5.9,2.1-11.6,8.8-11.8c1.3,0,2.6,0.1,3.8,0.6
			c4.5,1.6,6.2,5.7,5.8,9.6c-0.5,4.4-3.6,7.5-7.9,8C103.1,161.2,102.6,161.2,102.4,161.2 M107.2,151.3c0-0.3,0-0.5-0.1-0.7
			c-0.1-0.4-0.3-1.9-1.5-2.9c-0.8-0.7-1.8-1.1-3-1.2c-2.6-0.2-4.6,1.1-5.2,3.6c-0.4,1.5-0.4,2.9,0.1,4.4c0.6,1.9,1.9,3,4,3.2
			c0.6,0.1,1.2,0,1.7,0c1-0.1,1.8-0.5,2.5-1c0.7-0.6,1-1.3,1.1-1.6s0.2-0.5,0.2-0.7C107.2,153,107.2,151.9,107.2,151.3z"/>
		<path class="st13" d="M195.7,126.1c0-5.2,3.8-9.1,9-9.1c1.1,0,2.2,0.1,3.2,0.3c4.3,1.1,7,5,6.7,9.5c-0.3,4.4-3.5,7.8-8,8.3
			c-1.6,0.2-3.1,0.1-4.7-0.4C198.1,133.6,195.7,130.2,195.7,126.1 M210.1,124.7c-0.1-0.7-0.4-2-1.5-3c-1.2-1-2.5-1.2-3.1-1.2
			c-2.6-0.1-4.5,1.2-5.2,3.7c-0.4,1.4-0.3,2.8,0.1,4.2c0.5,1.7,1.5,2.9,3.2,3.3c0.5,0.1,2.9,0.7,4.8-0.8c1.5-1.2,1.7-3.1,1.8-4
			C210.3,125.7,210.1,124.9,210.1,124.7z"/>
		<path class="st13" d="M212.4,151.9c0,4.9-3.3,8.6-8.2,9.1c-1.5,0.2-3.1,0-4.5-0.4c-3.8-1.3-6.2-4.7-6.1-8.8
			c0.2-5.2,3.9-8.8,9.1-8.9c1.3,0,2.6,0.1,3.9,0.6C210.2,144.7,212.4,147.9,212.4,151.9 M208,150.5c-0.1-0.4-0.2-0.9-0.4-1.4
			c-0.1-0.3-0.5-1.1-1.3-1.8c-0.9-0.7-2-1-3.3-1c-2.1,0-3.7,0.8-4.5,2.8c-0.8,1.9-0.7,3.8,0,5.7c0.5,1.3,1.6,2.3,3,2.6
			c0.6,0.1,2.9,0.7,4.8-0.8c1.6-1.3,1.8-3.4,1.8-4C208.2,151.6,208,150.7,208,150.5z"/>
		<path class="st13" d="M190.6,127.5c2.1,2.2,3.2,5,5,7.6c-1.6,0-2.9,0-4.2,0c-0.6,0-1-0.5-1.3-1c-0.8-1.4-1.6-2.8-2.4-4.2
			c-0.6-1.1-1.3-1.7-2.7-1.3c0,2.1,0,4.3,0,6.5c-1.5,0-2.8,0-4.2,0c0-5.9,0-11.9,0-17.9c1,0,2,0,3,0c1.5,0,3.1,0,4.6,0.1
			c0.7,0,1.4,0.2,2,0.4c2,0.6,3.2,2,3.5,4.1c0.2,2.1-0.5,3.9-2.3,5.1C191.2,127.2,190.9,127.3,190.6,127.5 M185,125.6
			c1-0.1,1.9-0.1,2.9-0.2c1.3-0.3,1.9-1.3,1.9-2.7c0-1.3-0.6-2-2-2.3c-0.9-0.2-1.9-0.2-2.8,0C185,122.1,185,123.8,185,125.6"/>
		<path class="st13" d="M180.4,153.3c2.1,2.2,3.2,5,5,7.6c-1.6,0-3,0-4.3,0c-0.6,0-0.9-0.5-1.2-1c-0.8-1.4-1.6-2.9-2.5-4.3
			c-0.8-1.4-0.8-1.4-2.6-1.3c0,2.2,0,4.3,0,6.6c-1.5,0-2.8,0-4.2,0c0-5.9,0-11.8,0-17.9c0.4,0,0.8,0,1.2,0c2.1,0,4.1,0,6.2,0.1
			c0.7,0,1.5,0.2,2.2,0.4c2,0.6,3.2,2,3.5,4.1c0.2,2.1-0.5,3.9-2.3,5.2C181.1,153,180.7,153.2,180.4,153.3 M174.9,146
			c0,1.9,0,3.6,0,5.4c0.9-0.1,1.7-0.1,2.5-0.2c1.4-0.2,2.1-1.2,2.2-2.6c0-1.4-0.6-2.2-2-2.5C176.7,146.1,175.9,146.1,174.9,146"/>
		<path class="st13" d="M157.9,143.1c1.5,0,2.9,0,4.4,0c2.3,5.9,4.6,11.9,7,17.9c-1.2,0-2.3,0-3.4,0c-0.7,0-1.1-0.5-1.3-1.1
			c-0.3-0.9-0.6-1.9-1-2.8c-2.3,0-4.6,0-6.9,0c-0.3,0.9-0.6,1.8-0.9,2.7c-0.4,1.1-0.7,1.3-1.8,1.3c-0.9,0-1.9,0-3,0
			C153.3,155,155.6,149,157.9,143.1 M157.6,154c1.7,0,3.2,0,4.9,0c-0.8-2.3-1.6-4.6-2.4-7C159.2,149.4,158.4,151.6,157.6,154"/>
		<path class="st13" d="M123.5,135.2c-4.6,0-9.2,0-13.8,0c-0.2-1.2,0-2.3,0.7-3.3c2.4-3.4,4.8-6.8,7.2-10.2c0.2-0.3,0.4-0.7,0.8-1.2
			c-2.8,0-5.4,0-8,0c0-1.1,0-2.1,0-3.2c4.4,0,8.9,0,13.4,0c0.2,1.1,0.1,2.1-0.6,3.1c-2.5,3.5-4.9,7-7.3,10.4
			c-0.2,0.3-0.5,0.7-0.8,1.1c2.9,0,5.6,0,8.4,0C123.5,133.1,123.5,134.1,123.5,135.2"/>
		<path class="st13" d="M108.3,132c0,1.2,0,2.1,0,3.2c-3.8,0-7.6,0-11.5,0c0-5.9,0-11.9,0-17.8c3.8,0,7.6,0,11.5,0c0,1,0,2,0,3.2
			c-2.4,0-4.8,0-7.3,0c0,1.5,0,2.8,0,4.2c1.9,0,3.7,0,5.5,0c0,1.1,0,2,0,3.1c-1.8,0-3.6,0-5.5,0c0,1.4,0,2.8,0,4.2
			C103.4,132,105.8,132,108.3,132"/>
		<path class="st13" d="M130.3,127.8c0,1.5,0,2.8,0,4.2c1.2,0,2.4,0,3.6,0c1.2,0,2.4,0,3.7,0c0,1.1,0,2.1,0,3.2c-3.8,0-7.6,0-11.5,0
			c0-5.9,0-11.9,0-17.8c3.8,0,7.6,0,11.5,0c0.1,1,0,2,0.1,3.2c-2.5,0-4.9,0-7.4,0c0,1.5,0,2.8,0,4.2c1.9,0,3.7,0,5.5,0
			c0,1.1,0,2,0,3.1C134,127.8,132.2,127.8,130.3,127.8"/>
		<path class="st13" d="M78.6,158.9c0.4-0.6,0.7-1.2,1.1-1.8c0.5-0.7,1-0.8,1.8-0.4c0.6,0.3,1.1,0.6,1.6,0.9
			c0.9,0.4,1.9,0.5,2.9,0.2c0.7-0.2,1.1-0.7,1.2-1.4c0.1-0.8-0.1-1.4-0.8-1.8c-0.6-0.3-1.2-0.5-1.8-0.7c-0.8-0.3-1.6-0.5-2.3-0.8
			c-3.7-1.3-3.8-5.9-1.7-8c0.9-0.9,1.9-1.5,3.2-1.8c2.4-0.5,4.7-0.1,6.7,1.3c0.1,0.1,0.2,0.1,0.3,0.2c0.1,0.1,0.1,0.1,0.2,0.3
			c-0.3,0.6-0.6,1.2-1,1.8c-0.4,0.7-0.8,0.8-1.6,0.5c-0.4-0.2-0.8-0.4-1.2-0.6c-0.9-0.4-1.8-0.4-2.7-0.2c-0.7,0.2-1.2,0.6-1.3,1.3
			c-0.1,0.7,0.1,1.2,0.9,1.6c0.5,0.3,1.1,0.5,1.7,0.7c0.7,0.3,1.5,0.5,2.2,0.8c4.6,1.6,3.7,7.2,1.1,9c-1.1,0.8-2.3,1.2-3.6,1.3
			c-2.3,0.2-4.3-0.4-6.2-1.7C79.1,159.4,78.9,159.1,78.6,158.9"/>
		<path class="st13" d="M114.1,143.1c1.4,0,2.7,0,4.1,0c0,4.8,0,9.6,0,14.6c2.3,0,4.4,0,6.6,0c0,1.2,0,2.2,0,3.2
			c-0.9,0.2-8.2,0.3-10.8,0.1C114.1,155.1,114.1,149.1,114.1,143.1"/>
		<path class="st13" d="M127.1,161c0-6,0-11.9,0-17.9c1.4,0,2.7,0,4.1,0c0,5.9,0,11.8,0,17.9C129.9,161.1,128.5,161.1,127.1,161"/>
		<path class="st13" d="M187.1,143c1.4,0,2.7,0,4.1,0c0,6,0,11.9,0,17.8c-1.3,0-2.7,0-4.1,0C187.1,155,187.1,149,187.1,143"/>
		<path class="st14" d="M157.6,141.8c0.9-1.3,1.7-2.4,2.5-3.5c0.1-0.2,0.4-0.3,0.6-0.3c1.5,0,3.1,0,4.9,0c-1.5,1.3-2.7,2.4-4,3.5
			c-0.2,0.2-0.6,0.3-0.9,0.4C159.8,141.8,158.9,141.8,157.6,141.8"/>
	</g>
</g>
<g>
	<path class="st15" d="M56,66c0,3.2,0.1,6.3,0.1,8.9c0,1.1,0.1,4.1,0.2,6.1c0.1,3.7,0.2,6.9,0.3,9.4c0.2,0,0.3,0,0.5,0
		c1.7,0.1,3.3,1,6.1,2.7c0.2,0.1,0.3,0.2,0.5,0.3c0,0,0-0.1,0-0.1c0-9.2,0-18.4,0-27.5c-0.1-6.9-0.9-12.5-1.7-16.5
		c-1-5-2-7.4-4.2-9.2c-1.6-1.2-3.3-1.8-4.8-2c2.2,3.8,2.4,7.5,2.5,8.9C55.9,52.9,56,59.9,56,66z"/>
	<path class="st15" d="M41.9,38.8c0.1,0,0.7,0.1,1.3,0.3c3.9,1.6,4.5,13.7,4.5,16.1c0.1,3.3,0.2,6.7,0.3,10c0.2,6,0.4,12.1,0.5,18.2
		c0,3.7,0.1,7.4,0.2,11c0.5-0.5,1-1,1.3-1.2c0.7-0.6,2.6-2.1,5.1-2.6c-0.1-2.5-0.2-5.7-0.3-9.5c-0.1-2-0.2-5-0.2-6.1
		c-0.1-2.6-0.1-5.7-0.1-8.9c-0.1-6.1-0.2-13.1-0.5-19c-0.1-1.4-0.3-5-2.6-8.7c-0.1-0.2-0.2-0.3-0.3-0.5c0,0-0.1,0-0.1,0
		c-0.3-0.4-0.7-1.1-1.4-1.7c-0.9-0.9-2.3-2.2-3.9-2.1c-1.1,0.1-1.9,0.7-2.7,1.4c-1.3,1.1-1.9,2.4-2.2,3.1c0,0.1,0,0.1,0,0.2
		C41.1,38.8,41.5,38.8,41.9,38.8z"/>
	<path class="st15" d="M127.4,148.1c-4.2-6.1-9-10.3-9-10.3c-4.4-3.8-6.3-4-16-9.6c-9.1-5.3-13.6-7.9-18-12
		c-6.6-6.2-9.7-10.4-9.7-10.4c-1.2-1.5-3.2-4.2-6.6-7.2c-1.6-1.3-2.9-2.3-3.9-3c0,0,0-0.1,0-0.1c-0.6-0.4-1.2-0.7-1.7-1.1
		c-2.8-1.6-4-2.4-5.3-2.4c-2.9-0.2-5.2,1.7-6,2.4c-0.8,0.6-2.1,1.7-2.7,3.6c-0.7,2-0.3,3.7,0,5.4c0.4,1.7,0.9,3.3,1.8,4.8
		c6.5,11.9,9.8,17.9,14.8,24.2c3.9,5,7.5,8.7,11,11.3c2.6,2,5,3.3,7.7,4.3c1,0.3,2,0.6,3.1,0.8c0.4,0.1,0.7,0.5,0.6,1
		c-0.1,0.4-0.4,0.6-0.8,0.6c-0.1,0-0.1,0-0.2,0c-1.1-0.2-2.2-0.5-3.3-0.9c-2.8-1-5.4-2.4-8.2-4.5c-3.6-2.7-7.3-6.5-11.3-11.6
		C58.6,127,55.3,121,48.7,109c-0.9-1.7-1.6-3.4-1.9-5.3c-0.4-1.7-0.8-3.9,0.1-6.3c0.1-0.2,0.2-0.4,0.3-0.7
		c-0.1-4.4-0.2-8.8-0.2-13.3c0-6.1-0.3-12.2-0.5-18.2c-0.1-3.3-0.2-6.7-0.3-10c-0.2-5.5-1.3-13.7-3.5-14.6c-0.4-0.2-0.8-0.2-0.8-0.2
		c-0.4,0-0.8,0-1.1,0.1c0,0,0,0.1,0,0.1c-0.1,0-0.3,0.1-0.6,0.2c-3.9,1.6-4.9,7.5-6.1,17.1c-1.2,9.4-1.6,14.8-1.6,14.8
		c-0.1,0.8-0.9,11.2-1.1,16.8c-1,26.7-1.8,49.1,11.1,63.9c1.2,1.3,6.6,6,17.6,15.3c9.9,8.4,11.3,9.3,15,13.2
		c9.4,9.9,12.7,17.3,14,20.6c1.3,3.3,2.1,6.1,2.5,8.1V246c0,1.1,0.9,2.1,2.1,2.1h42.8c1.1,0,2.1-0.9,2.1-2.1v-47.3
		C138.4,196.4,139,165,127.4,148.1z"/>
</g>
<g>
	<path class="st15" d="M234.9,66c0,3.2-0.1,6.3-0.1,8.9c0,1.1-0.1,4.1-0.2,6.1c-0.1,3.7-0.2,6.9-0.3,9.4c-0.2,0-0.3,0-0.5,0
		c-1.7,0.1-3.3,1-6.1,2.7c-0.2,0.1-0.3,0.2-0.5,0.3c0,0,0-0.1,0-0.1c0-9.2,0-18.4,0-27.5c0.1-6.9,0.9-12.5,1.7-16.5
		c1-5,2-7.4,4.2-9.2c1.6-1.2,3.3-1.8,4.8-2c-2.2,3.8-2.4,7.5-2.5,8.9C235,52.9,234.9,59.9,234.9,66z"/>
	<path class="st15" d="M249,38.8c-0.1,0-0.7,0.1-1.3,0.3c-3.9,1.6-4.5,13.7-4.5,16.1c-0.1,3.3-0.2,6.7-0.3,10
		c-0.2,6-0.4,12.1-0.5,18.2c0,3.7-0.1,7.4-0.2,11c-0.5-0.5-1-1-1.3-1.2c-0.7-0.6-2.6-2.1-5.1-2.6c0.1-2.5,0.2-5.7,0.3-9.5
		c0.1-2,0.2-5,0.2-6.1c0.1-2.6,0.1-5.7,0.1-8.9c0.1-6.1,0.2-13.1,0.5-19c0.1-1.4,0.3-5,2.6-8.7c0.1-0.2,0.2-0.3,0.3-0.5
		c0,0,0.1,0,0.1,0c0.3-0.4,0.7-1.1,1.4-1.7c0.9-0.9,2.3-2.2,3.9-2.1c1.1,0.1,1.9,0.7,2.7,1.4c1.3,1.1,1.9,2.4,2.2,3.1
		c0,0.1,0,0.1,0,0.2C249.8,38.8,249.4,38.8,249,38.8z"/>
	<path class="st15" d="M163.5,148.1c4.2-6.1,9-10.3,9-10.3c4.4-3.8,6.3-4,16-9.6c9.1-5.3,13.6-7.9,18-12c6.6-6.2,9.7-10.4,9.7-10.4
		c1.2-1.5,3.2-4.2,6.6-7.2c1.6-1.3,2.9-2.3,3.9-3c0,0,0-0.1,0-0.1c0.6-0.4,1.2-0.7,1.7-1.1c2.8-1.6,4-2.4,5.3-2.4
		c2.9-0.2,5.2,1.7,6,2.4c0.8,0.6,2.1,1.7,2.7,3.6c0.7,2,0.3,3.7,0,5.4c-0.4,1.7-0.9,3.3-1.8,4.8c-6.5,11.9-9.8,17.9-14.8,24.2
		c-3.9,5-7.5,8.7-11,11.3c-2.6,2-5,3.3-7.7,4.3c-1,0.3-2,0.6-3.1,0.8c-0.4,0.1-0.7,0.5-0.6,1c0.1,0.4,0.4,0.6,0.8,0.6
		c0.1,0,0.1,0,0.2,0c1.1-0.2,2.2-0.5,3.3-0.9c2.8-1,5.4-2.4,8.2-4.5c3.6-2.7,7.3-6.5,11.3-11.6c5.1-6.4,8.4-12.4,14.9-24.4
		c0.9-1.7,1.6-3.4,1.9-5.3c0.4-1.7,0.8-3.9-0.1-6.3c-0.1-0.2-0.2-0.4-0.3-0.7c0.1-4.4,0.2-8.8,0.2-13.3c0-6.1,0.3-12.2,0.5-18.2
		c0.1-3.3,0.2-6.7,0.3-10c0.2-5.5,1.3-13.7,3.5-14.6c0.4-0.2,0.8-0.2,0.8-0.2c0.4,0,0.8,0,1.1,0.1c0,0,0,0.1,0,0.1
		c0.1,0,0.3,0.1,0.6,0.2c3.9,1.6,4.9,7.5,6.1,17.1c1.2,9.4,1.6,14.8,1.6,14.8c0.1,0.8,0.9,11.2,1.1,16.8c1,26.7,1.8,49.1-11.1,63.9
		c-1.2,1.3-6.6,6-17.6,15.3c-9.9,8.4-11.3,9.3-15,13.2c-9.4,9.9-12.7,17.3-14,20.6c-1.3,3.3-2.1,6.1-2.5,8.1V246
		c0,1.1-0.9,2.1-2.1,2.1h-42.8c-1.1,0-2.1-0.9-2.1-2.1v-47.3C152.5,196.4,151.9,165,163.5,148.1z"/>
</g>
<path class="st16" d="M193.3,37.8c-11.5-7.4-25.6-3.1-33.4-0.6c-6.4,2-11.3,4.8-14.5,6.9c-3.2-2.1-8.1-4.9-14.5-6.9
	c-7.8-2.4-21.9-6.8-33.4,0.6C83.8,46.6,83.9,65.9,84,68.5c0.3,13.6,7.8,23.6,17.1,36.1c3.6,4.8,6,7.4,15.2,17.1
	c6.6,7,16.6,17.6,29.1,31c12.5-13.4,22.5-24,29.1-31c9.2-9.7,11.6-12.3,15.2-17.1c9.3-12.5,16.8-22.5,17.1-36.1
	C206.9,65.9,207,46.6,193.3,37.8z"/>
</svg>
