<?xml version="1.0" encoding="utf-8"?>
<!-- Generator: Adobe Illustrator 23.1.0, SVG Export Plug-In . SVG Version: 6.00 Build 0)  -->
<svg version="1.1" id="Camada_1" xmlns="http://www.w3.org/2000/svg" xmlns:xlink="http://www.w3.org/1999/xlink" x="0px" y="0px"
	 viewBox="0 0 440 522.2" style="enable-background:new 0 0 440 522.2;" xml:space="preserve">
<style type="text/css">
	.st0{fill:#FFFFFF;}
	.st1{fill:#9C191B;}
</style>
<g>
	<polygon class="st0" points="431,133.7 9,133.7 9,230.2 48.3,230.2 48.3,517.5 392.9,517.5 392.9,230.2 431,230.2 	"/>
	<rect x="176.4" y="133.7" class="st1" width="87.6" height="383.9"/>
	<rect x="40" y="281.8" class="st1" width="360.4" height="87.6"/>
	<path class="st1" d="M381.4,12.2l-0.4,0.3l0,0L381.4,12.2L381.4,12.2c-2.6-2.5-10-8-24.6-8c-0.3,0-0.6,0-0.8,0
		c-20.3,0.2-46.3,10.8-69.8,28.3c-19,14.3-45,39.5-61.3,78.6c-1.8,4.2-3.3,8.5-4.7,12.7c-1.3-4-2.8-8.2-4.7-12.7
		c-16.3-39.3-42.4-64.4-61.4-78.6C130.9,15,104.8,4.4,84.4,4.2h-0.8c-14.2,0-21.5,5-24.6,8c-1.8,1.7-10.4,11.3-8.9,30.1
		C52,65,78.3,87,128.4,107.6c33.7,13.9,69.5,23.5,88.2,28.1l-0.5,1.8l4-0.9l4,0.9l-0.5-1.8c18.6-4.5,54.4-14.1,88.2-28.1
		C361.8,87,388.1,65,390,42.3C391.8,23,382.5,13.2,381.4,12.2z M223.7,129.9c1.7-5.7,3.7-11.3,6-16.8c15.9-38.4,41.2-62.7,59.6-76.4
		c22.5-16.8,47.4-27,66.7-27.2h0.7c13.4,0,19.4,5,21,6.6c0.1,0.1,8.7,8.1,7.2,25.7v0c-2.2,25.6-42,47.2-75.1,60.8
		C275.2,116.7,238.7,126.3,223.7,129.9z M216.5,129.9c-18.4-4.5-53.3-13.9-85.9-27.4l0,0C70.7,77.9,56.7,55.9,55.5,41.8
		C54.1,25,61.8,16.9,62.7,16c1.5-1.5,7.6-6.5,20.9-6.5h0.6c19.1,0.2,44.1,10.4,66.7,27.2c18.5,13.9,43.9,38.5,59.6,76.4
		C212.8,118.6,214.8,124.2,216.5,129.9z"/>
</g>
</svg>
