<svg version="1.1" id="Layer_1" xmlns="http://www.w3.org/2000/svg" xmlns:xlink="http://www.w3.org/1999/xlink" x="0px" y="0px"
	 viewBox="0 0 208.4 75.1" enable-background="new 0 0 208.4 75.1" xml:space="preserve">
<g>
	<g>
		<path d="M99.6,33.2c0-1.6-1.5-2.6-3-2.6h-2.7c-1.7,0-3,1.3-3,3v7c0,1.7,1.3,3.1,3,3.1h2.7c1.7,0,3-0.7,3-2.6h2.6
			c0,2.3-1.6,5.1-5.4,5.1h-3c-3.1,0-5.4-2.5-5.4-5.6v-7c0-3.1,2.5-5.6,5.6-5.6h2.7c3,0,5.6,2.2,5.6,5.1H99.6z"/>
		<path fill="#F47C58" d="M109.4,38.6V41c0,1.7,1.6,2.8,3.2,2.8h2.8c1.3,0,2.1-0.5,2.5-1.9h2.7c-0.6,2.4-2.5,4.4-5.1,4.4h-3.1
			c-3.1,0-5.6-2.3-5.6-5.3v-7.3c0-3.1,2.5-5.5,5.6-5.5h2.8c3.1,0,5.6,2.5,5.6,5.6v4.9H109.4z M118.1,33.5c0-1.7-1.4-2.9-3-2.9h-2.7
			c-1.7,0-3,1.3-3,2.9v2.6h8.8V33.5z"/>
		<path d="M135,46.3h-5.6c-2.4,0-4.3-1.9-4.3-4.4h2.6c0,1.1,0.8,1.9,1.9,1.9h5.4c1.1,0,1.8-0.9,1.8-1.9v-1.7c0-1.1-0.8-1.8-1.8-1.8
			h-5.1c-2.5,0-4.3-1.9-4.3-4.4v-1.4c0-2.6,2-4.4,4.5-4.4h4.2c2.5,0,4.5,2.1,4.5,4.5h-2.6c0-1-0.8-1.9-2-1.9h-4.1
			c-1.1,0-1.8,0.8-1.8,1.8V34c0,1.1,0.8,1.9,1.8,1.9h5.2c2.5,0,4.2,1.9,4.2,4.4v1.6C139.5,44.4,137.6,46.3,135,46.3z"/>
		<path d="M144.3,24.1v-3h3v3H144.3z M144.5,46V28.4h2.6V46H144.5z"/>
		<path d="M155.1,28.4v12.4c0,1.7,1.3,2.9,2.9,2.9h3.1c1.6,0,3-1,3-2.7V28.4h2.6V46h-2.6v-1.3c-0.9,0.9-1.7,1.5-3.4,1.5H158
			c-3.1,0-5.5-2.4-5.5-5.5V28.4H155.1z"/>
		<path d="M180.1,30.6h-2.7c-1.6,0-3,1.1-3,2.8V46h-2.6V28.4h2.6v1.3c0.9-0.9,1.7-1.6,3.4-1.6h2.4c0.9,0,2.6,0.6,3.9,2.1
			c1.4-1.5,2.4-2.1,4.4-2.1h2.1c3,0,5.4,2.4,5.4,5.5V46h-2.6V33.6c0-1.7-1.1-3-2.8-3h-2.3c-1.7,0-3,1.2-3,2.9V46h-2.6V33.5
			C182.8,31.9,181.6,30.7,180.1,30.6z"/>
	</g>
	<path fill="#F47C58" d="M29.8,40.8L22,36.3v-9.1l17.1,9.9v9.1L29.8,40.8z M32,9.9l7.8-4.5l26.4,15.2L39.8,35.9L22.7,26l7.8-4.5
		l9.3,5.4l10.7-6.2L32,9.9z M30.5,10.7l17.1,9.9l-7.8,4.5l-9.3-5.4l-9.3,5.4l-7.8-4.5L30.5,10.7z M12.7,21.9l7.8,4.5v10.7l9.3,5.4
		l0,9.1l-17.1-9.9V21.9z M12.7,43.3L31.3,54l0-10.7l7.8,4.5v19.8L12.7,52.4V43.3z M40.5,67.6V47.8L57.7,38V47l-9.3,5.4v10.7
		L40.5,67.6z M66.9,52.4l-17.1,9.9v-9.1l17.1-9.9V52.4z M59.1,46.2V38l7.1,4.1L59.1,46.2z M66.9,30.9L40.5,46.2l0-9.1l26.4-15.2
		V30.9z"/>
</g>
</svg>
