<?xml version="1.0" encoding="UTF-8" standalone="no"?>
<svg width="340px" height="587px" viewBox="0 0 340 587" version="1.1" xmlns="http://www.w3.org/2000/svg" xmlns:xlink="http://www.w3.org/1999/xlink" xmlns:sketch="http://www.bohemiancoding.com/sketch/ns">
    <!-- Generator: Sketch 3.3.3 (12072) - http://www.bohemiancoding.com/sketch -->
    <title>logo-white-name</title>
    <desc>Created with Sketch.</desc>
    <defs></defs>
    <g id="stickers" stroke="none" stroke-width="1" fill="none" fill-rule="evenodd" sketch:type="MSPage">
        <g id="Artboard-1" sketch:type="MSArtboardGroup" transform="translate(-2638.000000, -4746.000000)" fill="#FFFFFF">
            <g id="logo-white-name" sketch:type="MSLayerGroup" transform="translate(2638.000000, 4745.000000)">
                <text id="SUBVISUAL-52-Copy-57" sketch:type="MSTextLayer" font-family="Futura" font-size="44" font-weight="420" sketch:alignment="middle" letter-spacing="13">
                    <tspan x="0.759765625" y="585">SUBVISUA</tspan>
                    <tspan x="319.732422" y="585">L</tspan>
                </text>
                <g id="Polygon-182-Copy-11-+-Polygon-185-Copy-11-Copy-Copy-Copy" transform="translate(0.000000, 0.966597)" sketch:type="MSShapeGroup">
                    <path d="M0.120881819,96.0761935 L169.958959,0.355070707 L169.958959,0.339026466 L338.530869,96.3121297 L338.530869,196.270831 L169.966947,96.1375291 L169.966947,96.1443227 L88.358667,144.1387 L118.61003,126.284648 L0.120881819,96.0761935 Z M0.0919107603,96.0925216 L0,96.1443227 L1.11561422e-13,196.103024 L0.0919107603,196.048971 L0.0919107603,96.0925216 Z M225.065761,378.081774 L171.128599,410.949432 L171.128599,411.229765 L1.22278381,311.16435 L1.22278381,411.265771 L171.128599,507.161795 L171.128599,507.161795 L171.128599,507.287508 L339.910019,407.998193 L225.065761,378.081774 L225.065761,378.081774 Z" id="Polygon-182-Copy-11"></path>
                    <path d="M339.9339,407.776949 L2.50111043e-12,196.033325 L2.50111043e-12,96.0071959 L339.9339,307.75082 L339.9339,407.776949 L339.9339,407.776949 Z" id="Polygon-185-Copy-11"></path>
                </g>
            </g>
        </g>
    </g>
</svg>