<?xml version="1.0" encoding="utf-8"?>
<!-- Generator: Adobe Illustrator 23.1.0, SVG Export Plug-In . SVG Version: 6.00 Build 0)  -->
<svg version="1.1" id="Camada_1" xmlns="http://www.w3.org/2000/svg" xmlns:xlink="http://www.w3.org/1999/xlink" x="0px" y="0px"
	 viewBox="0 0 465.9 218.8" style="enable-background:new 0 0 465.9 218.8;" xml:space="preserve">
<style type="text/css">
	.st0{fill:#FFFFFF;}
	.st1{display:none;fill:#FFFFFF;}
	.st2{font-family:'DIN-Black';}
	.st3{font-size:110px;}
	.st4{letter-spacing:-4;}
</style>
<g>
	<path class="st0" d="M106.4,40c0.2,2.1,0.8,5.3,2.1,8.9c1.8,4.7,3.7,6.9,5.7,10.6c1.7,3.1,3.7,7.8,4.9,14.2c2.1-1.8,4.5-4.2,6.8-7
		c3.7-4.5,6.1-9,7.7-12.5c0.3,0.7,7.8,16.4-1.7,30.7c-8.5,12.8-23.1,13.5-24.7,13.5c-1.8,0-17.1,0.2-25.7-12.5
		c-6.2-9.3-6.4-21.7-0.4-31.7c0.8,2.1,1.8,4.6,3.2,7.2c1.6,2.9,3,4.9,4.4,6.6c1.4,1.8,3,3.9,5.1,6.2c-0.1-3,0-6.6,0.7-10.5
		C96.7,52.2,102.7,44.1,106.4,40z"/>
	<path class="st0" d="M72.6,44.8C56.4,71.3,54.8,93.6,47.7,93.1c-3.8-0.3-6.2-6.9-7.4-10.4c-10-27.7,15.2-57.2,17-59.3
		C70.9,7.9,83.9,5.6,87.5,5.1c3.8-0.5,8.6-1.2,10.3,1.2C101.3,11.4,86,22.9,72.6,44.8z"/>
	<path class="st0" d="M102.5,112.3c31,0.7,51.1-9,54.2-2.7c1.7,3.4-2.8,8.8-5.3,11.7c-18.9,22.5-57.1,15.6-59.8,15.1
		c-20.2-4-28.8-14.1-31-16.9c-2.4-3.1-5.3-6.9-4.1-9.5C59.2,104.3,76.8,111.7,102.5,112.3z"/>
	<path class="st0" d="M146.1,53.1C131.6,25.7,113.2,13,117.2,7.2c2.1-3.1,9-1.8,12.7-1.1c28.9,5.5,41.6,42.1,42.4,44.8
		c6.5,19.6,1.8,32,0.4,35.3c-1.5,3.6-3.4,8-6.3,8.2C160.4,94.8,158.2,75.8,146.1,53.1z"/>
</g>
<text transform="matrix(1.01 0 0 1 -1.8613 215.9165)" class="st1 st2 st3 st4">aauminho</text>
<g>
	<path class="st0" d="M51.8,215.9H34.1v-4.8c-2,1.9-3.9,3.3-5.9,4.1c-1.9,0.8-4.4,1.3-7.5,1.3c-6,0-10.8-1.8-14.3-5.3
		c-3.5-3.5-5.3-8.1-5.3-13.9c0-3.2,0.7-6,2.2-8.6c1.4-2.6,3.7-4.7,6.8-6.2c3.1-1.6,6.9-2.4,11.4-2.4h12.1v-1.5
		c0-2.7-0.7-4.6-2.1-5.7c-1.4-1.1-3.7-1.6-6.9-1.6c-2.2,0-4,0.3-5.3,0.9c-1.3,0.6-2.7,1.6-4.2,3.1L3.7,164c3.1-3,6.2-5.1,9.4-6.2
		c3.2-1.1,7.3-1.7,12.4-1.7c8.6,0,15.1,1.8,19.6,5.3c4.5,3.6,6.7,8.9,6.7,16.1V215.9z M33.6,193.7v-1.5h-9.2c-1.7,0-3.1,0.4-4.2,1.3
		c-1,0.9-1.6,2-1.6,3.4c0,1.4,0.5,2.6,1.6,3.5c1,0.9,2.5,1.4,4.4,1.4c1.8,0,3.2-0.1,4.2-0.4c1-0.3,2.1-0.9,3-1.8
		C33,198.6,33.6,196.6,33.6,193.7z"/>
	<path class="st0" d="M106.4,215.9H88.6v-4.8c-2,1.9-3.9,3.3-5.9,4.1c-1.9,0.8-4.4,1.3-7.5,1.3c-6,0-10.8-1.8-14.3-5.3
		c-3.5-3.5-5.3-8.1-5.3-13.9c0-3.2,0.7-6,2.2-8.6c1.4-2.6,3.7-4.7,6.8-6.2c3.1-1.6,6.9-2.4,11.4-2.4h12.1v-1.5
		c0-2.7-0.7-4.6-2.1-5.7c-1.4-1.1-3.7-1.6-6.9-1.6c-2.2,0-4,0.3-5.3,0.9c-1.3,0.6-2.7,1.6-4.2,3.1L58.2,164c3.1-3,6.2-5.1,9.4-6.2
		c3.2-1.1,7.3-1.7,12.4-1.7c8.6,0,15.1,1.8,19.6,5.3c4.5,3.6,6.7,8.9,6.7,16.1V215.9z M88.1,193.7v-1.5h-9.2c-1.7,0-3.1,0.4-4.2,1.3
		c-1,0.9-1.6,2-1.6,3.4c0,1.4,0.5,2.6,1.6,3.5c1,0.9,2.5,1.4,4.4,1.4c1.8,0,3.2-0.1,4.2-0.4c1-0.3,2.1-0.9,3-1.8
		C87.5,198.6,88.1,196.6,88.1,193.7z"/>
	<path class="st0" d="M164.7,215.9h-17.8v-4.8c-1.8,1.8-3.9,3.1-6.5,4.1c-2.5,0.9-5,1.4-7.4,1.4c-5.5,0-10-1.7-13.5-5
		c-2.3-2.3-3.9-4.8-4.7-7.5c-0.8-2.7-1.2-5.8-1.2-9.4v-37.9h18.2v35.4c0,3,0.8,5.1,2.4,6.3c1.6,1.2,3.2,1.8,5,1.8s3.4-0.6,5-1.8
		c1.6-1.2,2.4-3.3,2.4-6.3v-35.4h18.2V215.9z"/>
	<path class="st0" d="M257.5,215.9h-18.2v-35.4c0-3-0.8-5.2-2.4-6.4c-1.6-1.2-3.2-1.8-5-1.8c-1.7,0-3.4,0.6-5,1.8
		c-1.6,1.2-2.4,3.3-2.4,6.3v35.4h-18.2v-35.4c0-3-0.8-5.2-2.4-6.4c-1.6-1.2-3.2-1.8-5-1.8c-1.7,0-3.4,0.6-5,1.8
		c-1.6,1.2-2.4,3.3-2.4,6.3v35.4h-18.2v-59.2h17.8v4.8c1.7-1.7,3.9-3.1,6.4-4s5-1.5,7.5-1.5c6,0,10.8,2.1,14.5,6.3
		c2.6-2.2,5.2-3.8,7.8-4.8c2.6-1,5.6-1.5,9.1-1.5c2.9,0,5.6,0.4,8.2,1.3c2.6,0.9,4.6,2.1,6.2,3.7c2.4,2.4,4.1,4.9,5.1,7.7
		c1,2.7,1.5,5.8,1.5,9.3V215.9z"/>
	<path class="st0" d="M283.9,150.7h-18.2V137h18.2V150.7z M283.9,215.9h-18.2V159h18.2V215.9z"/>
	<path class="st0" d="M343.8,215.9h-18.2v-35.4c0-3-0.8-5.2-2.4-6.4c-1.6-1.2-3.2-1.8-5-1.8c-1.7,0-3.4,0.6-5,1.8
		c-1.6,1.2-2.4,3.3-2.4,6.3v35.4h-18.2v-59.2h17.8v4.8c1.7-1.7,3.9-3.1,6.4-4s5-1.5,7.5-1.5c5.5,0,10,1.7,13.4,5
		c2.4,2.3,3.9,4.7,4.8,7.5c0.8,2.7,1.2,5.9,1.2,9.5V215.9z"/>
	<path class="st0" d="M402.5,215.9h-18.2V180c0-2.8-0.8-4.8-2.3-6c-1.5-1.1-3.1-1.7-4.7-1.7c-1.7,0-3.2,0.6-4.7,1.8
		c-1.5,1.2-2.3,3.2-2.3,5.9v35.9h-18.2v-78.3h18.2v24c1.8-1.8,3.9-3.2,6.2-4.1c2.3-0.9,4.6-1.4,7-1.4c4.2,0,7.7,0.9,10.5,2.8
		c2.9,1.8,5,4.4,6.4,7.7c1.4,3.3,2.1,6.9,2.1,11V215.9z"/>
	<path class="st0" d="M460.2,186.3c0,5.8-0.5,10.4-1.4,13.7c-0.9,3.3-2.6,6.3-5.1,8.9c-4.8,5-11.2,7.6-19.3,7.6
		c-8.1,0-14.5-2.5-19.2-7.6c-1.6-1.7-2.9-3.6-3.9-5.6s-1.7-4.4-2.1-7c-0.4-2.6-0.6-6-0.6-10c0-4,0.2-7.3,0.6-10c0.4-2.6,1.1-5,2.1-7
		c1-2,2.3-3.9,3.9-5.7c2.1-2.2,4.7-4,7.9-5.4c3.1-1.4,6.9-2.1,11.3-2.1c4.4,0,8.2,0.7,11.4,2.1c3.2,1.4,5.8,3.2,7.9,5.5
		c2.5,2.7,4.2,5.6,5.1,9C459.7,176,460.2,180.5,460.2,186.3z M441.9,186.3c0-3.4-0.2-6.1-0.5-8c-0.3-1.9-1.1-3.3-2.1-4.3
		c-1.1-1.1-2.7-1.7-4.9-1.7c-2.1,0-3.8,0.6-4.9,1.7c-1.1,1.1-1.8,2.6-2.1,4.6c-0.3,2-0.5,4.6-0.5,7.7c0,3.2,0.2,5.7,0.5,7.7
		c0.3,2,1.1,3.5,2.1,4.6c1.1,1.1,2.7,1.7,4.9,1.7c2.2,0,3.8-0.5,4.9-1.6c1.1-1.1,1.8-2.6,2.1-4.4
		C441.8,192.4,441.9,189.8,441.9,186.3z"/>
</g>
</svg>
