<svg xmlns="http://www.w3.org/2000/svg" viewBox="0 0 69.03 44.53"><defs><style>.cls-1{fill:#e05326;}.cls-2{fill:#b2b4b5;}</style></defs><title>Asset 3</title><g id="Layer_2" data-name="Layer 2"><g id="Layer_1-2" data-name="Layer 1"><path class="cls-1" d="M23.44,18.91c-3.4,0-6.15,2.35-6.15,5.24S20,29.4,23.44,29.4s6.15-2.35,6.15-5.25S26.84,18.91,23.44,18.91Zm0,9C21,27.92,19,26.24,19,24.15s2-3.77,4.43-3.77,4.42,1.69,4.42,3.77S25.88,27.92,23.44,27.92Z"/><polygon class="cls-2" points="14.92 0 9.17 17.47 14.64 17.47 18.45 5.03 22.2 17.47 27.92 17.47 22.08 0 14.92 0"/><polygon class="cls-2" points="4.56 30.79 0 44.52 5.8 44.52 10.36 30.79 4.56 30.79"/><polygon class="cls-2" points="26.44 30.79 32.56 30.79 37.17 44.52 31.04 44.52 26.44 30.79"/><polygon class="cls-2" points="43.95 0 43.95 17.47 49.66 17.47 49.66 4.77 69.03 4.81 69.03 0 43.95 0"/><polygon class="cls-2" points="43.95 30.79 49.62 30.79 49.62 39.8 69.03 39.8 69.03 44.52 43.95 44.52 43.95 30.79"/><path class="cls-1" d="M37,19.08h-5.4V29.23H37C43.43,28.4,43.83,20,37,19.08Zm0,8.8H33.23V20.43H37C41,21.16,41.78,26.55,37,27.88Z"/><path class="cls-1" d="M45.43,19.08v6.81a1.48,1.48,0,0,0,.37,1,4.16,4.16,0,0,0,5.64-.06,1.45,1.45,0,0,0,.34-1V19.08h1.71V26a1.42,1.42,0,0,1-.13.61c-1.73,3.92-8.43,3.4-9.56-.09a1.47,1.47,0,0,1-.07-.46v-7Z"/><polygon class="cls-1" points="55.71 19.08 57.33 19.08 61 23.37 64.59 19.08 66.18 19.08 66.18 29.23 64.59 29.23 64.59 21.32 61 25.49 57.33 21.32 57.33 29.23 55.71 29.23 55.71 19.08"/><polygon class="cls-1" points="4.92 19.08 6.53 19.08 10.21 23.37 13.8 19.08 15.38 19.08 15.38 29.23 13.8 29.23 13.8 21.32 10.21 25.49 6.53 21.32 6.53 29.23 4.92 29.23 4.92 19.08"/></g></g></svg>