<?xml version="1.0" encoding="utf-8"?>
<!-- Generator: Adobe Illustrator 23.1.0, SVG Export Plug-In . SVG Version: 6.00 Build 0)  -->
<svg version="1.1" id="Camada_1" xmlns="http://www.w3.org/2000/svg" xmlns:xlink="http://www.w3.org/1999/xlink" x="0px" y="0px"
	 viewBox="0 0 115.2 42.3" style="enable-background:new 0 0 115.2 42.3;" xml:space="preserve">
<style type="text/css">
	.st0{fill:#FFFFFF;}
</style>
<g>
	<g>
		<path class="st0" d="M51.3,19c0-1-0.9-1.7-1.9-1.7h-1.7c-1.1,0-1.9,0.9-1.9,1.9v4.5c0,1.1,0.9,2,1.9,2h1.7c1.1,0,1.9-0.5,1.9-1.7
			H53c0,1.5-1,3.3-3.5,3.3h-1.9c-2,0-3.5-1.6-3.5-3.6v-4.5c0-2,1.6-3.6,3.6-3.6h1.7c2,0,3.6,1.4,3.6,3.3H51.3z"/>
		<path class="st0" d="M57.6,22.5v1.6c0,1.1,1,1.8,2.1,1.8h1.8c0.8,0,1.4-0.3,1.6-1.2h1.7c-0.4,1.6-1.6,2.8-3.3,2.8h-2
			c-2,0-3.6-1.5-3.6-3.4v-4.7c0-2,1.6-3.5,3.6-3.5h1.8c2,0,3.6,1.6,3.6,3.6v3.1H57.6z M63.3,19.3c0-1.1-0.9-1.9-2-1.9h-1.7
			c-1.1,0-2,0.8-2,1.9v1.6h5.7V19.3z"/>
		<path class="st0" d="M74.2,27.4h-3.6c-1.5,0-2.8-1.3-2.7-2.8h1.6c0,0.7,0.5,1.2,1.3,1.2h3.5c0.7,0,1.2-0.5,1.2-1.2v-1.1
			c0-0.7-0.5-1.2-1.2-1.2h-3.3c-1.6,0-2.8-1.2-2.8-2.8v-0.9c0-1.6,1.3-2.8,2.9-2.8h2.7c1.6,0,2.9,1.4,2.9,2.9h-1.7
			c0-0.7-0.5-1.3-1.3-1.3H71c-0.7,0-1.2,0.5-1.2,1.2v1c0,0.7,0.5,1.2,1.2,1.2h3.4c1.6,0,2.7,1.2,2.7,2.8v1
			C77,26.2,75.8,27.4,74.2,27.4z"/>
		<path class="st0" d="M80.1,13.1v-1.9H82v1.9H80.1z M80.2,27.3V16h1.7v11.3H80.2z"/>
		<path class="st0" d="M87.1,16v8c0,1.1,0.8,1.9,1.9,1.9h2c1,0,1.9-0.6,1.9-1.7V16h1.7v11.3h-1.7v-0.8c-0.6,0.6-1.1,1-2.2,1H89
			c-2,0-3.5-1.6-3.5-3.5V16H87.1z"/>
		<path class="st0" d="M103.2,17.4h-1.7c-1,0-1.9,0.7-1.9,1.8v8.1h-1.7V16h1.7v0.8c0.6-0.6,1.1-1,2.2-1h1.5c0.6,0,1.7,0.4,2.5,1.3
			c0.9-1,1.6-1.3,2.8-1.3h1.4c1.9,0,3.5,1.6,3.5,3.5v8h-1.7v-8c0-1.1-0.7-1.9-1.8-1.9h-1.5c-1.1,0-1.9,0.8-1.9,1.9v8.1H105v-8
			C105,18.2,104.1,17.5,103.2,17.4z"/>
	</g>
	<path class="st0" d="M12.4,23.9L7.3,21v-5.8l11,6.4v5.8L12.4,23.9z M13.8,4l5.1-2.9l17,9.8l-17,9.8l-11-6.4l5.1-2.9l6,3.5l6.9-4
		L13.8,4z M12.8,4.6l11,6.4l-5.1,2.9l-6-3.5l-6,3.5l-5.1-2.9L12.8,4.6z M1.3,11.7l5.1,2.9v6.9l6,3.5l0,5.8l-11-6.4V11.7z M1.3,25.5
		l12,6.9l0-6.9l5,2.9v12.7l-17-9.8V25.5z M19.3,41.2V28.5l11-6.4v5.8l-6,3.5v6.9L19.3,41.2z M36.3,31.4l-11,6.4v-5.8l11-6.4V31.4z
		 M31.2,27.4v-5.3l4.6,2.6L31.2,27.4z M36.3,17.6l-17,9.8l0-5.8l17-9.8V17.6z"/>
</g>
</svg>
