<?xml version="1.0" encoding="UTF-8"?>
<svg id="a" data-name="Camada_1" xmlns="http://www.w3.org/2000/svg" viewBox="0 0 384.45 322.32">
  <defs>
    <style>
      .b {
        fill: #ffe5d9;
      }
    </style>
  </defs>
  <path class="b" d="M0,161.15C0,113.82,0,66.48.02,19.15c0-2.16.06-4.34.35-6.47C1.42,4.79,5.2.72,13.04.54,31.86.09,50.69.05,69.51,0c8.16-.02,16.32.32,24.48.53,11.52.31,15.67,4.4,15.77,15.87.1,12.66,0,25.33.03,37.99,0,2.33.05,4.68.31,6.99,1.56,14.19,6.92,19.06,21.1,19,5.14-.02,10.36-.01,15.41-.84,6.38-1.05,8.79-4.28,9.24-10.57,1.11-15.8,1.73-16.43,17.93-16.35,23.33.11,46.66.29,69.98.51,9.03.09,14.67,4.13,15.08,12.6,1.29,26.67,13.42,49.07,28.01,70.06,20.25,29.11,41.93,57.23,62.82,85.9,10.69,14.66,20.98,29.62,31.5,44.4,3.98,5.58,4.21,11.2,1.31,17.4-3.67,7.83-6.97,15.84-10.28,23.83-4.79,11.55-10.02,15.04-22.53,14.91-16.99-.17-34.09-1.48-50.95-.06-15.25,1.28-23.62-6.5-30.94-17.47-31.16-46.69-62.24-93.43-93.38-140.13-5.36-8.04-11.18-15.78-16.27-23.98-3.6-5.79-8.46-9.02-15.04-9.21-6.61-.19-13.36-.35-19.85.71-9.13,1.48-13.3,7.21-13.3,16.55-.03,50.83-.01,101.67-.05,152.5,0,3.66,0,7.36-.51,10.97-.89,6.31-3.86,9.15-10.23,9.58-6.47.43-12.98.51-19.47.5-22.16-.06-44.33.02-66.48-.46-9.06-.2-12.05-3.69-13-12.58-.18-1.65-.2-3.33-.2-4.99C0,256.48,0,208.82,0,161.15Z"/>
</svg>