<?xml version="1.0" encoding="utf-8"?>
<!-- Generator: Adobe Illustrator 25.2.0, SVG Export Plug-In . SVG Version: 6.00 Build 0)  -->
<svg version="1.1" id="Layer_1" xmlns="http://www.w3.org/2000/svg" xmlns:xlink="http://www.w3.org/1999/xlink" x="0px" y="0px"
	 viewBox="0 0 1500 1500" style="enable-background:new 0 0 1500 1500;" xml:space="preserve">
<style type="text/css">
	.st0{fill:#EC2431;}
	.st1{fill:#CFD4DF;}
	.st2{fill:#1FE863;}
	.st3{fill:#1F336A;}
	.st4{fill:#1F3165;}
</style>
<g>
	<g>
		<g>
			<path class="st0" d="M1210.62,854.01c-111,0-221.89,0-332.87,0c0.43-5.21,1.16-10.32,2.07-15.4
				c3.23-18.04,8.77-35.33,16.88-51.78c8.37-16.99,19.01-32.38,32.13-46.04c13.53-14.08,28.97-25.57,46.51-34.21
				c15.36-7.57,31.54-12.49,48.72-14.72c0.36,7.12,3.22,12.94,9.21,17c3.53,2.39,7.47,3.46,11.72,3.42
				c8.94-0.1,19.31-7.08,20.01-20.18c3.61,0.42,7.18,1.07,10.72,1.84c29.99,6.5,55.93,20.66,78.05,41.79
				c25.94,24.78,42.8,54.88,51.8,89.5c2.39,9.18,3.98,18.5,5.05,27.92C1210.64,853.38,1210.62,853.63,1210.62,854.01z"/>
			<path class="st0" d="M700.27,854c-8.84,0-17.56,0-26.15,0c0-3.08-0.11-6.1,0.02-9.12c0.36-8.17,1.01-16.31,1.88-24.44
				c1.45-13.54,3.58-26.97,6.43-40.28c6.35-29.68,15.97-58.26,28.96-85.69c16.48-34.8,37.63-66.48,63.59-94.94
				c29.77-32.63,64.15-59.28,103.35-79.68c27.04-14.07,55.42-24.53,85.13-31.38c17.03-3.93,34.26-6.56,51.67-7.98
				c7.6-0.62,15.23-0.91,22.86-1.07c11.58-0.24,23.14,0.14,34.68,1.06c24.06,1.92,47.71,6.19,70.9,12.94
				c47.12,13.71,89.71,36.1,127.83,66.96c41.15,33.31,73.81,73.59,98.35,120.47c16.73,31.96,28.69,65.63,36.09,100.92
				c3.95,18.8,6.51,37.8,7.63,56.99c0.3,5.03,0.57,10.05,0.61,15.19c-8.77,0-17.52,0-26.4,0c-0.09-1.7-0.21-3.42-0.27-5.14
				c-1.33-36.1-7.88-71.23-19.57-105.4c-9.9-28.93-23.27-56.18-40.09-81.72c-13.62-20.69-29.17-39.82-46.81-57.21
				c-38.33-37.79-82.88-65.48-134.1-82.31c-18.79-6.17-38.01-10.54-57.6-13.23c-11.91-1.63-23.89-2.57-35.91-2.93
				c-13.93-0.42-27.83,0.07-41.69,1.42c-24.04,2.33-47.56,7.21-70.52,14.74c-46.65,15.29-87.95,39.72-124.13,72.82
				c-31.68,28.98-57.16,62.7-76.72,100.9c-15.44,30.15-26.37,61.87-32.99,95.08c-3.4,17.08-5.57,34.33-6.5,51.72
				C700.6,846.41,700.45,850.14,700.27,854z"/>
			<path class="st1" d="M1291.97,853.97c-0.46,0.03-0.85,0.08-1.24,0.08c-7.84,0-15.67-0.02-23.51,0.03
				c-1.19,0.01-1.65-0.35-1.77-1.58c-0.96-9.63-2.47-19.17-4.44-28.64c-2.49-11.94-5.84-23.64-9.9-35.13
				c-2.73-7.75-5.87-15.33-9.32-22.79c-6-12.96-13.06-25.31-21.12-37.09c-4.92-7.19-10.23-14.07-15.9-20.68
				c-4.48-5.22-9.07-10.33-14.01-15.11c-7.12-6.88-14.58-13.37-22.48-19.37c-12.19-9.26-25.2-17.13-39.05-23.61
				c-10.79-5.05-21.97-9.09-33.48-12.19c-5.04-1.36-10.13-2.49-15.25-3.44c-5.21-0.97-10.46-1.74-15.75-2.26
				c-4.95-0.49-9.92-0.62-14.87-0.97c-5.85-0.42-11.66-0.09-17.46,0.2c-8.96,0.45-17.85,1.7-26.69,3.4
				c-13.63,2.63-26.81,6.67-39.6,12.01c-13.24,5.53-25.77,12.36-37.6,20.46c-6.57,4.49-12.88,9.33-18.94,14.52
				c-5.91,5.06-11.65,10.29-17.01,15.92c-6.37,6.71-12.39,13.73-18.01,21.09c-6.36,8.32-12.16,17.01-17.42,26.04
				c-5.52,9.48-10.4,19.29-14.66,29.41c-3.09,7.34-5.88,14.8-8.33,22.38c-2.95,9.13-5.41,18.4-7.35,27.79
				c-1.56,7.52-2.85,15.1-3.7,22.74c-0.2,1.77-0.39,3.55-0.6,5.32c-0.1,0.86-0.21,1.61-1.46,1.6c-8.09-0.05-16.17-0.03-24.26-0.03
				c-0.24,0-0.48-0.06-0.76-0.09c-0.54-1.79,0.02-3.51,0.19-5.2c0.48-4.78,1.07-9.56,1.81-14.31c0.78-4.99,1.69-9.98,2.73-14.92
				c2.62-12.46,5.88-24.75,10.07-36.78c3.32-9.55,7.1-18.91,11.36-28.08c6.14-13.22,13.23-25.9,21.33-38.01
				c5.5-8.23,11.43-16.14,17.8-23.74c6.19-7.38,12.74-14.39,19.67-21.07c5.23-5.04,10.7-9.81,16.35-14.38
				c6.74-5.45,13.74-10.54,21.01-15.24c14.52-9.4,29.87-17.14,46.07-23.23c11.9-4.48,24.1-7.87,36.55-10.31
				c5.69-1.12,11.43-2,17.21-2.57c5.39-0.53,10.77-0.97,16.19-1.24c5.84-0.29,11.67-0.3,17.49-0.14c8.78,0.24,17.55,1.02,26.23,2.4
				c11.59,1.83,23,4.45,34.2,8c13.43,4.25,26.35,9.69,38.81,16.23c11.66,6.12,22.73,13.2,33.22,21.15
				c7.06,5.35,13.82,11.06,20.28,17.13c3.75,3.52,7.44,7.09,10.96,10.82c5.15,5.46,10.06,11.14,14.78,16.99
				c7.76,9.63,14.8,19.75,21.17,30.33c6.68,11.11,12.59,22.62,17.7,34.55c3.22,7.51,6.17,15.12,8.76,22.86
				c3.54,10.61,6.45,21.4,8.8,32.34c1.39,6.45,2.5,12.95,3.47,19.47c0.67,4.46,1.31,8.93,1.6,13.44
				C1291.93,851.56,1292.36,852.66,1291.97,853.97z"/>
			<path class="st2" d="M1024.03,518.94c0,9.08,0,17.95,0,26.93c-1.22,0.28-2.52,0.27-3.75,0.35c-5.35,0.32-10.68,0.91-15.98,1.62
				c-5.21,0.69-10.4,1.61-15.58,2.57c-10.38,1.93-20.59,4.45-30.7,7.47c-9.58,2.86-18.97,6.23-28.21,10.05
				c-7.65,3.16-15.17,6.59-22.5,10.41c-7.33,3.82-14.5,7.94-21.53,12.3c-8.24,5.12-16.15,10.71-23.9,16.53
				c-3.45,2.58-6.71,5.42-10.04,8.17c-5.06,4.18-9.91,8.61-14.7,13.11c-3.23,3.03-6.4,6.12-9.47,9.31
				c-4.11,4.27-8.15,8.63-11.96,13.16c-6.36,7.55-12.48,15.29-18.16,23.38c-5.63,8.01-10.86,16.25-15.78,24.71
				c-4.07,7-7.85,14.15-11.3,21.46c-4.26,9.04-8.06,18.27-11.51,27.66c-4.43,12.04-7.98,24.32-10.94,36.78
				c-1.7,7.14-2.93,14.39-4.22,21.62c-0.69,3.9-0.96,7.87-1.56,11.78c-0.68,4.42-0.85,8.88-1.45,13.3
				c-0.19,1.41-0.21,2.86-0.25,4.28c-0.06,2.53-0.49,5.03-0.38,7.57c0.14,3.47-0.61,6.92-0.2,10.5c-8.95,0-17.76,0-26.76,0
				c0.21-3.33-0.34-6.69,0.29-10.03c0.08-0.43,0.04-0.9,0.03-1.34c-0.14-4.46,0.45-8.89,0.65-13.34c0.18-4.01,0.65-8.03,1.17-12.01
				c1.02-7.74,2.1-15.47,3.52-23.15c1.93-10.42,4.3-20.72,7.17-30.92c1.68-5.98,3.47-11.91,5.46-17.79
				c2.63-7.76,5.62-15.38,8.76-22.96c3.84-9.28,8.27-18.27,12.91-27.15c3.76-7.19,7.86-14.2,12.22-21.07
				c3.73-5.88,7.59-11.67,11.62-17.34c3.23-4.54,6.55-9,10.09-13.3c3.11-3.79,6.14-7.64,9.33-11.36c1.53-1.8,3.13-3.55,4.7-5.32
				c1.81-2.04,3.74-3.98,5.63-5.95c2.75-2.87,5.44-5.81,8.3-8.56c4.17-4.02,8.39-8,12.73-11.83c7.83-6.9,15.95-13.46,24.39-19.59
				c7.56-5.49,15.34-10.67,23.35-15.49c9.39-5.66,19.01-10.89,28.92-15.58c8.12-3.84,16.35-7.4,24.79-10.51
				c5.1-1.87,10.19-3.75,15.37-5.41c7.53-2.42,15.12-4.63,22.81-6.43c7.15-1.68,14.33-3.24,21.6-4.34
				c4.68-0.71,9.35-1.49,14.06-2.07c4.97-0.61,9.96-1.08,14.94-1.55C1019.95,519.37,1021.96,519.73,1024.03,518.94z"/>
			<path class="st2" d="M1064.88,545.89c0-8.89,0-17.65,0-26.53c2.47-0.12,4.85,0.27,7.24,0.49c2.4,0.22,4.79,0.44,7.19,0.69
				c3.6,0.38,7.2,0.79,10.77,1.39c2.74,0.47,5.49,0.88,8.24,1.29c4.09,0.62,8.13,1.52,12.19,2.32c7.2,1.43,14.31,3.21,21.36,5.21
				c6.99,1.99,13.91,4.23,20.76,6.69c6.8,2.45,13.51,5.14,20.16,7.97c7.67,3.26,15.11,7.01,22.49,10.86
				c7.2,3.75,14.17,7.92,21.07,12.23c9.1,5.68,17.84,11.88,26.35,18.39c4.24,3.25,8.38,6.65,12.4,10.17
				c4.09,3.58,8.12,7.22,12.12,10.89c4.18,3.85,8.2,7.85,12.11,11.96c4.28,4.5,8.43,9.13,12.49,13.84
				c5.79,6.72,11.27,13.68,16.51,20.83c5.55,7.57,10.71,15.42,15.59,23.44c5.91,9.7,11.33,19.65,16.23,29.88
				c4.05,8.45,7.76,17.04,11.03,25.83c1.95,5.23,3.92,10.44,5.64,15.74c2.65,8.16,5.07,16.4,7.06,24.74
				c1.53,6.38,2.94,12.79,4.09,19.25c0.92,5.18,1.83,10.37,2.57,15.57c0.54,3.78,0.97,7.58,1.31,11.4c0.44,4.85,0.86,9.7,1.2,14.56
				c0.38,5.4,0.62,10.79,0.52,16.19c-0.02,0.93,0.62,1.79,0.21,2.79c-8.87,0-17.74,0-26.65,0c-0.37-0.47-0.19-1.04-0.17-1.56
				c0.2-4.48-0.21-8.94-0.36-13.41c-0.17-4.96-0.6-9.93-1.19-14.86c-0.6-5.04-1.26-10.08-1.99-15.12
				c-1.6-11.14-3.91-22.13-6.7-33.01c-1.48-5.77-3.21-11.48-5.04-17.16c-3.16-9.74-6.76-19.3-10.85-28.69
				c-2.76-6.33-5.63-12.62-8.84-18.73c-4.16-7.92-8.59-15.69-13.34-23.28c-5.14-8.23-10.73-16.14-16.54-23.89
				c-3.03-4.04-6.37-7.84-9.58-11.73c-3.27-3.96-6.77-7.71-10.23-11.5c-4.28-4.67-8.81-9.07-13.33-13.49
				c-3.63-3.55-7.47-6.89-11.35-10.18c-6.12-5.18-12.4-10.17-18.9-14.88c-4.82-3.49-9.74-6.82-14.71-10.06
				c-5.5-3.58-11.17-6.89-16.91-10.09c-5.24-2.92-10.57-5.67-15.98-8.24c-7.94-3.77-16-7.23-24.26-10.25
				c-4.88-1.78-9.77-3.49-14.72-5.05c-9.59-3.03-19.31-5.51-29.17-7.51c-5.35-1.09-10.71-2.09-16.1-2.89
				c-3.48-0.52-6.98-1-10.51-1.29c-3.33-0.27-6.63-0.84-9.99-0.88C1065.88,546.25,1065.42,546.03,1064.88,545.89z"/>
		</g>
	</g>
</g>
<g>
	<g>
		<path class="st3" d="M97.23,987.89V832.25h24.21l31.9,74.93v-74.93h28.44v155.63h-23.25l-31.9-80.7v80.7H97.23z"/>
		<path class="st3" d="M222.89,989.81c-4.49,0-8.3-1.12-11.43-3.36c-3.14-2.24-5.48-5.35-7.01-9.32c-1.54-3.97-2.31-8.39-2.31-13.26
			v-87.04h31.32v83.39c0,2.69,0.48,4.77,1.44,6.24c0.96,1.47,2.66,2.21,5.09,2.21c1.41,0,2.88-0.35,4.42-1.06
			c1.54-0.7,3.14-1.5,4.8-2.4v-88.38h31.13v111.06h-31.13V977.7c-3.97,3.72-8.17,6.66-12.58,8.84S227.62,989.81,222.89,989.81z
			 M231.53,864.53l12.1-38.62h31.9l-24.21,38.62H231.53z"/>
		<path class="st3" d="M336.25,989.81c-8.07,0-14.96-1.47-20.66-4.42c-5.7-2.95-10.09-7.17-13.16-12.68
			c-3.07-5.51-4.61-12.17-4.61-19.98v-40.73c0-7.94,1.54-14.67,4.61-20.17c3.07-5.51,7.46-9.7,13.16-12.58
			c5.7-2.88,12.59-4.32,20.66-4.32c7.94,0,14.7,1.22,20.27,3.65c5.57,2.43,9.83,6.12,12.78,11.05c2.95,4.93,4.42,11.18,4.42,18.73
			v11.72h-30.17v-12.68c0-2.95-0.29-5.22-0.86-6.82c-0.58-1.6-1.41-2.72-2.5-3.36c-1.09-0.64-2.4-0.96-3.94-0.96
			s-2.82,0.42-3.84,1.25c-1.03,0.83-1.8,2.18-2.31,4.04c-0.51,1.86-0.77,4.45-0.77,7.78v46.11c0,5,0.61,8.39,1.83,10.18
			c1.22,1.79,2.98,2.69,5.28,2.69c1.66,0,3.01-0.35,4.04-1.06c1.02-0.7,1.79-1.86,2.31-3.46c0.51-1.6,0.77-3.75,0.77-6.44v-14.79
			h30.17v13.45c0,7.43-1.51,13.68-4.52,18.73c-3.01,5.06-7.3,8.84-12.87,11.34C350.76,988.56,344.06,989.81,336.25,989.81z"/>
		<path class="st3" d="M391.39,987.89V832.25h31.13v155.63H391.39z"/>
		<path class="st3" d="M479,989.81c-8.07,0-14.99-1.44-20.75-4.32c-5.76-2.88-10.18-7.11-13.26-12.68s-4.61-12.26-4.61-20.08v-40.73
			c0-7.94,1.54-14.67,4.61-20.17c3.07-5.51,7.52-9.7,13.35-12.58c5.83-2.88,12.71-4.32,20.65-4.32c8.2,0,15.02,1.41,20.46,4.23
			c5.44,2.82,9.54,6.98,12.3,12.49c2.75,5.51,4.13,12.3,4.13,20.37v22.29h-44.58v21.33c0,2.82,0.32,5.12,0.96,6.92
			c0.64,1.79,1.54,3.07,2.69,3.84s2.5,1.15,4.03,1.15s2.91-0.35,4.13-1.06c1.22-0.7,2.18-1.83,2.88-3.36
			c0.7-1.54,1.06-3.65,1.06-6.34v-11.72h28.82v10.76c0,11.27-3.27,19.76-9.8,25.46C499.56,986.96,490.53,989.81,479,989.81z
			 M471.32,919.68h15.76v-11.14c0-2.95-0.35-5.25-1.06-6.92c-0.71-1.66-1.67-2.82-2.88-3.46c-1.22-0.64-2.66-0.96-4.32-0.96
			c-1.54,0-2.85,0.38-3.94,1.15c-1.09,0.77-1.95,2.08-2.59,3.94c-0.64,1.86-0.96,4.51-0.96,7.97V919.68z"/>
		<path class="st3" d="M569.5,989.81c-7.94,0-14.83-1.35-20.66-4.04c-5.83-2.69-10.31-6.73-13.45-12.11
			c-3.14-5.38-4.71-12.1-4.71-20.17v-42.27c0-8.07,1.57-14.79,4.71-20.17c3.14-5.38,7.62-9.42,13.45-12.11
			c5.83-2.69,12.71-4.03,20.66-4.03c7.94,0,14.82,1.34,20.65,4.03c5.83,2.69,10.34,6.73,13.55,12.11c3.2,5.38,4.8,12.1,4.8,20.17
			v42.27c0,8.07-1.6,14.79-4.8,20.17c-3.2,5.38-7.72,9.42-13.55,12.11C584.32,988.46,577.44,989.81,569.5,989.81z M569.69,969.06
			c2.05,0,3.65-0.54,4.8-1.63c1.15-1.09,1.95-2.62,2.4-4.61c0.45-1.98,0.67-4.39,0.67-7.21v-46.5c0-2.82-0.23-5.22-0.67-7.21
			c-0.45-1.98-1.25-3.52-2.4-4.61c-1.15-1.09-2.76-1.63-4.8-1.63c-2.05,0-3.65,0.55-4.8,1.63c-1.15,1.09-1.99,2.63-2.5,4.61
			c-0.51,1.99-0.77,4.39-0.77,7.21v46.5c0,2.82,0.26,5.22,0.77,7.21c0.51,1.99,1.35,3.52,2.5,4.61
			C566.04,968.51,567.64,969.06,569.69,969.06z"/>
	</g>
</g>
<g>
	<g>
		<path class="st3" d="M147.43,1201.58c-12.76,0-22.84-2.33-30.26-7c-7.42-4.66-12.65-11.21-15.7-19.64
			c-3.05-8.43-4.58-18.35-4.58-29.77v-61c0-11.7,1.52-21.76,4.58-30.19c3.05-8.43,8.28-14.94,15.7-19.53
			c7.42-4.6,17.5-6.89,30.26-6.89c12.48,0,22.22,2.06,29.22,6.16c7,4.11,11.96,9.86,14.87,17.24c2.91,7.38,4.37,15.88,4.37,25.49
			v14.62h-36.39v-16.92c0-3.34-0.18-6.54-0.52-9.61c-0.35-3.06-1.35-5.6-3.02-7.62c-1.66-2.02-4.51-3.03-8.53-3.03
			c-3.88,0-6.76,1.04-8.63,3.13c-1.87,2.09-3.05,4.7-3.54,7.83c-0.49,3.13-0.73,6.44-0.73,9.92v79.6c0,3.76,0.31,7.21,0.94,10.34
			c0.62,3.13,1.87,5.64,3.74,7.52c1.87,1.88,4.61,2.82,8.21,2.82c3.88,0,6.65-1.01,8.32-3.03c1.66-2.02,2.7-4.63,3.12-7.83
			c0.42-3.2,0.62-6.48,0.62-9.82v-17.76h36.39v14.62c0,9.61-1.42,18.21-4.26,25.8c-2.84,7.59-7.77,13.58-14.77,17.97
			C169.85,1199.38,160.04,1201.58,147.43,1201.58z"/>
		<path class="st3" d="M214.39,1057.84v-23.61h34.11v23.61H214.39z M214.6,1199.07v-120.75h33.9v120.75H214.6z"/>
		<path class="st3" d="M308.81,1201.16c-8.73,0-16.22-1.57-22.46-4.7c-6.24-3.13-11.02-7.73-14.35-13.79s-4.99-13.33-4.99-21.83
			v-44.29c0-8.63,1.66-15.95,4.99-21.94c3.33-5.99,8.14-10.55,14.45-13.68c6.31-3.13,13.76-4.7,22.36-4.7
			c8.87,0,16.25,1.53,22.15,4.6c5.89,3.07,10.33,7.59,13.31,13.58c2.98,5.99,4.47,13.37,4.47,22.15v24.23h-48.25v23.19
			c0,3.06,0.34,5.57,1.04,7.52c0.69,1.95,1.66,3.34,2.91,4.18c1.25,0.83,2.7,1.25,4.37,1.25s3.15-0.38,4.47-1.15
			c1.32-0.76,2.36-1.99,3.12-3.66c0.76-1.67,1.14-3.97,1.14-6.89v-12.74h31.2v11.7c0,12.26-3.54,21.49-10.61,27.68
			C331.06,1198.06,321.29,1201.16,308.81,1201.16z M274.5,1063.48l19.76-40.11h27.66l20.38,40.11h-24.96l-9.15-24.86l-8.94,24.86
			H274.5z M300.49,1124.9h17.05v-12.12c0-3.2-0.38-5.71-1.14-7.52c-0.76-1.81-1.8-3.06-3.12-3.76c-1.32-0.7-2.88-1.04-4.68-1.04
			c-1.66,0-3.09,0.42-4.26,1.25c-1.18,0.84-2.12,2.27-2.81,4.28c-0.7,2.02-1.04,4.91-1.04,8.67V1124.9z"/>
		<path class="st3" d="M367.25,1199.07v-120.75h33.9v12.12c4.44-4.46,9.05-7.94,13.83-10.45s9.81-3.76,15.08-3.76
			c4.99,0,9.11,1.22,12.37,3.66c3.26,2.44,5.72,5.78,7.38,10.03c1.66,4.25,2.5,9.09,2.5,14.52v94.64h-33.69v-89.83
			c0-2.92-0.49-5.15-1.46-6.68c-0.97-1.53-2.78-2.3-5.41-2.3c-1.39,0-3.02,0.39-4.89,1.15c-1.87,0.77-3.78,1.85-5.72,3.24v94.43
			H367.25z"/>
		<path class="st3" d="M511.78,1201.16c-8.73,0-16.19-1.6-22.36-4.8c-6.17-3.2-10.92-7.8-14.25-13.79
			c-3.33-5.99-4.99-13.23-4.99-21.73v-44.29c0-8.63,1.66-15.95,4.99-21.94c3.33-5.99,8.08-10.55,14.25-13.68
			c6.17-3.13,13.62-4.7,22.36-4.7c8.59,0,15.91,1.33,21.94,3.97c6.03,2.65,10.64,6.65,13.83,12.01c3.19,5.36,4.78,12.15,4.78,20.37
			v12.74h-32.65v-13.79c0-3.2-0.31-5.67-0.94-7.42c-0.62-1.74-1.53-2.96-2.7-3.66c-1.18-0.7-2.6-1.04-4.26-1.04
			s-3.05,0.45-4.16,1.36c-1.11,0.91-1.94,2.37-2.5,4.39c-0.56,2.02-0.83,4.84-0.83,8.46v50.14c0,5.43,0.66,9.12,1.98,11.07
			c1.32,1.95,3.22,2.92,5.72,2.92c1.8,0,3.26-0.38,4.37-1.15c1.11-0.76,1.94-2.02,2.5-3.76c0.55-1.74,0.83-4.07,0.83-7v-16.09h32.65
			v14.62c0,8.08-1.63,14.87-4.89,20.37c-3.26,5.5-7.9,9.61-13.93,12.33C527.48,1199.8,520.24,1201.16,511.78,1201.16z"/>
		<path class="st3" d="M570.01,1057.84v-23.61h34.11v23.61H570.01z M570.22,1199.07v-120.75h33.9v120.75H570.22z"/>
		<path class="st3" d="M649.87,1201.16c-6.1,0-11.23-1.46-15.39-4.39c-4.16-2.92-7.28-6.65-9.36-11.18
			c-2.08-4.52-3.12-9.16-3.12-13.89c0-7.52,1.49-13.86,4.47-19.01c2.98-5.15,6.9-9.47,11.75-12.95c4.85-3.48,10.19-6.44,16.01-8.88
			c5.82-2.43,11.57-4.63,17.26-6.58v-12.12c0-2.09-0.21-3.93-0.62-5.54c-0.42-1.6-1.11-2.85-2.08-3.76
			c-0.97-0.9-2.43-1.36-4.37-1.36c-1.94,0-3.43,0.42-4.47,1.25c-1.04,0.83-1.77,1.98-2.18,3.45c-0.42,1.46-0.7,3.1-0.83,4.91
			l-0.83,8.77l-31.61-1.25c0.69-14.48,4.54-25.17,11.54-32.07c7-6.89,17.5-10.34,31.51-10.34c12.2,0,21.32,3.38,27.35,10.13
			c6.03,6.76,9.05,15.5,9.05,26.22v56.41c0,5.01,0.1,9.4,0.31,13.16c0.21,3.76,0.48,7.03,0.83,9.82c0.34,2.79,0.66,5.15,0.94,7.1
			h-30.36c-0.42-3.2-0.9-6.69-1.46-10.45c-0.56-3.76-0.97-5.99-1.25-6.68c-1.39,5.01-3.99,9.47-7.8,13.37
			C661.34,1199.21,656.25,1201.16,649.87,1201.16z M661.93,1178.18c1.38,0,2.67-0.28,3.85-0.84c1.18-0.55,2.25-1.32,3.22-2.3
			c0.97-0.97,1.8-1.95,2.5-2.92v-33.01c-2.77,1.67-5.34,3.38-7.69,5.12c-2.36,1.74-4.37,3.66-6.03,5.75
			c-1.66,2.09-2.95,4.35-3.85,6.79c-0.9,2.44-1.35,5.19-1.35,8.25c0,4.04,0.83,7.24,2.5,9.61
			C656.73,1177,659.02,1178.18,661.93,1178.18z"/>
		<path class="st3" d="M779.23,1199.07v-169.22h56.57c10.12,0,18.44,1.92,24.96,5.75c6.52,3.83,11.37,9.4,14.56,16.71
			c3.19,7.31,4.78,16.19,4.78,26.64c0,13.09-2.15,23.09-6.45,29.98c-4.3,6.89-10.12,11.67-17.47,14.31
			c-7.35,2.65-15.6,3.97-24.75,3.97h-14.97v71.87H779.23z M816.45,1101.09h12.48c4.58,0,8.04-0.84,10.4-2.51
			c2.36-1.67,3.92-4.18,4.68-7.52c0.76-3.34,1.14-7.59,1.14-12.74c0-4.32-0.31-8.11-0.94-11.39c-0.62-3.27-2.12-5.88-4.47-7.83
			c-2.36-1.95-6.03-2.92-11.02-2.92h-12.27V1101.09z"/>
		<path class="st3" d="M935.62,1201.16c-8.6,0-16.05-1.46-22.36-4.39c-6.31-2.92-11.16-7.31-14.56-13.16
			c-3.4-5.85-5.1-13.16-5.1-21.94v-45.96c0-8.77,1.7-16.09,5.1-21.94c3.4-5.85,8.25-10.24,14.56-13.16
			c6.31-2.92,13.76-4.39,22.36-4.39c8.6,0,16.05,1.46,22.36,4.39c6.31,2.92,11.19,7.31,14.66,13.16c3.46,5.85,5.2,13.16,5.2,21.94
			v45.96c0,8.77-1.74,16.09-5.2,21.94c-3.47,5.85-8.35,10.24-14.66,13.16C951.67,1199.7,944.21,1201.16,935.62,1201.16z
			 M935.83,1178.6c2.22,0,3.95-0.59,5.2-1.78c1.25-1.18,2.11-2.85,2.6-5.01c0.48-2.16,0.73-4.77,0.73-7.83v-50.56
			c0-3.06-0.24-5.67-0.73-7.83c-0.49-2.16-1.35-3.83-2.6-5.01c-1.25-1.18-2.98-1.78-5.2-1.78c-2.22,0-3.95,0.59-5.2,1.78
			c-1.25,1.19-2.15,2.86-2.7,5.01c-0.56,2.16-0.83,4.77-0.83,7.83v50.56c0,3.06,0.28,5.68,0.83,7.83c0.55,2.16,1.46,3.83,2.7,5.01
			C931.88,1178.01,933.61,1178.6,935.83,1178.6z"/>
		<path class="st3" d="M998.01,1199.07v-169.22h33.69v169.22H998.01z"/>
		<path class="st3" d="M1055.2,1199.07v-120.75h33.9v120.75H1055.2z M1061.02,1064.95l13.1-41.99h34.52l-26.2,41.99H1061.02z"/>
		<path class="st3" d="M1148.99,1200.32c-9.01,0-15.98-1.32-20.9-3.97c-4.92-2.64-8.29-6.51-10.09-11.59
			c-1.8-5.08-2.7-11.25-2.7-18.49v-65.6h-11.65v-22.35h11.65v-36.77h34.32v36.77h17.05v22.35h-17.05v62.26c0,3.48,1,5.99,3.02,7.52
			c2.01,1.53,4.54,2.3,7.59,2.3c1.8,0,3.46-0.1,4.99-0.31c1.52-0.21,2.91-0.38,4.16-0.52v26.74c-1.8,0.28-4.65,0.63-8.53,1.04
			C1156.96,1200.12,1153.01,1200.32,1148.99,1200.32z"/>
		<path class="st3" d="M1185.38,1057.84v-23.61h34.11v23.61H1185.38z M1185.59,1199.07v-120.75h33.9v120.75H1185.59z"/>
		<path class="st3" d="M1279.59,1201.16c-8.73,0-16.19-1.6-22.36-4.8c-6.17-3.2-10.92-7.8-14.25-13.79
			c-3.33-5.99-4.99-13.23-4.99-21.73v-44.29c0-8.63,1.66-15.95,4.99-21.94c3.33-5.99,8.08-10.55,14.25-13.68
			c6.17-3.13,13.62-4.7,22.36-4.7c8.6,0,15.91,1.33,21.94,3.97c6.03,2.65,10.64,6.65,13.83,12.01c3.19,5.36,4.78,12.15,4.78,20.37
			v12.74h-32.65v-13.79c0-3.2-0.31-5.67-0.94-7.42c-0.62-1.74-1.53-2.96-2.7-3.66c-1.18-0.7-2.6-1.04-4.26-1.04
			c-1.66,0-3.05,0.45-4.16,1.36c-1.11,0.91-1.94,2.37-2.5,4.39c-0.56,2.02-0.83,4.84-0.83,8.46v50.14c0,5.43,0.66,9.12,1.98,11.07
			c1.32,1.95,3.22,2.92,5.72,2.92c1.8,0,3.26-0.38,4.37-1.15c1.11-0.76,1.94-2.02,2.5-3.76c0.55-1.74,0.83-4.07,0.83-7v-16.09h32.65
			v14.62c0,8.08-1.63,14.87-4.89,20.37c-3.26,5.5-7.9,9.61-13.93,12.33S1288.05,1201.16,1279.59,1201.16z"/>
		<path class="st3" d="M1362.57,1201.16c-6.1,0-11.23-1.46-15.39-4.39s-7.28-6.65-9.36-11.18c-2.08-4.52-3.12-9.16-3.12-13.89
			c0-7.52,1.49-13.86,4.47-19.01c2.98-5.15,6.9-9.47,11.75-12.95c4.85-3.48,10.19-6.44,16.01-8.88c5.82-2.43,11.58-4.63,17.26-6.58
			v-12.12c0-2.09-0.21-3.93-0.62-5.54c-0.42-1.6-1.11-2.85-2.08-3.76c-0.97-0.9-2.43-1.36-4.37-1.36c-1.94,0-3.43,0.42-4.47,1.25
			c-1.04,0.83-1.77,1.98-2.18,3.45c-0.42,1.46-0.7,3.1-0.83,4.91l-0.83,8.77l-31.61-1.25c0.69-14.48,4.54-25.17,11.54-32.07
			c7-6.89,17.5-10.34,31.51-10.34c12.2,0,21.32,3.38,27.35,10.13c6.03,6.76,9.05,15.5,9.05,26.22v56.41c0,5.01,0.1,9.4,0.31,13.16
			c0.21,3.76,0.48,7.03,0.83,9.82c0.34,2.79,0.66,5.15,0.94,7.1h-30.36c-0.42-3.2-0.9-6.69-1.46-10.45
			c-0.56-3.76-0.97-5.99-1.25-6.68c-1.39,5.01-3.99,9.47-7.8,13.37C1374.04,1199.21,1368.94,1201.16,1362.57,1201.16z
			 M1374.63,1178.18c1.38,0,2.67-0.28,3.85-0.84c1.18-0.55,2.25-1.32,3.22-2.3c0.97-0.97,1.8-1.95,2.5-2.92v-33.01
			c-2.78,1.67-5.34,3.38-7.69,5.12c-2.36,1.74-4.37,3.66-6.03,5.75c-1.66,2.09-2.95,4.35-3.85,6.79c-0.9,2.44-1.35,5.19-1.35,8.25
			c0,4.04,0.83,7.24,2.5,9.61C1369.43,1177,1371.72,1178.18,1374.63,1178.18z"/>
	</g>
</g>
<g>
	<g>
		<path class="st3" d="M674.59,987.43c-6.67,0-11.48-2.52-14.41-7.58c-2.93-5.05-4.4-13.44-4.4-25.16v-14.47
			c0-6.85,0.49-12.76,1.49-17.72c0.99-4.96,2.82-8.81,5.48-11.57c2.66-2.75,6.47-4.12,11.43-4.12c3.06,0,5.75,0.7,8.05,2.1
			c2.3,1.4,4.21,2.95,5.75,4.67v-36.93h9.87v109.56h-9.87v-5.55c-1.53,1.71-3.41,3.27-5.61,4.67
			C680.16,986.73,677.57,987.43,674.59,987.43z M676.62,979.72c2.07,0,4.1-0.52,6.09-1.56c1.98-1.04,3.74-2.28,5.28-3.72v-54.38
			c-1.35-1.26-3.02-2.5-5-3.72c-1.98-1.22-4.19-1.83-6.63-1.83c-4.33,0-7.19,1.92-8.59,5.75c-1.4,3.83-2.1,9.45-2.1,16.84v18.4
			c0,5.23,0.29,9.65,0.88,13.25c0.59,3.61,1.67,6.34,3.25,8.18C671.36,978.79,673.64,979.72,676.62,979.72z"/>
		<path class="st3" d="M732.75,987.43c-4.87,0-8.86-0.97-11.97-2.91c-3.11-1.94-5.41-5.16-6.9-9.67c-1.49-4.51-2.23-10.5-2.23-17.99
			v-19.75c0-7.75,0.76-13.82,2.3-18.19c1.53-4.37,3.88-7.48,7.03-9.33c3.16-1.85,7.08-2.77,11.77-2.77c5.59,0,9.83,1.17,12.71,3.52
			c2.88,2.35,4.89,5.88,6.02,10.62c1.13,4.73,1.69,10.8,1.69,18.19v7.03h-31.65v13.66c0,5.05,0.38,9.04,1.15,11.97
			c0.77,2.93,1.98,5.03,3.65,6.29c1.67,1.26,3.81,1.89,6.42,1.89c1.98,0,3.79-0.38,5.41-1.15c1.62-0.76,2.91-2.25,3.86-4.46
			c0.95-2.21,1.42-5.34,1.42-9.4v-5.41h9.6v4.33c0,7.12-1.49,12.83-4.46,17.11C745.6,985.29,740.33,987.43,732.75,987.43z
			 M721.52,940.49h21.91V934c0-4.15-0.23-7.69-0.68-10.62c-0.45-2.93-1.42-5.18-2.91-6.76c-1.49-1.58-3.86-2.37-7.1-2.37
			c-2.71,0-4.89,0.59-6.56,1.76c-1.67,1.17-2.86,3.27-3.58,6.29c-0.72,3.02-1.08,7.33-1.08,12.92V940.49z"/>
		<path class="st3" d="M813.77,987.43c-4.87,0-8.86-0.97-11.97-2.91c-3.11-1.94-5.41-5.16-6.9-9.67c-1.49-4.51-2.23-10.5-2.23-17.99
			v-19.75c0-7.75,0.76-13.82,2.3-18.19c1.53-4.37,3.88-7.48,7.03-9.33c3.16-1.85,7.08-2.77,11.77-2.77c5.59,0,9.83,1.17,12.71,3.52
			c2.88,2.35,4.89,5.88,6.02,10.62c1.13,4.73,1.69,10.8,1.69,18.19v7.03h-31.65v13.66c0,5.05,0.38,9.04,1.15,11.97
			c0.77,2.93,1.98,5.03,3.65,6.29c1.67,1.26,3.81,1.89,6.42,1.89c1.98,0,3.79-0.38,5.41-1.15c1.62-0.76,2.91-2.25,3.86-4.46
			c0.95-2.21,1.42-5.34,1.42-9.4v-5.41h9.6v4.33c0,7.12-1.49,12.83-4.46,17.11C826.62,985.29,821.35,987.43,813.77,987.43z
			 M802.54,940.49h21.91V934c0-4.15-0.23-7.69-0.68-10.62c-0.45-2.93-1.42-5.18-2.91-6.76c-1.49-1.58-3.86-2.37-7.1-2.37
			c-2.71,0-4.89,0.59-6.56,1.76c-1.67,1.17-2.86,3.27-3.58,6.29c-0.72,3.02-1.08,7.33-1.08,12.92V940.49z"/>
		<path class="st3" d="M865.44,987.43c-6.22,0-11.18-2.01-14.88-6.02c-3.7-4.01-5.82-9.4-6.36-16.16l8.25-2.43
			c0.54,5.95,1.94,10.3,4.19,13.05c2.25,2.75,5.41,4.13,9.47,4.13c3.43,0,6.06-0.97,7.91-2.91c1.85-1.94,2.77-4.67,2.77-8.18
			c0-2.52-0.77-5.07-2.3-7.64c-1.53-2.57-3.97-5.25-7.3-8.05l-10.55-9.2c-3.52-2.98-6.18-5.95-7.98-8.93
			c-1.8-2.98-2.71-6.54-2.71-10.69c0-3.79,0.79-6.97,2.37-9.54c1.58-2.57,3.74-4.55,6.49-5.95c2.75-1.4,6.02-2.1,9.81-2.1
			c5.95,0,10.46,1.92,13.53,5.75c3.06,3.83,4.73,8.77,5,14.81l-7.03,2.3c-0.18-3.52-0.72-6.42-1.62-8.72
			c-0.9-2.3-2.14-3.99-3.72-5.07c-1.58-1.08-3.5-1.62-5.75-1.62c-2.98,0-5.39,0.83-7.24,2.5c-1.85,1.67-2.77,3.99-2.77,6.97
			c0,2.35,0.45,4.42,1.35,6.22c0.9,1.8,2.57,3.83,5,6.09l11.09,9.87c2.16,1.89,4.24,3.92,6.22,6.09c1.98,2.16,3.61,4.58,4.87,7.24
			c1.26,2.66,1.89,5.79,1.89,9.4c0,4.06-0.83,7.46-2.5,10.21c-1.67,2.75-3.99,4.87-6.97,6.36
			C873.01,986.68,869.5,987.43,865.44,987.43z"/>
		<path class="st3" d="M915.21,987.16c-3.79,0-6.72-0.74-8.79-2.23c-2.08-1.49-3.47-3.52-4.19-6.09c-0.72-2.57-1.08-5.52-1.08-8.86
			v-55.46h-9.6v-6.49h9.6v-24.21h9.87v24.21h12.99v6.49h-12.99v54.51c0,3.79,0.43,6.47,1.29,8.05c0.86,1.58,2.73,2.37,5.61,2.37
			c0.81,0,1.71-0.07,2.71-0.2c0.99-0.14,1.94-0.25,2.84-0.34v7.44c-1.35,0.27-2.73,0.47-4.13,0.61
			C917.94,987.09,916.57,987.16,915.21,987.16z"/>
		<path class="st3" d="M946.05,987.43c-2.62,0-4.83-0.66-6.63-1.96c-1.8-1.31-3.18-3.2-4.13-5.68c-0.95-2.48-1.42-5.48-1.42-9
			v-62.76h9.87v60.6c0,4.06,0.63,6.92,1.89,8.59c1.26,1.67,3.16,2.5,5.68,2.5c2.34,0,4.71-0.74,7.1-2.23
			c2.39-1.49,4.62-3.36,6.7-5.61v-63.84H975v78.18h-9.87v-8.66c-2.53,2.89-5.41,5.25-8.66,7.1
			C953.22,986.5,949.75,987.43,946.05,987.43z"/>
		<path class="st3" d="M1007.59,987.43c-6.67,0-11.48-2.52-14.41-7.58c-2.93-5.05-4.4-13.44-4.4-25.16v-14.47
			c0-6.85,0.49-12.76,1.49-17.72c0.99-4.96,2.82-8.81,5.48-11.57c2.66-2.75,6.47-4.12,11.43-4.12c3.06,0,5.75,0.7,8.05,2.1
			c2.3,1.4,4.21,2.95,5.75,4.67v-36.93h9.87v109.56h-9.87v-5.55c-1.53,1.71-3.41,3.27-5.61,4.67
			C1013.16,986.73,1010.57,987.43,1007.59,987.43z M1009.62,979.72c2.07,0,4.1-0.52,6.09-1.56c1.98-1.04,3.74-2.28,5.28-3.72v-54.38
			c-1.35-1.26-3.02-2.5-5-3.72c-1.98-1.22-4.19-1.83-6.63-1.83c-4.33,0-7.19,1.92-8.59,5.75c-1.4,3.83-2.1,9.45-2.1,16.84v18.4
			c0,5.23,0.29,9.65,0.88,13.25c0.59,3.61,1.67,6.34,3.25,8.18C1004.37,978.79,1006.65,979.72,1009.62,979.72z"/>
		<path class="st3" d="M1059.54,987.43c-3.07,0-5.77-0.79-8.12-2.37c-2.35-1.58-4.19-3.67-5.55-6.29c-1.35-2.61-2.03-5.55-2.03-8.79
			c0-3.97,0.58-7.35,1.76-10.14c1.17-2.79,3-5.3,5.48-7.51c2.48-2.21,5.73-4.37,9.74-6.49c4.01-2.12,8.9-4.48,14.68-7.1v-5.55
			c0-4.78-0.29-8.54-0.88-11.29c-0.59-2.75-1.58-4.71-2.98-5.88c-1.4-1.17-3.36-1.76-5.88-1.76c-2.08,0-3.92,0.41-5.55,1.22
			s-2.93,2.19-3.92,4.13c-0.99,1.94-1.49,4.62-1.49,8.05v2.71l-9.74-0.13c0.09-7.93,1.78-13.82,5.07-17.65
			c3.29-3.83,8.68-5.75,16.16-5.75c6.94,0,11.86,2.1,14.74,6.29c2.89,4.19,4.33,10.71,4.33,19.54v38.01c0,1.35,0.02,3.09,0.07,5.21
			c0.04,2.12,0.13,4.13,0.27,6.02c0.13,1.89,0.25,3.34,0.34,4.33h-8.79c-0.27-1.71-0.56-3.63-0.88-5.75
			c-0.32-2.12-0.52-3.81-0.61-5.07c-1.08,3.16-3,5.95-5.75,8.39C1067.27,986.21,1063.77,987.43,1059.54,987.43z M1062.78,979.04
			c1.98,0,3.76-0.47,5.34-1.42c1.58-0.95,3.02-2.14,4.33-3.58c1.31-1.44,2.32-2.88,3.04-4.33v-24.35c-3.88,2.08-7.19,3.9-9.94,5.48
			c-2.75,1.58-4.98,3.13-6.7,4.67c-1.71,1.53-2.98,3.27-3.79,5.21c-0.81,1.94-1.22,4.22-1.22,6.83c0,4.15,0.88,7.1,2.64,8.86
			C1058.25,978.16,1060.35,979.04,1062.78,979.04z"/>
		<path class="st3" d="M1099.84,986.21v-78.18h9.88v8.12c2.52-2.71,5.36-4.94,8.52-6.7c3.16-1.76,6.58-2.64,10.28-2.64
			c2.61,0,4.8,0.66,6.56,1.96c1.76,1.31,3.11,3.2,4.06,5.68c0.95,2.48,1.42,5.48,1.42,8.99v62.76h-9.87v-60.6
			c0-4.06-0.63-6.92-1.89-8.59c-1.26-1.67-3.16-2.5-5.68-2.5c-2.16,0-4.42,0.68-6.76,2.03c-2.35,1.35-4.55,3.11-6.63,5.28v64.38
			H1099.84z"/>
		<path class="st3" d="M1173.69,987.16c-3.79,0-6.72-0.74-8.79-2.23c-2.08-1.49-3.47-3.52-4.19-6.09c-0.72-2.57-1.08-5.52-1.08-8.86
			v-55.46h-9.6v-6.49h9.6v-24.21h9.87v24.21h12.99v6.49h-12.99v54.51c0,3.79,0.43,6.47,1.29,8.05c0.86,1.58,2.73,2.37,5.61,2.37
			c0.81,0,1.71-0.07,2.71-0.2c0.99-0.14,1.94-0.25,2.84-0.34v7.44c-1.35,0.27-2.73,0.47-4.13,0.61
			C1176.42,987.09,1175.05,987.16,1173.69,987.16z"/>
		<path class="st3" d="M1212.65,987.43c-4.87,0-8.86-0.97-11.97-2.91c-3.11-1.94-5.41-5.16-6.9-9.67
			c-1.49-4.51-2.23-10.5-2.23-17.99v-19.75c0-7.75,0.76-13.82,2.3-18.19c1.53-4.37,3.88-7.48,7.03-9.33
			c3.16-1.85,7.08-2.77,11.77-2.77c5.59,0,9.83,1.17,12.71,3.52c2.88,2.35,4.89,5.88,6.02,10.62c1.13,4.73,1.69,10.8,1.69,18.19
			v7.03h-31.65v13.66c0,5.05,0.38,9.04,1.15,11.97c0.77,2.93,1.98,5.03,3.65,6.29c1.67,1.26,3.81,1.89,6.42,1.89
			c1.98,0,3.79-0.38,5.41-1.15c1.62-0.76,2.91-2.25,3.86-4.46c0.95-2.21,1.42-5.34,1.42-9.4v-5.41h9.6v4.33
			c0,7.12-1.49,12.83-4.46,17.11C1225.5,985.29,1220.22,987.43,1212.65,987.43z M1201.42,940.49h21.91V934
			c0-4.15-0.23-7.69-0.68-10.62c-0.45-2.93-1.42-5.18-2.91-6.76c-1.49-1.58-3.86-2.37-7.1-2.37c-2.71,0-4.89,0.59-6.56,1.76
			c-1.67,1.17-2.86,3.27-3.58,6.29c-0.72,3.02-1.08,7.33-1.08,12.92V940.49z"/>
		<path class="st3" d="M1264.32,987.43c-6.22,0-11.18-2.01-14.88-6.02c-3.7-4.01-5.82-9.4-6.36-16.16l8.25-2.43
			c0.54,5.95,1.94,10.3,4.19,13.05c2.25,2.75,5.41,4.13,9.47,4.13c3.43,0,6.06-0.97,7.91-2.91c1.85-1.94,2.77-4.67,2.77-8.18
			c0-2.52-0.77-5.07-2.3-7.64c-1.53-2.57-3.97-5.25-7.3-8.05l-10.55-9.2c-3.52-2.98-6.18-5.95-7.98-8.93
			c-1.8-2.98-2.71-6.54-2.71-10.69c0-3.79,0.79-6.97,2.37-9.54c1.58-2.57,3.74-4.55,6.49-5.95c2.75-1.4,6.02-2.1,9.81-2.1
			c5.95,0,10.46,1.92,13.53,5.75c3.06,3.83,4.73,8.77,5,14.81l-7.03,2.3c-0.18-3.52-0.72-6.42-1.62-8.72
			c-0.9-2.3-2.14-3.99-3.72-5.07c-1.58-1.08-3.5-1.62-5.75-1.62c-2.98,0-5.39,0.83-7.24,2.5c-1.85,1.67-2.77,3.99-2.77,6.97
			c0,2.35,0.45,4.42,1.35,6.22c0.9,1.8,2.57,3.83,5,6.09l11.09,9.87c2.16,1.89,4.24,3.92,6.22,6.09c1.98,2.16,3.61,4.58,4.87,7.24
			c1.26,2.66,1.89,5.79,1.89,9.4c0,4.06-0.83,7.46-2.5,10.21c-1.67,2.75-3.99,4.87-6.97,6.36
			C1271.89,986.68,1268.38,987.43,1264.32,987.43z"/>
		<path class="st3" d="M1340.47,987.43c-6.67,0-11.48-2.52-14.41-7.58c-2.93-5.05-4.4-13.44-4.4-25.16v-14.47
			c0-6.85,0.49-12.76,1.49-17.72c0.99-4.96,2.82-8.81,5.48-11.57c2.66-2.75,6.47-4.12,11.43-4.12c3.06,0,5.75,0.7,8.05,2.1
			c2.3,1.4,4.21,2.95,5.75,4.67v-36.93h9.87v109.56h-9.87v-5.55c-1.53,1.71-3.41,3.27-5.61,4.67
			C1346.04,986.73,1343.44,987.43,1340.47,987.43z M1342.5,979.72c2.07,0,4.1-0.52,6.09-1.56c1.98-1.04,3.74-2.28,5.28-3.72v-54.38
			c-1.35-1.26-3.02-2.5-5-3.72c-1.98-1.22-4.19-1.83-6.63-1.83c-4.33,0-7.19,1.92-8.59,5.75c-1.4,3.83-2.1,9.45-2.1,16.84v18.4
			c0,5.23,0.29,9.65,0.88,13.25c0.59,3.61,1.67,6.34,3.25,8.18C1337.24,978.79,1339.52,979.72,1342.5,979.72z"/>
		<path class="st3" d="M1398.63,987.43c-4.87,0-8.86-0.97-11.97-2.91c-3.11-1.94-5.41-5.16-6.9-9.67
			c-1.49-4.51-2.23-10.5-2.23-17.99v-19.75c0-7.75,0.76-13.82,2.3-18.19c1.53-4.37,3.88-7.48,7.03-9.33
			c3.16-1.85,7.08-2.77,11.77-2.77c5.59,0,9.83,1.17,12.71,3.52c2.88,2.35,4.89,5.88,6.02,10.62c1.13,4.73,1.69,10.8,1.69,18.19
			v7.03h-31.65v13.66c0,5.05,0.38,9.04,1.15,11.97c0.77,2.93,1.98,5.03,3.65,6.29c1.67,1.26,3.81,1.89,6.42,1.89
			c1.98,0,3.79-0.38,5.41-1.15c1.62-0.76,2.91-2.25,3.86-4.46c0.95-2.21,1.42-5.34,1.42-9.4v-5.41h9.6v4.33
			c0,7.12-1.49,12.83-4.46,17.11C1411.48,985.29,1406.21,987.43,1398.63,987.43z M1387.4,940.49h21.91V934
			c0-4.15-0.23-7.69-0.68-10.62c-0.45-2.93-1.42-5.18-2.91-6.76c-1.49-1.58-3.86-2.37-7.1-2.37c-2.71,0-4.89,0.59-6.56,1.76
			c-1.67,1.17-2.86,3.27-3.58,6.29c-0.72,3.02-1.08,7.33-1.08,12.92V940.49z"/>
	</g>
</g>
<g>
	<g>
		<path class="st4" d="M118.92,1309.98c-5.73,0-10.19-1.03-13.37-3.09c-3.18-2.06-5.37-4.93-6.56-8.6
			c-1.19-3.67-1.78-7.85-1.78-12.54v-61.78h7.76v61.99c0,3.29,0.37,6.28,1.1,8.97c0.73,2.69,2.11,4.81,4.14,6.35
			c2.03,1.54,4.93,2.31,8.71,2.31c3.64,0,6.47-0.79,8.5-2.36c2.03-1.57,3.44-3.69,4.25-6.35c0.8-2.66,1.21-5.63,1.21-8.92v-61.99
			h7.66v61.78c0,4.69-0.63,8.86-1.89,12.54c-1.26,3.67-3.46,6.54-6.61,8.6C128.88,1308.94,124.51,1309.98,118.92,1309.98z"/>
		<path class="st4" d="M152.9,1308.93v-60.63h7.66v6.29c1.96-2.1,4.16-3.83,6.61-5.19c2.45-1.36,5.1-2.04,7.97-2.04
			c2.03,0,3.72,0.51,5.09,1.52c1.36,1.01,2.41,2.48,3.15,4.41c0.73,1.92,1.1,4.25,1.1,6.98v48.67h-7.66v-46.99
			c0-3.15-0.49-5.37-1.47-6.66c-0.98-1.29-2.45-1.94-4.41-1.94c-1.68,0-3.43,0.52-5.24,1.57c-1.82,1.05-3.53,2.41-5.14,4.09v49.93
			H152.9z"/>
		<path class="st4" d="M196.64,1239.91v-10.38h7.66v10.38H196.64z M196.64,1308.93v-60.63h7.66v60.63H196.64z"/>
		<path class="st4" d="M226.33,1308.93l-13.11-60.63h7.76l9.86,51.82l9.76-51.82h7.45l-12.69,60.63H226.33z"/>
		<path class="st4" d="M270.9,1309.87c-3.78,0-6.87-0.75-9.28-2.26s-4.2-4-5.35-7.5c-1.15-3.5-1.73-8.15-1.73-13.95v-15.31
			c0-6.01,0.59-10.71,1.78-14.11c1.19-3.39,3.01-5.8,5.45-7.24c2.45-1.43,5.49-2.15,9.13-2.15c4.33,0,7.62,0.91,9.86,2.73
			c2.24,1.82,3.79,4.56,4.67,8.23c0.87,3.67,1.31,8.38,1.31,14.11v5.46H262.2v10.59c0,3.92,0.3,7.01,0.89,9.28
			c0.59,2.27,1.54,3.9,2.83,4.88c1.29,0.98,2.95,1.47,4.98,1.47c1.54,0,2.94-0.3,4.2-0.89c1.26-0.59,2.26-1.75,2.99-3.46
			c0.73-1.71,1.1-4.14,1.1-7.29v-4.2h7.45v3.36c0,5.53-1.15,9.95-3.46,13.27C280.87,1308.21,276.78,1309.87,270.9,1309.87z
			 M262.2,1273.47h16.99v-5.04c0-3.22-0.18-5.96-0.52-8.23c-0.35-2.27-1.1-4.02-2.25-5.24c-1.15-1.22-2.99-1.84-5.51-1.84
			c-2.1,0-3.79,0.46-5.09,1.36c-1.29,0.91-2.22,2.54-2.78,4.88c-0.56,2.34-0.84,5.68-0.84,10.02V1273.47z"/>
		<path class="st4" d="M297.65,1308.93v-60.63h7.76v8.29c1.96-3.22,4.2-5.51,6.71-6.87c2.52-1.36,4.93-2.04,7.24-2.04
			c0.21,0,0.42,0,0.63,0c0.21,0,0.45,0.04,0.73,0.1v8.18c-0.49-0.21-1.08-0.37-1.78-0.47c-0.7-0.11-1.36-0.16-1.99-0.16
			c-2.38,0-4.53,0.56-6.45,1.68c-1.92,1.12-3.62,2.9-5.09,5.35v46.57H297.65z"/>
		<path class="st4" d="M342.12,1309.87c-4.83,0-8.67-1.56-11.54-4.67c-2.87-3.11-4.51-7.29-4.93-12.53l6.4-1.89
			c0.42,4.62,1.5,7.99,3.25,10.12c1.75,2.13,4.2,3.2,7.34,3.2c2.66,0,4.7-0.75,6.14-2.25c1.43-1.5,2.15-3.62,2.15-6.35
			c0-1.96-0.6-3.93-1.78-5.93c-1.19-1.99-3.08-4.07-5.66-6.24l-8.18-7.13c-2.73-2.31-4.79-4.62-6.19-6.92
			c-1.4-2.31-2.1-5.07-2.1-8.29c0-2.94,0.61-5.4,1.84-7.4c1.22-1.99,2.9-3.53,5.04-4.62c2.13-1.08,4.67-1.62,7.6-1.62
			c4.62,0,8.11,1.49,10.49,4.46c2.38,2.97,3.67,6.8,3.88,11.49l-5.45,1.78c-0.14-2.73-0.56-4.98-1.26-6.77
			c-0.7-1.78-1.66-3.09-2.88-3.93c-1.22-0.84-2.71-1.26-4.46-1.26c-2.31,0-4.18,0.65-5.61,1.94c-1.43,1.29-2.15,3.09-2.15,5.4
			c0,1.82,0.35,3.43,1.05,4.83c0.7,1.4,1.99,2.97,3.88,4.72l8.6,7.66c1.68,1.47,3.29,3.04,4.82,4.72c1.54,1.68,2.8,3.55,3.78,5.61
			c0.98,2.06,1.47,4.49,1.47,7.29c0,3.15-0.65,5.79-1.94,7.92c-1.29,2.13-3.09,3.78-5.4,4.93
			C348,1309.29,345.27,1309.87,342.12,1309.87z"/>
		<path class="st4" d="M367.19,1239.91v-10.38h7.66v10.38H367.19z M367.19,1308.93v-60.63h7.66v60.63H367.19z"/>
		<path class="st4" d="M401.18,1309.87c-5.18,0-8.9-1.96-11.17-5.87c-2.27-3.92-3.41-10.42-3.41-19.51v-11.22
			c0-5.31,0.38-9.89,1.15-13.74c0.77-3.84,2.18-6.83,4.25-8.97c2.06-2.13,5.02-3.2,8.86-3.2c2.38,0,4.46,0.54,6.24,1.62
			c1.78,1.08,3.27,2.29,4.46,3.62v-28.64h7.66v84.96h-7.66v-4.3c-1.19,1.33-2.64,2.54-4.35,3.62
			C405.49,1309.33,403.48,1309.87,401.18,1309.87z M402.75,1303.89c1.61,0,3.18-0.4,4.72-1.21c1.54-0.8,2.9-1.76,4.09-2.88v-42.17
			c-1.05-0.98-2.34-1.94-3.88-2.88c-1.54-0.94-3.25-1.42-5.14-1.42c-3.36,0-5.58,1.49-6.66,4.46c-1.08,2.97-1.63,7.33-1.63,13.06
			v14.27c0,4.06,0.23,7.48,0.68,10.28c0.45,2.8,1.29,4.91,2.52,6.35C398.68,1303.18,400.44,1303.89,402.75,1303.89z"/>
		<path class="st4" d="M441.45,1309.87c-2.38,0-4.48-0.61-6.29-1.84c-1.82-1.22-3.25-2.85-4.3-4.88c-1.05-2.03-1.57-4.3-1.57-6.82
			c0-3.08,0.45-5.7,1.36-7.87c0.91-2.17,2.32-4.11,4.25-5.82c1.92-1.71,4.44-3.39,7.55-5.04c3.11-1.64,6.9-3.48,11.38-5.51v-4.3
			c0-3.71-0.23-6.62-0.68-8.76c-0.46-2.13-1.22-3.65-2.31-4.56c-1.08-0.91-2.61-1.36-4.56-1.36c-1.61,0-3.04,0.31-4.3,0.94
			c-1.26,0.63-2.27,1.7-3.04,3.2c-0.77,1.5-1.15,3.58-1.15,6.24v2.1l-7.55-0.11c0.07-6.15,1.38-10.71,3.93-13.69
			c2.55-2.97,6.73-4.46,12.53-4.46c5.38,0,9.19,1.62,11.43,4.88c2.24,3.25,3.36,8.3,3.36,15.16v29.47c0,1.05,0.02,2.4,0.05,4.04
			c0.03,1.64,0.1,3.2,0.21,4.67c0.1,1.47,0.19,2.59,0.26,3.36h-6.82c-0.21-1.33-0.44-2.81-0.68-4.46c-0.25-1.64-0.4-2.95-0.47-3.93
			c-0.84,2.45-2.33,4.62-4.46,6.5C447.45,1308.93,444.74,1309.87,441.45,1309.87z M443.97,1303.37c1.54,0,2.92-0.37,4.14-1.1
			c1.22-0.73,2.34-1.66,3.36-2.78c1.01-1.12,1.8-2.24,2.36-3.36v-18.88c-3.01,1.61-5.58,3.03-7.71,4.25
			c-2.13,1.22-3.86,2.43-5.19,3.62c-1.33,1.19-2.31,2.54-2.94,4.04c-0.63,1.5-0.94,3.27-0.94,5.3c0,3.22,0.68,5.51,2.05,6.87
			C440.46,1302.69,442.08,1303.37,443.97,1303.37z"/>
		<path class="st4" d="M486.14,1309.87c-5.18,0-8.9-1.96-11.17-5.87c-2.27-3.92-3.41-10.42-3.41-19.51v-11.22
			c0-5.31,0.38-9.89,1.15-13.74c0.77-3.84,2.18-6.83,4.25-8.97c2.06-2.13,5.02-3.2,8.86-3.2c2.38,0,4.46,0.54,6.24,1.62
			c1.78,1.08,3.27,2.29,4.46,3.62v-28.64h7.66v84.96h-7.66v-4.3c-1.19,1.33-2.64,2.54-4.35,3.62
			C490.45,1309.33,488.45,1309.87,486.14,1309.87z M487.71,1303.89c1.61,0,3.18-0.4,4.72-1.21c1.54-0.8,2.9-1.76,4.09-2.88v-42.17
			c-1.05-0.98-2.34-1.94-3.88-2.88c-1.54-0.94-3.25-1.42-5.14-1.42c-3.36,0-5.58,1.49-6.66,4.46c-1.08,2.97-1.63,7.33-1.63,13.06
			v14.27c0,4.06,0.23,7.48,0.68,10.28c0.45,2.8,1.29,4.91,2.52,6.35C483.64,1303.18,485.4,1303.89,487.71,1303.89z"/>
		<path class="st4" d="M531.24,1309.87c-3.78,0-6.87-0.75-9.28-2.26s-4.2-4-5.35-7.5c-1.15-3.5-1.73-8.15-1.73-13.95v-15.31
			c0-6.01,0.59-10.71,1.78-14.11c1.19-3.39,3.01-5.8,5.45-7.24c2.45-1.43,5.49-2.15,9.13-2.15c4.33,0,7.62,0.91,9.86,2.73
			c2.24,1.82,3.79,4.56,4.67,8.23c0.87,3.67,1.31,8.38,1.31,14.11v5.46h-24.54v10.59c0,3.92,0.3,7.01,0.89,9.28
			c0.59,2.27,1.54,3.9,2.83,4.88c1.29,0.98,2.95,1.47,4.98,1.47c1.54,0,2.94-0.3,4.2-0.89c1.26-0.59,2.26-1.75,2.99-3.46
			c0.73-1.71,1.1-4.14,1.1-7.29v-4.2h7.45v3.36c0,5.53-1.15,9.95-3.46,13.27C541.21,1308.21,537.11,1309.87,531.24,1309.87z
			 M522.53,1273.47h16.99v-5.04c0-3.22-0.18-5.96-0.52-8.23c-0.35-2.27-1.1-4.02-2.25-5.24c-1.15-1.22-2.99-1.84-5.51-1.84
			c-2.1,0-3.79,0.46-5.09,1.36c-1.29,0.91-2.22,2.54-2.78,4.88c-0.56,2.34-0.84,5.68-0.84,10.02V1273.47z"/>
		<path class="st4" d="M592.29,1309.87c-5.18,0-8.9-1.96-11.17-5.87c-2.27-3.92-3.41-10.42-3.41-19.51v-11.22
			c0-5.31,0.38-9.89,1.15-13.74c0.77-3.84,2.18-6.83,4.25-8.97c2.06-2.13,5.02-3.2,8.86-3.2c2.38,0,4.46,0.54,6.24,1.62
			c1.78,1.08,3.27,2.29,4.46,3.62v-28.64h7.66v84.96h-7.66v-4.3c-1.19,1.33-2.64,2.54-4.35,3.62
			C596.6,1309.33,594.59,1309.87,592.29,1309.87z M593.86,1303.89c1.61,0,3.18-0.4,4.72-1.21c1.54-0.8,2.9-1.76,4.09-2.88v-42.17
			c-1.05-0.98-2.34-1.94-3.88-2.88c-1.54-0.94-3.25-1.42-5.14-1.42c-3.36,0-5.58,1.49-6.66,4.46c-1.08,2.97-1.63,7.33-1.63,13.06
			v14.27c0,4.06,0.23,7.48,0.68,10.28c0.45,2.8,1.29,4.91,2.52,6.35C589.79,1303.18,591.55,1303.89,593.86,1303.89z"/>
		<path class="st4" d="M637.18,1309.87c-4.13,0-7.38-0.89-9.75-2.67c-2.38-1.78-4.04-4.37-4.98-7.76
			c-0.94-3.39-1.42-7.53-1.42-12.43v-16.78c0-4.89,0.47-9.04,1.42-12.43c0.94-3.39,2.6-5.98,4.98-7.76
			c2.38-1.78,5.63-2.67,9.75-2.67c4.2,0,7.46,0.89,9.81,2.67c2.34,1.78,3.99,4.37,4.93,7.76c0.94,3.39,1.42,7.54,1.42,12.43V1287
			c0,4.9-0.47,9.04-1.42,12.43c-0.94,3.39-2.59,5.98-4.93,7.76C644.64,1308.98,641.38,1309.87,637.18,1309.87z M637.18,1304.1
			c2.66,0,4.6-0.7,5.82-2.1c1.22-1.4,1.98-3.36,2.26-5.87c0.28-2.52,0.42-5.42,0.42-8.71v-17.62c0-3.29-0.14-6.17-0.42-8.65
			c-0.28-2.48-1.03-4.44-2.26-5.87c-1.22-1.43-3.16-2.15-5.82-2.15c-2.66,0-4.58,0.72-5.77,2.15c-1.19,1.43-1.94,3.39-2.26,5.87
			c-0.31,2.48-0.47,5.37-0.47,8.65v17.62c0,3.29,0.16,6.19,0.47,8.71c0.31,2.52,1.07,4.48,2.26,5.87
			C632.6,1303.4,634.52,1304.1,637.18,1304.1z"/>
		<path class="st4" d="M686.27,1308.93l2.1-84.96h7.87l16.89,73.74l17.1-73.74h7.97l2.1,84.96h-6.61l-1.68-67.66l-16.26,67.66h-5.14
			l-16.05-67.55l-1.68,67.55H686.27z"/>
		<path class="st4" d="M753.61,1239.91v-10.38h7.66v10.38H753.61z M753.61,1308.93v-60.63h7.66v60.63H753.61z"/>
		<path class="st4" d="M774.17,1308.93v-60.63h7.66v6.29c1.96-2.1,4.16-3.83,6.61-5.19c2.45-1.36,5.1-2.04,7.97-2.04
			c2.03,0,3.72,0.51,5.09,1.52c1.36,1.01,2.41,2.48,3.15,4.41c0.73,1.92,1.1,4.25,1.1,6.98v48.67h-7.66v-46.99
			c0-3.15-0.49-5.37-1.47-6.66c-0.98-1.29-2.45-1.94-4.41-1.94c-1.68,0-3.43,0.52-5.24,1.57c-1.82,1.05-3.53,2.41-5.14,4.09v49.93
			H774.17z"/>
		<path class="st4" d="M817.17,1308.93v-84.96h7.66v30.73c2.03-2.17,4.26-3.93,6.71-5.3c2.45-1.36,5.14-2.04,8.08-2.04
			c2.03,0,3.72,0.51,5.09,1.52c1.36,1.01,2.41,2.48,3.15,4.41c0.73,1.92,1.1,4.25,1.1,6.98v48.67h-7.76v-46.99
			c0-3.15-0.47-5.37-1.42-6.66c-0.94-1.29-2.4-1.94-4.35-1.94c-1.75,0-3.55,0.54-5.4,1.63c-1.85,1.08-3.58,2.46-5.19,4.14v49.82
			H817.17z"/>
		<path class="st4" d="M875.28,1309.87c-4.13,0-7.38-0.89-9.76-2.67c-2.38-1.78-4.04-4.37-4.98-7.76
			c-0.94-3.39-1.42-7.53-1.42-12.43v-16.78c0-4.89,0.47-9.04,1.42-12.43c0.94-3.39,2.6-5.98,4.98-7.76
			c2.38-1.78,5.63-2.67,9.76-2.67c4.2,0,7.46,0.89,9.81,2.67c2.34,1.78,3.99,4.37,4.93,7.76c0.94,3.39,1.42,7.54,1.42,12.43V1287
			c0,4.9-0.47,9.04-1.42,12.43c-0.94,3.39-2.59,5.98-4.93,7.76C882.74,1308.98,879.48,1309.87,875.28,1309.87z M875.28,1304.1
			c2.66,0,4.6-0.7,5.82-2.1c1.22-1.4,1.97-3.36,2.25-5.87c0.28-2.52,0.42-5.42,0.42-8.71v-17.62c0-3.29-0.14-6.17-0.42-8.65
			c-0.28-2.48-1.03-4.44-2.25-5.87c-1.22-1.43-3.17-2.15-5.82-2.15c-2.66,0-4.58,0.72-5.77,2.15c-1.19,1.43-1.94,3.39-2.25,5.87
			c-0.32,2.48-0.47,5.37-0.47,8.65v17.62c0,3.29,0.16,6.19,0.47,8.71c0.31,2.52,1.07,4.48,2.25,5.87
			C870.7,1303.4,872.62,1304.1,875.28,1304.1z"/>
	</g>
</g>
</svg>
