<?xml version="1.0" encoding="utf-8"?>
<!-- Generator: Adobe Illustrator 23.1.0, SVG Export Plug-In . SVG Version: 6.00 Build 0)  -->
<svg version="1.1" id="Camada_1" xmlns="http://www.w3.org/2000/svg" xmlns:xlink="http://www.w3.org/1999/xlink" x="0px" y="0px"
	 viewBox="0 0 196.8 257.3" style="enable-background:new 0 0 196.8 257.3;" xml:space="preserve">
<style type="text/css">
	.st0{fill:#9F1D26;}
</style>
<g>
	<path class="st0" d="M175.7,64.6h-4V50.5c0-7.8-6.3-14.2-14.2-14.2h-34v-7.5c0-13.6-11-24.6-24.6-24.6s-24.6,11-24.6,24.6v7.5H40
		c-7.8,0-14.2,6.3-14.2,14.2v14.1h-3.2c-9.4,0-17,7.6-17,17v16.1c0,9.4,7.6,17,17,17h3.2v14.6c0,5.2,2.8,9.7,6.9,12.1
		c-6.8,4-11.4,11.4-11.4,19.9c0,12.7,10.3,23.1,23.1,23.1c2.6,0,5.1-0.5,7.5-1.3v3.6c0,11.6,9.4,21,21,21H125c11.6,0,21-9.4,21-21
		v-3.7c2.4,0.9,5,1.4,7.8,1.4c12.7,0,23.1-10.3,23.1-23.1c0-8.6-4.7-16.1-11.8-20.1c3.9-2.5,6.6-6.9,6.6-11.9v-14.6h4
		c9.4,0,17-7.6,17-17V81.6C192.6,72.2,185,64.6,175.7,64.6z M25.8,107.6h-3.2c-5.5,0-9.9-4.5-9.9-9.9V81.6c0-5.5,4.5-9.9,9.9-9.9
		h3.2V107.6z M81.4,28.8c0-9.7,7.9-17.6,17.6-17.6s17.6,7.9,17.6,17.6v7.5H81.4V28.8z M32.8,114.6v-7v-36v-7V50.5
		c0-3.9,3.2-7.1,7.1-7.1h34.4h7h35.2h7h34c3.9,0,7.1,3.2,7.1,7.1v14.1v7v36v7v14.6c0,3.9-3.2,7.1-7.1,7.1H40c-3.9,0-7.1-3.2-7.1-7.1
		V114.6z M51.8,175.4c-2.2,1.2-4.8,1.9-7.5,1.9c-8.8,0-16-7.2-16-16c0-8.8,7.2-16,16-16c2.7,0,5.2,0.7,7.5,1.9
		c3.1,1.6,5.5,4.2,7,7.3c1,2.1,1.6,4.4,1.6,6.9c0,2.5-0.6,4.8-1.6,6.9C57.4,171.2,54.9,173.8,51.8,175.4z M139,186.7
		c0,7.7-6.3,14-14,14H72.8c-7.7,0-14-6.3-14-14v-7.5c5.2-4.2,8.6-10.7,8.6-17.9c0-7.2-3.3-13.6-8.5-17.9h80.3
		c-0.1,0.1-0.2,0.1-0.2,0.2c-5.1,4.2-8.3,10.6-8.3,17.7c0,7.1,3.2,13.5,8.3,17.7V186.7z M169.9,161.2c0,8.8-7.2,16-16,16
		c-2.8,0-5.5-0.7-7.8-2c-3.1-1.7-5.6-4.5-7-7.8c-0.8-1.9-1.2-4-1.2-6.2c0-2.2,0.4-4.3,1.2-6.2c1.4-3.3,3.9-6.1,7-7.8
		c2.3-1.3,5-2,7.8-2C162.7,145.2,169.9,152.4,169.9,161.2z M185.6,97.7c0,5.5-4.5,9.9-9.9,9.9h-4v-36h4c5.5,0,9.9,4.5,9.9,9.9V97.7z
		"/>
	<g>
		<path class="st0" d="M19.8,74.6c-2.2,0-3.9,1.8-3.9,3.9s1.8,3.9,3.9,3.9s3.9-1.8,3.9-3.9S22,74.6,19.8,74.6L19.8,74.6z"/>
	</g>
	<g>
		<polygon class="st0" points="40.9,167.8 26.3,160.7 27.4,158.3 40.5,164.7 52.9,153.2 18.6,79.1 21,78 56.1,153.9 		"/>
	</g>
	<g>
		<path class="st0" d="M76.6,147.8c-2,0-3.6,1.6-3.6,3.6s1.6,3.6,3.6,3.6s3.6-1.6,3.6-3.6S78.6,147.8,76.6,147.8L76.6,147.8z"/>
	</g>
	<g>
		<polygon class="st0" points="77.5,193.8 75.6,191.9 83.5,184.2 114.1,184.4 121.7,191.9 119.8,193.8 113,187 84.5,186.9 		"/>
	</g>
	<g>
		<rect x="73.8" y="171.9" class="st0" width="49.9" height="2.6"/>
	</g>
	<g>
		<polygon class="st0" points="83.3,159.7 75.7,152.4 77.5,150.5 84.4,157 113.3,156.9 119.8,150.5 121.7,152.4 114.3,159.5 		"/>
	</g>
	<g>
		<path class="st0" d="M90.5,155.1c-2,0-3.6,1.6-3.6,3.6s1.6,3.6,3.6,3.6s3.6-1.6,3.6-3.6S92.5,155.1,90.5,155.1L90.5,155.1z"/>
	</g>
	<g>
		<path class="st0" d="M107.2,155.1c-2,0-3.6,1.6-3.6,3.6s1.6,3.6,3.6,3.6c2,0,3.6-1.6,3.6-3.6S109.2,155.1,107.2,155.1L107.2,155.1
			z"/>
	</g>
	<g>
		<path class="st0" d="M120.4,147.8c-2,0-3.6,1.6-3.6,3.6s1.6,3.6,3.6,3.6c2,0,3.6-1.6,3.6-3.6S122.4,147.8,120.4,147.8L120.4,147.8
			z"/>
	</g>
	<g>
		<path class="st0" d="M123.7,169.6c-2,0-3.6,1.6-3.6,3.6s1.6,3.6,3.6,3.6s3.6-1.6,3.6-3.6S125.7,169.6,123.7,169.6L123.7,169.6z"/>
	</g>
	<g>
		<path class="st0" d="M107.2,169.6c-2,0-3.6,1.6-3.6,3.6s1.6,3.6,3.6,3.6c2,0,3.6-1.6,3.6-3.6S109.2,169.6,107.2,169.6L107.2,169.6
			z"/>
	</g>
	<g>
		<path class="st0" d="M90.5,169.6c-2,0-3.6,1.6-3.6,3.6s1.6,3.6,3.6,3.6s3.6-1.6,3.6-3.6S92.5,169.6,90.5,169.6L90.5,169.6z"/>
	</g>
	<g>
		<path class="st0" d="M73.8,169.6c-2,0-3.6,1.6-3.6,3.6s1.6,3.6,3.6,3.6s3.6-1.6,3.6-3.6S75.8,169.6,73.8,169.6L73.8,169.6z"/>
	</g>
	<g>
		<path class="st0" d="M76.6,189.2c-2,0-3.6,1.6-3.6,3.6s1.6,3.6,3.6,3.6s3.6-1.6,3.6-3.6S78.6,189.2,76.6,189.2L76.6,189.2z"/>
	</g>
	<g>
		<path class="st0" d="M120.7,189.2c-2,0-3.6,1.6-3.6,3.6s1.6,3.6,3.6,3.6s3.6-1.6,3.6-3.6S122.7,189.2,120.7,189.2L120.7,189.2z"/>
	</g>
	<g>
		<path class="st0" d="M107.2,181.9c-2,0-3.6,1.6-3.6,3.6s1.6,3.6,3.6,3.6c2,0,3.6-1.6,3.6-3.6S109.2,181.9,107.2,181.9L107.2,181.9
			z"/>
	</g>
	<g>
		<path class="st0" d="M90.5,182c-2,0-3.6,1.6-3.6,3.6s1.6,3.6,3.6,3.6s3.6-1.6,3.6-3.6S92.5,182,90.5,182L90.5,182z"/>
	</g>
	<g>
		<path class="st0" d="M162.1,171.9c-2,0-3.6,1.6-3.6,3.6c0,2,1.6,3.6,3.6,3.6s3.6-1.6,3.6-3.6C165.7,173.5,164.1,171.9,162.1,171.9
			L162.1,171.9z"/>
	</g>
	<g>
		<path class="st0" d="M156.2,158.7c-2,0-3.6,1.6-3.6,3.6s1.6,3.6,3.6,3.6s3.6-1.6,3.6-3.6S158.2,158.7,156.2,158.7L156.2,158.7z"/>
	</g>
	<g>
		<path class="st0" d="M121.6,111c-2,0-3.6,1.6-3.6,3.6s1.6,3.6,3.6,3.6s3.6-1.6,3.6-3.6S123.6,111,121.6,111L121.6,111z"/>
	</g>
	<g>
		<path class="st0" d="M132.2,102.1c-2,0-3.6,1.6-3.6,3.6c0,2,1.6,3.6,3.6,3.6c2,0,3.6-1.6,3.6-3.6
			C135.8,103.8,134.2,102.1,132.2,102.1L132.2,102.1z"/>
	</g>
	<g>
		<path class="st0" d="M145.2,96.4c-2,0-3.6,1.6-3.6,3.6c0,2,1.6,3.6,3.6,3.6s3.6-1.6,3.6-3.6C148.8,98,147.2,96.4,145.2,96.4
			L145.2,96.4z"/>
	</g>
	<g>
		<path class="st0" d="M111.5,103.6c-2,0-3.6,1.6-3.6,3.6c0,2,1.6,3.6,3.6,3.6c2,0,3.6-1.6,3.6-3.6
			C115.1,105.2,113.5,103.6,111.5,103.6L111.5,103.6z"/>
	</g>
	<g>
		<path class="st0" d="M94.2,89.8c-2,0-3.6,1.6-3.6,3.6c0,2,1.6,3.6,3.6,3.6s3.6-1.6,3.6-3.6C97.8,91.5,96.2,89.8,94.2,89.8
			L94.2,89.8z"/>
	</g>
	<g>
		<path class="st0" d="M103.5,81c-2,0-3.6,1.6-3.6,3.6s1.6,3.6,3.6,3.6s3.6-1.6,3.6-3.6S105.5,81,103.5,81L103.5,81z"/>
	</g>
	<g>
		<path class="st0" d="M148.8,39.8c-2,0-3.6,1.6-3.6,3.6c0,2,1.6,3.6,3.6,3.6s3.6-1.6,3.6-3.6C152.4,41.4,150.8,39.8,148.8,39.8
			L148.8,39.8z"/>
	</g>
	<g>
		<path class="st0" d="M145.2,52.2c-2,0-3.6,1.6-3.6,3.6c0,2,1.6,3.6,3.6,3.6s3.6-1.6,3.6-3.6C148.8,53.8,147.2,52.2,145.2,52.2
			L145.2,52.2z"/>
	</g>
	<g>
		<path class="st0" d="M134.4,45c-2,0-3.6,1.6-3.6,3.6c0,2,1.6,3.6,3.6,3.6s3.6-1.6,3.6-3.6C138,46.6,136.4,45,134.4,45L134.4,45z"
			/>
	</g>
	<g>
		<path class="st0" d="M123.5,45c-2,0-3.6,1.6-3.6,3.6c0,2,1.6,3.6,3.6,3.6s3.6-1.6,3.6-3.6C127.2,46.6,125.5,45,123.5,45L123.5,45z
			"/>
	</g>
	<g>
		<path class="st0" d="M117.6,59.3c-2,0-3.6,1.6-3.6,3.6c0,2,1.6,3.6,3.6,3.6c2,0,3.6-1.6,3.6-3.6C121.3,60.9,119.6,59.3,117.6,59.3
			L117.6,59.3z"/>
	</g>
	<g>
		<path class="st0" d="M107.8,60.2c-2,0-3.6,1.6-3.6,3.6c0,2,1.6,3.6,3.6,3.6s3.6-1.6,3.6-3.6C111.5,61.8,109.8,60.2,107.8,60.2
			L107.8,60.2z"/>
	</g>
	<g>
		<path class="st0" d="M83.8,96.2c-2,0-3.6,1.6-3.6,3.6c0,2,1.6,3.6,3.6,3.6s3.6-1.6,3.6-3.6C87.4,97.8,85.8,96.2,83.8,96.2
			L83.8,96.2z"/>
	</g>
	<g>
		<path class="st0" d="M71.1,90.7c-2,0-3.6,1.6-3.6,3.6s1.6,3.6,3.6,3.6s3.6-1.6,3.6-3.6S73.1,90.7,71.1,90.7L71.1,90.7z"/>
	</g>
	<g>
		<path class="st0" d="M56.7,92.5c-2,0-3.6,1.6-3.6,3.6c0,2,1.6,3.6,3.6,3.6s3.6-1.6,3.6-3.6C60.3,94.2,58.7,92.5,56.7,92.5
			L56.7,92.5z"/>
	</g>
	<g>
		<polygon class="st0" points="161.6,176.7 142.1,169.1 120.4,115.1 122.8,114.2 144.1,167.1 162.6,174.3 		"/>
	</g>
	<g>
		
			<rect x="142.9" y="103.3" transform="matrix(0.9202 -0.3914 0.3914 0.9202 -40.9572 67.1346)" class="st0" width="2.6" height="61.4"/>
	</g>
	<g>
		<polygon class="st0" points="166.1,134 153.7,124.2 143.4,99.3 187.5,81.1 188.5,83.5 146.9,100.7 155.9,122.6 167.7,131.9 		"/>
	</g>
	<g>
		<polygon class="st0" points="112.7,107.8 110.3,106.7 114.1,98.3 142.9,85.6 153.5,59.4 153.7,56.2 147.6,44 150,42.9 156.3,55.6 
			156.1,60.2 145,87.6 116.1,100.3 		"/>
	</g>
	<g>
		<polygon class="st0" points="100.8,98.5 93.5,94.6 94.8,92.3 101.3,95.8 106,95.4 130,84.2 133.2,79.5 144,55.3 146.4,56.4 
			135.5,80.9 131.8,86.3 106.5,98 		"/>
	</g>
	<g>
		<polygon class="st0" points="104.1,85.8 103,83.4 122.6,75.1 124.4,68.3 133.2,48.1 135.6,49.1 126.9,69.2 124.8,77 		"/>
	</g>
	<g>
		<polygon class="st0" points="85,100.3 82.6,99.2 98.6,65.2 107.4,62.5 108.2,65 100.5,67.4 		"/>
	</g>
	<g>
		<polygon class="st0" points="72.3,94.8 69.8,93.8 83.7,60.6 96.2,54.5 97,48.5 109.9,40.6 111.3,42.9 99.5,50.1 98.6,56.3 
			85.8,62.5 		"/>
	</g>
	<g>
		<polygon class="st0" points="57.9,96.7 55.5,95.6 75.4,48.2 86.3,45.2 86.6,41.4 98.1,31.2 118.7,25 119.4,27.5 99.4,33.5 
			89.1,42.7 88.8,47.2 77.3,50.4 		"/>
	</g>
	<g>
		
			<rect x="92.6" y="9.7" transform="matrix(0.9118 -0.4107 0.4107 0.9118 -0.5572 40.4548)" class="st0" width="2.6" height="23.7"/>
	</g>
	<g>
		<path class="st0" d="M99,33.3h-1.5c-1.1,0-2.1-0.9-2.1-2.1v-1.5c0-1.1,0.9-2.1,2.1-2.1H99c1.1,0,2.1,0.9,2.1,2.1v1.5
			C101.1,32.4,100.2,33.3,99,33.3z M98.1,30.7h0.3v-0.3h-0.3V30.7z"/>
	</g>
</g>
<g>
	<path class="st0" d="M15,252.5v-22.1c0-1.3,0.3-2.2,0.8-2.8c0.5-0.6,1.4-0.9,2.5-0.9c0.8,0,1.5,0.2,2,0.6c0.5,0.4,0.9,1,1.4,1.9
		l7.8,18.8v-21.2h3.7v22.6c0,1-0.3,1.8-0.9,2.5c-0.6,0.6-1.4,1-2.4,1c-1.5,0-2.6-0.9-3.3-2.7l-7.8-18.5v20.8H15z"/>
	<path class="st0" d="M55,252.5H45c-1.2,0-2.2-0.1-3-0.4c-0.8-0.3-1.5-0.8-2.2-1.4c-0.6-0.7-1.1-1.4-1.3-2.1c-0.2-0.7-0.4-1.7-0.4-3
		v-12.3c0-2.4,0.8-4.2,2.4-5.3c0.6-0.4,1.3-0.7,2-0.9c0.7-0.1,1.7-0.2,3.2-0.2h9.4v3.7h-9.3h-1.6c-0.6,0-1.2,0.3-1.6,0.8
		c-0.4,0.5-0.7,1.2-0.7,2v4.4h13.2v3.7H41.8v3.4v1.6c0,0.6,0.3,1.1,0.8,1.6c0.5,0.4,0.9,0.6,1.3,0.7h2H55V252.5z"/>
	<path class="st0" d="M76.4,252.5h-10c-1.2,0-2.2-0.1-3-0.4c-0.8-0.3-1.5-0.8-2.2-1.4c-0.6-0.7-1.1-1.4-1.3-2.1
		c-0.2-0.7-0.4-1.7-0.4-3v-12.3c0-2.4,0.8-4.2,2.4-5.3c0.6-0.4,1.3-0.7,2-0.9c0.7-0.1,1.7-0.2,3.2-0.2h9.4v3.7h-9.3h-1.6
		c-0.6,0-1.2,0.3-1.6,0.8c-0.4,0.5-0.7,1.2-0.7,2v4.4h13.2v3.7H63.2v3.4v1.6c0,0.6,0.3,1.1,0.8,1.6c0.5,0.4,0.9,0.6,1.3,0.7h2h9.1
		V252.5z"/>
	<path class="st0" d="M97.7,252.5h-10c-1.2,0-2.2-0.1-3-0.4c-0.8-0.3-1.5-0.8-2.2-1.4c-0.6-0.7-1.1-1.4-1.3-2.1
		c-0.2-0.7-0.4-1.7-0.4-3v-12.3c0-2.4,0.8-4.2,2.4-5.3c0.6-0.4,1.3-0.7,2-0.9c0.7-0.1,1.7-0.2,3.2-0.2h9.4v3.7h-9.3h-1.6
		c-0.6,0-1.2,0.3-1.6,0.8c-0.4,0.5-0.7,1.2-0.7,2v4.4h13.2v3.7H84.6v3.4v1.6c0,0.6,0.3,1.1,0.8,1.6c0.5,0.4,0.9,0.6,1.3,0.7h2h9.1
		V252.5z"/>
	<path class="st0" d="M102.2,252.5v-25.7h3.7v25.7H102.2z"/>
	<path class="st0" d="M127.6,252.5h-11.1c-1.6,0-2.9-0.6-4-1.8s-1.7-2.7-1.7-4.3v-13.2c0-1.9,0.5-3.4,1.6-4.6
		c1.1-1.2,2.5-1.7,4.3-1.7h10.9v3.7h-10.4c-1.8,0-2.7,0.9-2.7,2.7V246c0,0.8,0.3,1.4,0.8,2c0.5,0.5,1.2,0.8,1.9,0.8h10.3V252.5z"/>
	<path class="st0" d="M150.2,226.8v19.4c0,1.8-0.6,3.3-1.7,4.5c-1.1,1.2-2.6,1.8-4.3,1.8h-6.5c-1.7,0-3.2-0.6-4.3-1.8
		c-1.1-1.2-1.7-2.7-1.7-4.5v-19.4h3.7v18.9c0,1.1,0.2,1.9,0.6,2.3s1.1,0.7,2.2,0.7h5.3c1,0,1.8-0.2,2.2-0.6c0.4-0.4,0.6-1.1,0.6-2.2
		v-19.1H150.2z"/>
	<path class="st0" d="M155.2,252.5v-22c0-2.7,1.1-4.1,3.4-4.1c1.2,0,2.1,0.2,2.7,0.6c0.5,0.4,1,1.2,1.3,2.5l5.5,18.9l5.6-18.9
		c0.4-1.2,0.8-2.1,1.3-2.5c0.5-0.4,1.3-0.6,2.3-0.6c2.5,0,3.7,1.4,3.7,4.1v22h-3.7v-22l-5.8,19.1c-0.3,1.2-0.7,2-1.2,2.4
		c-0.5,0.5-1.2,0.7-2,0.7c-1.1,0-1.8-0.2-2.3-0.6s-0.9-1.3-1.3-2.5l-5.8-19.1v22H155.2z"/>
</g>
</svg>
