<?xml version="1.0" encoding="utf-8"?>
<!-- Generator: Adobe Illustrator 23.1.0, SVG Export Plug-In . SVG Version: 6.00 Build 0)  -->
<svg version="1.1" id="Camada_1" xmlns="http://www.w3.org/2000/svg" xmlns:xlink="http://www.w3.org/1999/xlink" x="0px" y="0px"
	 viewBox="0 0 593.2 878.4" style="enable-background:new 0 0 593.2 878.4;" xml:space="preserve">
<style type="text/css">
	.st0{display:none;}
	.st1{display:none;fill:none;stroke:#FFFFFF;stroke-width:1.0091;stroke-miterlimit:10;}
	.st2{display:none;fill:none;}
	.st3{fill:#D53932;}
	.st4{fill:#FFFFFF;}
	.st5{fill:#C44545;}
	.st6{fill:#FFF6DE;}
</style>
<g id="OVR0Gt_1_" class="st0">
	
		<image style="display:inline;overflow:visible;" width="500" height="520" id="OVR0Gt_2_" xlink:href="71E51FE439B14279.jpg"  transform="matrix(1 0 0 1 -17.5159 202.7662)">
	</image>
</g>
<circle class="st1" cx="111.2" cy="582.8" r="33.9"/>
<circle class="st2" cx="111.2" cy="582.8" r="21.5"/>
<g>
	<path class="st3" d="M191.1,549.8c2.3,1.6,4.7,3.2,7.2,4.8c1.8,1.2,3.6,2.3,5.4,3.3c-3.1,3.8-6.1,7.6-9.2,11.4
		c-2.5-3.2-5.1-6.3-7.6-9.5c0.4-1.2,0.9-2.5,1.4-3.8C189.2,553.8,190.2,551.7,191.1,549.8z"/>
	<path class="st3" d="M424.1,659c-1.4,0.7-2.7,1.3-4.2,2c-1.1,0.5-2.1,1-3.2,1.5c0.7-3.8,1.4-7.6,2-11.4
		C420.5,653.7,422.3,656.3,424.1,659z"/>
	<path class="st4" d="M151.6,511.8c-8.4,12.8-18.5,31.2-26,54.9c-7.2,22.8-9.5,43-10,58c9.8,7.6,20.8,15.4,33,23.1
		c10.4,6.6,20.5,12.4,30.1,17.5c-3-14.1-5.8-35.4-2.8-60.9c2.8-23.4,9.5-42,15.2-54.5c-5.7-4-11.7-8.8-18-14.5
		C164.3,527.2,157.2,519.1,151.6,511.8z"/>
	<path class="st4" d="M26.6,299.5c16-4.9,33.8-9.4,53.4-13.1c29.7-5.6,56.8-7.8,80.2-8.3c-7,8.1-14.5,18.1-21.5,30.3
		c-3.9,6.8-7.2,13.3-9.9,19.4c-15.7,2.4-35.4,6.8-57,15.4c-27.3,10.9-48.2,24.7-62.6,36c0.7-9.3,1.9-19.3,3.8-30
		C16.4,330.1,21.4,313.4,26.6,299.5z"/>
	<path class="st3" d="M26.6,299.5c16-4.9,33.8-9.4,53.4-13.1c29.7-5.6,56.8-7.8,80.2-8.3c2.2-2.2,4.4-4.3,6.7-6.5
		c12.7-11.8,25.5-21.4,37.9-29.3c-12.3-7.9-30.1-17.6-53.1-24.1c-30.2-8.6-56.3-8.1-72.9-6.5c-10.3,11.9-21.9,27.2-32.7,46.1
		C37.6,272.8,31.3,287,26.6,299.5z"/>
	<path class="st3" d="M128.8,327.8c-3.8,8.7-7.7,19.5-10.6,32.3c-2.9,12.7-4,24-4.4,33.4c-13.3,7.4-29,17.8-45.1,32.1
		c-23.1,20.6-38.4,42-48.1,58.3c-4.7-15.7-9.2-35.3-11.2-58.1c-1.5-17.5-1.3-33.2-0.3-46.6c12.7-10,30.1-21.6,52.1-31.5
		C87.4,335.9,111.1,330.4,128.8,327.8z"/>
	<path class="st4" d="M20.7,483.9c8.8-14.7,22.2-33.7,42-52.6c18.5-17.7,36.9-29.8,51.2-37.8c-0.4,9.4-0.1,20.7,1.7,33.3
		c1.7,11.4,4.2,21.4,6.8,29.6c-14.8,14.6-31,32.9-46.7,55.4c-9.7,14-17.8,27.5-24.5,40c-6.7-10.9-13.7-23.8-20.1-38.7
		C26.9,502.8,23.5,493,20.7,483.9z"/>
	<path class="st3" d="M122.5,456.4c2.9,9,7,19.6,13.2,30.9c5.2,9.7,10.8,17.8,15.9,24.5c-8,12.2-17.4,29.2-24.6,50.6
		c-8.3,24.6-10.8,46.4-11.4,62.3c-8.6-7-17.9-15.3-27.1-25c-16-16.8-28.1-33.4-37-47.8c8.6-16.1,19.8-34.5,34.3-53.6
		C98.2,481.8,110.9,467.9,122.5,456.4z"/>
	<path class="st4" d="M151.7,151.3c13,5.6,27.3,12.7,42.3,21.8c26.3,16.1,46.9,33.6,62.3,49c-9.1,2-19.7,5.2-31.1,10
		c-7.7,3.3-14.4,6.8-20.4,10.2c-12.3-7.9-30.1-17.6-53.1-24.1c-30.2-8.6-56.3-8.1-72.9-6.5c9.1-10.5,20.6-22.3,35-34.1
		C127.3,166.6,140.3,158,151.7,151.3z"/>
	<path class="st3" d="M151.7,151.3c11.9-6.9,26.4-14.2,43.4-20.6c20.8-7.8,39.8-12.2,55.5-14.7c11.5,8.7,26.7,22.3,40.8,41.8
		c16.9,23.5,25.3,46.2,29.6,61.5c-10.5-1.4-23.3-2.2-37.8-1.1c-10,0.7-19,2.2-26.8,4c-11.9-11.9-27.1-25.2-45.8-38.2
		C189.1,169.1,168.8,158.7,151.7,151.3z"/>
	<path class="st4" d="M250.6,116c11.7-1.9,25.2-3.3,40.2-3.6c13.6-0.3,26,0.4,36.9,1.6c8.2,11,18.2,26.7,25.8,47.1
		c10.7,28.5,12.4,53.8,12.1,70.1c-7-2.9-15.1-5.7-24.4-8c-7.3-1.8-14.2-3.1-20.4-3.9c-4.3-15.3-12.6-38-29.6-61.5
		C277.4,138.2,262.2,124.7,250.6,116z"/>
	<path class="st3" d="M327.8,114c15.4,1.6,34.1,4.9,54.9,11.4c20.7,6.5,37.9,14.4,51.4,21.8c3.5,12.3,7.2,31.4,5.4,54.6
		c-2.3,29.5-12.5,51.7-19.3,63.9c-6.5-5.9-14.5-12.5-24.4-18.8c-10.9-7.1-21.3-12.1-30.1-15.7c0.2-14.9-1.1-37.5-9.7-63.2
		C347.9,143.7,336.5,125.6,327.8,114z"/>
	<path class="st4" d="M434.1,147.2c9.7,5.3,20.3,11.7,31.3,19.7c13.2,9.6,24.3,19.3,33.3,28.2c-0.5,14.6-2.8,35.7-11.4,59.7
		c-9.2,25.5-22,44.1-31.5,55.8c-3.9-6.8-8.7-14.4-14.9-22.3c-7.1-9.1-14.3-16.6-20.8-22.5c6.4-11.5,15.7-31.7,18.8-58.6
		C441.9,181,437.6,159.7,434.1,147.2z"/>
	<path class="st3" d="M498.7,195c8.3,8.2,17,17.7,25.6,28.8c17.6,22.6,29.3,44.7,37.3,63.1c-6.3,12.4-15.7,27.8-29.6,43.5
		c-19.4,21.8-39.8,35.3-54.4,43.4c-1.4-9.6-3.9-21.2-8.3-33.9c-4.1-11.7-8.9-21.5-13.4-29.4c8.8-10.9,19.6-26.7,28.2-47.4
		C495.3,235.7,498.1,211.2,498.7,195z"/>
	<path class="st4" d="M477.5,373.8c14.6-8,35-21.6,54.4-43.4c14-15.7,23.4-31.2,29.6-43.5c4.1,9.6,8.2,20.6,11.8,33
		c3.8,13.2,6.4,25.5,8,36.3c-9.8,10.5-22.6,22.5-38.7,34c-24,17-47.1,27.1-64.7,33.1c0.8-6.8,1.4-14.5,1.4-22.9
		C479.4,390.5,478.6,381.6,477.5,373.8z"/>
	<path class="st3" d="M478,423.3c16.7-5.7,38.4-15.1,61.3-30.7c17.9-12.3,31.8-25.2,42.1-36.3c2.5,16.1,4.1,36.1,3,58.7
		c-0.9,17.4-3.2,32.9-6,46c-12.3,7.7-30.2,17.1-53.3,23.3c-28.6,7.7-53.2,7.4-69.2,5.9c5.6-10,11.8-23,16.3-38.9
		C475.2,441.1,477,431.6,478,423.3z"/>
	<path class="st4" d="M455.9,490.2c14.7,1.4,36.3,1.7,61.5-4c27.3-6.2,48-17,61-25.2c-3,14.2-7.7,31-15.3,49.2
		c-6.9,16.7-14.6,30.9-21.8,42.4c-16.1-0.1-34.6-1.3-54.9-4.5c-24.5-3.9-45.8-9.8-63.2-15.8c6.2-6,13.1-13.4,19.8-22.4
		C448.2,503,452.4,496.3,455.9,490.2z"/>
	<path class="st3" d="M423.2,532.3c15.5,5.4,33.8,10.6,54.6,14.3c23.9,4.3,45.4,5.8,63.5,5.9c-7.3,11.7-16.7,25-28.9,38.7
		c-13.4,15.2-26.8,27.1-38.5,36.2c-10.8-1.3-27.4-4.6-45-14.4c-28.7-15.9-43.2-39.3-48.9-50c7.8-4,16.6-9.2,25.7-16
		C412.5,542.1,418.3,537.1,423.2,532.3z"/>
	<path class="st4" d="M474.1,627.5c-5.3,4.2-11.1,8.4-17.4,12.6c-11.4,7.6-22.4,13.8-32.6,18.8c-11.2-7.5-25.4-18.6-39.3-34.3
		c-16.3-18.4-26.3-36.6-32.4-50.1c4-1.3,8.3-2.8,12.7-4.6c5.5-2.2,10.5-4.5,15-6.9c4.9,9.2,12.6,21.1,24.7,32.3
		C431,619.7,461,625.7,474.1,627.5z"/>
	<path class="st3" d="M376.8,672.8c-17.6-33-31.8-64.4-43.3-93.3c-11.9,2.2-26.7,4-43.7,3.6c-13.3-0.3-25.1-1.8-35-3.7
		c-11.4,28.9-25.5,60.4-43.1,93.4c-13.1,24.6-26.6,47.1-39.9,67.4c17.7-11.4,35.3-22.9,53-34.3c1.6,20.1,3.2,40.1,4.8,60.2
		c21.7-38.8,43.3-77.6,65-116.4c21.4,38.8,42.8,77.6,64.2,116.4c1.6-20.1,3.2-40.1,4.8-60.2c17.7,11.4,35.3,22.9,53,34.3
		C403.4,719.8,390,697.4,376.8,672.8z"/>
	<path class="st5" d="M259.3,581.8c-10.3-5.6-19.1-9.9-25.6-12.9c-23.7-11-31-11.8-37.1-11.2c-3.3,0.3-11.5,1.2-18.6,7.1
		c0,0-2.3,1.9-4.2,4.3c-9.8,12.5-8.5,43-5.6,77.4c0.7,8.2,1.4,14.8,6.4,19.5c5.9,5.4,14.5,5.4,23.5,4.4c12.2-1.3,33.3-5.3,60.6-19.1
		c-2.3-9.1-4.5-21.7-4.2-36.7C254.9,601.5,257.1,590.3,259.3,581.8z"/>
	<path class="st5" d="M329.3,581.8c10.3-5.6,19.1-9.9,25.6-12.9c23.7-11,31-11.8,37.1-11.2c3.3,0.3,11.5,1.2,18.6,7.1
		c0,0,2.3,1.9,4.2,4.3c9.8,12.5,8.5,43,5.6,77.4c-0.7,8.2-1.4,14.8-6.4,19.5c-5.9,5.4-14.5,5.4-23.5,4.4
		c-12.2-1.3-33.3-5.3-60.6-19.1c1.6-10.2,2.8-22.3,2.6-36.1C332.2,602.6,330.9,591.3,329.3,581.8z"/>
	<path class="st4" d="M273.5,687.7c7.1-12.7,14.2-25.4,21.2-38c7,12.8,14.1,25.5,21.1,38.3c-7.5,0.5-15.6,0.7-24.1,0.6
		C285.3,688.5,279.2,688.2,273.5,687.7z"/>
	<path class="st4" d="M210.3,675.5c1.4-2.6,2.7-5.1,4.1-7.7c-3.2,0.7-6.6,1.4-10.2,1.9c-2.7,0.4-5.4,0.7-7.9,1
		c2.5,0.9,5.2,1.9,7.8,2.8C206.2,674.2,208.3,674.9,210.3,675.5z"/>
	<path class="st4" d="M396.2,671c-3,1.1-6.2,2.2-9.4,3.3c-2.7,0.9-5.3,1.7-7.8,2.5c-1.6-3-3.2-6-4.8-8.9c2.4,0.6,5,1.1,7.6,1.5
		C386.9,670.2,391.7,670.7,396.2,671z"/>
</g>
<path class="st6" d="M118.5,521.7c-0.9-0.9-2.1-2.7-2.6-5c-0.2-0.8-0.2-1.5-0.2-1.9c0,0.5-0.1,1.2-0.3,2c-0.6,2.4-1.8,4.1-2.7,5
	c-3.2,3.3-7.4,3.3-8,3.3c-0.8,0,5.1,0.4,8.2,3.4c2.2,2.1,2.7,5.3,2.7,7.4c0.1-2.1,0.5-5.2,2.7-7.4c3.1-3,9-3.4,8.2-3.4
	C125.9,525,121.8,525.1,118.5,521.7z"/>
<path class="st6" d="M523.8,434.2c-1-1-2.5-3.1-3.1-5.8c-0.2-0.9-0.3-1.7-0.3-2.3c0,0.6-0.1,1.4-0.3,2.3c-0.7,2.7-2.2,4.8-3.2,5.8
	c-3.8,3.9-8.6,3.8-9.4,3.8c-0.9,0,6,0.4,9.6,3.9c2.6,2.5,3.1,6.1,3.2,8.6c0.1-2.5,0.6-6.1,3.2-8.6c3.7-3.5,10.5-4,9.6-3.9
	C532.4,438,527.5,438.1,523.8,434.2z"/>
<path class="st6" d="M45.9,318.5c-0.6-0.6-1.4-1.8-1.7-3.3c-0.1-0.5-0.2-1-0.2-1.3c0,0.3-0.1,0.8-0.2,1.3c-0.4,1.6-1.2,2.7-1.8,3.3
	c-2.1,2.2-4.9,2.2-5.3,2.2c-0.5,0,3.4,0.2,5.5,2.2c1.5,1.4,1.8,3.5,1.8,4.9c0-1.4,0.3-3.5,1.8-4.9c2.1-2,6-2.2,5.5-2.2
	C50.8,320.7,48,320.8,45.9,318.5z"/>
<path class="st6" d="M452.1,567.6c-0.4-0.4-0.9-1.2-1.2-2.2c-0.1-0.3-0.1-0.7-0.1-0.9c0,0.2,0,0.5-0.1,0.9c-0.3,1-0.8,1.8-1.2,2.2
	c-1.4,1.5-3.3,1.5-3.6,1.5c-0.4,0,2.3,0.2,3.7,1.5c1,1,1.2,2.3,1.2,3.3c0-0.9,0.2-2.3,1.2-3.3c1.4-1.3,4-1.5,3.7-1.5
	C455.4,569.1,453.5,569.1,452.1,567.6z"/>
<path class="st6" d="M194,207.1c-0.9-0.9-2.1-2.7-2.6-5c-0.2-0.8-0.2-1.5-0.2-1.9c0,0.5-0.1,1.2-0.3,2c-0.6,2.4-1.8,4.1-2.7,5
	c-3.2,3.3-7.4,3.3-8,3.3c-0.8,0,5.1,0.4,8.2,3.4c2.2,2.1,2.7,5.3,2.7,7.4c0.1-2.1,0.5-5.2,2.7-7.4c3.1-3,9-3.4,8.2-3.4
	C201.4,210.4,197.3,210.5,194,207.1z"/>
<path class="st6" d="M96.7,391.9c-0.4-0.4-0.9-1.2-1.2-2.2c-0.1-0.3-0.1-0.7-0.1-0.9c0,0.2,0,0.5-0.1,0.9c-0.3,1-0.8,1.8-1.2,2.2
	c-1.4,1.5-3.3,1.5-3.6,1.5c-0.4,0,2.3,0.2,3.7,1.5c1,1,1.2,2.3,1.2,3.3c0-0.9,0.2-2.3,1.2-3.3c1.4-1.3,4-1.5,3.7-1.5
	C100,393.4,98.1,393.4,96.7,391.9z"/>
<path class="st6" d="M522.2,530c-0.6-0.6-1.4-1.8-1.7-3.3c-0.1-0.5-0.2-1-0.2-1.3c0,0.3-0.1,0.8-0.2,1.3c-0.4,1.6-1.2,2.7-1.8,3.3
	c-2.1,2.2-4.9,2.2-5.3,2.2c-0.5,0,3.4,0.2,5.5,2.2c1.5,1.4,1.8,3.5,1.8,4.9c0-1.4,0.3-3.5,1.8-4.9c2.1-2,6-2.2,5.5-2.2
	S524.3,532.3,522.2,530z"/>
<path class="st6" d="M437.5,179.4c-1.3-1.3-3.1-4-3.9-7.5c-0.3-1.2-0.3-2.2-0.3-2.8c0,0.7-0.2,1.8-0.5,3c-0.9,3.6-2.7,6.1-4,7.5
	c-4.8,4.9-11.1,4.9-12,4.9c-1.2,0,7.6,0.6,12.3,5.1c3.3,3.1,4,7.9,4,11.1c0.2-3.1,0.8-7.8,4-11.1c4.6-4.5,13.5-5.1,12.3-5.1
	C448.6,184.3,442.5,184.5,437.5,179.4z"/>
<path class="st6" d="M135.7,613.4c-0.9-0.9-2-2.6-2.5-4.7c-0.2-0.8-0.2-1.4-0.2-1.8c0,0.5-0.1,1.1-0.3,1.9c-0.6,2.3-1.7,3.9-2.6,4.7
	c-3,3.1-7,3.1-7.6,3.1c-0.8,0,4.8,0.4,7.8,3.2c2.1,2,2.6,5,2.6,7c0.1-2,0.5-4.9,2.6-7c2.9-2.8,8.5-3.2,7.8-3.2
	C142.7,616.5,138.8,616.6,135.7,613.4z"/>
<path class="st6" d="M251.9,134.4c-0.4-0.4-0.9-1.2-1.2-2.2c-0.1-0.3-0.1-0.7-0.1-0.9c0,0.2,0,0.5-0.1,0.9c-0.3,1-0.8,1.8-1.2,2.2
	c-1.4,1.5-3.3,1.5-3.6,1.5c-0.4,0,2.3,0.2,3.7,1.5c1,1,1.2,2.3,1.2,3.3c0-0.9,0.2-2.3,1.2-3.3c1.4-1.3,4-1.5,3.7-1.5
	C255.2,135.9,253.3,135.9,251.9,134.4z"/>
<path class="st6" d="M110.8,227.2c-0.4-0.4-0.9-1.2-1.2-2.2c-0.1-0.3-0.1-0.7-0.1-0.9c0,0.2,0,0.5-0.1,0.9c-0.3,1-0.8,1.8-1.2,2.2
	c-1.4,1.5-3.3,1.5-3.6,1.5c-0.4,0,2.3,0.2,3.7,1.5c1,1,1.2,2.3,1.2,3.3c0-0.9,0.2-2.3,1.2-3.3c1.4-1.3,4-1.5,3.7-1.5
	C114.1,228.7,112.2,228.7,110.8,227.2z"/>
<path class="st6" d="M54.1,423.2c-1.7-1.7-4.2-5.2-5.2-9.7c-0.3-1.5-0.5-2.8-0.5-3.9c0,1-0.2,2.3-0.5,3.9c-1.2,4.5-3.7,8-5.4,9.7
	c-6.4,6.5-14.4,6.4-15.7,6.4c-1.5,0,10.1,0.7,16.1,6.5c4.4,4.2,5.2,10.2,5.4,14.4c0.2-4.2,1-10.2,5.4-14.4
	c6.2-5.9,17.6-6.7,16.1-6.5C68.5,429.6,60.3,429.8,54.1,423.2z"/>
<path class="st6" d="M563.4,326.3c-0.6-0.6-1.4-1.8-1.7-3.3c-0.1-0.5-0.2-1-0.2-1.3c0,0.3-0.1,0.8-0.2,1.3c-0.4,1.6-1.2,2.7-1.8,3.3
	c-2.1,2.2-4.9,2.2-5.3,2.2c-0.5,0,3.4,0.2,5.5,2.2c1.5,1.4,1.8,3.5,1.8,4.9c0-1.4,0.3-3.5,1.8-4.9c2.1-2,6-2.2,5.5-2.2
	C568.3,328.5,565.5,328.6,563.4,326.3z"/>
<path class="st6" d="M398.1,198.3c-0.6-0.6-1.4-1.8-1.7-3.3c-0.1-0.5-0.2-1-0.2-1.3c0,0.3-0.1,0.8-0.2,1.3c-0.4,1.6-1.2,2.7-1.8,3.3
	c-2.1,2.2-4.9,2.2-5.3,2.2c-0.5,0,3.4,0.2,5.5,2.2c1.5,1.4,1.8,3.5,1.8,4.9c0-1.4,0.3-3.5,1.8-4.9c2.1-2,6-2.2,5.5-2.2
	C403,200.5,400.2,200.6,398.1,198.3z"/>
<path class="st6" d="M493.2,326.3c-0.6-0.6-1.4-1.8-1.7-3.3c-0.1-0.5-0.2-1-0.2-1.3c0,0.3-0.1,0.8-0.2,1.3c-0.4,1.6-1.2,2.7-1.8,3.3
	c-2.1,2.2-4.9,2.2-5.3,2.2c-0.5,0,3.4,0.2,5.5,2.2c1.5,1.4,1.8,3.5,1.8,4.9c0-1.4,0.3-3.5,1.8-4.9c2.1-2,6-2.2,5.5-2.2
	C498.1,328.5,495.3,328.6,493.2,326.3z"/>
<path class="st6" d="M462.1,231.9c-0.4-0.4-0.9-1.2-1.2-2.2c-0.1-0.3-0.1-0.7-0.1-0.9c0,0.2,0,0.5-0.1,0.9c-0.3,1-0.8,1.8-1.2,2.2
	c-1.4,1.5-3.3,1.5-3.6,1.5c-0.4,0,2.3,0.2,3.7,1.5c1,1,1.2,2.3,1.2,3.3c0-0.9,0.2-2.3,1.2-3.3c1.4-1.3,4-1.5,3.7-1.5
	C465.4,233.4,463.5,233.4,462.1,231.9z"/>
<path class="st6" d="M318.7,161.2c-0.9-0.9-2.1-2.7-2.6-5c-0.2-0.8-0.3-1.5-0.3-2c0,0.5-0.2,1.2-0.3,2c-0.6,2.4-1.8,4.1-2.7,5
	c-3.2,3.3-7.4,3.3-8,3.3c-0.8,0,5.1,0.3,8.3,3.3c2.3,2.1,2.7,5.3,2.7,7.4c0-2.1,0.5-5.3,2.7-7.4c3.2-3,9-3.3,8.3-3.3
	C326.1,164.5,321.8,164.7,318.7,161.2z"/>
<path class="st6" d="M243.6,706.2c-0.5-0.5-1.3-1.6-1.6-3c-0.1-0.5-0.1-0.9-0.1-1.1c0,0.3-0.1,0.7-0.2,1.2c-0.4,1.4-1.1,2.5-1.6,3
	c-1.9,2-4.4,2-4.8,2c-0.5,0,3.1,0.2,4.9,2c1.3,1.3,1.6,3.2,1.6,4.4c0.1-1.3,0.3-3.1,1.6-4.4c1.9-1.8,5.4-2,4.9-2
	C248,708.1,245.6,708.2,243.6,706.2z"/>
<path class="st6" d="M368.6,623.2c-0.9-0.9-2.1-2.7-2.6-5c-0.2-0.8-0.2-1.5-0.2-1.9c0,0.5-0.1,1.2-0.3,2c-0.6,2.4-1.8,4.1-2.7,5
	c-3.2,3.3-7.4,3.3-8,3.3c-0.8,0,5.1,0.4,8.2,3.4c2.2,2.1,2.7,5.3,2.7,7.4c0.1-2.1,0.5-5.2,2.7-7.4c3.1-3,9-3.4,8.2-3.4
	C376,626.5,371.9,626.6,368.6,623.2z"/>
<path class="st6" d="M245.4,588c-1-1-2.5-3.1-3.1-5.8c-0.2-0.9-0.3-1.7-0.3-2.3c0,0.6-0.1,1.4-0.3,2.3c-0.7,2.7-2.2,4.8-3.2,5.8
	c-3.8,3.9-8.6,3.8-9.4,3.8c-0.9,0,6,0.4,9.6,3.9c2.6,2.5,3.1,6.1,3.2,8.6c0.1-2.5,0.6-6.1,3.2-8.6c3.7-3.5,10.5-4,9.6-3.9
	C254,591.8,249.1,591.9,245.4,588z"/>
<path class="st6" d="M267.6,625.3c-0.5-0.5-1.3-1.6-1.6-3c-0.1-0.5-0.1-0.9-0.1-1.1c0,0.3-0.1,0.7-0.2,1.2c-0.4,1.4-1.1,2.5-1.6,3
	c-1.9,2-4.4,2-4.8,2c-0.5,0,3.1,0.2,4.9,2c1.3,1.3,1.6,3.2,1.6,4.4c0.1-1.3,0.3-3.1,1.6-4.4c1.9-1.8,5.4-2,4.9-2
	C272.1,627.3,269.6,627.4,267.6,625.3z"/>
</svg>
