<?xml version="1.0" encoding="utf-8"?>
<!-- Generator: Adobe Illustrator 23.1.0, SVG Export Plug-In . SVG Version: 6.00 Build 0)  -->
<svg version="1.1" id="Camada_1" xmlns="http://www.w3.org/2000/svg" xmlns:xlink="http://www.w3.org/1999/xlink" x="0px" y="0px"
	 viewBox="0 0 290.9 176.1" style="enable-background:new 0 0 290.9 176.1;" xml:space="preserve">
<style type="text/css">
	.st0{display:none;fill:#FFFFFF;}
	.st1{display:none;}
	.st2{display:inline;fill:#1C6131;}
	.st3{display:inline;fill:#193C22;}
	.st4{display:none;fill:#1C6131;}
	.st5{display:none;fill:#193C22;}
	.st6{display:none;fill:#9C191B;}
	.st7{display:none;fill:#791615;}
	.st8{display:none;fill:#F19125;}
	.st9{display:none;fill:#FDFBFB;}
	.st10{display:inline;fill:#FDFBFB;}
	.st11{display:inline;fill:#F5F2F2;}
	.st12{display:inline;}
	.st13{fill:#FDFBFB;}
	.st14{fill:#F5F2F2;}
	.st15{fill:#FFDB6E;}
	.st16{fill:#FFFFFF;}
	.st17{fill:#F2B524;}
	.st18{opacity:0.1;}
	.st19{fill:#D53932;}
	.st20{fill:#CC2F2F;}
	.st21{fill:#1C6131;}
	.st22{fill:#195426;}
</style>
<path class="st0" d="M287,34c-5-17-16.9-27.1-33.7-31.6c2-18.2-3.5-33.3-18.5-44.1c-15-10.7-31.2-11.1-47.7-3.4
	c-8.3-16.3-21.3-25.4-39.7-26.6c-18.5-0.2-32.2,8-41.7,23.6c-16.1-6.8-31.7-6-46.1,4.3C45.3-33.4,39.6-18.9,41-1.5
	c-17.1,4-29.3,13.7-34.8,30.4c-5.6,16.8-1.6,31.9,9.7,45.2c-11.6,13.1-15.8,28.2-10.5,45c5.3,16.9,17.4,26.8,34.4,31
	c0,0.1,0,0.2,0,0.4c-0.6,4.5-0.6,9.1,0.2,13.6c2.1,11.9,8,21.6,17.7,28.8c7.4,5.5,15.7,8.4,24.8,8.8c1.8,0.1,3.6,0.1,5.4-0.1l0,0
	c-0.3,0.7-0.9,1.6-1.8,2.5c-1.8,1.6-3,1.2-4.6,2.4c-1.6,1.3-2.7,3.6-2.4,6c0.4,2.7,2.3,4.2,2.8,4.6c14.5,4,28.9,8,43.4,12.1
	c-0.8,0.3-2.8,1.2-3.9,3.4c-0.7,1.3-0.8,2.6-0.9,3.6c-0.1,0.9-0.1,2.4,0.6,4.2c0.4,0.9,0.8,2,2,2.7c1.1,0.7,2.2,0.7,2.8,0.7
	c0.7-0.1,1.6-0.3,2.8-0.6c4.1-1.3,6.7-3.7,8.4-5.3c5.6-5.3,8.8-12.7,9.8-14.9c0.3,1.3,0.8,2.8,1.4,4.4c0.6,1.5,1.3,2.8,1.9,3.9
	c-0.1,0.7-0.3,2,0.2,3.5c0.9,2.7,3.2,3.9,3.7,4.2c0.6,0.9,1.4,2.1,2.6,3.5c1.3,1.4,2.1,2.4,3.5,3.2c1.2,0.7,2.8,1.6,4.9,1.3
	c2.4-0.4,3.7-2.2,3.8-2.4c1.1-1.5,1-3.1,1-4.1c0-1.6-0.5-2.9-0.8-3.6c-0.1,0-0.1-0.1-0.2-0.1c12.7-3.4,25.5-6.8,38.2-10.2l0,0
	c0.3-0.2,4.5-3,4.2-7.2c-0.1-1.9-1.2-3.4-1.6-3.9c-1.5-2.1-3.5-2.9-4.8-3.4c-1.2-0.5-2.3-0.7-3.1-0.9c-0.2-0.3-0.5-0.6-0.7-0.9
	l-0.1-0.1c-0.3-0.5-0.6-1.1-0.9-1.7c-0.6-1.3-1.8-4.1-1.9-4.6c6.5,0.8,12.8,0.3,19.1-1.7c19.7-6.1,32.8-25,31.7-45.6
	c0-0.8-0.1-1.6-0.2-2.4c17.2-3.6,29.7-13,35.6-29.7s2.3-31.9-8.8-45.3C287.6,65.8,292,50.9,287,34"/>
<g class="st1">
	<path class="st2" d="M142.1,215.2c-0.4,0-1,0-1.7-0.1c-0.5,0-0.8-0.1-1.1-0.1l0,0c-1.2-0.2-2.4-0.4-3.8-0.6
		c-0.4,1.6-0.9,3.1-1.3,4.6c-0.9,2.3-1.9,4.7-2.8,7c-2.1,3.2-3.7,5.9-5.1,8c0,0-1.3,2.1-1.1,4.1c0,0.2,0.1,0.7,0.5,1
		c0,0,0.1,0.1,0.2,0.1c1,0.4,3.2-1,3.2-1c0.9-0.6,2.1-1.3,3.9-2.4c0,0,1.9-1.4,3.5-3.5c4-5.1,7.2-10.7,8.8-17.1
		C144.2,215.2,143.2,215.2,142.1,215.2z"/>
	<path class="st3" d="M139.3,215c0.4,0.1,0.9,0.1,1.3,0.1c0.5,0,0.9,0.1,1.4,0.1c-0.2,0.8-0.3,1.5-0.5,2.3c-0.7,2.9-1.6,5.7-3.1,8.3
		c-1.7,2.9-3.1,4.9-4.4,6.6c-0.4,0.5-0.9,1.1-1.7,1.9c-1.8,2-0.6,0.6-2.7,3c-0.2,0.2-0.7,0.8-1.4,1.3c-0.1,0-0.1,0.1-0.2,0.1
		c-0.7,0.4-1.7,0.7-1.9,0.5c-0.1-0.2,0.1-0.5,0.4-1c1-1.4,1.9-2.2,2.5-2.7c0.8-0.7,1.3-1.5,2.5-3c0.4-0.6,1.1-1.6,2.1-3.2
		c1.2-2,3.4-5.7,4.9-10.9C138.9,217,139.1,215.8,139.3,215z"/>
</g>
<path class="st4" d="M165.5,239L165.5,239c-0.4-1.4-4.3-13.1-6.3-20.7c-0.3-1-0.7-2.8-1.2-5c-2.3,0.6-4.6,1-7.1,1.4
	c-0.6,0.1-1.1,0.2-1.6,0.2c0.2,0.9,0.4,1.9,0.6,2.9c1.2,5.1,3.2,9.5,5.2,13c0.8,1.4,1.6,2.9,2.4,4.3c1,2.1,2.4,4.1,4.1,5.5
	c0.8,0.7,1.7,1.3,2.7,1.5c1.1,0.3,1.7-0.2,1.7-1.3C165.8,240.3,165.7,239.6,165.5,239z"/>
<path class="st5" d="M162.7,239.3c-0.8-1.6-1.6-3.1-2.4-4.6c-1.6-3.3-2.5-6.1-3.2-8.2c-0.8-2.8-1.4-5.6-2.1-8.8
	c-0.3-1.5-0.5-2.7-0.7-3.6c-0.7,0.1-1.3,0.3-2,0.4c0.2,2.1,0.6,4.6,1.3,7.4c0.3,1.2,0.7,2.8,1.4,4.9c0.1,0.3,0.4,1.2,0.8,2.3
	c0.2,0.6,1.1,2.7,3.1,6.7c1.4,2.6,2.2,3.9,3.8,4.7c0.2,0.1,0.4,0.2,0.5,0.2C163.1,240.2,162.9,239.7,162.7,239.3z"/>
<path class="st6" d="M279.9,35.8c-4.7-16.2-16-25.9-32.1-30.1c1.9-17.3-3.4-31.8-17.7-42c-14.4-10.2-29.8-10.6-45.5-3.2
	c-7.9-15.5-20.4-24.2-37.9-25.4c-17.6-0.2-30.7,7.6-39.8,22.5c-15.4-6.5-30.3-5.8-44,4.1S43.8-14.5,45.2,2.1
	c-16.3,3.8-27.9,13-33.2,29s-1.5,30.4,9.3,43.1c-11.1,12.5-15.1,26.8-10,42.9c5,16.1,16.5,25.5,32.8,29.5c0,0.1,0,0.2,0,0.3
	c-0.6,4.4-0.6,8.7,0.2,13c2,11.4,7.6,20.6,16.9,27.5c7,5.2,14.9,8,23.7,8.4c3.7,0.2,7.3-0.1,10.9-0.8c4.3,0.1,8.5,0.2,12.8,0.4
	c9.7,13.7,22.8,20.9,39.6,19.6c16.9-1.2,28.7-10.2,36.2-25c2.5,2.4,5.1,4.8,7.6,7.2c0.2,0,0.3,0,0.5,0c7.1,1.3,14.1,0.9,21-1.2
	c18.8-5.8,31.3-23.8,30.3-43.5c0-0.8-0.1-1.5-0.2-2.3c16.4-3.4,28.3-12.5,33.9-28.4c5.7-15.9,2.2-30.4-8.4-43.2
	C280.4,66.2,284.6,52,279.9,35.8z"/>
<path class="st6" d="M157.8,185.8c-0.8,1.1-1.6,2.2-2.4,3.3c-1.8,2.7-2.5,5.7-1.6,8.9c1.3,4.4,2.4,8.9,3.6,13.3
	c0.2,0.6,0.3,1.3,0.4,1.9c-1.1,0.3-2.3,0.5-3.4,0.8c-0.7,0.2-1.3,0.3-2,0.5c-1.1,0.2-2.2,0.3-3.2,0.5c-1.3,0.1-2.7,0.2-4,0.3
	c-1.1,0-2.1,0-3.2,0c-0.9-0.1-1.8-0.2-2.7-0.2c-1.2-0.2-2.5-0.4-3.7-0.6c-1.3-0.4-2.7-0.7-4-1.1c-0.1-2.7,0.5-5.2,1.1-7.8
	c1.3-4.9,2.6-9.8,3.9-14.7c0.3-1.2,0.6-2.5,0.8-3.7c0.3-1.8-0.2-3.4-0.9-5c-0.2-0.4-0.3-0.8-0.5-1.1c4.6,0.1,9.2,0.2,13.7,0.2
	c0,2,0,4.1,0,6.3c0.8-0.2,1.6-0.3,2.3-0.4C154,186.7,155.9,186.2,157.8,185.8"/>
<circle class="st7" cx="145.4" cy="75.2" r="106.1"/>
<circle class="st6" cx="145.4" cy="74.7" r="102.5"/>
<circle class="st7" cx="145.4" cy="74.7" r="95.1"/>
<path class="st8" d="M96.4,195c0.7-2,1.1-3.6,1.4-4.7c0.5-1.8,2-7.6,3.1-11.6c0.6-2.2,1.9-3.8,3.7-5.1c0.2-0.1,0.3-0.3,0.5-0.4
	c2-1.1,4.1-2.1,6.3-2.6l5.2-0.1c0.4,0.7,0.6,1.5,1.1,2c2.7,2.7,6.5,3,9.5,0.8c0.3-0.2,0.5-0.4,0.8-0.5c1.1,0.7,2.4,1.6,3.7,2.8
	c2.1,1.9,3.5,3.9,4.4,5.5c0.2,0.4,0.3,0.8,0.5,1.1c0.7,1.6,1.2,3.3,0.9,5c-0.2,1.3-0.5,2.5-0.8,3.7c-1.3,4.9-2.7,9.8-3.9,14.7
	c-0.7,2.5-1.2,5.1-1.1,7.8c-0.2,1.7,0.2,2.7,0.6,3.4c0.6,1.2,1.3,1.2,2.7,3.2c0.4,0.6,0.8,1.2,1.1,2.1s0.7,2.2,0.2,3.1
	c-0.9,1.4-3.9,0.9-4.7,0.8c-0.9-0.1-1.6-0.4-2.1-0.6c-23.8-6.5-40.5-11-42.2-11.3c-0.1,0-1-0.2-2-0.8c-1.5-0.9-1.8-2.3-0.8-3.7
	c0.5-0.7,1.2-1.4,2-1.8c1-0.5,2-1,3.1-1.2c0.8-0.2,1.4-0.5,2-0.9s0.9-0.9,1.2-1.4c1.3-2,1.9-3.6,1.9-3.6
	C95.2,199.3,95.9,197.4,96.4,195z"/>
<path class="st8" d="M188.6,184.6c0.6,0.8,1,1.6,1,1.6c0.2,0.5,0.5,1,0.6,1.8c0.8,3.1,1.7,6.1,2.5,9.2c1.1,3.7,2.1,7.5,3.3,11.2
	c0.5,1.6,1.3,3,2.2,4.4c0.8,1.4,2,2.2,3.6,2.6c1.2,0.3,2.3,0.9,3.4,1.5c0.7,0.4,1.2,1,1.7,1.6c0.9,1.3,0.6,2.6-0.8,3.5
	c-0.9,0.6-1.8,0.8-1.9,0.8c-1.7,0.3-19.7,5.3-45.1,12.4c-0.2,0-0.5,0.1-0.9,0.1c-2.1,0-2.9-1-2.9-1c-0.7-0.9-0.4-2.2-0.2-2.9
	c0.4-1.6,1.5-2.6,1.9-3c0.7-0.7,1.1-0.8,1.6-1.5c0.2-0.3,0.6-0.9,0.8-1.9c0.5-1.8,0.3-3.4,0.1-4.8c-0.2-1.3-0.4-2.4-0.9-4.2
	c-0.2-0.7-0.3-1.3-0.5-2l-0.1-0.4c-0.1-0.6-0.2-1.3-0.4-1.9c-1.2-4.4-2.4-8.9-3.6-13.3c-0.4-1.4-0.5-2.8-0.3-4.1
	c0.3-2.2,1.3-3.8,1.9-4.8c1.3-2.1,2.9-3.3,3.6-3.8c6.4-4.8,16.2-4.8,17.1-4.8C184.7,180.9,188,183.9,188.6,184.6z"/>
<g class="st1">
	<path class="st2" d="M128.1,172.9c0.1-0.3,0.2-0.6,0.3-0.9c0.1-0.3,0.2-0.6,0.2-0.9c0-0.9-0.1-1.8-0.2-2.7c2.1-0.6,4.6-1.1,7.5-1.4
		c3.6-0.3,6.7-0.1,9.2,0.2c-0.4,1.1-0.7,2.2-1,3.5c-0.7,3-0.8,5.6-0.8,7.8c-0.3,0-0.4,0-0.5,0c-3.4-0.4-7.6-1.5-12-3.9
		C129.8,174.1,128.9,173.5,128.1,172.9z"/>
	<path class="st2" d="M118.2,166c-0.3,0.4-0.9,1.1-1.2,2.2c-0.3,1-0.3,1.9-0.3,2.4c-1.1,0-2,0-2.6,0c-2.9,0-6.9-0.1-11.5-1.5
		c-0.8-0.2-1.5-0.5-1.8-0.6c0.9-1.4,1.4-2.7,1.8-3.6c0.9-2.2,1.3-4.2,1.8-6.1c0.1-0.5,0.2-0.9,0.2-1.2c0.2,0.1,0.5,0.2,0.9,0.3
		c4.2,1.5,7.1,3.6,9.3,5.3C115.7,163.9,116.9,164.8,118.2,166z"/>
	<path class="st2" d="M170.6,171.1l-1.9-4.7c-0.8-1.5-1.6-3-2.4-4.5c-1.5-2.7-3.7-4.9-6-6.9c-1.6-1.4-3.2-2.7-4.9-4
		c-3.3-2.5-4.9-2.8-5.5-3c-1.7-0.4-3.3-0.3-4.3-0.2c-0.4-0.1-0.8-0.1-1.2-0.2c-1-0.1-1.9-0.1-2.7,0c-0.9,0-2.1,0.2-3.5,0.4
		c-3.1,0.5-6,1.6-8.7,3.1c-2.3,1.2-4.5,2.7-6.2,4.8c-2.1,2.7-3.6,5.7-4.3,9.1c1.3-0.6,2.5-1.3,4-0.8c1.6,1,3.2,1.9,4.8,2.9
		c1.1-2.7,2.5-5.3,4.2-7.8c2.4-3.5,5.4-5.2,7.3-6.4c1.1-0.7,2.7-1.5,4.6-2.4c0.2-0.1,0.8-0.3,1.5-0.2c0.5,0.1,0.9,0.3,1.1,0.4
		c2.5,2.3,4.4,4.4,5.8,6.1c2.3,2.8,6.4,8.3,9.5,16.2c0.4,0.9,0.9,2.4,1.5,4.2c-5-1.2-9.9-1.6-14.8-1.3c0.2,0.9,0.5,1.8,0.7,2.7
		s0.4,1.8,0.6,2.7c-0.1,2.1-0.1,4.1-0.2,6.2c1-0.2,1.7-0.3,2.3-0.4c3.6-0.7,4.9-1.2,5.6-1.4c0.6-0.2,1-0.4,1.2-0.5
		c1-0.4,3.3-1.5,6.6-3c-0.1-0.1-1.9-2.8-0.7-5.5c1-2.3,3.9-3.7,6.7-3.1C171.1,172.7,170.8,171.9,170.6,171.1z"/>
	<path class="st2" d="M174.7,175.3c1.5-1.6,3.4-2.9,5.3-4c2.6-1.7,5.4-3.1,8.4-4.2c0.2-0.1,0.4-0.1,0.6-0.2c0.3,1.7,0.7,3.3,1,5
		c0.5,1.4,1.1,2.8,1.6,4.1c0.3,0.6,0.6,1.2,1,2c-3.7,1.1-7.4,1.5-11.2,1.9c-1.7-0.1-3.4-0.2-5.1-0.3c0.1-1-0.1-2-0.6-2.9
		C175.3,176.2,175,175.7,174.7,175.3"/>
	<path class="st3" d="M175.8,176.6c-0.1-0.2-0.4-0.8-1.1-1.4c-1.8-1.8-4.3-1.8-4.7-1.8c-0.5,0-1.2,0-2,0.3c-0.3-0.9-0.7-2.4-1.4-4.2
		c-2-5-5.5-14.1-14-18.9c-1.4-0.8-3.6-1.9-6.8-2.6c-2-0.1-7.2-0.2-12.7,3.1c-1.4,0.8-6,3.8-8.7,9.6c-0.5,1-0.8,2.1-1.2,3.3
		c-3.2-0.3-6.1,1.6-6.6,4.5c-0.6,3.1,1.8,6.1,5.2,6.7s6.7-1.3,7.3-4.4c0.5-2.7-1.3-5.4-4.2-6.4c0-0.1,0-0.2,0.1-0.3
		c0.3-0.7,0.7-1.4,1.1-2.1c1.4-2.3,2.8-4.5,4.7-6.5c2.8-2.9,5.8-4.2,7.6-5c2.9-1.3,5.4-1.9,7.3-2.2c3.3,1.1,5.5,2.6,6.8,3.7
		c1,0.8,1.7,1.6,2.3,2.2c1.8,1.9,3.1,3.8,4.1,5.3c1.1,1.7,2.2,3.4,3.1,5.2c1.6,3.2,3.2,6.3,4.8,9.5v0.1c-1.9,1-3.1,2.8-3.1,4.8
		c0,3.1,3.2,5.7,6.4,5.7c3.9,0,6.4-3.9,6.4-5.8C176.4,177.7,175.8,176.6,175.8,176.6z"/>
</g>
<circle class="st9" cx="146" cy="145.1" r="5"/>
<g class="st1">
	<path class="st10" d="M143,38.5c0-2.9,0-5.8,0-8.7c0-0.4,0-0.9,0.1-1.3c0.3-1.1,1.3-1.9,2.5-1.8c1.1,0,2.1,0.7,2.4,1.8
		c0.1,0.4,0.1,0.7,0.1,1.1c0,5.9,0,11.8,0,17.7c0,1.2-0.3,2.2-1.5,2.8c-1.4,0.7-3.1-0.1-3.5-1.7C143,48,143,47.5,143,47
		C143.1,44.2,143.1,41.3,143,38.5"/>
	<path class="st10" d="M125.1,9.3c0.2,0.1,0.7,0.2,1.2,0.5c5.3,3,10.6,6,15.9,8.9c1.7,0.9,1.7,2.6,1,3.7s-1.9,1.5-3.1,1
		c-0.5-0.2-1-0.5-1.5-0.8c-4.8-2.7-9.5-5.3-14.2-8c-0.4-0.2-0.9-0.5-1.2-0.8c-0.8-0.7-1-1.7-0.6-2.7C122.9,10,123.8,9.3,125.1,9.3"
		/>
	<path class="st10" d="M168.8,11.8c0,1.2-0.6,1.8-1.5,2.3c-2.8,1.6-5.6,3.3-8.5,4.9c-2.3,1.3-4.6,2.7-6.8,4c-0.3,0.2-0.6,0.4-1,0.5
		c-1.1,0.4-2.2,0-2.9-1.1s-0.6-2.3,0.3-3.1c0.3-0.2,0.6-0.4,0.9-0.6c5-2.9,10.1-5.9,15.1-8.8c0.2-0.1,0.4-0.3,0.7-0.4
		C167,8.7,168.9,9.9,168.8,11.8"/>
	<path class="st10" d="M148.1,4.2c0,1.4,0,2.8,0,4.2c0,0.9-0.2,1.6-0.9,2.2c-1.4,1.2-3.5,0.6-4-1.1c-0.1-0.3-0.2-0.6-0.2-1
		c0-2.8,0-5.7,0-8.5c0-1.2,0.5-2.1,1.6-2.6c1.7-0.7,3.4,0.5,3.5,2.5C148.2,1.4,148.1,2.8,148.1,4.2"/>
	<path class="st10" d="M136.1,31.3c0,0.9-0.4,1.6-1.2,2c-2.6,1.5-5.3,3-8,4.5c-1.3,0.7-2.7,0.2-3.4-1c-0.7-1.2-0.4-2.6,0.9-3.3
		c2.6-1.5,5.3-3.1,8-4.5C134.1,28,136.1,29.3,136.1,31.3"/>
	<path class="st10" d="M159.7,28.6c0.2,0.1,0.6,0.1,1,0.3c2.6,1.5,5.3,3.1,7.9,4.7c0.8,0.5,1.2,1.3,1.1,2.2c-0.1,1-0.6,1.8-1.5,2.2
		c-0.8,0.4-1.5,0.3-2.3-0.2c-2.6-1.5-5.2-3.1-7.8-4.7c-1-0.6-1.3-1.7-1-2.8C157.5,29.3,158.4,28.6,159.7,28.6"/>
</g>
<g class="st1">
	<path class="st11" d="M205.7,123.1c1.1,0.4,1.9,0.7,2.7,0.9c0.5,0.2,1,0.2,1.6,0.3c0.1,0,0.2,0,0.4,0.1c0.5,0.1,0.9,0.6,0.7,1
		s-0.7,0.5-1.2,0.3c-0.7-0.3-1.3-0.7-2-1c-0.2-0.1-0.5-0.1-0.8-0.1c-0.1,2.1,0.4,4,0.7,6c0.4,0.2,0.7,0.2,1,0.4
		c0.4,0.3,0.3,0.8-0.1,1c-0.6,0.4-1.4,0.1-1.6-0.6c-0.1-0.4-0.1-0.7-0.2-1.1c-0.1-0.4-0.2-0.7-0.3-1.1c-0.4-0.2-0.7-0.3-1.1-0.5
		c-1,0.4-1,1.4-1.2,2.4c-0.1,0.8-0.4,1.2-1.1,1c-0.3-0.1-0.6-0.3-0.7-0.6c-0.1-0.1,0.2-0.5,0.4-0.7s0.6-0.4,0.7-0.6
		c0.1-0.4,0.1-0.9,0.1-1.3c0-0.4-0.1-0.8-0.1-1.2c0.1-1,0.2-2,0.3-3.1c-0.9,0-1.7,0.2-2.3,0.5c-1.1,0.6-2.1,0.6-3.2-0.1
		c-0.4-0.3-0.9-0.4-1.4-0.6c-0.1,0.1-0.1,0.1-0.2,0.2c0.6,1,1.2,2,1.8,3.2c-0.7,0.3-1.4,0.5-2.1,0.7c0.1,0.5,0.1,0.9,0.2,1.3
		c0.1,0.2,0.3,0.5,0.5,0.5c0.4,0.2,0.9,0.3,0.7,0.8c-0.1,0.3-0.5,0.6-0.8,0.6s-0.8-0.3-1-0.6s-0.2-0.7-0.3-1.1
		c-0.1-0.5-0.2-1-0.3-1.5c-0.6,0-1.2,0-1.9,0c-0.1,0.7-0.2,1.5-0.3,2.2c-0.1,0.8-0.8,1.2-1.5,0.8c-0.5-0.3-0.6-0.9-0.1-1.1
		c1.1-0.4,0.8-1.3,1.1-2c-0.8-0.3-1.5-0.5-2.3-0.8c0.6-1.2,1.2-2.2,2-3.5c-0.6,0.1-1.1,0.1-1.4,0.3c-0.7,0.6-1.7,0.6-2.5,0.9
		c-0.3,0.1-0.8,0-1.1-0.2c-0.7-0.6-1.6-0.6-2.5-1c-0.1,2.2,0.5,4.2,0.7,6.1c0.4,0.2,0.7,0.2,1,0.4c0.4,0.3,0.4,0.8-0.1,1
		c-0.6,0.4-1.5,0.1-1.6-0.7c-0.2-0.7-0.3-1.4-0.4-1.9c-0.5-0.3-0.9-0.6-1.3-0.9c-0.3,0.6-1,1.1-1,2c0,0.3,0,0.6-0.1,0.8
		c-0.1,0.3-0.3,0.7-0.6,0.7c-0.4,0.1-0.8,0-1.1-0.2s-0.2-0.6,0.1-0.8c0.2-0.2,0.5-0.3,0.8-0.4c0.1-0.7,0.5-1.3,0-2
		c-0.2-0.2,0.1-0.8,0.2-1.2c0.1-0.9,0.2-1.8,0.3-2.8c-1,0-1.7,0.2-2.4,0.6c-0.9,0.6-2.2,0.5-3.1-0.1c-0.5-0.3-1-0.4-1.5-0.6
		c-0.1,0.1-0.1,0.2-0.2,0.2c0.6,1,1.2,2,1.8,3.2c-0.7,0.3-1.4,0.5-2.1,0.8c0.1,0.6,0.2,1.1,0.3,1.7c0.2,0.1,0.4,0.1,0.6,0.2
		c0.4,0.1,0.7,0.3,0.6,0.8c-0.1,0.4-0.7,0.7-1.1,0.6c-0.5-0.1-0.8-0.4-0.9-0.9c-0.1-0.7-0.3-1.4-0.5-2.2c-0.6,0-1.2,0-1.9,0
		c-0.1,0.8-0.3,1.5-0.3,2.3c0,0.5-0.3,0.8-0.6,0.8c-0.4,0-0.8-0.1-1.1-0.3c-0.1-0.1-0.1-0.6,0.1-0.7c0.2-0.2,0.5-0.3,0.8-0.5
		c0.1-0.5,0.2-1.1,0.3-1.6c-0.8-0.3-1.5-0.5-2.3-0.8c0.7-1.2,1.2-2.2,1.9-3.3c-0.6-0.2-1-0.1-1.4,0.1c-0.6,0.3-1.3,0.5-1.9,0.7
		c-0.8,0.3-1.2,0.1-1.8-0.3c-0.6-0.4-1.4-0.5-2.2-0.8c0,0.8-0.1,1.4,0,2c0.1,1.1,0.3,2.1,0.5,3.2c0.1,0.6,0.2,1.2,1,1.3
		c0.2,0,0.3,0.3,0.5,0.5c-0.2,0.7-0.7,0.8-1.3,0.7s-0.7-0.5-0.8-1c-0.1-0.6-0.3-1.3-0.4-1.8c-0.5-0.3-0.8-0.5-1.2-0.7
		c-0.1,0.5-1,0.7-1,1.5c0,0.4-0.1,0.7-0.1,1.1c-0.1,0.8-0.6,1.2-1.3,0.9c-0.2-0.1-0.5-0.4-0.5-0.6c0-0.1,0.2-0.5,0.4-0.6
		c0.5-0.2,0.8-0.4,0.8-1c0-0.4,0.3-0.8-0.1-1.2c-0.1-0.2,0-0.5,0-0.8c0.1-1.1,0.2-2.2,0.4-3.5c-0.9,0.2-1.6,0.3-2.2,0.6
		c-1.2,0.7-2.3,0.7-3.4-0.1c-0.2-0.1-0.4-0.2-0.7-0.3c-0.2-0.1-0.5-0.1-1-0.2c0.7,1.2,1.3,2.2,1.9,3.4c-0.7,0.3-1.3,0.5-2.1,0.8
		c0.1,0.6,0.2,1.2,0.3,1.7c0.2,0.1,0.3,0.1,0.4,0.1c0.4,0.1,0.9,0.3,0.8,0.8c-0.1,0.3-0.5,0.6-0.8,0.6s-0.8-0.2-1-0.5
		c-0.3-0.5-0.3-1.2-0.4-1.8c-0.1-0.2-0.1-0.5-0.2-0.8c-0.6,0-1.1,0-1.8,0c-0.1,0.7-0.3,1.5-0.4,2.3c-0.1,0.8-0.9,1.1-1.6,0.7
		c-0.4-0.3-0.5-0.9,0-1c1.1-0.4,0.8-1.3,1.1-2.1c-0.7-0.2-1.4-0.5-2.3-0.8c0.6-1.1,1.2-2.2,1.9-3.4c-0.5,0.1-0.9,0-1.1,0.1
		c-0.8,0.4-1.6,0.7-2.5,0.9c-0.5,0.2-0.9,0.1-1.4-0.1c-0.7-0.4-1.5-0.7-2.4-1.1c0,0.7-0.1,1.2,0,1.7c0.2,1.3,0.4,2.7,0.6,4
		c0.1,0.4,0.2,0.7,0.7,0.8c0.4,0.1,0.8,0.3,0.6,0.7c-0.1,0.2-0.4,0.5-0.7,0.6c-0.5,0.1-0.9,0-1.1-0.5c-0.1-0.3-0.2-0.7-0.2-1.1
		c-0.1-0.4-0.2-0.9-0.3-1.2c-0.4-0.3-0.8-0.5-1.2-0.7c-0.7,0.6-1.1,1.6-1.1,2.8c0,0.5-0.2,0.8-0.6,0.8c-0.4,0-0.8-0.1-1.1-0.3
		c-0.4-0.3-0.1-0.7,0.2-0.9c0.8-0.6,1-1.1,0.8-2c-0.1-0.3-0.1-0.7,0-1.1c0.1-1,0.5-2.1,0.2-3.3c-0.7,0.2-1.5,0.2-1.9,0.6
		c-0.8,0.7-1.6,0.4-2.4,0.5c-0.3,0-0.6-0.2-0.9-0.4c-0.5-0.4-1.1-0.5-1.9-0.7c0.7,1.2,1.3,2.2,1.9,3.4c-0.7,0.3-1.4,0.5-2.1,0.8
		c0.1,0.5,0.2,1.1,0.3,1.7c0.2,0.1,0.4,0.1,0.6,0.2c0.4,0.1,0.8,0.4,0.6,0.9c-0.2,0.3-0.7,0.5-1,0.5c-0.5,0-0.8-0.4-0.9-0.9
		c-0.1-0.7-0.3-1.4-0.5-2.2c-0.6,0-1.2,0-1.9,0c-0.1,0.8-0.3,1.5-0.3,2.3c0,0.5-0.3,0.8-0.6,0.8c-0.4,0-0.8-0.1-1.1-0.3
		c-0.3-0.2-0.2-0.7,0.2-0.8c1-0.4,0.9-1.2,1-2.1c-0.7-0.2-1.4-0.5-2.2-0.8c0.6-1.2,1.2-2.2,1.8-3.3c-0.1-0.1-0.1-0.2-0.2-0.2
		c-0.5,0.2-1.1,0.3-1.6,0.5c-0.3,0.1-0.6,0.3-0.9,0.4c-0.8,0.4-1.5,0.4-2.2-0.2c-0.5-0.4-1.3-0.5-2.1-0.7c-0.1,2.2,0.5,4.1,0.6,6.1
		c0.4,0.1,0.7,0.2,0.9,0.3c0.2,0.1,0.3,0.4,0.3,0.6c0,0.2-0.2,0.4-0.4,0.5c-0.7,0.3-1.3,0-1.5-0.8c-0.2-0.7-0.3-1.4-0.4-2
		c-0.4-0.3-0.8-0.5-1.2-0.8c-0.7,0.7-1.2,1.7-1.1,2.9c0,0.2-0.5,0.6-0.7,0.7c-0.3,0-0.8-0.1-1.1-0.4c-0.3-0.3,0-0.7,0.3-0.8
		c0.9-0.3,1-1.1,0.9-1.7c-0.3-0.9,0-1.6,0.1-2.4c0-0.7,0.1-1.4,0.1-2.3c-0.9,0.1-1.7,0.2-2.4,0.7c-0.8,0.5-2.1,0.4-2.9-0.1
		c-0.5-0.3-1-0.5-1.8-0.8c0.4,1.5,1.4,2.4,1.8,3.6c-0.7,0.3-1.4,0.5-2.1,0.8c0.1,0.6,0.2,1.2,0.4,1.8c0.2,0,0.3,0.1,0.5,0.1
		c0.4,0.1,0.8,0.3,0.7,0.8c-0.1,0.4-0.8,0.7-1.2,0.5c-0.3-0.2-0.5-0.5-0.6-0.8c-0.2-0.7-0.3-1.4-0.5-2.2c-0.3,0-0.6-0.1-0.8-0.1
		c-0.3,0-0.6,0-1,0c-0.1,0.8-0.3,1.5-0.3,2.3c0,0.5-0.3,0.7-0.6,0.8c-0.3,0.1-0.7,0-1-0.2c-0.4-0.2-0.4-0.8,0-0.9
		c1-0.4,0.9-1.2,1.1-2.1c-0.7-0.2-1.4-0.5-2.2-0.8c0.6-1.1,1.2-2.2,1.9-3.4c-0.5,0.1-0.9,0.1-1.2,0.2c-0.8,0.4-1.6,0.6-2.4,0.9
		c-0.6,0.2-1,0.2-1.5-0.2c-0.7-0.6-1.5-0.6-2.4-0.9c-0.2,2.2,0.5,4.1,0.6,6.1c0.3,0.1,0.6,0.1,0.8,0.3c0.2,0.2,0.4,0.5,0.4,0.7
		s-0.3,0.5-0.6,0.5c-0.7,0.2-1.2-0.1-1.3-0.9c-0.1-0.3-0.1-0.6-0.2-1c-0.1-0.3-0.1-0.6-0.2-1c-0.3-0.4-1.3,0.1-1.3-0.9
		c0,0.1,0,0.3-0.1,0.4c-0.8,0.6-0.8,1.5-0.9,2.4c-0.1,0.8-0.5,1.1-1.2,0.9c-0.2-0.1-0.5-0.3-0.6-0.5c0-0.2,0.2-0.5,0.4-0.7
		c0.8-0.6,0.9-1.1,0.7-2c-0.1-0.5-0.1-1,0-1.4c0.3-1.4,0.3-1.7,0.1-2.9c-0.6,0.2-1.3,0.2-1.8,0.5c-0.7,0.5-1.4,0.6-2.2,0.5
		c-0.4-0.1-0.8-0.2-1.2-0.4c-0.5-0.2-1-0.4-1.5-0.7c-0.1,0.1-0.1,0.2-0.2,0.2c0.6,1,1.2,2.1,1.8,3.2c-0.7,0.3-1.3,0.5-2.1,0.7
		c0.1,0.6,0.2,1.2,0.3,1.8c0.2,0.1,0.5,0.1,0.6,0.2c0.2,0.2,0.6,0.6,0.5,0.7c-0.2,0.3-0.5,0.6-0.8,0.7c-0.5,0.2-1-0.2-1.1-0.9
		c-0.2-0.8-0.3-1.5-0.5-2.3c-0.6,0-1.2,0-1.9,0c-0.1,0.8-0.3,1.5-0.4,2.3c-0.1,0.6-0.4,1-0.9,0.9c-0.3-0.1-0.6-0.4-1-0.6
		c0.2-0.2,0.4-0.5,0.6-0.7c0.1-0.1,0.3-0.1,0.5-0.2c0.1-0.6,0.2-1.1,0.4-1.7c-0.8-0.3-1.5-0.5-2.3-0.8c0.6-1.1,1.2-2.2,1.8-3.3
		c-0.1-0.1-0.1-0.2-0.2-0.2c-0.6,0.2-1.1,0.4-1.7,0.6c-0.2,0.1-0.4,0.3-0.7,0.3c-0.4,0.1-0.9,0-1-0.5s0.3-0.8,0.7-0.8
		c1.3-0.1,2.4-0.4,3.5-0.9c0.2-0.1,0.6-0.1,0.8-0.1c-0.1-0.8-0.9-1.3-1.6-1.1c-0.5,0.1-0.9,0.2-1.5,0.3c0.3-0.9,0.5-1.7,0.8-2.5
		c0.6-1.4,1.1-1.7,2.7-1.7c0.7,0,1.4-0.2,2,0.3c0.7,0.6,1,1.4,1.2,2.2c0.1,0.5,0.3,1,0.4,1.6c-0.7-0.1-1.3-0.2-2-0.2
		c-0.8,0.4-0.8,0.4-0.9,1c0.6,0.2,1.2,0.4,1.8,0.7c2.3,0.9,4.6,0.9,6.9-0.1c0.4-0.2,0.8-0.2,1.1-0.3c0.2-0.6-0.3-0.6-0.6-0.8
		c-0.8-0.5-1.2-1.2-1.1-2.2c0.1-0.9,0.6-1.4,1.4-1.8c1-0.4,2.1,0,2.7,0.9s0.4,2.1-0.5,2.8c-0.3,0.2-0.6,0.4-0.8,0.7c0,0,0,0.2,0,0.4
		c1.5,0.4,2.9,0.7,4.4,1.1c0.2,0,0.3,0.1,0.5,0.1c1.4-0.4,2.7-0.8,4.1-1.2c0.3-0.1,0.7-0.1,1.1-0.1c-0.2-0.8-1-1.2-1.7-1.1
		c-0.5,0.1-0.9,0.2-1.5,0.2c0.3-0.9,0.5-1.6,0.7-2.4c0.6-1.5,1.1-1.9,2.8-1.8c0.1,0,0.2,0,0.2,0c1.5-0.1,2,0.2,2.6,1.5
		c0.2,0.4,0.3,0.9,0.5,1.3c0.1,0.4,0.2,0.8,0.4,1.4c-0.6-0.1-1.3-0.2-2-0.2c-0.2,0.3-1,0.2-1,0.9c0.9,0.3,1.8,0.7,2.8,0.9
		c1.9,0.6,3.8,0.5,5.6-0.2c0.5-0.2,1-0.4,1.5-0.6c0.2-0.6-0.4-0.6-0.7-0.8c-1.3-0.9-1.4-2.7-0.1-3.6c1-0.7,2.4-0.5,3.1,0.4
		c0.7,1,0.6,2.2-0.3,3c-0.3,0.3-0.6,0.5-1.1,0.9c1.1,0.4,2,0.7,2.8,1c0.9,0.3,1.7,0.3,2.6,0.1c1.2-0.3,2.4-0.4,3.5-1
		c0.2-0.1,0.6,0,0.8-0.1c0-0.6,0-0.6-1.1-1.2c-0.6,0.1-1.3,0.2-2.1,0.4c0.3-1,0.5-1.9,0.9-2.7c0.6-1.3,1.1-1.6,2.6-1.5
		c0.1,0,0.2,0,0.4,0c1.3-0.1,2,0.3,2.6,1.6c0.2,0.4,0.3,0.9,0.4,1.3c0.1,0.4,0.2,0.8,0.3,1.3c-0.5-0.1-1-0.1-1.5-0.2
		c-0.7-0.2-1.4,0.3-1.5,0.9c0.7,0.2,1.3,0.5,1.9,0.7c2.3,0.9,4.6,0.9,6.9-0.2c0.3-0.1,0.7-0.2,1-0.3c0.2-0.6-0.3-0.6-0.6-0.8
		c-0.8-0.5-1.2-1.2-1.1-2.1c0.1-0.9,0.6-1.5,1.4-1.9c1-0.4,2.1,0,2.7,0.9c0.6,1,0.3,2-0.5,2.8c-0.3,0.3-1,0.2-0.8,1.1
		c1.4,0.4,2.9,0.7,4.4,1.1c0.2,0,0.3,0.1,0.5,0.1c1.4-0.4,2.7-0.8,4.1-1.2c0.3-0.1,0.7-0.1,1.1-0.1c-0.2-0.8-1-1.2-1.7-1.1
		c-0.5,0.1-0.9,0.2-1.5,0.2c0.3-0.9,0.4-1.7,0.7-2.4c0.6-1.5,1.1-1.8,2.8-1.8c0.9,0,1.7-0.1,2.2,0.6c0.4,0.6,0.7,1.2,0.9,1.9
		c0.2,0.5,0.3,1,0.5,1.7c-0.7-0.1-1.3-0.2-2-0.3c-0.8,0.5-0.8,0.5-0.9,1c0.6,0.2,1.3,0.4,1.9,0.7c2.3,0.8,4.5,0.9,6.8-0.2
		c0.3-0.2,0.7-0.2,1.1-0.3c0-0.6-0.6-0.6-0.9-0.8c-0.9-0.6-1.2-1.8-0.7-2.8c0.5-0.9,1.5-1.4,2.5-1.1c1.2,0.3,1.8,1.3,1.7,2.4
		c-0.1,0.7-0.5,1.1-1,1.5c-0.2,0.2-0.5,0.4-0.9,0.7c1.8,0.6,3.3,1.5,5,1.4c1.3-0.1,2.5-0.6,3.8-0.9c0.5-0.1,1-0.3,1.5-0.5
		c-0.1-0.7-0.9-1.2-1.6-1c-0.3,0.1-0.6,0.2-0.8,0.2s-0.4,0-0.7-0.1c0.2-0.8,0.4-1.6,0.7-2.4c0.6-1.4,1.1-1.7,2.7-1.7
		c0.7,0,1.4-0.2,2,0.3c0.7,0.6,1,1.4,1.3,2.2c0.1,0.5,0.3,1,0.4,1.6c-0.7-0.1-1.3-0.2-2-0.2c-0.8,0.4-0.8,0.4-0.9,1
		c0.6,0.2,1.2,0.4,1.8,0.7c2.3,0.9,4.6,0.9,6.9-0.1c0.4-0.2,0.8-0.2,1.1-0.3c0.2-0.6-0.3-0.6-0.6-0.8c-0.8-0.5-1.2-1.2-1.1-2.2
		c0.1-0.9,0.6-1.4,1.4-1.8c1-0.4,2.1,0,2.7,0.9c0.6,0.9,0.4,2-0.4,2.8c-0.3,0.3-1,0.3-0.9,1c1,0.3,2,0.7,3.1,1
		c0.8,0.2,1.6,0.4,2.5,0c0.8-0.4,1.8-0.3,2.6-0.5c0.6-0.2,1.2-0.4,1.8-0.6c-0.2-0.7-0.9-1.1-1.7-1c-0.5,0.1-0.9,0.2-1.5,0.2
		c0.3-0.9,0.5-1.7,0.8-2.5c0.6-1.4,1.1-1.8,2.7-1.7c0.1,0,0.2,0,0.2,0c1.5-0.1,2,0.2,2.6,1.5c0.3,0.8,0.5,1.6,0.9,2.6
		c-0.7-0.1-1.3-0.2-2.1-0.2c-0.8,0.4-0.8,0.4-1,0.9c0.9,0.3,1.8,0.6,2.7,0.9c2,0.6,4,0.5,6-0.3c0.4-0.2,0.8-0.2,1.1-0.4
		c0.2-0.6-0.4-0.6-0.7-0.8c-1.3-0.9-1.4-2.7-0.2-3.6c1-0.7,2.4-0.5,3.1,0.4c0.7,1,0.6,2.2-0.3,3
		C206.5,122.4,206.2,122.7,205.7,123.1"/>
	<g class="st12">
		<path class="st13" d="M156.7,70.1c-0.7,1.3-1.4,2.7-2.1,4c-0.8,1.4-1.5,2.9-2.3,4.3c-0.8,1.5-2.9,1.5-3.7,0
			c-1.2-2.3-2.4-4.6-3.6-6.9c-0.2-0.4-0.5-0.9-0.8-1.5c-0.3,1.1-0.1,2-0.1,2.9s0,1.8,0,2.7c0,1,0,1.9,0,2.9c0,0.9,0,1.8,0,2.8
			c-1.3,0-2.4,0-3.6,0c0-5.9,0-11.8,0-17.9c1.2,0,2.4,0,3.7,0c0.6,0,0.8,0.5,1,0.9c1.7,3.4,3.4,6.8,5.1,10.2
			c0.1,0.1,0.1,0.2,0.2,0.5c0.2-0.3,0.3-0.6,0.5-0.9c1.7-3.3,3.3-6.6,5-9.9c0.3-0.6,0.7-0.9,1.5-0.9c1.1,0,2.1,0,3.3,0
			c0,6,0,11.9,0,17.9c-1.2,0-2.3,0-3.6,0c0-3.7,0-7.4,0-11.1C156.9,70.1,156.8,70.1,156.7,70.1"/>
		<path class="st13" d="M164.2,63.4c0.2,0,0.5-0.1,0.7-0.1c2.1,0,4.2,0,6.3,0c1.2,0,2.5,0.1,3.6,0.6c2.1,0.9,3.1,2.7,2.7,5
			c-0.2,1-0.7,1.7-1.5,2.3c-0.4,0.3-0.8,0.5-1.2,0.7c0.2,0.1,0.3,0.1,0.4,0.2c3,1.3,3.8,4.6,1.5,7.1c-1.2,1.3-2.7,1.9-4.4,2
			c-2.7,0.1-5.4,0-8.2,0C164.2,75.3,164.2,69.3,164.2,63.4 M168.4,78.2c1,0,1.9,0,2.8,0c0.3,0,0.7-0.1,1-0.1c1.2-0.2,1.8-1,1.7-2.3
			c0-1.2-0.6-1.8-1.8-1.9s-2.4,0-3.7,0C168.4,75.3,168.4,76.6,168.4,78.2 M168.4,66.4c0,1.5,0,2.9,0,4.4c0.9,0,1.7,0,2.5,0
			c0.2,0,0.5,0,0.7-0.1c1.3-0.3,1.8-0.9,1.8-2.2s-0.6-1.9-1.9-2C170.6,66.3,169.5,66.4,168.4,66.4"/>
		<path class="st13" d="M77.9,81.4c0-6,0-11.9,0-17.8c0.2,0,0.4-0.1,0.6-0.1c2.3,0,4.6-0.1,6.9,0c4.1,0.1,7.2,2.3,8.4,5.8
			c1.9,5.9-1.5,11.9-8.4,12.1c-2.2,0.1-4.5,0-6.7,0C78.4,81.4,78.2,81.4,77.9,81.4 M82.1,78.1c1.3,0,2.5,0.1,3.7,0
			c1.8-0.2,3-1.3,3.6-3c0.7-1.9,0.7-3.7-0.1-5.6c-0.5-1.2-1.4-2.1-2.7-2.6c-1.5-0.5-3.1-0.3-4.6-0.3C82.1,70.6,82.1,74.3,82.1,78.1"
			/>
		<path class="st13" d="M134.8,89.1c3.2,0.1,6.4-0.4,9.5,0.3c4.8,1,7.3,4.9,6.8,10c-0.4,4.3-4.1,7.6-8.6,7.7c-2.5,0.1-5,0-7.6,0
			C134.8,101.1,134.8,95.2,134.8,89.1 M139,103.8c1.3,0,2.6,0.1,3.8,0c1.9-0.3,3.1-1.5,3.6-3.3c0.5-1.6,0.5-3.2,0-4.8
			c-0.5-1.5-1.5-2.7-3.1-3.1c-1.4-0.4-2.9-0.2-4.4-0.2C139,96.3,139,100,139,103.8"/>
		<path class="st13" d="M102.4,107.3c-4.7,0-8.3-2.5-9.3-6.5c-1.6-5.9,2.1-11.6,8.8-11.8c1.3,0,2.6,0.1,3.8,0.6
			c4.5,1.6,6.2,5.7,5.8,9.6c-0.5,4.4-3.6,7.5-7.9,8C103.1,107.3,102.6,107.3,102.4,107.3 M107.2,97.4c0-0.3,0-0.5-0.1-0.7
			c-0.1-0.4-0.3-1.9-1.5-2.9c-0.8-0.7-1.8-1.1-3-1.2c-2.6-0.2-4.6,1.1-5.2,3.6c-0.4,1.5-0.4,2.9,0.1,4.4c0.6,1.9,1.9,3,4,3.2
			c0.6,0.1,1.2,0,1.7,0c1-0.1,1.8-0.5,2.5-1c0.7-0.6,1-1.3,1.1-1.6s0.2-0.5,0.2-0.7C107.2,99.1,107.2,98,107.2,97.4z"/>
		<path class="st13" d="M195.7,72.2c0-5.2,3.8-9.1,9-9.1c1.1,0,2.2,0.1,3.2,0.3c4.3,1.1,7,5,6.7,9.5c-0.3,4.4-3.5,7.8-8,8.3
			c-1.6,0.2-3.1,0.1-4.7-0.4C198.1,79.7,195.7,76.3,195.7,72.2 M210.1,70.8c-0.1-0.7-0.4-2-1.5-3c-1.2-1-2.5-1.2-3.1-1.2
			c-2.6-0.1-4.5,1.2-5.2,3.7c-0.4,1.4-0.3,2.8,0.1,4.2c0.5,1.7,1.5,2.9,3.2,3.3c0.5,0.1,2.9,0.7,4.8-0.8c1.5-1.2,1.7-3.1,1.8-4
			C210.3,71.8,210.1,71,210.1,70.8z"/>
		<path class="st13" d="M212.4,98c0,4.9-3.3,8.6-8.2,9.1c-1.5,0.2-3.1,0-4.5-0.4c-3.8-1.3-6.2-4.7-6.1-8.8c0.2-5.2,3.9-8.8,9.1-8.9
			c1.3,0,2.6,0.1,3.9,0.6C210.2,90.8,212.4,94,212.4,98 M208,96.6c-0.1-0.4-0.2-0.9-0.4-1.4c-0.1-0.3-0.5-1.1-1.3-1.8
			c-0.9-0.7-2-1-3.3-1c-2.1,0-3.7,0.8-4.5,2.8c-0.8,1.9-0.7,3.8,0,5.7c0.5,1.3,1.6,2.3,3,2.6c0.6,0.1,2.9,0.7,4.8-0.8
			c1.6-1.3,1.8-3.4,1.8-4C208.2,97.7,208,96.8,208,96.6z"/>
		<path class="st13" d="M190.6,73.6c2.1,2.2,3.2,5,5,7.6c-1.6,0-2.9,0-4.2,0c-0.6,0-1-0.5-1.3-1c-0.8-1.4-1.6-2.8-2.4-4.2
			c-0.6-1.1-1.3-1.7-2.7-1.3c0,2.1,0,4.3,0,6.5c-1.5,0-2.8,0-4.2,0c0-5.9,0-11.9,0-17.9c1,0,2,0,3,0c1.5,0,3.1,0,4.6,0.1
			c0.7,0,1.4,0.2,2,0.4c2,0.6,3.2,2,3.5,4.1c0.2,2.1-0.5,3.9-2.3,5.1C191.2,73.3,190.9,73.4,190.6,73.6 M185,71.7
			c1-0.1,1.9-0.1,2.9-0.2c1.3-0.3,1.9-1.3,1.9-2.7c0-1.3-0.6-2-2-2.3c-0.9-0.2-1.9-0.2-2.8,0C185,68.2,185,69.9,185,71.7"/>
		<path class="st13" d="M180.4,99.4c2.1,2.2,3.2,5,5,7.6c-1.6,0-3,0-4.3,0c-0.6,0-0.9-0.5-1.2-1c-0.8-1.4-1.6-2.9-2.5-4.3
			c-0.8-1.4-0.8-1.4-2.6-1.3c0,2.2,0,4.3,0,6.6c-1.5,0-2.8,0-4.2,0c0-5.9,0-11.8,0-17.9c0.4,0,0.8,0,1.2,0c2.1,0,4.1,0,6.2,0.1
			c0.7,0,1.5,0.2,2.2,0.4c2,0.6,3.2,2,3.5,4.1c0.2,2.1-0.5,3.9-2.3,5.2C181.1,99.1,180.7,99.3,180.4,99.4 M174.9,92.1
			c0,1.9,0,3.6,0,5.4c0.9-0.1,1.7-0.1,2.5-0.2c1.4-0.2,2.1-1.2,2.2-2.6c0-1.4-0.6-2.2-2-2.5C176.7,92.2,175.9,92.2,174.9,92.1"/>
		<path class="st13" d="M157.9,89.2c1.5,0,2.9,0,4.4,0c2.3,5.9,4.6,11.9,7,17.9c-1.2,0-2.3,0-3.4,0c-0.7,0-1.1-0.5-1.3-1.1
			c-0.3-0.9-0.6-1.9-1-2.8c-2.3,0-4.6,0-6.9,0c-0.3,0.9-0.6,1.8-0.9,2.7c-0.4,1.1-0.7,1.3-1.8,1.3c-0.9,0-1.9,0-3,0
			C153.3,101.1,155.6,95.1,157.9,89.2 M157.6,100.1c1.7,0,3.2,0,4.9,0c-0.8-2.3-1.6-4.6-2.4-7C159.2,95.5,158.4,97.7,157.6,100.1"/>
		<path class="st13" d="M123.5,81.3c-4.6,0-9.2,0-13.8,0c-0.2-1.2,0-2.3,0.7-3.3c2.4-3.4,4.8-6.8,7.2-10.2c0.2-0.3,0.4-0.7,0.8-1.2
			c-2.8,0-5.4,0-8,0c0-1.1,0-2.1,0-3.2c4.4,0,8.9,0,13.4,0c0.2,1.1,0.1,2.1-0.6,3.1c-2.5,3.5-4.9,7-7.3,10.4
			c-0.2,0.3-0.5,0.7-0.8,1.1c2.9,0,5.6,0,8.4,0C123.5,79.2,123.5,80.2,123.5,81.3"/>
		<path class="st13" d="M108.3,78.1c0,1.2,0,2.1,0,3.2c-3.8,0-7.6,0-11.5,0c0-5.9,0-11.9,0-17.8c3.8,0,7.6,0,11.5,0c0,1,0,2,0,3.2
			c-2.4,0-4.8,0-7.3,0c0,1.5,0,2.8,0,4.2c1.9,0,3.7,0,5.5,0c0,1.1,0,2,0,3.1c-1.8,0-3.6,0-5.5,0c0,1.4,0,2.8,0,4.2
			C103.4,78.1,105.8,78.1,108.3,78.1"/>
		<path class="st13" d="M130.3,73.9c0,1.5,0,2.8,0,4.2c1.2,0,2.4,0,3.6,0c1.2,0,2.4,0,3.7,0c0,1.1,0,2.1,0,3.2c-3.8,0-7.6,0-11.5,0
			c0-5.9,0-11.9,0-17.8c3.8,0,7.6,0,11.5,0c0.1,1,0,2,0.1,3.2c-2.5,0-4.9,0-7.4,0c0,1.5,0,2.8,0,4.2c1.9,0,3.7,0,5.5,0
			c0,1.1,0,2,0,3.1C134,73.9,132.2,73.9,130.3,73.9"/>
		<path class="st13" d="M78.6,105c0.4-0.6,0.7-1.2,1.1-1.8c0.5-0.7,1-0.8,1.8-0.4c0.6,0.3,1.1,0.6,1.6,0.9c0.9,0.4,1.9,0.5,2.9,0.2
			c0.7-0.2,1.1-0.7,1.2-1.4c0.1-0.8-0.1-1.4-0.8-1.8c-0.6-0.3-1.2-0.5-1.8-0.7c-0.8-0.3-1.6-0.5-2.3-0.8c-3.7-1.3-3.8-5.9-1.7-8
			c0.9-0.9,1.9-1.5,3.2-1.8c2.4-0.5,4.7-0.1,6.7,1.3c0.1,0.1,0.2,0.1,0.3,0.2c0.1,0.1,0.1,0.1,0.2,0.3c-0.3,0.6-0.6,1.2-1,1.8
			c-0.4,0.7-0.8,0.8-1.6,0.5c-0.4-0.2-0.8-0.4-1.2-0.6c-0.9-0.4-1.8-0.4-2.7-0.2c-0.7,0.2-1.2,0.6-1.3,1.3c-0.1,0.7,0.1,1.2,0.9,1.6
			c0.5,0.3,1.1,0.5,1.7,0.7c0.7,0.3,1.5,0.5,2.2,0.8c4.6,1.6,3.7,7.2,1.1,9c-1.1,0.8-2.3,1.2-3.6,1.3c-2.3,0.2-4.3-0.4-6.2-1.7
			C79.1,105.5,78.9,105.2,78.6,105"/>
		<path class="st13" d="M114.1,89.2c1.4,0,2.7,0,4.1,0c0,4.8,0,9.6,0,14.6c2.3,0,4.4,0,6.6,0c0,1.2,0,2.2,0,3.2
			c-0.9,0.2-8.2,0.3-10.8,0.1C114.1,101.2,114.1,95.2,114.1,89.2"/>
		<path class="st13" d="M127.1,107.1c0-6,0-11.9,0-17.9c1.4,0,2.7,0,4.1,0c0,5.9,0,11.8,0,17.9C129.9,107.2,128.5,107.2,127.1,107.1
			"/>
		<path class="st13" d="M187.1,89.1c1.4,0,2.7,0,4.1,0c0,6,0,11.9,0,17.8c-1.3,0-2.7,0-4.1,0C187.1,101.1,187.1,95.1,187.1,89.1"/>
		<path class="st14" d="M157.6,87.9c0.9-1.3,1.7-2.4,2.5-3.5c0.1-0.2,0.4-0.3,0.6-0.3c1.5,0,3.1,0,4.9,0c-1.5,1.3-2.7,2.4-4,3.5
			c-0.2,0.2-0.6,0.3-0.9,0.4C159.8,87.9,158.9,87.9,157.6,87.9"/>
	</g>
</g>
<g>
	<g>
		<rect x="187.8" y="51" class="st15" width="96.1" height="116.6"/>
		<path class="st16" d="M230.9,20.6c-2.6-2.1-6.3-5-11.2-8c-8.9-5.5-16.8-10.4-22.4-7.4c-2.8,1.5-3.9,4.4-4.4,5.7
			c-1.6,4.3-0.7,9,1.6,12.2c1.6,2.3,3.7,3.5,5.1,4.2c9.9,5,29.7,8,32.9,1.3C233.3,27.1,233.4,24.7,230.9,20.6z"/>
		<path class="st16" d="M241.6,22c2.5-2.2,6.1-5.3,10.7-8.5c8.6-5.9,16.3-11.2,21.9-8.6c2.8,1.4,4.1,4.2,4.7,5.5
			c1.9,4.2,1.2,8.9-0.9,12.2c-1.5,2.4-3.5,3.7-4.8,4.5c-9.6,5.5-29.3,9.6-32.8,3C239.7,28.7,239.4,26.3,241.6,22z"/>
		<rect x="185.3" y="27.2" class="st17" width="101.3" height="34"/>
		<path class="st16" d="M235.7,18.7L235.7,18.7c-3.9,0-7.1,3.2-7.1,7.1v73c0,3.9,3.2,7.1,7.1,7.1h0c3.9,0,7.1-3.2,7.1-7.1v-73
			C242.8,21.9,239.6,18.7,235.7,18.7z"/>
		<rect x="228.5" y="51" class="st16" width="14.3" height="116.6"/>
		<rect x="187.9" y="61.3" class="st18" width="96.1" height="9.3"/>
	</g>
	<g>
		<rect x="7.1" y="114.2" class="st19" width="103.3" height="59.2"/>
		<path class="st16" d="M53.5,81.5c-2.8-2.3-6.8-5.4-12-8.6c-9.5-5.9-18.1-11.2-24-8c-3,1.6-4.2,4.8-4.7,6.1
			c-1.8,4.6-0.8,9.6,1.7,13.1c1.8,2.5,4,3.8,5.5,4.5c10.7,5.4,31.9,8.6,35.4,1.4C55.9,88.4,56.1,85.9,53.5,81.5z"/>
		<path class="st16" d="M64.9,83.1c2.6-2.4,6.5-5.7,11.5-9.2c9.2-6.4,17.5-12.1,23.6-9.2c3.1,1.5,4.4,4.6,5,5.9
			c2,4.5,1.3,9.6-1,13.2c-1.6,2.6-3.8,4-5.2,4.8c-10.4,6-31.5,10.3-35.3,3.2C62.8,90.2,62.5,87.6,64.9,83.1z"/>
		<rect x="4.4" y="88.7" class="st20" width="108.9" height="25.6"/>
		<path class="st16" d="M58.6,79.5L58.6,79.5c-4.2,0-7.7,3.4-7.7,7.7v78.5c0,4.2,3.4,7.7,7.7,7.7h0c4.2,0,7.7-3.4,7.7-7.7V87.2
			C66.2,83,62.8,79.5,58.6,79.5z"/>
		<rect x="50.9" y="114.2" class="st16" width="15.4" height="59.2"/>
		<rect x="7.1" y="114.2" class="st18" width="103.3" height="10"/>
	</g>
	<g>
		<rect x="85.3" y="103.6" class="st21" width="121.9" height="69.9"/>
		<path class="st16" d="M140,64.9c-3.3-2.7-8-6.3-14.1-10.1c-11.3-6.9-21.4-13.2-28.4-9.4c-3.5,1.9-5,5.6-5.6,7.2
			c-2.1,5.4-0.9,11.4,2,15.4c2.1,3,4.7,4.5,6.4,5.3C112.9,79.8,138,83.6,142,75C142.9,73.2,143.1,70.1,140,64.9z"/>
		<path class="st16" d="M153.5,66.8c3.1-2.8,7.7-6.7,13.6-10.8c10.9-7.5,20.7-14.3,27.8-10.9c3.6,1.7,5.2,5.4,5.9,6.9
			c2.4,5.3,1.5,11.3-1.2,15.5c-1.9,3.1-4.5,4.7-6.1,5.7c-12.2,7-37.1,12.1-41.6,3.8C151,75.2,150.7,72.2,153.5,66.8z"/>
		<rect x="82" y="73.4" class="st22" width="128.5" height="30.2"/>
		<path class="st16" d="M146,62.6L146,62.6c-5,0-9.1,4.1-9.1,9.1v92.7c0,5,4.1,9.1,9.1,9.1h0c5,0,9.1-4.1,9.1-9.1V71.7
			C155,66.7,151,62.6,146,62.6z"/>
		<rect x="136.9" y="103.6" class="st16" width="18.1" height="69.9"/>
		<rect x="85.3" y="103.6" class="st18" width="121.9" height="11.8"/>
	</g>
</g>
</svg>
