<?xml version="1.0" encoding="utf-8"?>
<!-- Generator: Adobe Illustrator 23.1.0, SVG Export Plug-In . SVG Version: 6.00 Build 0)  -->
<svg version="1.1" id="Camada_1" xmlns="http://www.w3.org/2000/svg" xmlns:xlink="http://www.w3.org/1999/xlink" x="0px" y="0px"
	 viewBox="0 0 448.3 294.9" style="enable-background:new 0 0 448.3 294.9;" xml:space="preserve">
<style type="text/css">
	.st0{fill:#FFBB89;}
	.st1{fill:#FFDB6E;}
	.st2{fill:#F2B524;}
	.st3{fill:#FFFFFF;}
	.st4{fill:#6C4935;}
	.st5{fill:none;}
	.st6{fill:#F7CCB0;}
	.st7{fill:#C44545;}
	.st8{fill:#E6E6E6;}
	.st9{fill:#D2D2D2;}
	.st10{fill:#993932;}
	.st11{fill:#195426;}
	.st12{fill:#1C6131;}
	.st13{fill:#D53932;}
	.st14{fill:#CC2F2F;}
</style>
<g>
	<rect x="313" y="137.7" class="st0" width="48.8" height="48.8"/>
	<path class="st1" d="M439.5,209c-1.1-5.6-2.1-10.8-3.3-15.8l0,0c-2.8-18.7-19-33.2-38.5-33.2c-10.6,0-21.1,0-31.6,0
		c-9.6,9.4-18.8,18.7-28.4,28.1c-9.2-9.4-18.4-18.7-27.6-28.1c-10.8,0-21.6,0-32.4,0c-3.1,0-15,0.3-25.5,9.6
		c-6.9,6-11.5,14.3-13,23.6l0,0c-1.2,5-2.5,10.4-3.6,15.7c-2.1,11.1-3.7,21.8-4.8,31.9c15.5,0,31.2,0,46.7,0h119.7
		c15.4,0,30.7,0,45.9,0C442.9,231,441.7,220.4,439.5,209z"/>
	<path class="st2" d="M398.7,240.6H275.8v-80.7c8.5,0,16.7,0,25.2,0c12.6,10.9,25.1,21.8,37.7,32.7c11.5-10.9,22.8-21.8,34.4-32.7
		c8.6,0,17.3,0,25.8,0C398.7,187.1,398.7,213.9,398.7,240.6z"/>
	<path class="st3" d="M374,161.1C373.9,160.9,373.9,160.9,374,161.1c-3.1-2.8-6.1-5.4-9-8c0,0-0.3-0.3-0.7-0.3
		c-0.4,0-0.7,0.3-0.7,0.3c-8.9,10.4-17.8,20.7-26.7,31.1c-8.9-10.4-17.8-20.7-26.5-31.1c-0.1,0-0.3-0.1-0.7-0.3
		c-0.3,0-0.7,0.1-0.8,0.1c-2.9,2.5-5.8,5-8.8,7.6c0,0-0.1,0.1-0.1,0.3c0,0.1,0.1,0.3,0.1,0.4c12.3,14.3,24.6,28.5,36.9,42.9
		C349.2,190.1,373.9,161.3,374,161.1C373.9,161.3,374,161.2,374,161.1z"/>
	<path class="st4" d="M293.8,93c0.9,3.2,1.9,6.2,2.8,9.6c0.3-5.6,0.8-11.1,1.1-16.7c1.6-1.7,3.2-3.8,4.9-6.1
		c2.1-3.2,3.7-6.1,4.9-8.8c1.9,0.4,4.9,1.2,8.6,1.6c6.5,0.4,11.4-0.4,28-4.9c3.7-0.9,7.8-2,12.5-3.3c0.8,2.5,2.1,6.1,5.4,9.4
		c2.3,2.5,4.6,3.7,5.4,4.1c3.7,2.1,8.6,8,13.3,24c0.1-2.9,0.3-6,0.3-8.9c0.1-2.8,0.1-6.8-0.4-11.4c-1.1-10.1-2.5-21.2-9.8-25.2
		c-1.7-0.9-5.8-2.7-12.9-0.7c-0.3-0.9-0.9-2.1-1.9-3.6c0,0-1.2-1.7-2.9-3.1c-3.6-2.7-20.2-4.6-37.8,5.8c-4,2.5-7,4.8-8.8,6.2
		c-1.2,0.4-2.9,1.2-4.8,2.7c-1.3,1.1-2.5,2.1-3.1,2.8c-3.3,3.7-3.8,9-3.8,10.9C294.4,82.6,294.2,87.8,293.8,93z"/>
	<g>
		<path class="st4" d="M380.4,81.3c-0.1-0.8-0.1-1.7-0.3-2.5c0-0.1,0-0.4,0-0.7c-1.1-9.2-2.8-18.4-9.4-22.2
			c-1.7-0.9-5.8-2.7-12.9-0.7c-0.3-0.9-0.9-2.1-1.9-3.6c0,0-1.2-1.7-2.9-3.1c-3.6-2.7-20.2-4.6-37.8,5.8c-4,2.5-7,4.8-8.8,6.2
			c-1.2,0.4-2.9,1.2-4.8,2.7c-1.3,1.1-2.5,2.1-3.1,2.8c-3.3,3.7-3.8,9-3.8,10.9c-0.1,2.9-0.3,5.8-0.3,8.8l0,0
			c-0.1,2.3-0.1,4.6-0.3,6.9c0.9,3.2,1.9,6.2,2.8,9.6c0.3-5.6,0.8-11.1,1.1-16.7c0.1-0.1,0.1-0.1,0.3-0.3l0,0c1.6-1.7,3.1-3.7,4.6-6
			c2.1-3.2,3.7-6.1,4.9-8.8c1.9,0.4,4.9,1.2,8.6,1.6c6.5,0.4,11.4-0.4,28-4.9c3.7-0.9,7.8-2,12.5-3.3c0.8,2.5,2.1,6.1,5.4,9.4
			c2.3,2.5,4.6,3.7,5.4,4.1c1.3,0.8,2.8,2,4.2,4c0.4,0.7,1.1,1.3,1.6,2.3l0,0c0.1,0.3,0.3,0.7,0.4,0.8c0,0,0,0,0,0.1
			c0.1,0.3,0.3,0.7,0.4,0.9l0,0c0.3,0.7,0.8,1.3,1.1,2c0,0,0,0.1,0.1,0.1c0.1,0.3,0.3,0.7,0.4,0.9c0,0,0,0.1,0.1,0.1
			c0.3,0.8,0.8,1.6,1.1,2.5c0,0.1,0.1,0.1,0.1,0.3c0.1,0.3,0.3,0.7,0.4,1.1c0,0.1,0.1,0.3,0.1,0.4c0.1,0.3,0.3,0.8,0.4,1.1
			c0,0.1,0,0.1,0.1,0.3c0.1,0.4,0.3,0.9,0.4,1.6c0,0.1,0,0.1,0.1,0.3c0.1,0.4,0.3,0.8,0.4,1.2c0,0.1,0.1,0.3,0.1,0.4
			c0.1,0.3,0.3,0.8,0.3,1.2c0,0.1,0.1,0.3,0.1,0.4c0.1,0.7,0.3,1.1,0.4,1.7c0.1-2.9,0.3-6,0.3-8.9C380.9,89.9,380.9,86.1,380.4,81.3
			z"/>
		<path class="st4" d="M305.5,60.9c-0.1,0-0.4-0.1-0.7-0.1c0.1,0,0.1,0,0.1,0C305.3,60.9,305.4,60.9,305.5,60.9z"/>
	</g>
	<g>
		<path class="st5" d="M297.3,85.3c-0.8-0.3-1.3-0.4-2-0.8c-0.3-0.1-0.4-0.1-0.7-0.3v0.1c0,0.3-0.1,0.4-0.1,0.8
			c0,0.1-0.1,0.3-0.1,0.7c0,0.1,0,0.3-0.1,0.4c-0.1,0.8-0.4,1.6-0.8,2.5c0,0.1-0.1,0.3-0.1,0.4s-0.1,0.3-0.1,0.4
			c-0.3,0.7-0.8,1.6-1.3,2.7l0,0l0,0c-0.1,0.3-0.3,0.7-0.7,0.9c0,0,0,0,0,0.1c0.9-0.1,2-0.3,2.9-0.3c1.2-2.7,2.3-5,3.6-7.7
			C297.4,85.3,297.4,85.3,297.3,85.3L297.3,85.3z"/>
		<path class="st6" d="M380.8,92.7c-2.3-4.1-4.8-8.1-7-12.3c-2.1,1.2-4.5,2.3-6.6,3.2c-0.4,0.1-0.8,0.3-0.8,0.3
			c-0.1,0-0.1,0-0.3,0.1c-1.9,0.8-3.7,1.2-5.4,1.9c-2.9,0.9-5.2,1.3-6.5,1.7c-0.1,0-0.1,0-0.3,0l0,0l0,0c-0.8,0.1-1.6,0.3-2.3,0.4
			c-0.1,0-0.3,0-0.4,0c-6.9,1.3-12.7,1.9-16.5,2.1h-0.1c-0.1,0-0.1,0-0.3,0c-0.3,0-0.7,0-0.9,0c-0.1,0-0.3,0-0.3,0
			c-3.2,0.1-8.2,0.3-14.5-0.3c0,0,0,0-0.1,0c-3.2-0.3-7.2-0.9-11.5-1.9c-0.4-0.1-0.8-0.1-1.1-0.3h-0.3h-0.1c-0.1,0-0.4-0.1-0.7-0.1
			c-0.3-0.1-0.7-0.1-0.9-0.3h-0.1l0,0c-2.5-0.7-4.6-1.3-6.5-2c-1.2,2.7-2.3,5-3.6,7.7c-1.1,0-2,0-2.9,0.3c0,0,0,0,0,0.1
			c-0.1,0.1-0.3,0.4-0.4,0.7c-0.1,0.1-0.1,0.1-0.3,0.3c-0.1,0.1-0.3,0.3-0.3,0.4s-0.1,0.1-0.1,0.3c-0.1,0.1-0.3,0.4-0.4,0.7l0,0
			c-1.1,1.2-2.3,2.7-3.8,3.8c-0.4,0.4-1.1,0.8-1.6,1.2c-0.1,0.1-0.3,0.1-0.4,0.3c-0.1,0.1-0.3,0.1-0.3,0.3c-0.1,0.7-0.1,1.3-0.1,2.1
			c0.1,4.9,4.2,9.4,9.8,9.7c2.1,3.3,5.4,8,9.7,13.3c8.2,9.7,13.5,15.8,22.4,19.2c1.2,0.4,13.8,4.9,26.7-0.4c8-3.2,13-9.2,23.4-21.2
			c3.6-4.1,6.1-7.6,7.8-10c5.6-0.7,9.7-5.6,9.6-10.9C391.7,97.4,386.8,92.7,380.8,92.7z"/>
		<path class="st3" d="M305.5,60.9c-0.1,0-0.4-0.1-0.7-0.1c0.1,0,0.1,0,0.1,0C305.3,60.9,305.4,60.9,305.5,60.9z"/>
	</g>
	<g>
		<path class="st7" d="M405.1,89.9c-0.8-0.3-2-0.9-3.2-1.9c-1.7-1.3-2.9-2.9-4.2-5.6c-1.2-2.5-2.9-5.6-4-10.1
			c-0.3-0.9-0.4-2.1-1.3-9.7c-0.7-5.4-0.9-7.2-1.1-8.8c-0.4-3.7-1.6-12.1-6.1-20.8c-1.7-3.2-4.1-7.7-9-12.1
			c-5-4.6-10.1-6.6-11.5-7.2c-6-2.3-10.9-2.5-16.6-2.7c0,0-13.9-0.3-29.5,6c-2.3,0.9-5,2.3-7.7,4.8c-0.9,0.9-2.5,2.5-3.6,4.8
			c-0.1,0.4,0,0.1-1.7,4.9c-0.4,1.2-0.7,1.7-0.8,2.5c-0.7,2-0.4,2.5-0.9,3.7c-0.3,0.9-0.9,2-2.1,4c-1.6,2.8-1.9,2.8-2.7,4.5
			c0,0.1-0.4,1.1-1.1,3.2c-0.4,1.6-0.8,2.3-0.8,3.2c0,0.4,0,1.2,0.3,2c0.7,1.6,2,2.5,2.8,2.9c3.8,2.3,12.6,3.6,13,3.7
			c7.8,0.9,13.5,1.7,21.8,1.3c5.4-0.1,9.7-0.7,13.5-0.9c0,0,3.2-0.3,8.5-1.1c0,0,6.9-1.2,11.8-3.6c0.1-0.1,0.7-0.3,0.9-0.7
			c0.1-0.1,1.3-1.1,2-2.5c0.7-1.6,0.1-3.3-1.1-4.9c1.6,0.3,2.5,0.8,3.1,1.2c3.3,2.3,3.6,6.8,3.6,7.8c0,0.7,0,0.9-0.3,3.3
			c-0.3,2.9-0.7,5.4-0.8,6.9c0.1,0.4,0.1,0.9,0.4,1.7c0.3,0.8,0.4,1.2,0.7,1.7c0.3,0.7,0.8,2,1.2,3.1c0.7,2,0.9,2.9,0.7,4
			c-0.1,0.4-0.7,1.7-2.3,2.7c0.4,1.3,1.1,3.1,2.1,5c0.9,1.7,3.7,5.8,8.8,9.2c6.6,4.2,13.5,4.6,16.3,4.6
			C404.3,96.8,404.8,93.4,405.1,89.9"/>
		<path class="st8" d="M298.1,49.3c-0.3,0-0.9,0.1-1.6,0.3c-0.1,0-0.9,0.4-1.7,1.2c-0.9,1.2-0.9,2.7-0.9,3.2c0,2.7-0.7,5.4-1.7,10.4
			c-0.4,2.1-0.9,3.6-2,8c-0.1,0.8-0.4,2-0.4,3.6c0,0.7,0,2.5,0.8,4c0.9,2.1,2.8,3.3,4.6,4.5c5.8,3.2,11.9,4.6,17.3,5.6
			c1.9,0.3,4.2,0.8,8,1.1c13,1.3,23.5,0,25.8-0.3c4.6-0.7,12.1-1.7,21.5-5.2c3.8-1.6,6.9-2.9,9.2-4.1c0.3-0.1,1.6-0.8,2.1-2.3
			c0.4-1.2,0.1-2.3,0-3.1c-0.8-2.8-1.9-5.4-2.7-7.4l1.1-10.8c0-0.8,0.1-3.1-1.3-5.4c-1.9-2.7-4.5-3.2-5-3.3c0.3,0.3,0.8,0.9,1.1,1.9
			c0.1,0.4,0.7,2.3-0.3,4c-0.4,0.8-1.1,1.3-2.5,2.1c-3.8,2.1-6.6,2.7-6.6,2.7c-9.8,1.9-16.2,2.3-16.2,2.3
			c-7.8,0.7-11.8,0.9-16.5,0.8c-5-0.1-8.2-0.4-15-1.2c0,0-3.3-0.4-11.8-2.8c-1.6-0.4-3.7-1.1-4.9-2.9c-0.9-1.6-0.9-3.2-0.9-3.6
			C297.3,50.8,297.7,49.8,298.1,49.3"/>
		<path class="st9" d="M295.7,66c3.7,1.9,8.2,3.8,13.8,5.2c8,2.1,15.3,2.8,20.6,2.8c-3.2,0.9-12.7,3.1-21.2,0.9
			c-1.2-0.3-3.6-0.9-6.1-2.5C299.3,70.4,296.9,67.9,295.7,66"/>
		<path class="st9" d="M289.9,73.5c0.4-0.1,0.8,1.2,2,2.8c1.3,1.9,3.2,2.9,7,5c2.7,1.3,5,2.8,8.9,4.1c4.2,1.6,7.7,2.1,11,2.7
			c2.3,0.3,6.1,1.1,11,1.2c6.8,0.3,11.9-0.7,17.7-1.6c0.3,0,2.9-0.4,6.2-1.2c2.3-0.7,4-1.2,7.4-2.7c0.7-0.3,1.3-0.7,2.1-1.3
			c0.9-0.9,1.7-2.5,1.1-3.8c-0.3-1.1-1.3-1.7-2.8-2.1c-3.2-1.2-6-1.3-11.1-1.6c-1.2,0-3.2-0.1-7.4-0.3c-2.8-0.1-5-0.3-6.6-0.3
			c1.7-0.1,4.2-0.4,7.4-1.1c7.4-1.2,11.8-2.9,13-3.3c3.3-1.2,5.2-1.9,7.2-3.6c3.1-2.5,4.5-5.2,4.8-5.8c0.4-0.9,0.7-1.7,0.9-2.3
			c0.1-0.8,0.3-1.6,0.3-1.9c0.3-2.9,0.8-6.9,0.9-7.2c1.7-0.3,3.6-0.7,5.2-0.9c1.7,9.7,3.3,19.4,5,28.9c-0.9,1.3-2,2.8-2.9,4.2
			c-0.4,0-0.9,0.1-1.3,0.1c-0.3,0.1-0.7,0.3-1.1,0.7c-1.6,0.8-5,2.5-9.6,4.1c-1.3,0.4-6.1,2.1-12.7,3.6c-7,1.3-12.5,1.7-15.7,1.9
			c-4,0.1-11,0.3-19.8-0.8c-1.7-0.1-6.6-0.9-12.6-2.5c0,0-3.8-0.9-10.1-4c-1.1-0.4-2.5-1.2-3.6-2.7c-1.1-1.3-1.6-2.8-1.7-3.7
			C289.5,76.1,289.5,73.7,289.9,73.5z"/>
		<path class="st10" d="M402.7,88.7c0.1,0.3,0.3,0.9,0,1.6c-0.4,0.8-1.6,1.1-1.9,1.1c-3.1,0.8-6.1-0.3-6.1-0.3
			c-4.1-1.3-6.2-4.5-7.2-5.8c-1.3-2.1-2-4-2.3-4.9c-2.8-8.2-4.2-16.7-4.6-18.8c-1.3-8-1.7-9.8-2.7-14.1c-1.6-8-2.1-10.1-2.9-12.5
			c-1.7-4.8-2.9-8.2-6.5-11.7c-3.1-2.9-6.5-4.2-8.6-5c2.5,1.6,4,3.1,4.8,4.1c3.1,4,3.8,8.6,4.1,11.5c0.1,1.1,0.3,2.9,0.4,4.5
			c0.1,2.7,0.1,3.2,0.3,4.8c0.1,1.3,0.4,3.3,1.1,5.8c-0.9,0.7-2.3,1.6-4.1,2.5c-1.6,0.8-6.5,3.6-14.1,5.4
			c-13.3,3.3-24.6,2.1-29.3,1.6c-5.7-0.7-9.8-1.7-13.8-3.8c-4.1-2.1-6.1-4.5-7-5.7c-1.2-1.7-2-3.2-2.5-4.2c-0.1,0.3-0.3,0.7-0.4,0.9
			c0,0.1-0.3,0.7-0.4,1.1c-0.4,1.1-0.8,2-0.9,2.7c0,0.1-0.1,0.1-0.1,0.3c0,0,0,0.1-0.1,0.3c0,0.1-0.1,0.4-0.3,0.9
			c-0.1,0.7-0.1,1.2-0.1,1.7c0,0.8,0,1.2,0,1.2s0,0.4,0.1,0.8c0.9,2.9,6.6,4.5,6.6,4.5c13.3,4,27.1,3.7,32.9,3.3
			c0.4,0,1.2,0,2.1-0.1c10.9-0.7,16.6-1.3,18.3-1.7c0.7-0.1,3.3-0.7,6.8-1.7c0.3-0.1,2-0.7,4-1.7c1.6-0.8,2-1.1,2.1-1.3
			c0.4-0.4,1.7-1.6,1.9-3.2c0.3-2.1-1.1-3.6-1.3-3.8c0.4,0.1,1.2,0.4,2,0.9c2.8,1.7,3.7,4.5,4,5.2s0.4,1.9,0,7.4
			c-0.1,2.3-0.4,4.2-0.7,5.7c0.1,0.4,0.3,1.1,0.4,1.9c0.1,0.7,0.3,0.8,0.9,2.7c0,0,0.3,0.8,1.1,2.8c0.1,0.3,0.3,0.7,0.3,1.2
			c0.1,0.7,0.1,0.9,0.1,1.3c0,0,0,1.1-0.8,2.1c-0.1,0.1-0.3,0.4-0.7,0.8c-0.1,0.1-0.3,0.3-0.4,0.4s-0.3,0.1-0.4,0.3
			c0.7,2,1.7,4.8,3.8,7.7c3.7,4.9,8.1,7.6,10.4,8.5c5.6,2.7,10.5,2.9,13,2.8c0.3-3.3,0.7-6.9,0.9-10.4
			C404.1,89.5,403.3,89,402.7,88.7"/>
		<path class="st3" d="M403.6,98.8c1.7,5.4,7.7,8.1,13.3,6.2c5.7-1.9,8.8-7.6,7-12.9c-1.7-5.3-7.7-8.1-13.3-6.2
			C405.1,87.8,401.9,93.6,403.6,98.8"/>
	</g>
	<path class="st6" d="M285.7,100.5c0.7-0.3,5-2.1,5.4-5.7c0-0.7,0-1.2-0.1-1.6c-4.1,0.9-7.4,4.1-8.1,8
		C284,101.2,285.1,100.8,285.7,100.5z"/>
</g>
<g>
	<rect x="86.8" y="142.5" class="st0" width="48.8" height="48.8"/>
	<path class="st11" d="M213.5,213.9c-1.1-5.6-2.1-10.8-3.3-15.8l0,0c-2.8-18.7-19-33.2-38.5-33.2c-10.6,0-21.1,0-31.6,0
		c-9.6,9.4-18.8,18.7-28.4,28.1c-9.2-9.4-18.4-18.7-27.6-28.1c-10.8,0-21.6,0-32.4,0c-3.1,0-15,0.3-25.5,9.6
		c-6.9,6-11.5,14.3-13,23.6l0,0c-1.2,5-2.5,10.4-3.6,15.7c-2.1,11.1-3.7,21.8-4.8,31.9c15.5,0,31.2,0,46.7,0h120
		c15.4,0,30.7,0,45.9,0C217,235.7,215.5,225.2,213.5,213.9z"/>
	<path class="st12" d="M172.7,245.5h-123v-80.7c8.5,0,16.7,0,25.2,0c12.6,10.9,25.1,21.8,37.7,32.7c11.5-10.9,22.8-21.8,34.4-32.7
		c8.6,0,17.3,0,25.8,0C172.7,191.7,172.7,218.7,172.7,245.5z"/>
	<path class="st3" d="M148,165.8L148,165.8c-3.1-2.8-6.1-5.4-9-8c0,0-0.3-0.3-0.7-0.3s-0.7,0.3-0.7,0.3
		c-8.9,10.4-17.8,20.7-26.7,31.1c-8.9-10.4-17.8-20.7-26.5-31.1c-0.1,0-0.3-0.1-0.7-0.3c-0.3,0-0.7,0.1-0.8,0.1
		c-2.9,2.5-5.8,5-8.8,7.6c0,0-0.1,0.1-0.1,0.3c0,0.1,0.1,0.3,0.1,0.4c12.3,14.3,24.6,28.5,36.9,42.9
		C123,194.9,147.8,166.1,148,165.8C147.8,166.2,148,166.1,148,165.8z"/>
	<path class="st4" d="M67.9,97.9c0.9,3.2,1.9,6.2,2.8,9.6c0.3-5.6,0.8-11.1,1.1-16.7c1.6-1.7,3.2-3.8,4.9-6.1
		c2.1-3.2,3.7-6.1,4.9-8.8c1.9,0.4,4.9,1.2,8.6,1.6c6.5,0.4,11.4-0.4,28-4.9c3.7-0.9,7.8-2,12.5-3.3c0.8,2.5,2.1,6.1,5.4,9.4
		c2.3,2.5,4.6,3.7,5.4,4.1c3.7,2.1,8.6,8,13.3,24c0.1-2.9,0.3-6,0.3-8.9c0.1-2.8,0.1-6.8-0.4-11.4c-1.1-10.1-2.5-21.2-9.8-25.2
		c-1.7-0.9-5.8-2.7-12.9-0.7c-0.3-0.9-0.9-2.1-1.9-3.6c0,0-1.2-1.7-2.9-3.1c-3.6-2.7-20.2-4.6-37.8,5.8c-4,2.5-7,4.8-8.8,6.2
		c-1.2,0.4-2.9,1.2-4.8,2.7c-1.3,1.1-2.5,2.1-3.1,2.8c-3.3,3.7-3.8,9-3.8,10.9C68.2,87.5,68.1,92.7,67.9,97.9z"/>
	<g>
		<path class="st4" d="M154.5,86.2c-0.1-0.8-0.1-1.7-0.3-2.5c0-0.1,0-0.4,0-0.7c-1.1-9.2-2.8-18.4-9.4-22.2
			c-1.7-0.9-5.8-2.7-12.9-0.7c-0.3-0.9-0.9-2.1-1.9-3.6c0,0-1.2-1.7-2.9-3.1c-3.6-2.7-20.2-4.6-37.8,5.8c-4,2.5-7,4.8-8.8,6.2
			c-1.2,0.4-2.9,1.2-4.8,2.7c-1.3,1.1-2.5,2.1-3.1,2.8c-3.3,3.7-3.8,9-3.8,10.9c-0.1,2.9-0.3,5.8-0.3,8.8l0,0
			c-0.1,2.3-0.1,4.6-0.3,6.9c0.9,3.2,1.9,6.2,2.8,9.6c0.3-5.6,0.8-11.1,1.1-16.7c0.1-0.1,0.1-0.1,0.3-0.3l0,0c1.6-1.7,3.1-3.7,4.6-6
			c2.1-3.2,3.7-6.1,4.9-8.8c1.9,0.4,4.9,1.2,8.6,1.6c6.5,0.4,11.4-0.4,28-4.9c3.7-0.9,7.8-2,12.5-3.3c0.8,2.5,2.1,6.1,5.4,9.4
			c2.3,2.5,4.6,3.7,5.4,4.1c1.3,0.8,2.8,2,4.2,4c0.4,0.7,1.1,1.3,1.6,2.3l0,0c0.1,0.3,0.3,0.7,0.4,0.8c0,0,0,0,0,0.1
			c0.1,0.3,0.3,0.7,0.4,0.9l0,0c0.3,0.7,0.8,1.3,1.1,2c0,0,0,0.1,0.1,0.1c0.1,0.3,0.3,0.7,0.4,0.9c0,0,0,0.1,0.1,0.1
			c0.3,0.8,0.8,1.6,1.1,2.5c0,0.1,0.1,0.1,0.1,0.3c0.1,0.3,0.3,0.7,0.4,1.1c0,0.1,0.1,0.3,0.1,0.4c0.1,0.3,0.3,0.8,0.4,1.1
			c0,0.1,0,0.1,0.1,0.3c0.1,0.4,0.3,0.9,0.4,1.6c0,0.1,0,0.1,0.1,0.3c0.1,0.4,0.3,0.8,0.4,1.2c0,0.1,0.1,0.3,0.1,0.4
			c0.1,0.3,0.3,0.8,0.3,1.2c0,0.1,0.1,0.3,0.1,0.4c0.1,0.7,0.3,1.1,0.4,1.7c0.1-2.9,0.3-6,0.3-8.9C154.9,94.8,154.9,90.8,154.5,86.2
			z"/>
		<path class="st4" d="M79.6,65.9c-0.1,0-0.4-0.1-0.7-0.1c0.1,0,0.1,0,0.1,0C79.3,65.6,79.5,65.9,79.6,65.9z"/>
	</g>
	<g>
		<path class="st5" d="M71.4,90.1c-0.8-0.3-1.3-0.4-2-0.8c-0.3-0.1-0.4-0.1-0.7-0.3v0.1c0,0.3-0.1,0.4-0.1,0.8
			c0,0.1-0.1,0.3-0.1,0.7c0,0.1,0,0.3-0.1,0.4c-0.1,0.8-0.4,1.6-0.8,2.5c0,0.1-0.1,0.3-0.1,0.4s-0.1,0.3-0.1,0.4
			C67,95,66.5,95.9,65.9,97l0,0l0,0c-0.1,0.3-0.3,0.7-0.7,0.9c0,0,0,0,0,0.1c0.9-0.1,2-0.3,2.9-0.3c1.2-2.7,2.3-5,3.6-7.7
			C71.4,90.3,71.4,90.3,71.4,90.1L71.4,90.1z"/>
		<path class="st6" d="M154.9,97.6c-2.3-4.1-4.8-8.1-7-12.3c-2.1,1.2-4.5,2.3-6.6,3.2c-0.4,0.1-0.8,0.3-0.8,0.3
			c-0.1,0-0.1,0-0.3,0.1c-1.9,0.8-3.7,1.2-5.4,1.9c-2.9,0.9-5.2,1.3-6.5,1.7c-0.1,0-0.1,0-0.3,0l0,0l0,0c-0.8,0.1-1.6,0.3-2.3,0.4
			c-0.1,0-0.3,0-0.4,0c-6.9,1.3-12.7,1.9-16.5,2.1h-0.1c-0.1,0-0.1,0-0.3,0c-0.3,0-0.7,0-0.9,0c-0.1,0-0.3,0-0.3,0
			c-3.2,0.1-8.2,0.3-14.5-0.3c0,0,0,0-0.1,0c-3.2-0.3-7.2-0.9-11.5-1.9c-0.4-0.1-0.8-0.1-1.1-0.3h-0.1h-0.1c-0.1,0-0.4-0.1-0.7-0.1
			c-0.3-0.1-0.7-0.1-0.9-0.3H78l0,0c-2.5-0.7-4.6-1.3-6.5-2c-1.2,2.7-2.3,5-3.6,7.7c-1.1,0-2,0-2.9,0.3c0,0,0,0,0,0.1
			c-0.1,0.1-0.3,0.4-0.4,0.7c-0.1,0.3-0.1,0.1-0.3,0.3c-0.1,0.1-0.3,0.3-0.3,0.4s-0.1,0.1-0.1,0.3c-0.1,0.1-0.3,0.4-0.4,0.7l0,0
			c-1.1,1.2-2.3,2.7-3.8,3.8c-0.4,0.4-1.1,0.8-1.6,1.2c-0.1,0.1-0.3,0.1-0.4,0.3c-0.1,0.1-0.3,0.1-0.3,0.3c-0.1,0.7-0.1,1.3-0.1,2.1
			c0.1,4.9,4.2,9.4,9.8,9.7c2.1,3.3,5.4,8,9.7,13.3c8.2,9.7,13.5,15.8,22.4,19.2c1.2,0.4,13.8,4.9,26.7-0.4c8-3.2,13-9.2,23.4-21.2
			c3.6-4.1,6.1-7.6,7.8-10c5.6-0.7,9.7-5.6,9.6-10.9C165.6,102.3,160.7,97.5,154.9,97.6z"/>
		<path class="st3" d="M79.6,65.9c-0.1,0-0.4-0.1-0.7-0.1c0.1,0,0.1,0,0.1,0C79.3,65.6,79.5,65.9,79.6,65.9z"/>
	</g>
	<g>
		<path class="st7" d="M41.4,100.5c0.8-0.4,1.9-1.1,3.1-2.1c1.6-1.6,2.7-3.1,3.7-6c1.1-2.5,2.3-5.7,3.1-10.6
			c0.1-1.1,0.3-2.1,0.4-9.7c0.1-5.4,0.1-7.4,0.1-8.8c0.1-3.7,0.3-12.1,4-21.5c1.3-3.3,3.2-8,7.7-12.9c4.6-5,9.4-7.7,10.8-8.2
			c5.7-2.9,10.6-3.6,16.3-4.2c0,0,13.9-1.7,30,2.9c2.3,0.7,5.2,1.7,8.1,4c1.1,0.9,2.8,2.1,4,4.5c0.1,0.4,0,0.1,2.1,4.6
			c0.7,1.2,0.8,1.6,1.1,2.3c0.8,1.9,0.8,2.5,1.2,3.6c0.4,0.9,1.1,1.9,2.5,3.8c1.9,2.7,2.1,2.7,2.9,4.1c0,0.1,0.4,1.1,1.3,3.1
			c0.7,1.3,1.1,2.1,1.1,3.2c0,0.4,0.1,1.2,0,2c-0.4,1.7-1.7,2.7-2.5,3.2c-3.7,2.7-12.1,4.8-12.6,4.9c-7.7,1.7-13.3,2.9-21.6,3.7
			c-5.4,0.4-9.7,0.4-13.5,0.4c0,0-3.2,0-8.6-0.3c0,0-7-0.4-12.1-2.3c-0.3-0.1-0.7-0.3-1.1-0.4c-0.1,0-1.6-0.9-2.1-2.1
			c-0.8-1.6-0.4-3.3,0.7-5c-1.3,0.4-2.3,1.1-2.9,1.6c-3.1,2.7-2.8,7-2.7,8.1c0,0.7,0.1,0.9,0.7,3.2c0.7,2.9,1.2,5.2,1.6,6.8
			c0,0.4-0.1,0.9-0.3,1.7c-0.1,0.8-0.3,1.3-0.4,1.9c-0.1,0.7-0.7,2-0.9,3.1c-0.4,2-0.7,2.9-0.1,4c0.1,0.4,0.8,1.6,2.5,2.5
			c-0.3,1.3-0.8,3.2-1.7,5.2c-0.8,1.9-3.1,6.2-7.7,10.1c-6.1,4.9-13,6-15.7,6.2C42.7,107.3,42.2,104,41.4,100.5"/>
		<path class="st8" d="M144,49.4c0.3,0,0.9,0,1.6,0.1c0.1,0,1.1,0.3,1.7,1.1c1.1,1.1,1.2,2.7,1.2,3.1c0.1,2.7,1.1,5.2,2.8,10
			c0.8,2.1,1.3,3.3,2.8,7.7c0.3,0.8,0.7,1.9,0.8,3.3c0,0.7,0.1,2.5-0.4,4.1c-0.8,2.1-2.5,3.7-4.1,4.8c-5.4,3.7-11.4,5.8-16.5,7.2
			c-1.9,0.4-4.2,1.2-7.8,2c-12.9,2.7-23.5,2.3-25.6,2.3C95.9,95,88.2,94.7,78.6,92c-4-1.1-7.2-2.3-9.6-3.2c-0.3-0.1-1.6-0.7-2.3-2
			c-0.7-1.1-0.4-2.3-0.3-3.1c0.4-2.9,1.2-5.6,1.9-7.7l-2.1-10.6c-0.1-0.8-0.4-3.1,0.9-5.6c1.6-2.8,4.1-3.7,4.8-3.8
			c-0.3,0.4-0.7,1.1-0.8,2c-0.1,0.4-0.4,2.3,0.8,3.8c0.7,0.8,1.2,1.2,2.8,1.9c4,1.7,6.9,1.9,6.9,1.9c10,0.9,16.2,0.8,16.2,0.8
			c7.8-0.1,11.8-0.3,16.5-0.9c5-0.7,8.2-1.3,14.7-2.8c0,0,3.2-0.8,11.5-4c1.3-0.7,3.6-1.3,4.6-3.3c0.8-1.7,0.7-3.3,0.7-3.6
			C144.8,50.8,144.3,49.8,144,49.4"/>
		<path class="st9" d="M147.8,65.9c-3.6,2.1-7.8,4.6-13.3,6.6c-7.7,3.1-14.9,4.2-20.3,4.9c3.3,0.4,12.9,1.9,21.2-1.2
			c1.2-0.4,3.3-1.2,5.8-3.1C144.8,70.5,146.8,67.6,147.8,65.9"/>
		<path class="st9" d="M154.2,72.5c-0.4,0-0.7,1.2-1.7,2.9c-1.2,2-2.9,3.2-6.5,5.7c-2.5,1.7-4.8,3.2-8.5,4.9
			c-4.1,2-7.6,2.9-10.8,3.8c-2.1,0.7-6,1.7-10.9,2.3c-6.8,0.9-11.9,0.7-17.7,0.3c-0.3,0-2.9-0.1-6.2-0.7c-2.3-0.3-4.1-0.9-7.7-1.9
			c-0.7-0.1-1.3-0.4-2.1-1.1c-0.9-0.8-1.9-2.3-1.6-3.7c0.3-1.1,1.2-1.7,2.7-2.5c3.1-1.6,5.8-2,10.9-2.8c1.2-0.1,3.2-0.4,7.4-1.1
			c2.8-0.4,5-0.8,6.6-1.1c-1.9,0-4.2,0-7.4-0.3c-7.4-0.7-12.1-1.7-13.4-2c-3.6-0.9-5.4-1.3-7.6-2.8c-3.3-2.1-4.9-4.8-5.2-5.2
			c-0.4-0.8-0.8-1.6-1.1-2.3C73.1,64.1,73,63.6,73,63c-0.7-2.8-1.6-6.9-1.6-7.2c-1.7-0.1-3.6-0.3-5.2-0.4
			c-0.8,9.8-1.6,19.5-2.1,29.3c1.1,1.3,2.3,2.7,3.3,4c0.4,0,0.9,0,1.3,0c0.3,0.1,0.7,0.3,1.1,0.4c1.6,0.7,5.2,2,10,3.1
			c1.6,0.3,6.2,1.6,13,2.3c7.2,0.8,12.6,0.4,15.8,0.3c4-0.1,11-0.8,19.6-2.7c1.7-0.4,6.5-1.6,12.3-3.7c0,0,3.7-1.3,9.7-5
			c0.9-0.7,2.3-1.3,3.2-2.9s1.2-2.9,1.3-3.8C155,75.2,154.9,72.8,154.2,72.5z"/>
		<path class="st10" d="M43.8,98.9c-0.1,0.3-0.1,0.9,0.1,1.6c0.4,0.8,1.6,0.9,2,0.9c3.1,0.4,6-0.9,6-0.9c3.8-1.9,5.8-5,6.6-6.6
			c1.2-2.1,1.7-4.1,1.9-5c1.9-8.6,2.7-17,2.8-19.2c0.7-8.1,0.8-10,1.1-14.3c0.8-8.1,1.1-10.4,1.7-12.6c1.2-4.9,2.1-8.6,5.2-12.3
			c2.8-3.2,6-4.9,8-5.8c-2.3,1.7-3.6,3.3-4.2,4.6c-2.8,4.2-2.9,8.9-3.1,11.9c0,1.1,0,2.9,0,4.5c0,2.7,0.1,3.2,0.1,4.9
			c0,1.3-0.1,3.3-0.7,5.8c0.9,0.4,2.5,1.2,4.2,2c1.6,0.7,6.8,2.8,14.6,4c13.5,2,24.7-0.3,29.3-1.3c5.7-1.2,9.7-2.8,13.4-5.2
			c4-2.7,5.7-5,6.5-6.2c1.1-1.7,1.7-3.3,2-4.6c0.1,0.3,0.3,0.7,0.7,0.9c0,0.1,0.3,0.4,0.7,1.1c0.4,0.9,0.9,1.9,1.1,2.5
			c0,0.1,0.1,0.1,0.1,0.3c0,0,0,0.1,0.1,0.1c0,0.1,0.1,0.4,0.4,0.9c0.1,0.7,0.3,1.2,0.4,1.7c0.1,0.8,0,1.2,0,1.2s0,0.4-0.1,0.8
			c-0.7,3.1-6.1,5.2-6.1,5.2c-12.7,5.2-26.5,6.2-32.4,6.8c-0.4,0-1.2,0-2.1,0.1c-10.9,0.4-16.6,0.1-18.4,0.1c-0.7,0-3.6-0.3-6.9-0.9
			c-0.3,0-2-0.4-4.1-1.2c-1.6-0.7-2-0.9-2.3-1.1c-0.4-0.4-1.9-1.3-2.1-3.1c-0.4-2,0.8-3.7,0.9-4c-0.4,0.1-1.2,0.7-1.9,1.1
			c-2.7,2-3.2,4.8-3.6,5.6c-0.1,0.8-0.3,1.9,0.8,7.4c0.4,2.3,0.9,4.2,1.2,5.7c0,0.4-0.1,1.1-0.3,1.9c-0.1,0.7-0.1,0.8-0.8,2.7
			c0,0-0.1,0.8-0.8,2.8c0,0.3-0.1,0.7-0.3,1.2c0,0.7-0.1,0.9,0,1.3c0,0,0.1,1.1,0.9,2c0.1,0.1,0.4,0.4,0.8,0.7
			c0.1,0.1,0.3,0.1,0.7,0.3c0.1,0.1,0.3,0.1,0.4,0.3c-0.4,2-1.2,4.9-3.1,8c-3.1,5.4-7.4,8.2-9.4,9.6c-5.2,3.2-10.1,3.8-12.7,4.1
			c-0.7-3.3-1.3-6.8-2-10.1C42.3,100.1,43.1,99.6,43.8,98.9"/>
		<path class="st3" d="M43.8,109.3c-1.2,5.6-6.8,8.9-12.6,7.7s-9.6-6.6-8.2-12.1c1.3-5.4,6.8-8.9,12.6-7.7S45.1,104,43.8,109.3"/>
	</g>
	<path class="st6" d="M59.7,105.5c0.7-0.3,5-2.1,5.4-5.7c0-0.7,0-1.2-0.1-1.6c-4.1,0.9-7.4,4.1-8.1,8
		C58.1,106.1,59,105.7,59.7,105.5z"/>
</g>
<g>
	<rect x="206.5" y="179.2" class="st0" width="48.8" height="48.8"/>
	<path class="st13" d="M333.3,250.5c-1.1-5.6-2.1-10.8-3.3-15.8l0,0c-2.8-18.7-19-33.2-38.5-33.2c-10.6,0-21.1,0-31.6,0
		c-9.6,9.4-18.8,18.7-28.4,28.1c-9.2-9.4-18.4-18.7-27.6-28.1c-10.8,0-21.6,0-32.4,0c-3.1,0-15,0.3-25.5,9.6
		c-6.9,6-11.5,14.3-13,23.6l0,0c-1.2,5-2.5,10.4-3.6,15.7c-2.1,11.1-3.7,21.8-4.8,31.9c15.5,0,31.2,0,46.7,0h120
		c15.4,0,30.7,0,45.9,0C336.6,272.5,335.3,261.9,333.3,250.5z"/>
	<path class="st14" d="M292.4,282.1H169.5v-80.7c8.5,0,16.7,0,25.2,0c12.6,10.9,25.1,21.8,37.7,32.7c11.5-10.9,22.8-21.8,34.4-32.7
		c8.6,0,17.3,0,25.8,0C292.4,228.6,292.4,255.4,292.4,282.1z"/>
	<path class="st3" d="M267.6,202.6C267.6,202.4,267.6,202.4,267.6,202.6c-3.1-2.8-6.1-5.4-9-8c0,0-0.3-0.3-0.7-0.3
		c-0.4,0-0.7,0.3-0.7,0.3c-8.9,10.4-17.8,20.7-26.7,31.1c-8.9-10.4-17.8-20.7-26.5-31.1c-0.1,0-0.3-0.1-0.7-0.3
		c-0.3,0-0.7,0.1-0.8,0.1c-2.9,2.5-5.8,5-8.8,7.6c0,0-0.1,0.1-0.1,0.3s0.1,0.3,0.1,0.4c12.3,14.3,24.6,28.5,36.9,42.9
		C242.7,231.6,267.4,202.8,267.6,202.6C267.4,202.8,267.6,202.7,267.6,202.6z"/>
	<path class="st4" d="M187.7,134.5c0.9,3.2,1.9,6.2,2.8,9.6c0.3-5.6,0.8-11.1,1.1-16.7c1.6-1.7,3.2-3.8,4.9-6.1
		c2.1-3.2,3.7-6.1,4.9-8.8c1.9,0.4,4.9,1.2,8.6,1.6c6.5,0.4,11.4-0.4,28-4.9c3.7-0.9,7.8-2,12.5-3.3c0.8,2.5,2.1,6.1,5.4,9.4
		c2.3,2.5,4.6,3.7,5.4,4.1c3.7,2.1,8.6,8,13.3,24c0.1-2.9,0.3-6,0.3-8.9c0.1-2.8,0.1-6.8-0.4-11.4c-1.1-10.1-2.5-21.2-9.8-25.2
		c-1.7-0.9-5.8-2.7-12.9-0.7c-0.3-0.9-0.9-2.1-1.9-3.6c0,0-1.2-1.7-2.9-3.1c-3.6-2.7-20.2-4.6-37.8,5.8c-4,2.5-7,4.8-8.8,6.2
		c-1.2,0.4-2.9,1.2-4.8,2.7c-1.3,1.1-2.5,2.1-3.1,2.8c-3.3,3.7-3.8,9-3.8,10.9C187.9,124.1,187.8,129.3,187.7,134.5z"/>
	<g>
		<path class="st4" d="M274.1,122.8c-0.1-0.8-0.1-1.7-0.3-2.5c0-0.1,0-0.4,0-0.7c-1.1-9.2-2.8-18.4-9.4-22.2
			c-1.7-0.9-5.8-2.7-12.9-0.7c-0.3-0.9-0.9-2.1-1.9-3.6c0,0-1.2-1.7-2.9-3.1c-3.6-2.7-20.2-4.6-37.8,5.8c-4,2.5-7,4.8-8.8,6.2
			c-1.2,0.4-2.9,1.2-4.8,2.7c-1.3,1.1-2.5,2.1-3.1,2.8c-3.3,3.7-3.8,9-3.8,10.9c-0.1,2.9-0.3,5.8-0.3,8.8l0,0
			c-0.1,2.3-0.1,4.6-0.3,6.9c0.9,3.2,1.9,6.2,2.8,9.6c0.3-5.6,0.8-11.1,1.1-16.7c0.1-0.1,0.1-0.1,0.3-0.3l0,0c1.6-1.7,3.1-3.7,4.6-6
			c2.1-3.2,3.7-6.1,4.9-8.8c1.9,0.4,4.9,1.2,8.6,1.6c6.5,0.4,11.4-0.4,28-4.9c3.7-0.9,7.8-2,12.5-3.3c0.8,2.5,2.1,6.1,5.4,9.4
			c2.3,2.5,4.6,3.7,5.4,4.1c1.3,0.8,2.8,2,4.2,4c0.4,0.7,1.1,1.3,1.6,2.3l0,0c0.1,0.3,0.3,0.7,0.4,0.8c0,0,0,0,0,0.1
			c0.1,0.3,0.3,0.7,0.4,0.9l0,0c0.3,0.7,0.8,1.3,1.1,2c0,0,0,0.1,0.1,0.1c0.1,0.3,0.3,0.7,0.4,0.9c0,0,0,0.1,0.1,0.1
			c0.3,0.8,0.8,1.6,1.1,2.5c0,0.1,0.1,0.1,0.1,0.3c0.1,0.3,0.3,0.7,0.4,1.1c0,0.1,0.1,0.3,0.1,0.4c0.1,0.3,0.3,0.8,0.4,1.1
			c0,0.1,0,0.1,0.1,0.3c0.1,0.4,0.3,0.9,0.4,1.6c0,0.1,0,0.1,0.1,0.3c0.1,0.4,0.3,0.8,0.4,1.2c0,0.1,0.1,0.3,0.1,0.4
			c0.1,0.3,0.3,0.8,0.3,1.2c0,0.1,0.1,0.3,0.1,0.4c0.1,0.7,0.3,1.1,0.4,1.7c0.1-2.9,0.3-6,0.3-8.9
			C274.6,131.4,274.6,127.6,274.1,122.8z"/>
		<path class="st4" d="M199.2,102.5c-0.1,0-0.4-0.1-0.7-0.1c0.1,0,0.1,0,0.1,0C198.9,102.5,199.1,102.5,199.2,102.5z"/>
	</g>
	<g>
		<path class="st5" d="M191,126.9c-0.8-0.3-1.3-0.4-2-0.8c-0.3-0.1-0.4-0.1-0.7-0.3v0.1c0,0.3-0.1,0.4-0.1,0.8
			c0,0.1-0.1,0.3-0.1,0.7c0,0.1,0,0.3-0.1,0.4c-0.1,0.8-0.4,1.6-0.8,2.5c0,0.1-0.1,0.3-0.1,0.4s-0.1,0.3-0.1,0.4
			c-0.3,0.7-0.8,1.6-1.3,2.7l0,0l0,0c-0.1,0.3-0.3,0.7-0.7,0.9c0,0,0,0,0,0.1c0.9-0.1,2-0.3,2.9-0.3c1.2-2.7,2.3-5,3.6-7.7
			C191,126.9,191,126.9,191,126.9L191,126.9z"/>
		<path class="st6" d="M274.6,134.2c-2.3-4.1-4.8-8.1-7-12.3c-2.1,1.2-4.5,2.3-6.6,3.2c-0.4,0.1-0.8,0.3-0.8,0.3
			c-0.1,0-0.1,0-0.3,0.1c-1.9,0.8-3.7,1.2-5.4,1.9c-2.9,0.9-5.2,1.3-6.5,1.7c-0.1,0-0.1,0-0.3,0l0,0l0,0c-0.8,0.1-1.6,0.3-2.3,0.4
			c-0.1,0-0.3,0-0.4,0c-6.9,1.3-12.7,1.9-16.5,2.1h-0.1c-0.1,0-0.1,0-0.3,0c-0.3,0-0.7,0-0.9,0c-0.1,0-0.3,0-0.3,0
			c-3.2,0.1-8.2,0.3-14.5-0.3c0,0,0,0-0.1,0c-3.2-0.3-7.2-0.9-11.5-1.9c-0.4-0.1-0.8-0.1-1.1-0.3h-0.3h-0.1c-0.1,0-0.4-0.1-0.7-0.1
			c-0.3-0.1-0.7-0.1-0.9-0.3h-0.1l0,0c-2.5-0.7-4.6-1.3-6.5-2c-1.2,2.7-2.3,5-3.6,7.7c-1.1,0-2,0-2.9,0.3c0,0,0,0,0,0.1
			c-0.1,0.1-0.3,0.4-0.4,0.7c-0.1,0.1-0.1,0.1-0.3,0.3c-0.1,0.1-0.3,0.3-0.3,0.4s-0.1,0.1-0.1,0.3c-0.1,0.1-0.3,0.4-0.4,0.7l0,0
			c-1.1,1.2-2.3,2.7-3.8,3.8c-0.4,0.4-1.1,0.8-1.6,1.2c-0.1,0.1-0.3,0.1-0.4,0.3c-0.1,0.1-0.3,0.1-0.3,0.3c-0.1,0.7-0.1,1.3-0.1,2.1
			c0.1,4.9,4.2,9.4,9.8,9.7c2.1,3.3,5.4,8,9.7,13.3c8.2,9.7,13.5,15.8,22.4,19.2c1.2,0.4,13.8,4.9,26.7-0.4c8-3.2,13-9.2,23.4-21.2
			c3.6-4.1,6.1-7.6,7.8-10c5.6-0.7,9.7-5.6,9.6-10.9C285.3,138.9,280.3,134.2,274.6,134.2z"/>
		<path class="st3" d="M199.2,102.5c-0.1,0-0.4-0.1-0.7-0.1c0.1,0,0.1,0,0.1,0C198.9,102.5,199.1,102.5,199.2,102.5z"/>
	</g>
	<g>
		<path class="st7" d="M161,137.3c0.8-0.4,1.9-1.1,3.1-2.1c1.6-1.6,2.7-3.1,3.7-6c1.1-2.5,2.3-5.7,3.1-10.6c0.1-1.1,0.3-2.1,0.4-9.7
			c0.1-5.4,0.1-7.4,0.1-8.8c0.1-3.7,0.3-12.1,4-21.5c1.3-3.3,3.2-8,7.7-12.9c4.6-5,9.4-7.7,10.8-8.2c5.7-2.9,10.6-3.6,16.3-4.2
			c0,0,13.9-1.7,30,2.9c2.3,0.7,5.2,1.7,8.1,4c1.1,0.9,2.8,2.1,4,4.5c0.1,0.4,0,0.1,2.1,4.6c0.7,1.2,0.8,1.6,1.1,2.3
			c0.8,1.9,0.8,2.5,1.2,3.6c0.4,0.9,1.1,1.9,2.5,3.8c1.9,2.7,2.1,2.7,2.9,4.1c0,0.1,0.4,1.1,1.3,3.1c0.7,1.3,1.1,2.1,1.1,3.2
			c0,0.4,0.1,1.2,0,2c-0.4,1.7-1.7,2.7-2.5,3.2c-3.7,2.7-12.1,4.8-12.6,4.9c-7.7,1.7-13.3,2.9-21.6,3.7c-5.4,0.4-9.7,0.4-13.5,0.4
			c0,0-3.2,0-8.6-0.3c0,0-7-0.4-12.1-2.3c-0.3-0.1-0.7-0.3-1.1-0.4c-0.1,0-1.6-0.9-2.1-2.1c-0.8-1.6-0.4-3.3,0.7-5
			c-1.3,0.4-2.3,1.1-2.9,1.6c-3.1,2.7-2.8,7-2.7,8.1c0,0.7,0.1,0.9,0.7,3.2c0.7,2.9,1.2,5.2,1.6,6.8c0,0.4-0.1,0.9-0.3,1.7
			c-0.1,0.8-0.3,1.3-0.4,1.9c-0.1,0.7-0.7,2-0.9,3.1c-0.4,2-0.7,2.9-0.1,4c0.1,0.4,0.8,1.6,2.5,2.5c-0.3,1.3-0.8,3.2-1.7,5.2
			c-0.8,1.9-3.1,6.2-7.7,10.1c-6.1,4.9-13,6-15.7,6.2C162.4,144,161.8,140.7,161,137.3"/>
		<path class="st8" d="M263.6,86c0.3,0,0.9,0,1.6,0.1c0.1,0,1.1,0.3,1.7,1.1c1.1,1.1,1.2,2.7,1.2,3.1c0.1,2.7,1.1,5.2,2.8,10
			c0.8,2.1,1.3,3.3,2.8,7.7c0.3,0.8,0.7,1.9,0.8,3.3c0,0.7,0.1,2.5-0.4,4.1c-0.8,2.1-2.5,3.7-4.1,4.8c-5.4,3.7-11.4,5.8-16.5,7.2
			c-1.9,0.4-4.2,1.2-7.8,2c-12.9,2.7-23.5,2.3-25.6,2.3c-4.6-0.1-12.3-0.4-21.9-3.1c-4-1.1-7.2-2.3-9.6-3.2c-0.3-0.1-1.6-0.7-2.3-2
			c-0.7-1.1-0.4-2.3-0.3-3.1c0.4-2.9,1.2-5.6,1.9-7.7l-2.1-10.6c-0.1-0.8-0.4-3.1,0.9-5.6c1.6-2.8,4.1-3.7,4.8-3.8
			c-0.3,0.4-0.7,1.1-0.8,2c-0.1,0.4-0.4,2.3,0.8,3.8c0.7,0.8,1.2,1.2,2.8,1.9c4,1.7,6.9,1.9,6.9,1.9c10,0.9,16.2,0.8,16.2,0.8
			c7.8-0.1,11.8-0.3,16.5-0.9c5-0.7,8.2-1.3,14.7-2.8c0,0,3.2-0.8,11.5-4c1.3-0.7,3.6-1.3,4.6-3.3c0.8-1.7,0.7-3.3,0.7-3.6
			C264.4,87.5,264,86.6,263.6,86"/>
		<path class="st9" d="M267.4,102.5c-3.6,2.1-7.8,4.6-13.3,6.6c-7.7,3.1-14.9,4.2-20.3,4.9c3.3,0.4,12.9,1.9,21.2-1.2
			c1.2-0.4,3.3-1.2,5.8-3.1C264.4,107.1,266.4,104.2,267.4,102.5"/>
		<path class="st9" d="M273.9,109.4c-0.4,0-0.7,1.2-1.7,2.9c-1.2,2-2.9,3.2-6.5,5.7c-2.5,1.7-4.8,3.2-8.5,4.9
			c-4.1,2-7.6,2.9-10.8,3.8c-2.1,0.7-6,1.7-10.9,2.3c-6.8,0.9-11.9,0.7-17.7,0.3c-0.3,0-2.9-0.1-6.2-0.7c-2.3-0.3-4.1-0.9-7.7-1.9
			c-0.7-0.1-1.3-0.4-2.1-1.1c-0.9-0.8-1.9-2.3-1.6-3.7c0.3-1.1,1.2-1.7,2.7-2.5c3.1-1.6,5.8-2,10.9-2.8c1.2-0.1,3.2-0.4,7.4-1.1
			c2.8-0.4,5-0.8,6.6-1.1c-1.9,0-4.2,0-7.4-0.3c-7.4-0.7-12.1-1.7-13.4-2c-3.6-0.9-5.4-1.3-7.6-2.8c-3.3-2.1-4.9-4.8-5.2-5.2
			c-0.4-0.8-0.8-1.6-1.1-2.3c-0.3-0.8-0.4-1.3-0.4-1.9c-0.7-2.8-1.6-6.9-1.6-7.2c-1.7-0.1-3.6-0.3-5.2-0.4
			c-0.8,9.8-1.6,19.5-2.1,29.3c1.1,1.3,2.3,2.7,3.3,4c0.4,0,0.9,0,1.3,0c0.3,0.1,0.7,0.3,1.1,0.4c1.6,0.7,5.2,2,10,3.1
			c1.6,0.3,6.2,1.6,13,2.3c7.2,0.8,12.6,0.4,15.8,0.3c4-0.1,11-0.8,19.6-2.7c1.7-0.4,6.5-1.6,12.3-3.7c0,0,3.7-1.3,9.7-5
			c0.9-0.7,2.3-1.3,3.2-2.9s1.2-2.9,1.3-3.8C274.7,111.8,274.6,109.4,273.9,109.4z"/>
		<path class="st10" d="M163.5,135.8c-0.1,0.3-0.1,0.9,0.1,1.6c0.4,0.8,1.6,0.9,2,0.9c3.1,0.4,6-0.9,6-0.9c3.8-1.9,5.8-5,6.6-6.6
			c1.2-2.1,1.7-4.1,1.9-5c1.9-8.6,2.7-17,2.8-19.2c0.7-8.1,0.8-10,1.1-14.3c0.8-8.1,1.1-10.4,1.7-12.6c1.2-4.9,2.1-8.6,5.2-12.3
			c2.8-3.2,6-4.9,8-5.8c-2.3,1.7-3.6,3.3-4.2,4.6c-2.8,4.2-2.9,8.9-3.1,11.9c0,1.1,0,2.9,0,4.5c0,2.7,0.1,3.2,0.1,4.9
			c0,1.3-0.1,3.3-0.7,5.8c0.9,0.4,2.5,1.2,4.2,2c1.6,0.7,6.8,2.8,14.6,4c13.5,2,24.7-0.3,29.3-1.3c5.7-1.2,9.7-2.8,13.4-5.2
			c4-2.7,5.7-5,6.5-6.2c1.1-1.7,1.7-3.3,2-4.6c0.1,0.3,0.3,0.7,0.7,0.9c0,0.1,0.3,0.4,0.7,1.1c0.4,0.9,0.9,1.9,1.1,2.5
			c0,0.1,0.1,0.1,0.1,0.3c0,0,0,0.1,0.1,0.1c0,0.1,0.1,0.4,0.4,0.9c0.1,0.7,0.3,1.2,0.4,1.7c0.1,0.8,0,1.2,0,1.2s0,0.4-0.1,0.8
			c-0.7,3.1-6.1,5.2-6.1,5.2c-12.7,5.2-26.5,6.2-32.4,6.8c-0.4,0-1.2,0-2.1,0.1c-10.9,0.4-16.6,0.1-18.4,0.1c-0.7,0-3.6-0.3-6.9-0.9
			c-0.3,0-2-0.4-4.1-1.2c-1.6-0.7-2-0.9-2.3-1.1c-0.4-0.4-1.9-1.3-2.1-3.1c-0.4-2,0.8-3.7,0.9-4c-0.4,0.1-1.2,0.7-1.9,1.1
			c-2.7,2-3.2,4.8-3.6,5.6c-0.1,0.8-0.3,1.9,0.8,7.4c0.4,2.3,0.9,4.2,1.2,5.7c0,0.4-0.1,1.1-0.3,1.9c-0.1,0.7-0.1,0.8-0.8,2.7
			c0,0-0.1,0.8-0.8,2.8c0,0.3-0.1,0.7-0.3,1.2c0,0.7-0.1,0.9,0,1.3c0,0,0.1,1.1,0.9,2c0.1,0.1,0.4,0.4,0.8,0.7
			c0.1,0.1,0.3,0.1,0.7,0.3c0.1,0.1,0.3,0.1,0.4,0.3c-0.4,2-1.2,4.9-3.1,8c-3.1,5.4-7.4,8.2-9.4,9.6c-5.2,3.2-10.1,3.8-12.7,4.1
			c-0.7-3.3-1.3-6.8-2-10.1C161.8,136.7,162.7,136.2,163.5,135.8"/>
		<path class="st3" d="M163.5,146c-1.2,5.6-6.8,8.9-12.6,7.7s-9.6-6.6-8.2-12.1c1.2-5.6,6.8-8.9,12.6-7.7
			C161,135.1,164.7,140.4,163.5,146"/>
	</g>
	<path class="st6" d="M179.3,142c0.7-0.3,5-2.1,5.4-5.7c0-0.7,0-1.2-0.1-1.6c-4.1,0.9-7.4,4.1-8.1,8
		C177.7,142.7,178.6,142.3,179.3,142z"/>
</g>
</svg>
