<?xml version="1.0" encoding="utf-8"?>
<!-- Generator: Adobe Illustrator 23.1.0, SVG Export Plug-In . SVG Version: 6.00 Build 0)  -->
<svg version="1.1" id="Camada_1" xmlns="http://www.w3.org/2000/svg" xmlns:xlink="http://www.w3.org/1999/xlink" x="0px" y="0px"
	 viewBox="0 0 290.9 133.2" style="enable-background:new 0 0 290.9 133.2;" xml:space="preserve">
<style type="text/css">
	.st0{fill:#FFFFFF;}
	.st1{fill:#EAEAEA;}
	.st2{fill:#FFC993;}
	.st3{fill:#F3B07B;}
	.st4{fill:#D53932;}
	.st5{fill:#FBBC87;}
	.st6{fill:#FFD6A2;}
	.st7{fill:#FFDFC1;}
</style>
<g>
	<path class="st0" d="M16.2,5.2C11.6,29.1,6.9,53,2.2,77c18.1,3.4,36.3,6.8,54.4,10.2c4.4-23.7,8.9-47.3,13.3-71
		C52,12.5,34.1,8.8,16.2,5.2z"/>
	<path class="st1" d="M69.6,17.9c5,1.3,10.1,2.6,15.1,4C79.5,43.2,74.4,64.6,69.2,86c-4-0.6-8-1.3-12-1.9
		C61.3,62,65.5,39.9,69.6,17.9z"/>
	<path class="st2" d="M83.6,26.3c14.5,2,25.5,0.4,32.9-1.4c7-1.7,10.5-3.6,18.1-4.8c11-1.7,20.4-0.4,26.6,1.1
		c8,20,15.9,39.9,23.9,59.9C172,94,159,106.9,145.9,119.9C120.9,106.1,96,92.3,71,78.5C75.2,61.1,79.4,43.7,83.6,26.3z"/>
	<path class="st3" d="M69.9,83c5.5,2.1,11.2,4.6,17.1,7.3c22.5,10.6,40.9,23.3,55.6,35.4c3.5,3,8.3,2.9,10.8,0.4
		c2.4-2.4,1.7-6.2,1.6-6.6c2.9,2.1,6.9,1.9,9.7-0.4c2.7-2.3,3.4-6.2,1.8-9.4c3.9,3.1,9.4,2.9,13.1-0.4c3.5-3.2,4.3-8.6,1.8-12.7
		c6.7,4.1,14.3,1.4,16.2-3.2c1.4-3.4,0-8-3.6-11.3c-5.8-4-11.6-7.9-17.5-11.9c3.6,4.6,3.6,10.6,0.4,14.3c-3.2,3.7-8.4,3.4-9,3.3
		c0.3,0.8,2.3,6-0.4,10.3c-1.7,2.7-4.3,3.6-6.8,4.6c-4.9,1.9-9.6,1.7-13.1,1.1c0.2,1.3,0.4,3.4-0.2,5.9c-0.7,3.2-2.3,5.4-3.2,6.6
		c-2.9-0.8-7.1-2.1-12-4.3c-6.6-2.9-10.3-5.5-22.6-13.6c0,0-3.3-2.2-20.8-13.7c-7.1-4.7-13-8.5-16.9-11C71.4,76.8,70.7,79.9,69.9,83
		z"/>
	<path class="st4" d="M236.1,93.4c17.5-1.3,35.1-2.7,52.6-4c-2-24-3.9-48-5.9-71.9c-17.9,1.5-35.8,2.9-53.7,4.4
		C231.4,45.7,233.7,69.5,236.1,93.4z"/>
	<path class="st1" d="M229.4,25.7c-5.2,0.4-10.4,0.9-15.6,1.3c3.1,21.4,6.3,42.8,9.4,64.2c4.2-0.3,8.4-0.6,12.6-0.9
		C233.6,68.8,231.5,47.2,229.4,25.7z"/>
	<path class="st5" d="M222.5,86.6c-3.7,0.5-7.4,1-11.1,1.5c-4.4,0.6-8.9,1.1-13.3,1.7c-7.2-6.5-14.3-13-21.5-19.4
		c-6.5-3.6-11.4-7.1-14.7-9.7c-3.7-2.9-6.5-5.5-9.8-4.8c-2,0.4-2.9,1.8-5,4.2c-3.2,3.8-7.3,8.7-12.1,11.8c-2.1,1.4-7.1,4.5-13.3,3.8
		c-2.2-0.3-4-0.9-5.2-1.5c11.8-9.2,23.5-18.3,35.3-27.5c6-0.9,22.7-2.7,40.8,6.3c17.1,8.4,25.7,21.5,28.9,26.8
		C221.8,82,222.2,84.3,222.5,86.6z"/>
	<path class="st6" d="M214.4,31c-2.6,0.5-7,1.2-12.3,1c-18.5-0.7-22.9-11-36.6-10.8c-12.7,0.2-22.7,9.3-29.2,15.2
		c-2.8,2.6-6.8,7.9-14.7,18.6c-8.9,12-10.5,15.4-9.2,17.4c1.7,2.8,8.2,1.6,10.2,1.2c1.6-0.3,7.6-1.6,15.8-9.6
		c6.9-6.8,5.7-8.8,9.3-11.1c10.3-6.6,29.4,4.9,36.2,9c12.4,7.4,19.1,15.6,33.8,17.5c1.6,0.2,3,0.3,3.8,0.3
		C219.1,63.4,216.7,47.2,214.4,31z"/>
	<path class="st6" d="M143.9,121c-1.7,2.9-6.4,3.1-9.4,1.5c-3.1-1.6-5.4-5.6-4.1-8.4c1.4-3.2,7.2-3.9,10.7-1.5
		C143.6,114.4,145.5,118.2,143.9,121z"/>
	<path class="st6" d="M132.1,113.4c-1.6,3.3-7,3.8-10.4,1.8c-3.1-1.8-5.4-6.1-3.8-9.1c1.7-3.3,7.3-3.7,10.7-1.5
		C131.4,106.5,133.6,110.5,132.1,113.4z"/>
	<path class="st6" d="M119.9,105.3c-2.1,3.9-8.2,4.4-12.2,2.3c-3.9-2.1-6.7-7.2-4.9-11c2-4,8.5-4.8,12.7-2.3
		C119.2,96.5,121.9,101.5,119.9,105.3z"/>
	<path class="st6" d="M104.1,96c-2,4-8.4,4.8-12.6,2.5c-4.1-2.2-7-7.6-5-11.4c2.1-4,8.7-4.5,12.9-2C103,87.3,105.9,92.3,104.1,96z"
		/>
	<path class="st7" d="M88.7,88.4c0-1.7,6.2-4.7,10-2.2c2,1.3,2.5,3.5,2.6,3.9c0.5,2.3-0.1,5.3-1.4,5.7c-1.3,0.4-2.1-1.7-5.8-4.2
		C90.6,89.2,88.7,89.3,88.7,88.4z"/>
	<path class="st7" d="M106.5,97.8c0-1.5,5.3-4,8.6-1.9c1.7,1.1,2.2,3,2.3,3.4c0.4,1.9,0,4.5-1.2,4.9c-1.1,0.3-1.8-1.5-4.9-3.6
		C108.2,98.5,106.6,98.6,106.5,97.8z"/>
	<path class="st7" d="M120.4,107.3c0-1.2,4.4-3.3,7.1-1.5c1.4,0.9,1.8,2.4,1.9,2.8c0.4,1.6,0,3.7-1,4c-0.9,0.3-1.5-1.2-4.1-3
		C121.8,107.9,120.5,107.9,120.4,107.3z"/>
	<path class="st7" d="M134.1,114.4c0-1,3.6-2.7,5.9-1.3c1.1,0.7,1.5,2,1.5,2.3c0.3,1.3,0,3.1-0.8,3.3c-0.7,0.2-1.2-1-3.4-2.5
		C135.2,114.9,134.1,114.9,134.1,114.4z"/>
	<path class="st7" d="M121.1,55.7c1,0.6,2.5,1.5,4.1,2.9c2.2,1.9,3.5,3,3.5,4.5c0,1.6-1.7,2.7-3.2,3.8c-3.4,2.3-6.9,2.4-7.9,2.4
		c-2.1,0-3.7-0.5-4.8-0.9c1-1.8,2.1-3.8,3.4-5.8C117.8,60.1,119.5,57.8,121.1,55.7z"/>
</g>
</svg>
