<?xml version="1.0" encoding="utf-8"?>
<!-- Generator: Adobe Illustrator 23.1.0, SVG Export Plug-In . SVG Version: 6.00 Build 0)  -->
<svg version="1.1" id="Camada_1" xmlns="http://www.w3.org/2000/svg" xmlns:xlink="http://www.w3.org/1999/xlink" x="0px" y="0px"
	 viewBox="0 0 290.9 323.5" style="enable-background:new 0 0 290.9 323.5;" xml:space="preserve">
<style type="text/css">
	.st0{fill:#FFFFFF;}
	.st1{fill:#1C6131;}
	.st2{fill:#193C22;}
	.st3{fill:#9C191B;}
	.st4{fill:#791615;}
	.st5{fill:#F19125;}
	.st6{fill:#FDFBFB;}
	.st7{fill:#F5F2F2;}
</style>
<path class="st0" d="M287,108.8c-5-17-16.9-27.1-33.7-31.6c2-18.2-3.5-33.3-18.5-44.1c-15-10.7-31.2-11.1-47.7-3.4
	c-8.3-16.3-21.3-25.4-39.7-26.6c-18.5-0.2-32.2,8-41.7,23.6c-16.1-6.8-31.7-6-46.1,4.3C45.3,41.4,39.6,55.9,41,73.3
	c-17.1,4-29.3,13.7-34.8,30.4c-5.6,16.8-1.6,31.9,9.7,45.2C4.3,162,0.1,177.1,5.4,193.9c5.3,16.9,17.4,26.8,34.4,31
	c0,0.1,0,0.2,0,0.4c-0.6,4.5-0.6,9.1,0.2,13.6c2.1,11.9,8,21.6,17.7,28.8c7.4,5.5,15.7,8.4,24.8,8.8c1.8,0.1,3.6,0.1,5.4-0.1l0,0
	c-0.3,0.7-0.9,1.6-1.8,2.5c-1.8,1.6-3,1.2-4.6,2.4c-1.6,1.3-2.7,3.6-2.4,6c0.4,2.7,2.3,4.2,2.8,4.6c14.5,4,28.9,8,43.4,12.1
	c-0.8,0.3-2.8,1.2-3.9,3.4c-0.7,1.3-0.8,2.6-0.9,3.6c-0.1,0.9-0.1,2.4,0.6,4.2c0.4,0.9,0.8,2,2,2.7c1.1,0.7,2.2,0.7,2.8,0.7
	c0.7-0.1,1.6-0.3,2.8-0.6c4.1-1.3,6.7-3.7,8.4-5.3c5.6-5.3,8.8-12.7,9.8-14.9c0.3,1.3,0.8,2.8,1.4,4.4c0.6,1.5,1.3,2.8,1.9,3.9
	c-0.1,0.7-0.3,2,0.2,3.5c0.9,2.7,3.2,3.9,3.7,4.2c0.6,0.9,1.4,2.1,2.6,3.5c1.3,1.4,2.1,2.4,3.5,3.2c1.2,0.7,2.8,1.6,4.9,1.3
	c2.4-0.4,3.7-2.2,3.8-2.4c1.1-1.5,1-3.1,1-4.1c0-1.6-0.5-2.9-0.8-3.6c-0.1,0-0.1-0.1-0.2-0.1c12.7-3.4,25.5-6.8,38.2-10.2l0,0
	c0.3-0.2,4.5-3,4.2-7.2c-0.1-1.9-1.2-3.4-1.6-3.9c-1.5-2.1-3.5-2.9-4.8-3.4c-1.2-0.5-2.3-0.7-3.1-0.9c-0.2-0.3-0.5-0.6-0.7-0.9
	L201,285c-0.3-0.5-0.6-1.1-0.9-1.7c-0.6-1.3-1.8-4.1-1.9-4.6c6.5,0.8,12.8,0.3,19.1-1.7c19.7-6.1,32.8-25,31.7-45.6
	c0-0.8-0.1-1.6-0.2-2.4c17.2-3.6,29.7-13,35.6-29.7s2.3-31.9-8.8-45.3C287.6,140.6,292,125.7,287,108.8"/>
<g>
	<path class="st1" d="M142.1,290c-0.4,0-1,0-1.7-0.1c-0.5,0-0.8-0.1-1.1-0.1c0,0,0,0,0,0c-1.2-0.2-2.4-0.4-3.8-0.6
		c-0.4,1.6-0.9,3.1-1.3,4.6c-0.9,2.3-1.9,4.7-2.8,7c-2.1,3.2-3.7,5.9-5.1,8c0,0-1.3,2.1-1.1,4.1c0,0.2,0.1,0.7,0.5,1
		c0,0,0.1,0.1,0.2,0.1c1,0.4,3.2-1,3.2-1c0.9-0.6,2.1-1.3,3.9-2.4c0,0,1.9-1.4,3.5-3.5c4-5.1,7.2-10.7,8.8-17.1
		C144.2,290,143.2,290,142.1,290z"/>
	<path class="st2" d="M139.3,289.8c0.4,0.1,0.9,0.1,1.3,0.1c0.5,0,0.9,0.1,1.4,0.1c-0.2,0.8-0.3,1.5-0.5,2.3
		c-0.7,2.9-1.6,5.7-3.1,8.3c-1.7,2.9-3.1,4.9-4.4,6.6c-0.4,0.5-0.9,1.1-1.7,1.9c-1.8,2-0.6,0.6-2.7,3c-0.2,0.2-0.7,0.8-1.4,1.3
		c-0.1,0-0.1,0.1-0.2,0.1c-0.7,0.4-1.7,0.7-1.9,0.5c-0.1-0.2,0.1-0.5,0.4-1c1-1.4,1.9-2.2,2.5-2.7c0.8-0.7,1.3-1.5,2.5-3
		c0.4-0.6,1.1-1.6,2.1-3.2c1.2-2,3.4-5.7,4.9-10.9C138.9,291.8,139.1,290.6,139.3,289.8z"/>
</g>
<path class="st1" d="M165.5,313.8C165.5,313.8,165.5,313.8,165.5,313.8c-0.4-1.4-4.3-13.1-6.3-20.7c-0.3-1-0.7-2.8-1.2-5
	c-2.3,0.6-4.6,1-7.1,1.4c-0.6,0.1-1.1,0.2-1.6,0.2c0.2,0.9,0.4,1.9,0.6,2.9c1.2,5.1,3.2,9.5,5.2,13c0.8,1.4,1.6,2.9,2.4,4.3
	c1,2.1,2.4,4.1,4.1,5.5c0.8,0.7,1.7,1.3,2.7,1.5c1.1,0.3,1.7-0.2,1.7-1.3C165.8,315.1,165.7,314.4,165.5,313.8z"/>
<path class="st2" d="M162.7,314.1c-0.8-1.6-1.6-3.1-2.4-4.6c-1.6-3.3-2.5-6.1-3.2-8.2c-0.8-2.8-1.4-5.6-2.1-8.8
	c-0.3-1.5-0.5-2.7-0.7-3.6c-0.7,0.1-1.3,0.3-2,0.4c0.2,2.1,0.6,4.6,1.3,7.4c0.3,1.2,0.7,2.8,1.4,4.9c0.1,0.3,0.4,1.2,0.8,2.3
	c0.2,0.6,1.1,2.7,3.1,6.7c1.4,2.6,2.2,3.9,3.8,4.7c0.2,0.1,0.4,0.2,0.5,0.2C163.1,315,162.9,314.5,162.7,314.1z"/>
<path class="st3" d="M279.9,110.6c-4.7-16.2-16-25.9-32.1-30.1c1.9-17.3-3.4-31.8-17.7-42c-14.4-10.2-29.8-10.6-45.5-3.2
	c-7.9-15.5-20.4-24.2-37.9-25.4c-17.6-0.2-30.7,7.6-39.8,22.5c-15.4-6.5-30.3-5.8-44,4.1c-13.7,9.9-19.1,23.8-17.7,40.4
	c-16.3,3.8-27.9,13-33.2,29s-1.5,30.4,9.3,43.1c-11.1,12.5-15.1,26.8-10,42.9c5,16.1,16.5,25.5,32.8,29.5c0,0.1,0,0.2,0,0.3
	c-0.6,4.4-0.6,8.7,0.2,13c2,11.4,7.6,20.6,16.9,27.5c7,5.2,14.9,8,23.7,8.4c3.7,0.2,7.3-0.1,10.9-0.8c4.3,0.1,8.5,0.2,12.8,0.4
	c9.7,13.7,22.8,20.9,39.6,19.6c16.9-1.2,28.7-10.2,36.2-25c2.5,2.4,5.1,4.8,7.6,7.2c0.2,0,0.3,0,0.5,0c7.1,1.3,14.1,0.9,21-1.2
	c18.8-5.8,31.3-23.8,30.3-43.5c0-0.8-0.1-1.5-0.2-2.3c16.4-3.4,28.3-12.5,33.9-28.4c5.7-15.9,2.2-30.4-8.4-43.2
	C280.4,141,284.6,126.8,279.9,110.6z"/>
<path class="st3" d="M157.8,260.6c-0.8,1.1-1.6,2.2-2.4,3.3c-1.8,2.7-2.5,5.7-1.6,8.9c1.3,4.4,2.4,8.9,3.6,13.3
	c0.2,0.6,0.3,1.3,0.4,1.9c-1.1,0.3-2.3,0.5-3.4,0.8c-0.7,0.2-1.3,0.3-2,0.5c-1.1,0.2-2.2,0.3-3.2,0.5c-1.3,0.1-2.7,0.2-4,0.3
	c-1.1,0-2.1,0-3.2,0c-0.9-0.1-1.8-0.2-2.7-0.2c-1.2-0.2-2.5-0.4-3.7-0.6c-1.3-0.4-2.7-0.7-4-1.1c-0.1-2.7,0.5-5.2,1.1-7.8
	c1.3-4.9,2.6-9.8,3.9-14.7c0.3-1.2,0.6-2.5,0.8-3.7c0.3-1.8-0.2-3.4-0.9-5c-0.2-0.4-0.3-0.8-0.5-1.1c4.6,0.1,9.2,0.2,13.7,0.2
	c0,2,0,4.1,0,6.3c0.8-0.2,1.6-0.3,2.3-0.4C154,261.5,155.9,261,157.8,260.6"/>
<circle class="st4" cx="145.4" cy="150" r="106.1"/>
<circle class="st3" cx="145.4" cy="149.5" r="102.5"/>
<circle class="st4" cx="145.4" cy="149.5" r="95.1"/>
<path class="st5" d="M96.4,269.8c0.7-2,1.1-3.6,1.4-4.7c0.5-1.8,2-7.6,3.1-11.6c0.6-2.2,1.9-3.8,3.7-5.1c0.2-0.1,0.3-0.3,0.5-0.4
	c2-1.1,4.1-2.1,6.3-2.6l5.2-0.1c0.4,0.7,0.6,1.5,1.1,2c2.7,2.7,6.5,3,9.5,0.8c0.3-0.2,0.5-0.4,0.8-0.5c1.1,0.7,2.4,1.6,3.7,2.8
	c2.1,1.9,3.5,3.9,4.4,5.5c0.2,0.4,0.3,0.8,0.5,1.1c0.7,1.6,1.2,3.3,0.9,5c-0.2,1.3-0.5,2.5-0.8,3.7c-1.3,4.9-2.7,9.8-3.9,14.7
	c-0.7,2.5-1.2,5.1-1.1,7.8c-0.2,1.7,0.2,2.7,0.6,3.4c0.6,1.2,1.3,1.2,2.7,3.2c0.4,0.6,0.8,1.2,1.1,2.1c0.3,0.9,0.7,2.2,0.2,3.1
	c-0.9,1.4-3.9,0.9-4.7,0.8c-0.9-0.1-1.6-0.4-2.1-0.6c-23.8-6.5-40.5-11-42.2-11.3c-0.1,0-1-0.2-2-0.8c-1.5-0.9-1.8-2.3-0.8-3.7
	c0.5-0.7,1.2-1.4,2-1.8c1-0.5,2-1,3.1-1.2c0.8-0.2,1.4-0.5,2-0.9c0.6-0.4,0.9-0.9,1.2-1.4c1.3-2,1.9-3.6,1.9-3.6
	C95.2,274.1,95.9,272.2,96.4,269.8z"/>
<path class="st5" d="M188.6,259.4c0.6,0.8,1,1.6,1,1.6c0.2,0.5,0.5,1,0.6,1.8c0.8,3.1,1.7,6.1,2.5,9.2c1.1,3.7,2.1,7.5,3.3,11.2
	c0.5,1.6,1.3,3,2.2,4.4c0.8,1.4,2,2.2,3.6,2.6c1.2,0.3,2.3,0.9,3.4,1.5c0.7,0.4,1.2,1,1.7,1.6c0.9,1.3,0.6,2.6-0.8,3.5
	c-0.9,0.6-1.8,0.8-1.9,0.8c-1.7,0.3-19.7,5.3-45.1,12.4c-0.2,0-0.5,0.1-0.9,0.1c-2.1,0-2.9-1-2.9-1c-0.7-0.9-0.4-2.2-0.2-2.9
	c0.4-1.6,1.5-2.6,1.9-3c0.7-0.7,1.1-0.8,1.6-1.5c0.2-0.3,0.6-0.9,0.8-1.9c0.5-1.8,0.3-3.4,0.1-4.8c-0.2-1.3-0.4-2.4-0.9-4.2
	c-0.2-0.7-0.3-1.3-0.5-2c0,0-0.1-0.4-0.1-0.4c-0.1-0.6-0.2-1.3-0.4-1.9c-1.2-4.4-2.4-8.9-3.6-13.3c-0.4-1.4-0.5-2.8-0.3-4.1
	c0.3-2.2,1.3-3.8,1.9-4.8c1.3-2.1,2.9-3.3,3.6-3.8c6.4-4.8,16.2-4.8,17.1-4.8C184.7,255.7,188,258.7,188.6,259.4z"/>
<g>
	<path class="st1" d="M128.1,247.7c0.1-0.3,0.2-0.6,0.3-0.9c0.1-0.3,0.2-0.6,0.2-0.9c0-0.9-0.1-1.8-0.2-2.7c2.1-0.6,4.6-1.1,7.5-1.4
		c3.6-0.3,6.7-0.1,9.2,0.2c-0.4,1.1-0.7,2.2-1,3.5c-0.7,3-0.8,5.6-0.8,7.8c-0.3,0-0.4,0-0.5,0c-3.4-0.4-7.6-1.5-12-3.9
		C129.8,248.9,128.9,248.3,128.1,247.7z"/>
	<path class="st1" d="M118.2,240.8c-0.3,0.4-0.9,1.1-1.2,2.2c-0.3,1-0.3,1.9-0.3,2.4c-1.1,0-2,0-2.6,0c-2.9,0-6.9-0.1-11.5-1.5
		c-0.8-0.2-1.5-0.5-1.8-0.6c0.9-1.4,1.4-2.7,1.8-3.6c0.9-2.2,1.3-4.2,1.8-6.1c0.1-0.5,0.2-0.9,0.2-1.2c0.2,0.1,0.5,0.2,0.9,0.3
		c4.2,1.5,7.1,3.6,9.3,5.3C115.7,238.7,116.9,239.6,118.2,240.8z"/>
	<path class="st1" d="M170.6,245.9l-1.9-4.7c-0.8-1.5-1.6-3-2.4-4.5c-1.5-2.7-3.7-4.9-6-6.9c-1.6-1.4-3.2-2.7-4.9-4
		c-3.3-2.5-4.9-2.8-5.5-3c-1.7-0.4-3.3-0.3-4.3-0.2c-0.4-0.1-0.8-0.1-1.2-0.2c-1-0.1-1.9-0.1-2.7,0c-0.9,0-2.1,0.2-3.5,0.4
		c-3.1,0.5-6,1.6-8.7,3.1c-2.3,1.2-4.5,2.7-6.2,4.8c-2.1,2.7-3.6,5.7-4.3,9.1c1.3-0.6,2.5-1.3,4-0.8c1.6,1,3.2,1.9,4.8,2.9
		c1.1-2.7,2.5-5.3,4.2-7.8c2.4-3.5,5.4-5.2,7.3-6.4c1.1-0.7,2.7-1.5,4.6-2.4c0.2-0.1,0.8-0.3,1.5-0.2c0.5,0.1,0.9,0.3,1.1,0.4
		c2.5,2.3,4.4,4.4,5.8,6.1c2.3,2.8,6.4,8.3,9.5,16.2c0.4,0.9,0.9,2.4,1.5,4.2c-5-1.2-9.9-1.6-14.8-1.3c0.2,0.9,0.5,1.8,0.7,2.7
		c0.2,0.9,0.4,1.8,0.6,2.7c-0.1,2.1-0.1,4.1-0.2,6.2c1-0.2,1.7-0.3,2.3-0.4c3.6-0.7,4.9-1.2,5.6-1.4c0.6-0.2,1-0.4,1.2-0.5
		c1-0.4,3.3-1.5,6.6-3c-0.1-0.1-1.9-2.8-0.7-5.5c1-2.3,3.9-3.7,6.7-3.1C171.1,247.5,170.8,246.7,170.6,245.9z"/>
	<path class="st1" d="M174.7,250.1c1.5-1.6,3.4-2.9,5.3-4c2.6-1.7,5.4-3.1,8.4-4.2c0.2-0.1,0.4-0.1,0.6-0.2c0.3,1.7,0.7,3.3,1,5
		c0.5,1.4,1.1,2.8,1.6,4.1c0.3,0.6,0.6,1.2,1,2c-3.7,1.1-7.4,1.5-11.2,1.9c-1.7-0.1-3.4-0.2-5.1-0.3c0.1-1-0.1-2-0.6-2.9
		C175.3,251,175,250.5,174.7,250.1"/>
	<path class="st2" d="M175.8,251.4c-0.1-0.2-0.4-0.8-1.1-1.4c-1.8-1.8-4.3-1.8-4.7-1.8c-0.5,0-1.2,0-2,0.3c-0.3-0.9-0.7-2.4-1.4-4.2
		c-2-5-5.5-14.1-14-18.9c-1.4-0.8-3.6-1.9-6.8-2.6c-2-0.1-7.2-0.2-12.7,3.1c-1.4,0.8-6,3.8-8.7,9.6c-0.5,1-0.8,2.1-1.2,3.3
		c-3.2-0.3-6.1,1.6-6.6,4.5c-0.6,3.1,1.8,6.1,5.2,6.7s6.7-1.3,7.3-4.4c0.5-2.7-1.3-5.4-4.2-6.4c0-0.1,0-0.2,0.1-0.3
		c0.3-0.7,0.7-1.4,1.1-2.1c1.4-2.3,2.8-4.5,4.7-6.5c2.8-2.9,5.8-4.2,7.6-5c2.9-1.3,5.4-1.9,7.3-2.2c3.3,1.1,5.5,2.6,6.8,3.7
		c1,0.8,1.7,1.6,2.3,2.2c1.8,1.9,3.1,3.8,4.1,5.3c1.1,1.7,2.2,3.4,3.1,5.2c1.6,3.2,3.2,6.3,4.8,9.5c0,0,0,0.1,0,0.1
		c-1.9,1-3.1,2.8-3.1,4.8c0,3.1,3.2,5.7,6.4,5.7c3.9,0,6.4-3.9,6.4-5.8C176.4,252.5,175.8,251.4,175.8,251.4z"/>
</g>
<circle class="st6" cx="146" cy="219.9" r="5"/>
<g>
	<path class="st6" d="M143,113.3c0-2.9,0-5.8,0-8.7c0-0.4,0-0.9,0.1-1.3c0.3-1.1,1.3-1.9,2.5-1.8c1.1,0,2.1,0.7,2.4,1.8
		c0.1,0.4,0.1,0.7,0.1,1.1c0,5.9,0,11.8,0,17.7c0,1.2-0.3,2.2-1.5,2.8c-1.4,0.7-3.1-0.1-3.5-1.7c-0.1-0.4-0.1-0.9-0.1-1.4
		C143.1,119,143.1,116.1,143,113.3"/>
	<path class="st6" d="M125.1,84.1c0.2,0.1,0.7,0.2,1.2,0.5c5.3,3,10.6,6,15.9,8.9c1.7,0.9,1.7,2.6,1,3.7s-1.9,1.5-3.1,1
		c-0.5-0.2-1-0.5-1.5-0.8c-4.8-2.7-9.5-5.3-14.2-8c-0.4-0.2-0.9-0.5-1.2-0.8c-0.8-0.7-1-1.7-0.6-2.7
		C122.9,84.8,123.8,84.1,125.1,84.1"/>
	<path class="st6" d="M168.8,86.6c0,1.2-0.6,1.8-1.5,2.3c-2.8,1.6-5.6,3.3-8.5,4.9c-2.3,1.3-4.6,2.7-6.8,4c-0.3,0.2-0.6,0.4-1,0.5
		c-1.1,0.4-2.2,0-2.9-1.1s-0.6-2.3,0.3-3.1c0.3-0.2,0.6-0.4,0.9-0.6c5-2.9,10.1-5.9,15.1-8.8c0.2-0.1,0.4-0.3,0.7-0.4
		C167,83.5,168.9,84.7,168.8,86.6"/>
	<path class="st6" d="M148.1,79c0,1.4,0,2.8,0,4.2c0,0.9-0.2,1.6-0.9,2.2c-1.4,1.2-3.5,0.6-4-1.1c-0.1-0.3-0.2-0.6-0.2-1
		c0-2.8,0-5.7,0-8.5c0-1.2,0.5-2.1,1.6-2.6c1.7-0.7,3.4,0.5,3.5,2.5C148.2,76.2,148.1,77.6,148.1,79"/>
	<path class="st6" d="M136.1,106.1c0,0.9-0.4,1.6-1.2,2c-2.6,1.5-5.3,3-8,4.5c-1.3,0.7-2.7,0.2-3.4-1c-0.7-1.2-0.4-2.6,0.9-3.3
		c2.6-1.5,5.3-3.1,8-4.5C134.1,102.8,136.1,104.1,136.1,106.1"/>
	<path class="st6" d="M159.7,103.4c0.2,0.1,0.6,0.1,1,0.3c2.6,1.5,5.3,3.1,7.9,4.7c0.8,0.5,1.2,1.3,1.1,2.2c-0.1,1-0.6,1.8-1.5,2.2
		c-0.8,0.4-1.5,0.3-2.3-0.2c-2.6-1.5-5.2-3.1-7.8-4.7c-1-0.6-1.3-1.7-1-2.8C157.5,104.1,158.4,103.4,159.7,103.4"/>
</g>
<g>
	<path class="st7" d="M205.7,197.9c1.1,0.4,1.9,0.7,2.7,0.9c0.5,0.2,1,0.2,1.6,0.3c0.1,0,0.2,0,0.4,0.1c0.5,0.1,0.9,0.6,0.7,1
		s-0.7,0.5-1.2,0.3c-0.7-0.3-1.3-0.7-2-1c-0.2-0.1-0.5-0.1-0.8-0.1c-0.1,2.1,0.4,4,0.7,6c0.4,0.2,0.7,0.2,1,0.4
		c0.4,0.3,0.3,0.8-0.1,1c-0.6,0.4-1.4,0.1-1.6-0.6c-0.1-0.4-0.1-0.7-0.2-1.1c-0.1-0.4-0.2-0.7-0.3-1.1c-0.4-0.2-0.7-0.3-1.1-0.5
		c-1,0.4-1,1.4-1.2,2.4c-0.1,0.8-0.4,1.2-1.1,1c-0.3-0.1-0.6-0.3-0.7-0.6c-0.1-0.1,0.2-0.5,0.4-0.7s0.6-0.4,0.7-0.6
		c0.1-0.4,0.1-0.9,0.1-1.3c0-0.4-0.1-0.8-0.1-1.2c0.1-1,0.2-2,0.3-3.1c-0.9,0-1.7,0.2-2.3,0.5c-1.1,0.6-2.1,0.6-3.2-0.1
		c-0.4-0.3-0.9-0.4-1.4-0.6c-0.1,0.1-0.1,0.1-0.2,0.2c0.6,1,1.2,2,1.8,3.2c-0.7,0.3-1.4,0.5-2.1,0.7c0.1,0.5,0.1,0.9,0.2,1.3
		c0.1,0.2,0.3,0.5,0.5,0.5c0.4,0.2,0.9,0.3,0.7,0.8c-0.1,0.3-0.5,0.6-0.8,0.6s-0.8-0.3-1-0.6s-0.2-0.7-0.3-1.1
		c-0.1-0.5-0.2-1-0.3-1.5c-0.6,0-1.2,0-1.9,0c-0.1,0.7-0.2,1.5-0.3,2.2c-0.1,0.8-0.8,1.2-1.5,0.8c-0.5-0.3-0.6-0.9-0.1-1.1
		c1.1-0.4,0.8-1.3,1.1-2c-0.8-0.3-1.5-0.5-2.3-0.8c0.6-1.2,1.2-2.2,2-3.5c-0.6,0.1-1.1,0.1-1.4,0.3c-0.7,0.6-1.7,0.6-2.5,0.9
		c-0.3,0.1-0.8,0-1.1-0.2c-0.7-0.6-1.6-0.6-2.5-1c-0.1,2.2,0.5,4.2,0.7,6.1c0.4,0.2,0.7,0.2,1,0.4c0.4,0.3,0.4,0.8-0.1,1
		c-0.6,0.4-1.5,0.1-1.6-0.7c-0.2-0.7-0.3-1.4-0.4-1.9c-0.5-0.3-0.9-0.6-1.3-0.9c-0.3,0.6-1,1.1-1,2c0,0.3,0,0.6-0.1,0.8
		c-0.1,0.3-0.3,0.7-0.6,0.7c-0.4,0.1-0.8,0-1.1-0.2s-0.2-0.6,0.1-0.8c0.2-0.2,0.5-0.3,0.8-0.4c0.1-0.7,0.5-1.3,0-2
		c-0.2-0.2,0.1-0.8,0.2-1.2c0.1-0.9,0.2-1.8,0.3-2.8c-1,0-1.7,0.2-2.4,0.6c-0.9,0.6-2.2,0.5-3.1-0.1c-0.5-0.3-1-0.4-1.5-0.6
		c-0.1,0.1-0.1,0.2-0.2,0.2c0.6,1,1.2,2,1.8,3.2c-0.7,0.3-1.4,0.5-2.1,0.8c0.1,0.6,0.2,1.1,0.3,1.7c0.2,0.1,0.4,0.1,0.6,0.2
		c0.4,0.1,0.7,0.3,0.6,0.8c-0.1,0.4-0.7,0.7-1.1,0.6c-0.5-0.1-0.8-0.4-0.9-0.9c-0.1-0.7-0.3-1.4-0.5-2.2c-0.6,0-1.2,0-1.9,0
		c-0.1,0.8-0.3,1.5-0.3,2.3c0,0.5-0.3,0.8-0.6,0.8c-0.4,0-0.8-0.1-1.1-0.3c-0.1-0.1-0.1-0.6,0.1-0.7c0.2-0.2,0.5-0.3,0.8-0.5
		c0.1-0.5,0.2-1.1,0.3-1.6c-0.8-0.3-1.5-0.5-2.3-0.8c0.7-1.2,1.2-2.2,1.9-3.3c-0.6-0.2-1-0.1-1.4,0.1c-0.6,0.3-1.3,0.5-1.9,0.7
		c-0.8,0.3-1.2,0.1-1.8-0.3c-0.6-0.4-1.4-0.5-2.2-0.8c0,0.8-0.1,1.4,0,2c0.1,1.1,0.3,2.1,0.5,3.2c0.1,0.6,0.2,1.2,1,1.3
		c0.2,0,0.3,0.3,0.5,0.5c-0.2,0.7-0.7,0.8-1.3,0.7s-0.7-0.5-0.8-1c-0.1-0.6-0.3-1.3-0.4-1.8c-0.5-0.3-0.8-0.5-1.2-0.7
		c-0.1,0.5-1,0.7-1,1.5c0,0.4-0.1,0.7-0.1,1.1c-0.1,0.8-0.6,1.2-1.3,0.9c-0.2-0.1-0.5-0.4-0.5-0.6c0-0.1,0.2-0.5,0.4-0.6
		c0.5-0.2,0.8-0.4,0.8-1c0-0.4,0.3-0.8-0.1-1.2c-0.1-0.2,0-0.5,0-0.8c0.1-1.1,0.2-2.2,0.4-3.5c-0.9,0.2-1.6,0.3-2.2,0.6
		c-1.2,0.7-2.3,0.7-3.4-0.1c-0.2-0.1-0.4-0.2-0.7-0.3c-0.2-0.1-0.5-0.1-1-0.2c0.7,1.2,1.3,2.2,1.9,3.4c-0.7,0.3-1.3,0.5-2.1,0.8
		c0.1,0.6,0.2,1.2,0.3,1.7c0.2,0.1,0.3,0.1,0.4,0.1c0.4,0.1,0.9,0.3,0.8,0.8c-0.1,0.3-0.5,0.6-0.8,0.6s-0.8-0.2-1-0.5
		c-0.3-0.5-0.3-1.2-0.4-1.8c-0.1-0.2-0.1-0.5-0.2-0.8c-0.6,0-1.1,0-1.8,0c-0.1,0.7-0.3,1.5-0.4,2.3c-0.1,0.8-0.9,1.1-1.6,0.7
		c-0.4-0.3-0.5-0.9,0-1c1.1-0.4,0.8-1.3,1.1-2.1c-0.7-0.2-1.4-0.5-2.3-0.8c0.6-1.1,1.2-2.2,1.9-3.4c-0.5,0.1-0.9,0-1.1,0.1
		c-0.8,0.4-1.6,0.7-2.5,0.9c-0.5,0.2-0.9,0.1-1.4-0.1c-0.7-0.4-1.5-0.7-2.4-1.1c0,0.7-0.1,1.2,0,1.7c0.2,1.3,0.4,2.7,0.6,4
		c0.1,0.4,0.2,0.7,0.7,0.8c0.4,0.1,0.8,0.3,0.6,0.7c-0.1,0.2-0.4,0.5-0.7,0.6c-0.5,0.1-0.9,0-1.1-0.5c-0.1-0.3-0.2-0.7-0.2-1.1
		c-0.1-0.4-0.2-0.9-0.3-1.2c-0.4-0.3-0.8-0.5-1.2-0.7c-0.7,0.6-1.1,1.6-1.1,2.8c0,0.5-0.2,0.8-0.6,0.8c-0.4,0-0.8-0.1-1.1-0.3
		c-0.4-0.3-0.1-0.7,0.2-0.9c0.8-0.6,1-1.1,0.8-2c-0.1-0.3-0.1-0.7,0-1.1c0.1-1,0.5-2.1,0.2-3.3c-0.7,0.2-1.5,0.2-1.9,0.6
		c-0.8,0.7-1.6,0.4-2.4,0.5c-0.3,0-0.6-0.2-0.9-0.4c-0.5-0.4-1.1-0.5-1.9-0.7c0.7,1.2,1.3,2.2,1.9,3.4c-0.7,0.3-1.4,0.5-2.1,0.8
		c0.1,0.5,0.2,1.1,0.3,1.7c0.2,0.1,0.4,0.1,0.6,0.2c0.4,0.1,0.8,0.4,0.6,0.9c-0.2,0.3-0.7,0.5-1,0.5c-0.5,0-0.8-0.4-0.9-0.9
		c-0.1-0.7-0.3-1.4-0.5-2.2c-0.6,0-1.2,0-1.9,0c-0.1,0.8-0.3,1.5-0.3,2.3c0,0.5-0.3,0.8-0.6,0.8c-0.4,0-0.8-0.1-1.1-0.3
		c-0.3-0.2-0.2-0.7,0.2-0.8c1-0.4,0.9-1.2,1-2.1c-0.7-0.2-1.4-0.5-2.2-0.8c0.6-1.2,1.2-2.2,1.8-3.3c-0.1-0.1-0.1-0.2-0.2-0.2
		c-0.5,0.2-1.1,0.3-1.6,0.5c-0.3,0.1-0.6,0.3-0.9,0.4c-0.8,0.4-1.5,0.4-2.2-0.2c-0.5-0.4-1.3-0.5-2.1-0.7c-0.1,2.2,0.5,4.1,0.6,6.1
		c0.4,0.1,0.7,0.2,0.9,0.3c0.2,0.1,0.3,0.4,0.3,0.6c0,0.2-0.2,0.4-0.4,0.5c-0.7,0.3-1.3,0-1.5-0.8c-0.2-0.7-0.3-1.4-0.4-2
		c-0.4-0.3-0.8-0.5-1.2-0.8c-0.7,0.7-1.2,1.7-1.1,2.9c0,0.2-0.5,0.6-0.7,0.7c-0.3,0-0.8-0.1-1.1-0.4c-0.3-0.3,0-0.7,0.3-0.8
		c0.9-0.3,1-1.1,0.9-1.7c-0.3-0.9,0-1.6,0.1-2.4c0-0.7,0.1-1.4,0.1-2.3c-0.9,0.1-1.7,0.2-2.4,0.7c-0.8,0.5-2.1,0.4-2.9-0.1
		c-0.5-0.3-1-0.5-1.8-0.8c0.4,1.5,1.4,2.4,1.8,3.6c-0.7,0.3-1.4,0.5-2.1,0.8c0.1,0.6,0.2,1.2,0.4,1.8c0.2,0,0.3,0.1,0.5,0.1
		c0.4,0.1,0.8,0.3,0.7,0.8c-0.1,0.4-0.8,0.7-1.2,0.5c-0.3-0.2-0.5-0.5-0.6-0.8c-0.2-0.7-0.3-1.4-0.5-2.2c-0.3,0-0.6-0.1-0.8-0.1
		c-0.3,0-0.6,0-1,0c-0.1,0.8-0.3,1.5-0.3,2.3c0,0.5-0.3,0.7-0.6,0.8c-0.3,0.1-0.7,0-1-0.2c-0.4-0.2-0.4-0.8,0-0.9
		c1-0.4,0.9-1.2,1.1-2.1c-0.7-0.2-1.4-0.5-2.2-0.8c0.6-1.1,1.2-2.2,1.9-3.4c-0.5,0.1-0.9,0.1-1.2,0.2c-0.8,0.4-1.6,0.6-2.4,0.9
		c-0.6,0.2-1,0.2-1.5-0.2c-0.7-0.6-1.5-0.6-2.4-0.9c-0.2,2.2,0.5,4.1,0.6,6.1c0.3,0.1,0.6,0.1,0.8,0.3c0.2,0.2,0.4,0.5,0.4,0.7
		s-0.3,0.5-0.6,0.5c-0.7,0.2-1.2-0.1-1.3-0.9c-0.1-0.3-0.1-0.6-0.2-1c-0.1-0.3-0.1-0.6-0.2-1c-0.3-0.4-1.3,0.1-1.3-0.9
		c0,0.1,0,0.3-0.1,0.4c-0.8,0.6-0.8,1.5-0.9,2.4c-0.1,0.8-0.5,1.1-1.2,0.9c-0.2-0.1-0.5-0.3-0.6-0.5c0-0.2,0.2-0.5,0.4-0.7
		c0.8-0.6,0.9-1.1,0.7-2c-0.1-0.5-0.1-1,0-1.4c0.3-1.4,0.3-1.7,0.1-2.9c-0.6,0.2-1.3,0.2-1.8,0.5c-0.7,0.5-1.4,0.6-2.2,0.5
		c-0.4-0.1-0.8-0.2-1.2-0.4c-0.5-0.2-1-0.4-1.5-0.7c-0.1,0.1-0.1,0.2-0.2,0.2c0.6,1,1.2,2.1,1.8,3.2c-0.7,0.3-1.3,0.5-2.1,0.7
		c0.1,0.6,0.2,1.2,0.3,1.8c0.2,0.1,0.5,0.1,0.6,0.2c0.2,0.2,0.6,0.6,0.5,0.7c-0.2,0.3-0.5,0.6-0.8,0.7c-0.5,0.2-1-0.2-1.1-0.9
		c-0.2-0.8-0.3-1.5-0.5-2.3c-0.6,0-1.2,0-1.9,0c-0.1,0.8-0.3,1.5-0.4,2.3c-0.1,0.6-0.4,1-0.9,0.9c-0.3-0.1-0.6-0.4-1-0.6
		c0.2-0.2,0.4-0.5,0.6-0.7c0.1-0.1,0.3-0.1,0.5-0.2c0.1-0.6,0.2-1.1,0.4-1.7c-0.8-0.3-1.5-0.5-2.3-0.8c0.6-1.1,1.2-2.2,1.8-3.3
		c-0.1-0.1-0.1-0.2-0.2-0.2c-0.6,0.2-1.1,0.4-1.7,0.6c-0.2,0.1-0.4,0.3-0.7,0.3c-0.4,0.1-0.9,0-1-0.5s0.3-0.8,0.7-0.8
		c1.3-0.1,2.4-0.4,3.5-0.9c0.2-0.1,0.6-0.1,0.8-0.1c-0.1-0.8-0.9-1.3-1.6-1.1c-0.5,0.1-0.9,0.2-1.5,0.3c0.3-0.9,0.5-1.7,0.8-2.5
		c0.6-1.4,1.1-1.7,2.7-1.7c0.7,0,1.4-0.2,2,0.3c0.7,0.6,1,1.4,1.2,2.2c0.1,0.5,0.3,1,0.4,1.6c-0.7-0.1-1.3-0.2-2-0.2
		c-0.8,0.4-0.8,0.4-0.9,1c0.6,0.2,1.2,0.4,1.8,0.7c2.3,0.9,4.6,0.9,6.9-0.1c0.4-0.2,0.8-0.2,1.1-0.3c0.2-0.6-0.3-0.6-0.6-0.8
		c-0.8-0.5-1.2-1.2-1.1-2.2c0.1-0.9,0.6-1.4,1.4-1.8c1-0.4,2.1,0,2.7,0.9s0.4,2.1-0.5,2.8c-0.3,0.2-0.6,0.4-0.8,0.7c0,0,0,0.2,0,0.4
		c1.5,0.4,2.9,0.7,4.4,1.1c0.2,0,0.3,0.1,0.5,0.1c1.4-0.4,2.7-0.8,4.1-1.2c0.3-0.1,0.7-0.1,1.1-0.1c-0.2-0.8-1-1.2-1.7-1.1
		c-0.5,0.1-0.9,0.2-1.5,0.2c0.3-0.9,0.5-1.6,0.7-2.4c0.6-1.5,1.1-1.9,2.8-1.8c0.1,0,0.2,0,0.2,0c1.5-0.1,2,0.2,2.6,1.5
		c0.2,0.4,0.3,0.9,0.5,1.3c0.1,0.4,0.2,0.8,0.4,1.4c-0.6-0.1-1.3-0.2-2-0.2c-0.2,0.3-1,0.2-1,0.9c0.9,0.3,1.8,0.7,2.8,0.9
		c1.9,0.6,3.8,0.5,5.6-0.2c0.5-0.2,1-0.4,1.5-0.6c0.2-0.6-0.4-0.6-0.7-0.8c-1.3-0.9-1.4-2.7-0.1-3.6c1-0.7,2.4-0.5,3.1,0.4
		c0.7,1,0.6,2.2-0.3,3c-0.3,0.3-0.6,0.5-1.1,0.9c1.1,0.4,2,0.7,2.8,1c0.9,0.3,1.7,0.3,2.6,0.1c1.2-0.3,2.4-0.4,3.5-1
		c0.2-0.1,0.6,0,0.8-0.1c0-0.6,0-0.6-1.1-1.2c-0.6,0.1-1.3,0.2-2.1,0.4c0.3-1,0.5-1.9,0.9-2.7c0.6-1.3,1.1-1.6,2.6-1.5
		c0.1,0,0.2,0,0.4,0c1.3-0.1,2,0.3,2.6,1.6c0.2,0.4,0.3,0.9,0.4,1.3c0.1,0.4,0.2,0.8,0.3,1.3c-0.5-0.1-1-0.1-1.5-0.2
		c-0.7-0.2-1.4,0.3-1.5,0.9c0.7,0.2,1.3,0.5,1.9,0.7c2.3,0.9,4.6,0.9,6.9-0.2c0.3-0.1,0.7-0.2,1-0.3c0.2-0.6-0.3-0.6-0.6-0.8
		c-0.8-0.5-1.2-1.2-1.1-2.1c0.1-0.9,0.6-1.5,1.4-1.9c1-0.4,2.1,0,2.7,0.9c0.6,1,0.3,2-0.5,2.8c-0.3,0.3-1,0.2-0.8,1.1
		c1.4,0.4,2.9,0.7,4.4,1.1c0.2,0,0.3,0.1,0.5,0.1c1.4-0.4,2.7-0.8,4.1-1.2c0.3-0.1,0.7-0.1,1.1-0.1c-0.2-0.8-1-1.2-1.7-1.1
		c-0.5,0.1-0.9,0.2-1.5,0.2c0.3-0.9,0.4-1.7,0.7-2.4c0.6-1.5,1.1-1.8,2.8-1.8c0.9,0,1.7-0.1,2.2,0.6c0.4,0.6,0.7,1.2,0.9,1.9
		c0.2,0.5,0.3,1,0.5,1.7c-0.7-0.1-1.3-0.2-2-0.3c-0.8,0.5-0.8,0.5-0.9,1c0.6,0.2,1.3,0.4,1.9,0.7c2.3,0.8,4.5,0.9,6.8-0.2
		c0.3-0.2,0.7-0.2,1.1-0.3c0-0.6-0.6-0.6-0.9-0.8c-0.9-0.6-1.2-1.8-0.7-2.8c0.5-0.9,1.5-1.4,2.5-1.1c1.2,0.3,1.8,1.3,1.7,2.4
		c-0.1,0.7-0.5,1.1-1,1.5c-0.2,0.2-0.5,0.4-0.9,0.7c1.8,0.6,3.3,1.5,5,1.4c1.3-0.1,2.5-0.6,3.8-0.9c0.5-0.1,1-0.3,1.5-0.5
		c-0.1-0.7-0.9-1.2-1.6-1c-0.3,0.1-0.6,0.2-0.8,0.2s-0.4,0-0.7-0.1c0.2-0.8,0.4-1.6,0.7-2.4c0.6-1.4,1.1-1.7,2.7-1.7
		c0.7,0,1.4-0.2,2,0.3c0.7,0.6,1,1.4,1.3,2.2c0.1,0.5,0.3,1,0.4,1.6c-0.7-0.1-1.3-0.2-2-0.2c-0.8,0.4-0.8,0.4-0.9,1
		c0.6,0.2,1.2,0.4,1.8,0.7c2.3,0.9,4.6,0.9,6.9-0.1c0.4-0.2,0.8-0.2,1.1-0.3c0.2-0.6-0.3-0.6-0.6-0.8c-0.8-0.5-1.2-1.2-1.1-2.2
		c0.1-0.9,0.6-1.4,1.4-1.8c1-0.4,2.1,0,2.7,0.9c0.6,0.9,0.4,2-0.4,2.8c-0.3,0.3-1,0.3-0.9,1c1,0.3,2,0.7,3.1,1
		c0.8,0.2,1.6,0.4,2.5,0c0.8-0.4,1.8-0.3,2.6-0.5c0.6-0.2,1.2-0.4,1.8-0.6c-0.2-0.7-0.9-1.1-1.7-1c-0.5,0.1-0.9,0.2-1.5,0.2
		c0.3-0.9,0.5-1.7,0.8-2.5c0.6-1.4,1.1-1.8,2.7-1.7c0.1,0,0.2,0,0.2,0c1.5-0.1,2,0.2,2.6,1.5c0.3,0.8,0.5,1.6,0.9,2.6
		c-0.7-0.1-1.3-0.2-2.1-0.2c-0.8,0.4-0.8,0.4-1,0.9c0.9,0.3,1.8,0.6,2.7,0.9c2,0.6,4,0.5,6-0.3c0.4-0.2,0.8-0.2,1.1-0.4
		c0.2-0.6-0.4-0.6-0.7-0.8c-1.3-0.9-1.4-2.7-0.2-3.6c1-0.7,2.4-0.5,3.1,0.4c0.7,1,0.6,2.2-0.3,3
		C206.5,197.2,206.2,197.5,205.7,197.9"/>
	<g>
		<path class="st6" d="M156.7,144.9c-0.7,1.3-1.4,2.7-2.1,4c-0.8,1.4-1.5,2.9-2.3,4.3c-0.8,1.5-2.9,1.5-3.7,0
			c-1.2-2.3-2.4-4.6-3.6-6.9c-0.2-0.4-0.5-0.9-0.8-1.5c-0.3,1.1-0.1,2-0.1,2.9s0,1.8,0,2.7c0,1,0,1.9,0,2.9c0,0.9,0,1.8,0,2.8
			c-1.3,0-2.4,0-3.6,0c0-5.9,0-11.8,0-17.9c1.2,0,2.4,0,3.7,0c0.6,0,0.8,0.5,1,0.9c1.7,3.4,3.4,6.8,5.1,10.2
			c0.1,0.1,0.1,0.2,0.2,0.5c0.2-0.3,0.3-0.6,0.5-0.9c1.7-3.3,3.3-6.6,5-9.9c0.3-0.6,0.7-0.9,1.5-0.9c1.1,0,2.1,0,3.3,0
			c0,6,0,11.9,0,17.9c-1.2,0-2.3,0-3.6,0c0-3.7,0-7.4,0-11.1C156.9,144.9,156.8,144.9,156.7,144.9"/>
		<path class="st6" d="M164.2,138.2c0.2,0,0.5-0.1,0.7-0.1c2.1,0,4.2,0,6.3,0c1.2,0,2.5,0.1,3.6,0.6c2.1,0.9,3.1,2.7,2.7,5
			c-0.2,1-0.7,1.7-1.5,2.3c-0.4,0.3-0.8,0.5-1.2,0.7c0.2,0.1,0.3,0.1,0.4,0.2c3,1.3,3.8,4.6,1.5,7.1c-1.2,1.3-2.7,1.9-4.4,2
			c-2.7,0.1-5.4,0-8.2,0C164.2,150.1,164.2,144.1,164.2,138.2 M168.4,153c1,0,1.9,0,2.8,0c0.3,0,0.7-0.1,1-0.1
			c1.2-0.2,1.8-1,1.7-2.3c0-1.2-0.6-1.8-1.8-1.9c-1.2-0.1-2.4,0-3.7,0C168.4,150.1,168.4,151.4,168.4,153 M168.4,141.2
			c0,1.5,0,2.9,0,4.4c0.9,0,1.7,0,2.5,0c0.2,0,0.5,0,0.7-0.1c1.3-0.3,1.8-0.9,1.8-2.2s-0.6-1.9-1.9-2
			C170.6,141.1,169.5,141.2,168.4,141.2"/>
		<path class="st6" d="M77.9,156.2c0-6,0-11.9,0-17.8c0.2,0,0.4-0.1,0.6-0.1c2.3,0,4.6-0.1,6.9,0c4.1,0.1,7.2,2.3,8.4,5.8
			c1.9,5.9-1.5,11.9-8.4,12.1c-2.2,0.1-4.5,0-6.7,0C78.4,156.2,78.2,156.2,77.9,156.2 M82.1,152.9c1.3,0,2.5,0.1,3.7,0
			c1.8-0.2,3-1.3,3.6-3c0.7-1.9,0.7-3.7-0.1-5.6c-0.5-1.2-1.4-2.1-2.7-2.6c-1.5-0.5-3.1-0.3-4.6-0.3
			C82.1,145.4,82.1,149.1,82.1,152.9"/>
		<path class="st6" d="M134.8,163.9c3.2,0.1,6.4-0.4,9.5,0.3c4.8,1,7.3,4.9,6.8,10c-0.4,4.3-4.1,7.6-8.6,7.7c-2.5,0.1-5,0-7.6,0
			C134.8,175.9,134.8,170,134.8,163.9 M139,178.6c1.3,0,2.6,0.1,3.8,0c1.9-0.3,3.1-1.5,3.6-3.3c0.5-1.6,0.5-3.2,0-4.8
			c-0.5-1.5-1.5-2.7-3.1-3.1c-1.4-0.4-2.9-0.2-4.4-0.2C139,171.1,139,174.8,139,178.6"/>
		<path class="st6" d="M102.4,182.1c-4.7,0-8.3-2.5-9.3-6.5c-1.6-5.9,2.1-11.6,8.8-11.8c1.3,0,2.6,0.1,3.8,0.6
			c4.5,1.6,6.2,5.7,5.8,9.6c-0.5,4.4-3.6,7.5-7.9,8C103.1,182.1,102.6,182.1,102.4,182.1 M107.2,172.2c0-0.3,0-0.5-0.1-0.7
			c-0.1-0.4-0.3-1.9-1.5-2.9c-0.8-0.7-1.8-1.1-3-1.2c-2.6-0.2-4.6,1.1-5.2,3.6c-0.4,1.5-0.4,2.9,0.1,4.4c0.6,1.9,1.9,3,4,3.2
			c0.6,0.1,1.2,0,1.7,0c1-0.1,1.8-0.5,2.5-1c0.7-0.6,1-1.3,1.1-1.6s0.2-0.5,0.2-0.7C107.2,173.9,107.2,172.8,107.2,172.2z"/>
		<path class="st6" d="M195.7,147c0-5.2,3.8-9.1,9-9.1c1.1,0,2.2,0.1,3.2,0.3c4.3,1.1,7,5,6.7,9.5c-0.3,4.4-3.5,7.8-8,8.3
			c-1.6,0.2-3.1,0.1-4.7-0.4C198.1,154.5,195.7,151.1,195.7,147 M210.1,145.6c-0.1-0.7-0.4-2-1.5-3c-1.2-1-2.5-1.2-3.1-1.2
			c-2.6-0.1-4.5,1.2-5.2,3.7c-0.4,1.4-0.3,2.8,0.1,4.2c0.5,1.7,1.5,2.9,3.2,3.3c0.5,0.1,2.9,0.7,4.8-0.8c1.5-1.2,1.7-3.1,1.8-4
			C210.3,146.6,210.1,145.8,210.1,145.6z"/>
		<path class="st6" d="M212.4,172.8c0,4.9-3.3,8.6-8.2,9.1c-1.5,0.2-3.1,0-4.5-0.4c-3.8-1.3-6.2-4.7-6.1-8.8
			c0.2-5.2,3.9-8.8,9.1-8.9c1.3,0,2.6,0.1,3.9,0.6C210.2,165.6,212.4,168.8,212.4,172.8 M208,171.4c-0.1-0.4-0.2-0.9-0.4-1.4
			c-0.1-0.3-0.5-1.1-1.3-1.8c-0.9-0.7-2-1-3.3-1c-2.1,0-3.7,0.8-4.5,2.8c-0.8,1.9-0.7,3.8,0,5.7c0.5,1.3,1.6,2.3,3,2.6
			c0.6,0.1,2.9,0.7,4.8-0.8c1.6-1.3,1.8-3.4,1.8-4C208.2,172.5,208,171.6,208,171.4z"/>
		<path class="st6" d="M190.6,148.4c2.1,2.2,3.2,5,5,7.6c-1.6,0-2.9,0-4.2,0c-0.6,0-1-0.5-1.3-1c-0.8-1.4-1.6-2.8-2.4-4.2
			c-0.6-1.1-1.3-1.7-2.7-1.3c0,2.1,0,4.3,0,6.5c-1.5,0-2.8,0-4.2,0c0-5.9,0-11.9,0-17.9c1,0,2,0,3,0c1.5,0,3.1,0,4.6,0.1
			c0.7,0,1.4,0.2,2,0.4c2,0.6,3.2,2,3.5,4.1c0.2,2.1-0.5,3.9-2.3,5.1C191.2,148.1,190.9,148.2,190.6,148.4 M185,146.5
			c1-0.1,1.9-0.1,2.9-0.2c1.3-0.3,1.9-1.3,1.9-2.7c0-1.3-0.6-2-2-2.3c-0.9-0.2-1.9-0.2-2.8,0C185,143,185,144.7,185,146.5"/>
		<path class="st6" d="M180.4,174.2c2.1,2.2,3.2,5,5,7.6c-1.6,0-3,0-4.3,0c-0.6,0-0.9-0.5-1.2-1c-0.8-1.4-1.6-2.9-2.5-4.3
			c-0.8-1.4-0.8-1.4-2.6-1.3c0,2.2,0,4.3,0,6.6c-1.5,0-2.8,0-4.2,0c0-5.9,0-11.8,0-17.9c0.4,0,0.8,0,1.2,0c2.1,0,4.1,0,6.2,0.1
			c0.7,0,1.5,0.2,2.2,0.4c2,0.6,3.2,2,3.5,4.1c0.2,2.1-0.5,3.9-2.3,5.2C181.1,173.9,180.7,174.1,180.4,174.2 M174.9,166.9
			c0,1.9,0,3.6,0,5.4c0.9-0.1,1.7-0.1,2.5-0.2c1.4-0.2,2.1-1.2,2.2-2.6c0-1.4-0.6-2.2-2-2.5C176.7,167,175.9,167,174.9,166.9"/>
		<path class="st6" d="M157.9,164c1.5,0,2.9,0,4.4,0c2.3,5.9,4.6,11.9,7,17.9c-1.2,0-2.3,0-3.4,0c-0.7,0-1.1-0.5-1.3-1.1
			c-0.3-0.9-0.6-1.9-1-2.8c-2.3,0-4.6,0-6.9,0c-0.3,0.9-0.6,1.8-0.9,2.7c-0.4,1.1-0.7,1.3-1.8,1.3c-0.9,0-1.9,0-3,0
			C153.3,175.9,155.6,169.9,157.9,164 M157.6,174.9c1.7,0,3.2,0,4.9,0c-0.8-2.3-1.6-4.6-2.4-7C159.2,170.3,158.4,172.5,157.6,174.9"
			/>
		<path class="st6" d="M123.5,156.1c-4.6,0-9.2,0-13.8,0c-0.2-1.2,0-2.3,0.7-3.3c2.4-3.4,4.8-6.8,7.2-10.2c0.2-0.3,0.4-0.7,0.8-1.2
			c-2.8,0-5.4,0-8,0c0-1.1,0-2.1,0-3.2c4.4,0,8.9,0,13.4,0c0.2,1.1,0.1,2.1-0.6,3.1c-2.5,3.5-4.9,7-7.3,10.4
			c-0.2,0.3-0.5,0.7-0.8,1.1c2.9,0,5.6,0,8.4,0C123.5,154,123.5,155,123.5,156.1"/>
		<path class="st6" d="M108.3,152.9c0,1.2,0,2.1,0,3.2c-3.8,0-7.6,0-11.5,0c0-5.9,0-11.9,0-17.8c3.8,0,7.6,0,11.5,0c0,1,0,2,0,3.2
			c-2.4,0-4.8,0-7.3,0c0,1.5,0,2.8,0,4.2c1.9,0,3.7,0,5.5,0c0,1.1,0,2,0,3.1c-1.8,0-3.6,0-5.5,0c0,1.4,0,2.8,0,4.2
			C103.4,152.9,105.8,152.9,108.3,152.9"/>
		<path class="st6" d="M130.3,148.7c0,1.5,0,2.8,0,4.2c1.2,0,2.4,0,3.6,0c1.2,0,2.4,0,3.7,0c0,1.1,0,2.1,0,3.2c-3.8,0-7.6,0-11.5,0
			c0-5.9,0-11.9,0-17.8c3.8,0,7.6,0,11.5,0c0.1,1,0,2,0.1,3.2c-2.5,0-4.9,0-7.4,0c0,1.5,0,2.8,0,4.2c1.9,0,3.7,0,5.5,0
			c0,1.1,0,2,0,3.1C134,148.7,132.2,148.7,130.3,148.7"/>
		<path class="st6" d="M78.6,179.8c0.4-0.6,0.7-1.2,1.1-1.8c0.5-0.7,1-0.8,1.8-0.4c0.6,0.3,1.1,0.6,1.6,0.9c0.9,0.4,1.9,0.5,2.9,0.2
			c0.7-0.2,1.1-0.7,1.2-1.4c0.1-0.8-0.1-1.4-0.8-1.8c-0.6-0.3-1.2-0.5-1.8-0.7c-0.8-0.3-1.6-0.5-2.3-0.8c-3.7-1.3-3.8-5.9-1.7-8
			c0.9-0.9,1.9-1.5,3.2-1.8c2.4-0.5,4.7-0.1,6.7,1.3c0.1,0.1,0.2,0.1,0.3,0.2c0.1,0.1,0.1,0.1,0.2,0.3c-0.3,0.6-0.6,1.2-1,1.8
			c-0.4,0.7-0.8,0.8-1.6,0.5c-0.4-0.2-0.8-0.4-1.2-0.6c-0.9-0.4-1.8-0.4-2.7-0.2c-0.7,0.2-1.2,0.6-1.3,1.3c-0.1,0.7,0.1,1.2,0.9,1.6
			c0.5,0.3,1.1,0.5,1.7,0.7c0.7,0.3,1.5,0.5,2.2,0.8c4.6,1.6,3.7,7.2,1.1,9c-1.1,0.8-2.3,1.2-3.6,1.3c-2.3,0.2-4.3-0.4-6.2-1.7
			C79.1,180.3,78.9,180,78.6,179.8"/>
		<path class="st6" d="M114.1,164c1.4,0,2.7,0,4.1,0c0,4.8,0,9.6,0,14.6c2.3,0,4.4,0,6.6,0c0,1.2,0,2.2,0,3.2
			c-0.9,0.2-8.2,0.3-10.8,0.1C114.1,176,114.1,170,114.1,164"/>
		<path class="st6" d="M127.1,181.9c0-6,0-11.9,0-17.9c1.4,0,2.7,0,4.1,0c0,5.9,0,11.8,0,17.9C129.9,182,128.5,182,127.1,181.9"/>
		<path class="st6" d="M187.1,163.9c1.4,0,2.7,0,4.1,0c0,6,0,11.9,0,17.8c-1.3,0-2.7,0-4.1,0C187.1,175.9,187.1,169.9,187.1,163.9"
			/>
		<path class="st7" d="M157.6,162.7c0.9-1.3,1.7-2.4,2.5-3.5c0.1-0.2,0.4-0.3,0.6-0.3c1.5,0,3.1,0,4.9,0c-1.5,1.3-2.7,2.4-4,3.5
			c-0.2,0.2-0.6,0.3-0.9,0.4C159.8,162.7,158.9,162.7,157.6,162.7"/>
	</g>
</g>
</svg>
