<svg id="Layer_1" data-name="Layer 1" xmlns="http://www.w3.org/2000/svg" viewBox="0 0 300.22 293.6"><defs><style>.cls-1{fill:#a01e25;}.cls-2{fill:#fff;}.cls-3{fill:#ffe5d9;}</style></defs><title>logo-site</title><path class="cls-1" d="M297.44,146.8c0,10.85-12.1,20.2-14.41,30.35-2.38,10.48,4.41,24.13-.16,33.59s-19.59,12.79-26.18,21S250.27,255.36,242,262s-23.1,3-32.71,7.65c-9.46,4.57-15.88,18.44-26.36,20.83-10.15,2.3-21.94-7.36-32.79-7.36s-22.64,9.66-32.79,7.36S100.41,274.21,91,269.64C81.34,265,66.5,268.58,58.25,262s-8.1-21.91-14.72-30.2-21.55-11.44-26.19-21,2.23-23.11-.15-33.59C14.88,167,2.78,157.65,2.78,146.8s12.1-20.19,14.41-30.34c2.38-10.49-4.41-24.14.15-33.6,4.64-9.61,19.6-12.79,26.19-21S50,38.24,58.25,31.62,81.34,28.6,91,24c9.45-4.56,15.88-18.44,26.36-20.82,10.15-2.31,21.94,7.35,32.79,7.35S172.74.83,182.9,3.14C193.38,5.52,199.8,19.4,209.26,24,218.87,28.6,233.71,25,242,31.62s8.09,21.9,14.72,30.2,21.55,11.43,26.18,21c4.57,9.46-2.22,23.12.16,33.6,2.31,10.15,14.41,19.49,14.41,30.34Z"/><path class="cls-2" d="M120.62,293.6a17.8,17.8,0,0,1-3.91-.42c-6.46-1.47-11.41-6.72-16.2-11.8-3.61-3.81-7-7.42-10.76-9.23s-8.75-2.25-14-2.67c-6.9-.56-14-1.14-19.27-5.32S49.1,253.11,47,246.49c-1.56-5-3-9.68-5.66-13s-6.85-5.73-11.33-8.34c-6-3.5-12.25-7.12-15.19-13.23S13,198.9,14,192.07c.75-5.2,1.47-10.12.51-14.31-.9-4-3.6-8-6.47-12.21-3.93-5.81-8-11.83-8-18.75s4.07-12.93,8-18.75c2.87-4.24,5.57-8.24,6.47-12.21,1-4.19.24-9.11-.51-14.31-1-6.83-2-13.89.88-19.87S24,71.92,30,68.42c4.48-2.61,8.72-5.08,11.33-8.34s4.1-8,5.66-13c2.08-6.62,4.23-13.47,9.49-17.67s12.37-4.75,19.27-5.31c5.21-.43,10.14-.83,14-2.68s7-5.34,10.56-9.11C105.09,7.23,110,2,116.71.43c6.4-1.46,13,1.09,19.4,3.56,4.73,1.83,9.63,3.72,14,3.72s9.26-1.89,14-3.72c6.39-2.47,13-5,19.4-3.56,6.68,1.52,11.62,6.8,16.4,11.91,3.52,3.77,6.84,7.32,10.56,9.11s8.75,2.25,14,2.67c6.9.56,14,1.14,19.26,5.32s7.42,11.05,9.49,17.67c1.57,5,3,9.68,5.67,13s6.84,5.73,11.33,8.34c6,3.5,12.24,7.13,15.19,13.24s1.87,13,.88,19.87c-.76,5.2-1.47,10.12-.52,14.31.9,4,3.61,8,6.48,12.21,3.93,5.82,8,11.83,8,18.75s-4.07,12.94-8,18.75c-2.87,4.24-5.58,8.25-6.48,12.21-.95,4.19-.24,9.11.52,14.32,1,6.82,2,13.88-.88,19.87s-9.17,9.73-15.19,13.23c-4.49,2.61-8.72,5.08-11.33,8.34s-4.1,8-5.66,13c-2.08,6.62-4.23,13.47-9.5,17.67s-12.36,4.76-19.26,5.32c-5.22.42-10.14.82-14,2.67s-7,5.35-10.56,9.11c-4.78,5.11-9.72,10.4-16.4,11.92-6.4,1.46-13-1.1-19.4-3.57-4.73-1.83-9.63-3.72-14-3.72s-9.27,1.89-14,3.72C131,291.58,125.78,293.6,120.62,293.6Zm0-288a12,12,0,0,0-2.69.29c-5,1.14-9.17,5.58-13.57,10.29-3.71,4-7.55,8.08-12.2,10.32s-10.45,2.76-16,3.21c-6.34.51-12.33,1-16.24,4.12s-5.74,8.9-7.65,15C50.68,54,49,59.45,45.7,63.55s-8.14,6.92-12.87,9.68c-5.54,3.22-10.78,6.27-13,10.84s-1.3,10.39-.39,16.66c.8,5.48,1.62,11.15.44,16.34-1.14,5-4.27,9.62-7.29,14.09-3.63,5.36-7,10.43-7,15.64S9,157.08,12.61,162.44c3,4.48,6.16,9.11,7.29,14.09,1.18,5.2.36,10.86-.44,16.34-.91,6.28-1.76,12.2.39,16.66s7.44,7.62,13,10.85c4.73,2.75,9.62,5.6,12.87,9.67s5,9.53,6.63,14.78c1.91,6.09,3.72,11.84,7.65,15s9.9,3.6,16.25,4.12c5.49.44,11.18.9,15.93,3.2s8.6,6.41,12.39,10.43c4.41,4.67,8.58,9.09,13.39,10.18s10.29-1.06,16.17-3.33c5.2-2,10.59-4.09,16-4.09s10.79,2.08,16,4.09c5.88,2.27,11.42,4.41,16.17,3.33,5-1.14,9.17-5.58,13.57-10.29,3.71-4,7.55-8.08,12.2-10.32s10.45-2.76,15.94-3.2c6.35-.52,12.34-1,16.24-4.13s5.75-8.89,7.66-15c1.65-5.24,3.35-10.66,6.63-14.77s8.14-6.92,12.87-9.67c5.54-3.23,10.77-6.27,13-10.85s1.29-10.38.38-16.66c-.79-5.48-1.61-11.14-.43-16.34,1.13-5,4.26-9.61,7.29-14.09,3.62-5.36,7.05-10.42,7.05-15.64s-3.43-10.28-7.05-15.64c-3-4.47-6.16-9.1-7.29-14.09-1.18-5.19-.36-10.86.43-16.34.91-6.27,1.77-12.2-.38-16.66s-7.44-7.62-13-10.84c-4.73-2.76-9.62-5.6-12.87-9.68s-5-9.53-6.63-14.77c-1.91-6.09-3.72-11.85-7.66-15s-9.9-3.61-16.24-4.12c-5.5-.45-11.18-.91-15.94-3.21s-8.49-6.35-12.2-10.32c-4.4-4.71-8.56-9.15-13.57-10.29-4.75-1.08-10.3,1.06-16.17,3.33-5.21,2-10.59,4.09-16,4.09s-10.8-2.08-16-4.09C129.31,7.33,124.74,5.56,120.63,5.56Z"/><path class="cls-3" d="M150.1,134.38a5.05,5.05,0,0,1-2.79-.83c-18.34-11.93-31.15-24.5-38.08-37.33-5.68-10.52-5.68-18.23-5.68-20.77a31.66,31.66,0,0,1,4.22-14.64,22,22,0,0,1,19-11.32,30.87,30.87,0,0,1,19.57,5.7,27.74,27.74,0,0,1,3.77,3.35,28.51,28.51,0,0,1,3.78-3.35,30.85,30.85,0,0,1,19.57-5.7,22,22,0,0,1,19,11.32,31.66,31.66,0,0,1,4.22,14.64v0c0,2.54,0,10.27-5.68,20.78-6.93,12.83-19.75,25.38-38.09,37.3a5,5,0,0,1-2.79.83Zm-22-78.3-1.08,0a15.48,15.48,0,0,0-13.52,8.06,24.77,24.77,0,0,0-3.31,11.29c0,2.35,0,8.58,4.89,17.62,6.3,11.67,18.09,23.24,35.05,34.41,17-11.15,28.76-22.72,35.06-34.37,4.89-9,4.89-15.29,4.89-17.64v0a24.8,24.8,0,0,0-3.31-11.29,15.47,15.47,0,0,0-13.53-8h0c-14.24-.51-20,9-20.23,9.43a3.33,3.33,0,0,1-5.75,0c-.23-.39-5.7-9.45-19.17-9.45Z"/><path class="cls-3" d="M204.41,150.42v-1.71c0-11.61-.12-23.23-.09-34.84a29.18,29.18,0,0,1,.81-4.83c-2.92-.7-5.72,1.74-5.73,5.22,0,8.23,0,16.46,0,24.69,0,.49,0,1,0,1.49a3,3,0,0,1-6,.07,9,9,0,0,1,0-1q-.06-12.8-.11-25.58c0-7.8,8.07-13.23,15.55-10.37a3.39,3.39,0,0,0,2.67,0c5.76-2.17,12.45-.11,15.3,7.27a8.77,8.77,0,0,1,.39,3c.23,11.46.55,22.93.6,34.39a92.44,92.44,0,0,1-1.84,19.91c-1.65,7.67-5.54,14.27-10.19,20.44a198.36,198.36,0,0,0-21.09,35.54c-2.41,5.15-3,10.71-3,16.33a5,5,0,0,1-.46,2.29,2.74,2.74,0,0,1-3.2,1.37,2.78,2.78,0,0,1-2.35-2.73c-.22-7,.65-13.85,3.67-20.25A203.62,203.62,0,0,1,211,184.54c4.75-6.28,8.47-13.09,9.38-21a161.32,161.32,0,0,0,1.23-17.28c.07-9.16-.3-18.33-.52-27.5,0-1.78-.19-3.57-.35-5.35a5.1,5.1,0,0,0-5.39-4.52,5,5,0,0,0-4.7,4.82c0,13-.49,25.93-.12,38.88.29,10.08-3.89,17.66-11,24.07-4,3.63-8.18,7.15-12.21,10.8-1.81,1.64-3.45,3.45-5.17,5.2-1.44,1.46-3.38,1.64-4.64.41a3.08,3.08,0,0,1,.23-4.64q8-7.51,16.15-14.9c4-3.57,7.61-7.32,9.43-12.5,1-2.94-.46-5.21-3.61-5.46a6,6,0,0,0-4.87,1.88c-9,9.09-18.1,18.14-26.9,27.44a34.07,34.07,0,0,0-9.21,22.65c-.37,9.21-.27,18.43-.37,27.65,0,1.94.07,3.89,0,5.83a3,3,0,0,1-3.11,3.12,2.93,2.93,0,0,1-3-3.22c-.08-7.93-.21-15.86-.22-23.78A79.35,79.35,0,0,1,154,198.41c1.92-8,6.24-14.65,11.85-20.46,8-8.29,16-16.53,24.27-24.57,3.7-3.62,8.27-5.12,13.47-3.18a7.11,7.11,0,0,0,.87.22Z"/><path class="cls-3" d="M94.67,109c1.76,5,1.11,10,1.18,15,.12,8.07,0,16.15,0,24.23v2c1.16-.28,2.2-.61,3.26-.76a11.27,11.27,0,0,1,10.09,3.41q14.73,15.28,29.26,30.78c6.13,6.56,8.87,14.62,9.11,23.45.31,11.25.25,22.52.34,33.78a3,3,0,0,1-2.75,3.14,2.88,2.88,0,0,1-3.27-2.75c-.17-4.39-.16-8.77-.22-13.16-.12-7.57-.07-15.15-.42-22.71A26.89,26.89,0,0,0,134,188c-7.53-8.1-15.16-16.12-22.77-24.15-2.16-2.28-4.32-4.56-6.6-6.72a5.3,5.3,0,0,0-6.6-.87c-1.8,1.07-2.07,1.92-1.43,3.91,1.73,5.38,5.33,9.36,9.42,13,5.31,4.75,10.53,9.6,15.77,14.42a10,10,0,0,1,1.21,1.32,3,3,0,0,1-.29,4.08,3,3,0,0,1-4.08.07c-1.07-1-2-2.12-3-3.09q-7.32-6.63-14.68-13.18c-4.19-3.73-7.76-7.94-9.66-13.28a21.69,21.69,0,0,1-1.39-6.81c-.15-12-.08-23.93-.12-35.89,0-2.34-.14-4.69-.29-7a5.21,5.21,0,0,0-4.11-4.9,5.08,5.08,0,0,0-5.49,2.43,4,4,0,0,0-.49,1.68c-.56,13.45-1.36,26.89-.59,40.35.48,8.45,1.44,16.83,5.65,24.38A73,73,0,0,0,91,187.58c6.88,8.63,13.26,17.55,18.21,27.48a51.32,51.32,0,0,1,5.51,25.7c-.1,2.05-1.24,3.34-3,3.34a2.84,2.84,0,0,1-3-3.17c.87-11.84-3.5-22.14-9.72-31.72-4.41-6.8-9.38-13.24-14.28-19.71A56.93,56.93,0,0,1,73,158.06,350.08,350.08,0,0,1,73,120.84c.09-2.24.07-4.48.09-6.72a11.19,11.19,0,0,1,15.5-10.56,3.59,3.59,0,0,0,2.94,0A11.38,11.38,0,0,1,107,114.61c-.2,8.42-.09,16.85-.1,25.28a3.09,3.09,0,0,1-1.68,3.08,2.56,2.56,0,0,1-3.19-.38,4.87,4.87,0,0,1-1.14-2.88c-.09-8.48,0-17-.06-25.43,0-3.53-2.51-5.72-6.19-5.3Z"/><path class="cls-3" d="M167.54,100l-5.76-3.47h0a2.63,2.63,0,0,0-2.67,0,2.93,2.93,0,0,0-1.44,2.5,2.59,2.59,0,0,0,1.36,2.28l5.76,3.47h0a2.8,2.8,0,0,0,1.4.39,2.49,2.49,0,0,0,1.27-.34,2.93,2.93,0,0,0,1.44-2.5,2.61,2.61,0,0,0-1.36-2.28Z"/><path class="cls-3" d="M149.8,84.47a2.74,2.74,0,0,0,2.73-2.74V74.92a2.74,2.74,0,0,0-5.47,0v6.81A2.74,2.74,0,0,0,149.8,84.47Z"/><path class="cls-3" d="M148.72,92.46a2.64,2.64,0,0,0-1-3.73l-12.32-7a2.74,2.74,0,0,0-2.73,4.74l12.32,7a2.63,2.63,0,0,0,3.72-1Z"/><path class="cls-3" d="M139.24,96.48l-5.92,3.36a2.62,2.62,0,0,0-1.37,2.29,2.92,2.92,0,0,0,1.44,2.5,2.49,2.49,0,0,0,1.27.34,2.79,2.79,0,0,0,1.39-.39l5.92-3.36a2.74,2.74,0,0,0-2.73-4.74Z"/><path class="cls-3" d="M149.8,94.55a2.74,2.74,0,0,0-2.74,2.74v14.18a2.74,2.74,0,1,0,5.47,0V97.29A2.74,2.74,0,0,0,149.8,94.55Z"/><path class="cls-3" d="M168.29,84.16a2.92,2.92,0,0,0-1.44-2.5,2.61,2.61,0,0,0-2.67,0L152,88.8a2.63,2.63,0,0,0-1,3.72,2.73,2.73,0,0,0,2.32,1.41,2.83,2.83,0,0,0,1.4-.39l12.19-7.1a2.61,2.61,0,0,0,1.37-2.29Z"/></svg>