<?xml version="1.0" encoding="UTF-8"?>
<svg id="Layer_1" data-name="Layer 1" xmlns="http://www.w3.org/2000/svg" viewBox="0 0 2000 2000">
  <defs>
    <style>
      .cls-1 {
        fill: #ffe5d9;
      }

      .cls-2 {
        fill: #a01e25;
      }
    </style>
  </defs>
  <path class="cls-2" d="M1855.91,1000c0,63.03-70.28,117.32-83.69,176.29-13.84,60.9,25.6,140.22-.91,195.16-26.94,55.85-113.83,74.32-152.13,122.29-38.49,48.2-37.3,136.96-85.51,175.45-47.97,38.3-134.18,17.53-190.03,44.48-54.94,26.51-92.27,107.12-153.17,120.96-58.97,13.4-127.45-42.72-190.48-42.72s-131.5,56.13-190.48,42.72-98.23-94.45-153.17-120.96c-55.85-26.94-142.06-6.17-190.03-44.48-48.2-38.49-47.02-127.25-85.51-175.45-38.3-47.97-125.19-66.44-152.13-122.29-26.51-54.94,12.93-134.27-.91-195.16-13.4-58.97-83.69-113.26-83.69-176.29s70.28-117.32,83.69-176.29c13.84-60.9-25.6-140.22,.91-195.16,26.94-55.85,113.83-74.32,152.13-122.29,38.49-48.2,37.3-136.96,85.51-175.45,47.97-38.3,134.18-17.53,190.03-44.48,54.94-26.51,92.27-107.12,153.17-120.96,58.97-13.4,127.45,42.72,190.48,42.72s131.5-56.13,190.48-42.72c60.9,13.84,98.23,94.45,153.17,120.96,55.85,26.94,142.06,6.17,190.03,44.48,48.2,38.49,47.02,127.25,85.51,175.45,38.3,47.97,125.19,66.44,152.13,122.29,26.51,54.94-12.93,134.27,.91,195.16,13.4,58.97,83.69,113.26,83.69,176.29Z"/>
  <g>
    <path class="cls-1" d="M1000,807.6c-4.46,0-8.92-1.27-12.82-3.8-84.12-54.77-142.9-112.4-174.71-171.29-26.06-48.23-26.06-83.64-26.06-95.27,0-12.73,4.08-41.22,19.36-67.19,19.19-32.62,49.32-50.56,87.13-51.89,33.9-1.19,64.94,7.85,89.78,26.15,7.06,5.2,12.8,10.53,17.31,15.33,4.52-4.8,10.25-10.13,17.31-15.33,24.85-18.3,55.89-27.34,89.79-26.15,37.81,1.33,67.94,19.27,87.13,51.89,15.28,25.98,19.36,54.46,19.36,67.19v.07c0,11.66,0,47.14-26.06,95.35-31.81,58.84-90.59,116.42-174.72,171.14-3.89,2.53-8.35,3.8-12.81,3.8Zm-101.1-359.21c-1.62,0-3.26,.03-4.93,.09-27.31,.96-48.19,13.39-62.05,36.95-12,20.4-15.17,42.81-15.17,51.81,0,10.77,0,39.37,22.41,80.85,28.92,53.53,83.02,106.61,160.84,157.84,77.83-51.17,131.93-104.21,160.83-157.69,22.41-41.46,22.41-70.13,22.41-80.92v-.07c0-9-3.17-31.41-15.17-51.81-13.86-23.56-34.73-35.99-62.05-36.95h0c-65.37-2.3-91.76,41.44-92.85,43.3-2.73,4.66-7.78,7.55-13.18,7.55s-10.45-2.89-13.18-7.55c-1.07-1.82-26.16-43.39-87.92-43.39Z"/>
    <g>
      <path class="cls-1" d="M1249.13,881.18c0-2.97,0-5.41,0-7.84-.2-53.29-.55-106.58-.42-159.87,.02-7.36,2.43-14.72,3.74-22.12-13.42-3.24-26.26,7.96-26.32,23.95-.13,37.74-.05,75.49-.06,113.23,0,2.29,.1,4.58-.06,6.86-.52,7.45-6.06,12.86-13.28,13.09-7.58,.24-13.56-5.05-14.34-12.75-.16-1.59-.08-3.2-.09-4.8-.18-39.11-.38-78.22-.52-117.33-.13-35.81,37.02-60.69,71.36-47.59,4.35,1.66,7.79,1.84,12.23,.16,26.44-9.98,57.14-.51,70.21,33.34,1.59,4.13,1.69,8.99,1.78,13.52,1.06,52.59,2.51,105.18,2.75,157.77,.14,30.63-1.95,61.29-8.42,91.36-7.56,35.16-25.41,65.43-46.75,93.74-38.29,50.8-69.87,105.56-96.76,163.06-11.05,23.63-13.56,49.14-13.88,74.93-.04,3.54-.42,7.53-2.08,10.51-3.06,5.48-8.47,7.71-14.69,6.25-6.44-1.51-10.57-5.78-10.78-12.53-1-32.14,3-63.51,16.85-92.89,27.85-59.08,60.42-115.39,99.94-167.55,21.82-28.79,38.86-60.04,43.04-96.49,3.02-26.31,5.45-52.84,5.65-79.28,.32-42.05-1.38-84.12-2.37-126.17-.19-8.18-.88-16.37-1.62-24.52-1.13-12.35-11.87-21.08-24.75-20.76-10.23,.25-21.54,9.48-21.53,22.11,.03,59.46-2.27,118.97-.57,178.37,1.32,46.25-17.86,81-50.68,110.45-18.55,16.64-37.55,32.8-56.03,49.52-8.3,7.51-15.83,15.85-23.7,23.84-6.63,6.73-15.51,7.55-21.3,1.92-5.93-5.76-5.96-14.69,1.07-21.29,24.49-23,49.12-45.86,74.06-68.36,18.17-16.39,34.94-33.61,43.29-57.36,4.75-13.5-2.1-23.92-16.56-25.04-8.92-.69-16.54,2.72-22.37,8.6-41.37,41.73-83,83.23-123.39,125.9-27.25,28.8-40.69,64.6-42.26,103.93-1.68,42.23-1.25,84.55-1.68,126.83-.09,8.92,.29,17.85,0,26.76-.28,8.72-6.29,14.45-14.28,14.32-8.21-.13-13.52-5.88-13.6-14.8-.36-36.36-.94-72.73-.99-109.09-.04-28.85,1.93-57.56,8.68-85.76,8.78-36.69,28.6-67.17,54.34-93.85,36.67-38.02,73.61-75.82,111.38-112.73,16.97-16.59,37.94-23.46,61.77-14.55,1.02,.38,2.12,.54,3.99,1Z"/>
      <path class="cls-1" d="M745.7,691.07c8.06,22.78,5.07,46.06,5.41,68.99,.56,37.04,.03,74.1-.04,111.15,0,2.95,0,5.91,0,9.37,5.32-1.27,10.06-2.82,14.92-3.5,17.99-2.52,33.98,2.81,46.33,15.64,45.05,46.77,89.84,93.8,134.21,141.22,28.14,30.08,40.69,67.08,41.79,107.56,1.41,51.65,1.17,103.34,1.57,155.01,.06,8.05-5.16,13.8-12.63,14.39-7.81,.62-14.66-4.41-14.98-12.64-.77-20.1-.73-40.22-1.04-60.34-.55-34.73-.32-69.5-1.91-104.18-1.39-30.32-12.14-57.72-33.01-80.2-34.55-37.19-69.56-73.95-104.47-110.81-9.9-10.45-19.85-20.9-30.28-30.81-9.12-8.66-20.52-9.75-30.27-4-8.29,4.89-9.5,8.8-6.56,17.94,7.91,24.68,24.42,42.95,43.22,59.81,24.33,21.81,48.28,44.06,72.35,66.17,2.01,1.85,3.91,3.88,5.54,6.07,4.48,6.03,3.85,13.72-1.34,18.69-5.12,4.9-13.11,5.32-18.7,.33-4.93-4.4-9.02-9.74-13.93-14.18-22.36-20.26-44.83-40.41-67.36-60.48-19.21-17.11-35.59-36.41-44.3-60.91-3.54-9.94-6.24-20.78-6.37-31.24-.69-54.88-.38-109.78-.57-164.67-.04-10.74-.63-21.49-1.29-32.21-.7-11.35-8.4-20.29-18.86-22.45-10.03-2.07-20.45,2.39-25.2,11.13-1.26,2.32-2.17,5.11-2.27,7.73-2.55,61.68-6.24,123.35-2.7,185.12,2.22,38.76,6.62,77.21,25.93,111.84,8.75,15.7,18.71,30.97,29.91,45.02,31.57,39.61,60.85,80.51,83.53,126.07,18.59,37.36,27.21,76.37,25.28,117.9-.44,9.43-5.67,15.34-13.94,15.33-8.24,0-14.4-5.77-13.75-14.53,3.98-54.32-16.08-101.57-44.59-145.51-20.24-31.19-43.03-60.77-65.54-90.42-32.5-42.8-49.9-90.65-53.47-144.26-3.79-56.95-2.48-113.81-.23-170.72,.41-10.28,.34-20.58,.41-30.87,.27-37.72,36.1-62.31,71.09-48.43,4.98,1.97,8.74,1.7,13.49-.17,35.53-14.02,72.3,12.82,71.37,50.88-.95,38.63-.44,77.3-.47,115.95,0,6.24-1.94,11.24-7.73,14.13-5.2,2.6-10.98,2.49-14.6-1.71-2.97-3.43-5.2-8.74-5.25-13.25-.4-38.88-.18-77.76-.27-116.64-.03-16.21-11.52-26.23-28.41-24.32Z"/>
    </g>
    <g>
      <path class="cls-1" d="M1359.39,1427.09c0,24.31,.04,48.62-.02,72.93-.02,8.44-4.21,13.22-11.52,13.59-8.92,.45-13.94-4.21-13.96-13.43-.08-33.89-.07-67.78,0-101.66,.02-8.86,4.55-13.41,13.33-13.81,21.09-.96,22.56,.03,28.79,20.13,6.73,21.71,13.37,43.45,20.06,65.18,.48,1.56,1.09,3.08,2.16,6.07,3.4-11.16,6.39-20.95,9.37-30.74,4.85-15.9,9.58-31.84,14.58-47.69,3.43-10.86,6.58-12.68,17.91-13.02,16.18-.49,22.19,1.31,21.74,21.77-.66,30.24-.16,60.5-.15,90.75,0,1.15,0,2.3-.04,3.45-.29,8.47-4.69,13-12.66,13.03-7.98,.03-12.69-4.53-12.82-12.86-.16-10.72-.06-21.44-.06-32.16,0-13.86,0-27.72-1.03-41.75-4.21,13.22-8.43,26.43-12.63,39.65-3.88,12.21-7.68,24.44-11.6,36.63-2.56,7.94-5.82,10.51-12.97,10.53-7.55,.03-10.54-2.37-13.25-10.86-7.73-24.21-15.41-48.43-23.12-72.65-.34-1.06-.77-2.09-1.16-3.13-.31,.03-.61,.06-.92,.1Z"/>
      <path class="cls-1" d="M590.21,1514.06c-15.7-.46-30.87-2.76-42.64-14.01-4.14-3.96-6.84-9.96-8.8-15.51-1.78-5.04,.45-9.98,5.53-12.56,4.98-2.53,10.09-2.19,14.49,1.5,2.02,1.7,3.74,3.84,5.3,6,8.73,12.12,20.71,14.77,34.55,11.98,1.84-.37,3.63-1.21,5.31-2.09,6.17-3.27,9.21-8.38,8.49-14.3-.8-6.59-5.66-9.24-11.23-10.73-9.41-2.52-18.94-4.58-28.34-7.12-5.33-1.44-10.63-3.14-15.73-5.25-24.7-10.19-22.67-43.92-5.81-56.77,19.76-15.06,58.98-13.85,77.2,3.2,2.96,2.77,5.38,6.5,7.01,10.25,2.43,5.6,.72,10.76-3.52,13.82-4.81,3.48-11.58,3.55-16.07-.07-2.07-1.67-3.84-3.73-5.65-5.7-9.4-10.22-21.04-11.65-33.67-8.28-6.13,1.64-9.88,6.59-10.01,11.94-.15,6.45,4.36,9.31,9.44,10.7,12.15,3.33,24.52,5.84,36.7,9.07,18.01,4.77,28.23,16.47,28.56,32.14,.46,21.45-12.21,36.21-34.6,40.01-5.44,.92-10.99,1.2-16.49,1.78Z"/>
      <path class="cls-1" d="M1227.27,1432.69c0,10.91-.16,21.82,.06,32.72,.18,9.13,1.96,17.93,11.41,22.06,10.76,4.71,21.77,4.71,31.77-2,6.85-4.6,8.07-12.29,8.12-19.92,.14-22.01,.03-44.01,.08-66.02,.02-10.72,7.07-16.53,17.65-14.69,6.11,1.06,10.91,6,10.91,12.97,.02,25.24,.5,50.53-.92,75.71-1.17,20.76-14.19,33.99-35.07,38.4-13.81,2.91-27.76,2.87-41.4-1.3-19.78-6.05-30.79-21.09-31.23-43.76-.43-22.38-.2-44.78-.08-67.17,.05-8.42,4.54-13.93,11.47-14.91,7.9-1.12,14.05,1.96,16.34,8.46,.68,1.92,.84,4.1,.86,6.17,.08,11.1,.04,22.2,.04,33.3Z"/>
      <path class="cls-1" d="M926.68,1500.25c-12.12,19.78-47.91,17.94-59.94-6.18-9.06-18.17-9.24-37.14-.13-55.31,11.05-22.03,38.1-26.29,56.58-9.63,.23,.21,.66,.21,1.65,.48,0-11.4-.17-22.6,.06-33.8,.15-7.13,4.9-11.09,12.55-11.14,7.72-.05,12.26,3.78,12.85,10.87,.13,1.52,.06,3.06,.06,4.59,0,33.12,0,66.24,0,99.37,0,9.97-2.75,13.71-10.27,14.08-8.71,.43-12.03-2.7-13.42-13.35Zm-.19-34.43c-.86-4.05-1.49-9.2-3.1-14.03-2.68-8.03-9.37-12.6-17.3-12.66-7.8-.06-14.45,4.65-17.36,12.64-3.08,8.49-3.53,17.22-1.14,25.93,2.75,10.02,10.43,16.22,19.23,15.89,9.23-.35,15.81-6.48,18.05-17.03,.67-3.16,.97-6.4,1.61-10.75Z"/>
      <path class="cls-1" d="M1030.21,1500.39c-10.33,10.12-22.32,13.87-35.97,13.26-13.38-.59-24.98-9.81-26.73-21.7-2.15-14.55,4.38-25.87,18.68-30.02,8.73-2.54,17.97-3.29,27-4.78,2.82-.47,5.68-.71,8.52-1.11,4.01-.57,6.85-2.67,7.44-6.79,.64-4.39-1.67-7.63-5.58-8.99-9.12-3.17-18.06-2.91-26.14,3.14-2.14,1.6-4.02,3.54-6.13,5.19-4.92,3.85-11.19,3.9-15.22,.21-3.86-3.53-4.56-9.52-.39-14.52,3.32-3.99,7.55-7.92,12.22-9.96,17.23-7.56,34.99-7.36,52.44-.66,9.86,3.78,14.75,11.34,14.7,22.3-.07,16.04,.43,32.09,.75,48.13,.03,1.5,.5,3,.87,4.48,1.91,7.7,.28,11.82-5.65,14.21-6.74,2.72-14.88,.22-18.08-5.7-.98-1.82-1.58-3.84-2.72-6.7Zm-1.16-29.77c-9.43,1.86-18.47,3.3-27.33,5.51-6.12,1.53-9.4,6.46-8.69,11.24,.72,4.78,5.29,8.34,11.25,8.93,13.51,1.34,27.92-6.17,24.76-25.67Z"/>
      <path class="cls-1" d="M700.93,1513.61c-22.17-.03-37.15-9.53-43.13-27.35-7.57-22.52-2-46.75,14.41-58.36,16.39-11.59,34.49-12.02,52.25-3.8,16.92,7.83,23.36,22.84,23.6,40.73,.08,5.68-.33,11.52-1.64,17.02-5.03,21.16-20.54,31.79-45.49,31.76Zm22.26-46.41c-.97-5.09-1.45-9.66-2.74-14.01-2.96-10.02-9.51-14.87-19.18-14.78-9.4,.09-15.75,4.9-18.75,14.61-3.08,9.97-2.95,19.95,1.25,29.61,3.25,7.5,8.99,11.58,17.36,11.74,8.65,.16,14.78-3.91,17.97-11.63,2.07-5.02,2.83-10.58,4.09-15.55Z"/>
      <path class="cls-1" d="M792.97,1449.48c0,16.83,.03,33.67-.01,50.5-.02,9.4-4.16,13.7-12.96,13.65-8.46-.04-12.57-4.37-12.58-13.44-.02-34.05-.02-68.1,.02-102.15,0-9.02,4.18-13.35,12.65-13.38,8.59-.03,12.84,4.24,12.87,13.16,.05,17.22,.02,34.43,.02,51.65Z"/>
      <path class="cls-1" d="M1100.84,1437.03c2.57-4.31,4.28-7.69,6.48-10.73,4.35-6.02,10.57-7.96,17.7-6.96,6.35,.89,10.77,6.02,10.88,12.18,.13,7.01-3.59,11.5-10.62,12.73-1.31,.23-2.66,.23-4,.26-11.17,.25-16.12,4.24-16.94,15.61-.95,13.13-.92,26.34-1.15,39.51-.18,10.61-4.25,14.6-14.71,13.98-6.6-.39-10.75-4.3-10.79-10.92-.13-24.09-.13-48.18-.03-72.28,.03-6.94,4.36-11.09,11.07-11.23,7.18-.15,11.61,3.81,12.06,10.87,.12,1.9,.02,3.81,.02,6.98Z"/>
      <path class="cls-1" d="M816.84,1465.88c0-11.48-.07-22.96,.02-34.44,.07-8.54,4.19-12.35,12.98-12.29,8.38,.05,12.47,3.9,12.5,12.2,.08,23.35,.08,46.69,0,70.04-.03,8.52-4.22,12.35-12.98,12.29-8.37-.06-12.43-3.91-12.5-12.19-.1-11.86-.02-23.73-.02-35.59Z"/>
      <path class="cls-1" d="M1150.03,1465.81c0-11.49-.09-22.97,.03-34.46,.09-8.44,4.06-12.2,12.43-12.22,8.89-.02,13,3.69,13.03,12.22,.08,23.35,.09,46.71,0,70.06-.03,8.55-4.22,12.31-13.04,12.25-8.36-.06-12.35-3.85-12.43-12.25-.12-11.87-.03-23.74-.03-35.6Z"/>
      <path class="cls-1" d="M842.37,1397.63c.09,7.75-5.44,13.51-13.07,13.63-7.41,.11-13.52-5.92-13.51-13.34,.01-7.36,5.56-13.04,12.92-13.21,7.79-.19,13.57,5.29,13.66,12.93Z"/>
      <path class="cls-1" d="M1175.55,1397.7c.05,7.7-5.59,13.53-13.13,13.58-7.4,.04-13.44-5.98-13.47-13.41-.03-7.15,5.8-13.05,13.02-13.18,7.74-.14,13.54,5.41,13.59,13.02Z"/>
    </g>
    <g>
      <path class="cls-1" d="M1079.99,649.7l-26.41-15.95-.06-.04c-4.01-2.31-8.47-2.39-12.25-.21-4.02,2.32-6.62,6.82-6.62,11.45,0,4.34,2.28,8.15,6.26,10.45l26.42,15.94,.06,.04c2.07,1.19,4.26,1.79,6.41,1.79,2.02,0,4.01-.53,5.84-1.58,4.01-2.32,6.61-6.81,6.61-11.44,0-4.34-2.28-8.14-6.26-10.45Z"/>
      <path class="cls-1" d="M998.59,578.6c6.92,0,12.55-5.63,12.55-12.55v-31.23c0-6.92-5.63-12.55-12.55-12.55s-12.54,5.63-12.54,12.55v31.23c0,6.92,5.62,12.55,12.54,12.55Z"/>
      <path class="cls-1" d="M993.63,615.28c3.12-5.4,2.58-13.02-4.53-17.12l-56.53-32.04c-7.06-4.07-13.9-.75-17.02,4.64-3.12,5.4-2.57,13.01,4.51,17.1l56.54,32.06c2.19,1.26,4.36,1.82,6.4,1.82,4.55,0,8.48-2.74,10.63-6.46Z"/>
      <path class="cls-1" d="M950.18,633.72l-27.18,15.43c-4,2.31-6.3,6.14-6.3,10.5,0,4.64,2.59,9.13,6.61,11.44,1.82,1.05,3.81,1.58,5.82,1.58,2.15,0,4.33-.6,6.39-1.78l27.17-15.41c7.08-4.09,7.62-11.69,4.5-17.1-3.12-5.4-9.97-8.73-17.01-4.66Z"/>
      <path class="cls-1" d="M998.6,624.88c-6.92,0-12.55,5.63-12.55,12.55v65.05c0,6.92,5.63,12.55,12.55,12.55s12.54-5.63,12.54-12.55v-65.05c0-6.92-5.62-12.55-12.54-12.55Z"/>
      <path class="cls-1" d="M1083.43,577.17c0-4.63-2.59-9.13-6.61-11.44-3.77-2.18-8.24-2.1-12.25,.22l-55.93,32.54c-7.06,4.08-7.61,11.67-4.49,17.06,2.15,3.73,6.09,6.48,10.65,6.48,2.05,0,4.22-.55,6.42-1.82l55.93-32.56c3.99-2.31,6.28-6.13,6.28-10.48Z"/>
    </g>
  </g>
</svg>